<svg width="64" height="64" viewBox="0 0 64 64" fill="none" xmlns="http://www.w3.org/2000/svg">
<path d="M10.666 21.3333C10.666 18.5043 11.7898 15.7912 13.7902 13.7908C15.7906 11.7904 18.5037 10.6666 21.3327 10.6666H42.666C45.495 10.6666 48.2081 11.7904 50.2085 13.7908C52.2089 15.7912 53.3327 18.5043 53.3327 21.3333V42.6666C53.3327 45.4956 52.2089 48.2087 50.2085 50.2091C48.2081 52.2095 45.495 53.3333 42.666 53.3333H21.3327C18.5037 53.3333 15.7906 52.2095 13.7902 50.2091C11.7898 48.2087 10.666 45.4956 10.666 42.6666V21.3333Z" stroke="#FA6400" stroke-width="2" stroke-linecap="round" stroke-linejoin="round"/>
<path d="M44 20V20.0267M24 32C24 34.1217 24.8429 36.1566 26.3431 37.6569C27.8434 39.1571 29.8783 40 32 40C34.1217 40 36.1566 39.1571 37.6569 37.6569C39.1571 36.1566 40 34.1217 40 32C40 29.8783 39.1571 27.8434 37.6569 26.3431C36.1566 24.8429 34.1217 24 32 24C29.8783 24 27.8434 24.8429 26.3431 26.3431C24.8429 27.8434 24 29.8783 24 32Z" stroke="#FA6400" stroke-width="2" stroke-linecap="round" stroke-linejoin="round"/>
</svg>
