<svg width="64" height="64" viewBox="0 0 64 64" fill="none" xmlns="http://www.w3.org/2000/svg">
<path d="M21.3327 29.3333V42.6666M21.3327 21.3333V21.36M31.9993 42.6666V29.3333M10.666 16C10.666 14.5855 11.2279 13.2289 12.2281 12.2287C13.2283 11.2285 14.5849 10.6666 15.9993 10.6666H47.9994C49.4138 10.6666 50.7704 11.2285 51.7706 12.2287C52.7708 13.2289 53.3327 14.5855 53.3327 16V48C53.3327 49.4144 52.7708 50.771 51.7706 51.7712C50.7704 52.7714 49.4138 53.3333 47.9994 53.3333H15.9993C14.5849 53.3333 13.2283 52.7714 12.2281 51.7712C11.2279 50.771 10.666 49.4144 10.666 48V16Z" stroke="#FA6400" stroke-width="2" stroke-linecap="round" stroke-linejoin="round"/>
<path d="M42.6667 42.6666V34.6666C42.6667 33.2521 42.1048 31.8955 41.1046 30.8954C40.1044 29.8952 38.7478 29.3333 37.3333 29.3333C35.9188 29.3333 34.5623 29.8952 33.5621 30.8954C32.5619 31.8955 32 33.2521 32 34.6666" stroke="#FA6400" stroke-width="2" stroke-linecap="round" stroke-linejoin="round"/>
</svg>
