<svg width="64" height="64" viewBox="0 0 64 64" fill="none" xmlns="http://www.w3.org/2000/svg">
<path d="M10.666 16C10.666 14.5855 11.2279 13.2289 12.2281 12.2287C13.2283 11.2285 14.5849 10.6666 15.9993 10.6666H47.9994C49.4138 10.6666 50.7704 11.2285 51.7706 12.2287C52.7708 13.2289 53.3327 14.5855 53.3327 16V48C53.3327 49.4144 52.7708 50.771 51.7706 51.7712C50.7704 52.7714 49.4138 53.3333 47.9994 53.3333H15.9993C14.5849 53.3333 13.2283 52.7714 12.2281 51.7712C11.2279 50.771 10.666 49.4144 10.666 48V16Z" stroke="#FA6400" stroke-width="2" stroke-linecap="round" stroke-linejoin="round"/>
<path d="M21.332 24H23.9987M23.9987 24L31.9987 32L39.9987 24M23.9987 24V40M39.9987 24H42.6654M39.9987 24V40M21.332 40H26.6654M37.332 40H42.6654" stroke="#FA6400" stroke-width="2" stroke-linecap="round" stroke-linejoin="round"/>
</svg>
