<svg width="64" height="64" viewBox="0 0 64 64" fill="none" xmlns="http://www.w3.org/2000/svg">
<path d="M58.6673 10.6934C56.0006 12 53.3873 12.5307 50.6673 13.3334C47.678 9.96004 43.246 9.77337 38.9873 11.368C34.7286 12.9627 31.9393 16.8614 32.0006 21.3334V24C23.3473 24.2214 15.6407 20.28 10.6673 13.3334C10.6673 13.3334 -0.484682 33.1547 21.334 42.6667C16.342 45.992 11.3633 48.2347 5.33398 48C14.1553 52.808 23.7687 54.4614 32.0913 52.0454C41.638 49.272 49.4833 42.1174 52.494 31.4C53.3921 28.1405 53.838 24.773 53.8193 21.392C53.8193 20.728 57.846 14 58.6673 10.6907V10.6934Z" stroke="#FA6400" stroke-width="2" stroke-linecap="round" stroke-linejoin="round"/>
</svg>
