<svg width="64" height="64" viewBox="0 0 64 64" fill="none" xmlns="http://www.w3.org/2000/svg">
<path d="M8 24C8 21.1711 9.12381 18.458 11.1242 16.4576C13.1246 14.4572 15.8377 13.3334 18.6667 13.3334H45.3333C48.1623 13.3334 50.8754 14.4572 52.8758 16.4576C54.8762 18.458 56 21.1711 56 24V40C56 42.829 54.8762 45.5421 52.8758 47.5425C50.8754 49.5429 48.1623 50.6667 45.3333 50.6667H18.6667C15.8377 50.6667 13.1246 49.5429 11.1242 47.5425C9.12381 45.5421 8 42.829 8 40V24Z" stroke="#FA6400" stroke-width="2" stroke-linecap="round" stroke-linejoin="round"/>
<path d="M26.666 24L39.9993 32L26.666 40V24Z" stroke="#FA6400" stroke-width="2" stroke-linecap="round" stroke-linejoin="round"/>
</svg>
