<svg width="389" height="196" viewBox="0 0 389 196" fill="none" xmlns="http://www.w3.org/2000/svg">
<g filter="url(#filter0_d_2159_1739)">
<path d="M61.392 28.384L60.832 27.264L61.168 26.256V23.68H14.464V37.568H31.376V68.592L30.256 71.28L30.704 71.84L31.6 81.808L31.152 82.48L31.376 83.488V107.12L33.504 107.232L35.52 106.336L44.368 107.12V37.568H61.392V28.384ZM126.881 40.032V24.8L127.217 23.568L126.209 22.224H84.7691L84.5451 23.904V35.888L84.0971 46.08L85.4411 63.44V100.848L85.1051 104.432H96.9771L96.6411 101.408V94.576L97.7611 90.432L96.7531 88.976L97.7611 88.304L97.0891 84.496L97.4251 83.488V82.256L96.7531 79.792L97.4251 78.224L96.4171 54.816L97.6491 54.256L99.4411 54.592H103.025L104.593 54.256L116.577 104.992H126.881L123.073 86.288L123.409 84.944L118.929 64.112L118.481 63.776L117.137 54.592L127.105 53.808V42.384L127.553 40.48L126.881 40.032ZM114.897 40.928L96.1931 40.48V35.216H114.897L115.121 37.792L114.897 40.928ZM194.498 99.056L193.826 91.888L193.378 90.656L193.938 89.76V89.2L192.818 87.072L192.594 83.152L191.922 79.12L189.682 70.72L190.018 69.824L188.562 64.448L187.106 55.824L186.098 54.48L183.746 42.944L182.962 43.056L183.186 40.592L181.842 38.352V33.76L181.282 33.312L180.162 31.072L179.266 28.16L178.818 23.904L163.25 23.232L162.578 28.384L161.458 30.512V33.76L160.674 34.656V39.36L159.554 42.832L154.626 68.928L150.37 104.208L161.458 105.216L161.906 101.296L163.698 94.016L164.93 90.768L166.05 92.224L174.338 91.888L177.138 92.112L180.722 91.216L180.162 92.896L182.178 96.144L181.618 96.704V97.6L182.514 98.16L182.29 102.416L184.642 104.88L186.098 104.656L192.034 105.552H194.498L194.946 105.104L194.498 99.056ZM178.258 77.888L169.298 78.448L166.946 78.896L167.954 75.312L169.746 71.392V70.72H168.738L171.65 44.176H172.994L178.258 77.888ZM240.981 23.792V28.16L234.037 64.672L229.781 92.448L217.909 23.456H208.277L208.837 29.616L211.077 40.256L210.853 43.504L213.429 58.4L213.317 59.632L218.581 88.416L218.021 89.2L219.253 93.344L220.709 101.856L220.933 106.112H238.293L242.661 85.728V82.032L246.021 67.808L246.693 66.912L252.629 22.896L240.981 23.792ZM315.886 94.24H287.998L287.55 89.424L287.886 85.84V76.656L286.542 69.376H306.814L306.254 61.424L306.702 60.976L306.478 56.16L299.198 56.944H287.998L287.102 56.16V48.432L286.542 44.176V36.336L287.214 35.664L291.806 35.44H313.31L315.102 36.224V24.352L312.75 23.456H274.558L275.566 23.904V97.04L276.462 100.96V106H304.462L308.83 105.328L309.838 106L311.518 105.664L315.886 105.888V94.24ZM375.068 88.976L348.636 91.328L347.74 90.544L348.524 72.736V49.776L347.18 22.896H334.188L335.084 24.24V104.544H375.068V88.976Z" fill="white"/>
</g>
<mask id="path-2-inside-1_2159_1739" fill="white">
<path fill-rule="evenodd" clip-rule="evenodd" d="M381.647 126H18.9059L5.77441 141.877L0 163.259L17.9648 151.041L0 171.405L16.6816 167.332L4.49121 180.568L15.3984 187.695L7.54884 196H370.237L383 180.568L388.774 159.186L370.81 171.405L388.774 151.041L372.093 155.114L384.283 141.877L373.376 134.75L381.647 126ZM371.003 196H380.543L388.774 185.659L371.003 196ZM8.58563 126H18.5372L0 136.786L8.58563 126Z"/>
</mask>
<path fill-rule="evenodd" clip-rule="evenodd" d="M381.647 126H18.9059L5.77441 141.877L0 163.259L17.9648 151.041L0 171.405L16.6816 167.332L4.49121 180.568L15.3984 187.695L7.54884 196H370.237L383 180.568L388.774 159.186L370.81 171.405L388.774 151.041L372.093 155.114L384.283 141.877L373.376 134.75L381.647 126ZM371.003 196H380.543L388.774 185.659L371.003 196ZM8.58563 126H18.5372L0 136.786L8.58563 126Z" fill="url(#paint0_linear_2159_1739)"/>
<path d="M381.647 126L383.1 127.374L386.289 124H381.647V126ZM18.9059 126V124H17.9647L17.3647 124.725L18.9059 126ZM5.77441 141.877L4.23323 140.603L3.95671 140.937L3.84358 141.356L5.77441 141.877ZM0 163.259L-1.93083 162.738L-3.33795 167.948L1.12475 164.913L0 163.259ZM17.9648 151.041L19.4646 152.364L16.8401 149.387L17.9648 151.041ZM0 171.405L-1.49979 170.081L-5.71397 174.858L0.474356 173.347L0 171.405ZM16.6816 167.332L18.1528 168.687L22.6354 163.819L16.2073 165.389L16.6816 167.332ZM4.49121 180.568L3.02007 179.213L1.42011 180.951L3.39718 182.242L4.49121 180.568ZM15.3984 187.695L16.8519 189.069L18.4957 187.33L16.4925 186.021L15.3984 187.695ZM7.54884 196L6.09537 194.626L2.90636 198H7.54884V196ZM370.237 196V198H371.178L371.778 197.275L370.237 196ZM383 180.568L384.541 181.843L384.818 181.509L384.931 181.09L383 180.568ZM388.774 159.186L390.705 159.708L392.112 154.497L387.65 157.533L388.774 159.186ZM370.81 171.405L369.31 170.081L371.934 173.058L370.81 171.405ZM388.774 151.041L390.274 152.364L394.488 147.587L388.3 149.098L388.774 151.041ZM372.093 155.114L370.622 153.759L366.139 158.626L372.567 157.057L372.093 155.114ZM384.283 141.877L385.754 143.232L387.354 141.495L385.377 140.203L384.283 141.877ZM373.376 134.75L371.923 133.376L370.279 135.115L372.282 136.424L373.376 134.75ZM371.003 196L369.997 194.271L363.589 198H371.003V196ZM380.543 196V198H381.508L382.108 197.246L380.543 196ZM388.774 185.659L390.339 186.905L387.769 183.93L388.774 185.659ZM18.5372 126L19.543 127.729L25.951 124H18.5372V126ZM8.58563 126V124H7.62135L7.02082 124.754L8.58563 126ZM0 136.786L-1.56481 135.541L1.00586 138.515L0 136.786ZM381.647 124H18.9059V128H381.647V124ZM17.3647 124.725L4.23323 140.603L7.3156 143.152L20.4471 127.275L17.3647 124.725ZM3.84358 141.356L-1.93083 162.738L1.93083 163.781L7.70524 142.399L3.84358 141.356ZM1.12475 164.913L19.0896 152.695L16.8401 149.387L-1.12475 161.605L1.12475 164.913ZM16.465 149.718L-1.49979 170.081L1.49979 172.728L19.4646 152.364L16.465 149.718ZM0.474356 173.347L17.156 169.275L16.2073 165.389L-0.474356 169.462L0.474356 173.347ZM15.2105 165.977L3.02007 179.213L5.96235 181.923L18.1528 168.687L15.2105 165.977ZM3.39718 182.242L14.3044 189.37L16.4925 186.021L5.58524 178.894L3.39718 182.242ZM13.945 186.322L6.09537 194.626L9.0023 197.374L16.8519 189.069L13.945 186.322ZM7.54884 198H370.237V194H7.54884V198ZM371.778 197.275L384.541 181.843L381.459 179.294L368.696 194.725L371.778 197.275ZM384.931 181.09L390.705 159.708L386.844 158.665L381.069 180.047L384.931 181.09ZM387.65 157.533L369.685 169.751L371.934 173.058L389.899 160.84L387.65 157.533ZM372.309 172.728L390.274 152.364L387.275 149.718L369.31 170.081L372.309 172.728ZM388.3 149.098L371.618 153.171L372.567 157.057L389.249 152.984L388.3 149.098ZM373.564 156.469L385.754 143.232L382.812 140.522L370.622 153.759L373.564 156.469ZM385.377 140.203L374.47 133.076L372.282 136.424L383.189 143.552L385.377 140.203ZM374.829 136.124L383.1 127.374L380.193 124.626L371.923 133.376L374.829 136.124ZM371.003 198H380.543V194H371.003V198ZM382.108 197.246L390.339 186.905L387.21 184.414L378.979 194.754L382.108 197.246ZM387.769 183.93L369.997 194.271L372.009 197.729L389.78 187.388L387.769 183.93ZM18.5372 124H8.58563V128H18.5372V124ZM1.00586 138.515L19.543 127.729L17.5313 124.271L-1.00586 135.058L1.00586 138.515ZM7.02082 124.754L-1.56481 135.541L1.56481 138.032L10.1504 127.246L7.02082 124.754Z" fill="url(#paint1_linear_2159_1739)" mask="url(#path-2-inside-1_2159_1739)"/>
<g filter="url(#filter1_d_2159_1739)">
<path d="M62.1258 145.76V170.24L61.7658 170.72H55.6858L56.0058 165.04L56.1658 164.84L55.6858 158.92V145.76H51.7258V166.96L51.2458 170.32L51.4058 170.8V175.12L54.6458 174.88H66.8458V147.6L67.1258 145.76H62.1258ZM99.9892 163.52V156.52L99.6692 156.04L99.9092 155.44L99.5892 155.12V145.4H95.3892V149.36L95.0692 149.64L95.3892 149.84V153.64L95.1892 153.88L95.8692 160.84V162.92L95.5492 162.48L92.2692 154.24L92.3892 154L91.7092 152.64L91.9092 152.4L91.4692 152.16L90.2292 148.92L89.6692 148.36L88.8692 145.2L87.9492 145.4L87.4692 145.2L87.2692 145.4H84.1892L84.3892 146.6V163.64L84.1892 164.44L84.8692 171.6L84.6292 171.84L85.0692 174.36H88.9892V156.16L96.2292 174.48H99.7492L99.5892 173.32V171.08L99.9092 170.96V164.8L100.029 164.64L99.9892 163.52ZM121.863 147.2L121.463 145.96L120.743 144.96L119.823 144.36H118.903L117.943 144.88L117.103 145.68L116.503 146.6V147L117.543 152.24L120.823 152.56L121.823 148.28L121.863 147.8V147.2ZM152.89 162.04L148.85 163.08V170.04H143.73L142.41 169.84L142.53 168.24L142.29 168.12V167.44L142.53 166.76L142.21 166.44L142.41 166.24V157.32L142.65 156.76L142.09 150.92V148.8H148.33V150.6L148.17 151.28V156.36L149.01 156.6H149.45L150.17 156.4L150.37 156.72L150.73 156.68L151.45 157.04L152.49 157.2V146.28L152.73 145.36L152.01 144.68L151.29 144.8H138.13V151.52L137.85 151.76L138.33 152.32V156.24L137.93 157.6V161.44L138.17 162.16L137.97 164.24L138.13 165.04V168.4L138.45 172.32L138.69 174.04L140.37 173.96H149.05L152.61 174.28L152.89 174V162.04ZM187.065 174.8L186.985 174.16L186.705 173.52L186.905 168.64V160.68L186.425 150.24L185.985 145.64L186.065 144.64L185.825 144.08L182.585 144.36L180.945 144.28L181.105 145.8V152.36L181.545 155V156L181.185 156.52H175.665L174.905 144.44H169.905V154.8L171.025 174.8H175.305L176.025 175.08L175.505 162.16L175.985 161.8H180.785L181.585 173.32L181.385 174.2L180.945 174.8H187.065ZM218.87 172.52L218.63 169.96L218.47 169.52L218.67 169.2V169L218.27 168.24L218.19 166.84L217.95 165.4L217.15 162.4L217.27 162.08L216.75 160.16L216.23 157.08L215.87 156.6L215.03 152.48L214.75 152.52L214.83 151.64L214.35 150.84V149.2L214.15 149.04L213.75 148.24L213.43 147.2L213.27 145.68L207.71 145.44L207.47 147.28L207.07 148.04V149.2L206.79 149.52V151.2L206.39 152.44L204.63 161.76L203.11 174.36L207.07 174.72L207.23 173.32L207.87 170.72L208.31 169.56L208.71 170.08L211.67 169.96L212.67 170.04L213.95 169.72L213.75 170.32L214.47 171.48L214.27 171.68V172L214.59 172.2L214.51 173.72L215.35 174.6L215.87 174.52L217.99 174.84H218.87L219.03 174.68L218.87 172.52ZM213.07 164.96L209.87 165.16L209.03 165.32L209.39 164.04L210.03 162.64V162.4H209.67L210.71 152.92H211.19L213.07 164.96ZM236.316 145.48L235.556 145.88L235.916 146V174.72L240.756 175.36L241.116 171.12V145.48H236.316ZM274.627 155.12L274.867 155V154.6L274.707 154.44L274.387 151.44V150.28L273.907 145.28H269.707L269.347 146.24L270.067 162.96L269.867 162.76L267.667 156.4L266.307 153.56L266.267 153.08L265.827 152.12L265.907 151.96L265.667 151.8L262.667 145.16L261.987 145.4H259.947L258.947 145.2L258.467 149.64V155.24L259.147 174.16L259.747 174.28H260.627L260.947 174.16L261.147 174.36H262.707L263.387 174.16L263.707 165.08L263.587 164.8L263.627 164.48L263.307 162.08L263.507 160.92L263.267 160.36V157.56L264.107 160.24L266.307 165.96L268.347 170.72L269.827 173.8L269.707 174.16L269.947 174.64H274.507L274.667 170.08L274.867 169.28L275.187 168.88L274.867 168.72V168.28L275.147 168.16L274.867 167.72L275.107 163.68L274.987 163.56L275.187 162.96L275.027 162.8L274.627 155.12ZM306.481 167.96L303.601 168.44L302.641 168.72H296.121L295.641 168.48V165L295.441 164.6V163.48L295.641 162.08L295.801 161.68L302.401 161.32V160.48L302.121 159.92L302.401 158.8V157.16L299.721 156.6L298.281 156.44L295.801 156.6L295.321 151.48L295.761 151.24L295.801 150.52L296.121 150.32L303.001 149.96H305.801L305.321 147.88L305.441 147.48V145.6L305.281 145.12H291.361V149.56L291.041 149.96L291.561 150.8V160.52L292.201 173.68H306.121L306.001 171.92L306.481 167.96ZM338.214 149.2L336.134 146.6L335.414 145.44L321.854 144.72L322.014 146.84V149.16L321.854 149.6L322.134 149.72L324.574 149.52L324.774 150.4V170.16L323.414 170.24L322.854 169.92L322.374 170.08L322.094 170.04L322.334 172.08V174.4L322.094 174.56H332.574L335.774 174.72L336.654 173.32L337.894 171.68L338.214 171.4V149.2ZM331.734 170.48H329.174V152L328.894 149.48H333.534L333.134 154.72V157.56L333.574 161.56L333.214 161.68L333.454 163.32L334.014 170.32L331.734 170.48Z" fill="white"/>
</g>
<defs>
<filter id="filter0_d_2159_1739" x="14.4639" y="22.224" width="360.604" height="89.008" filterUnits="userSpaceOnUse" color-interpolation-filters="sRGB">
<feFlood flood-opacity="0" result="BackgroundImageFix"/>
<feColorMatrix in="SourceAlpha" type="matrix" values="0 0 0 0 0 0 0 0 0 0 0 0 0 0 0 0 0 0 127 0" result="hardAlpha"/>
<feOffset dy="4"/>
<feComposite in2="hardAlpha" operator="out"/>
<feColorMatrix type="matrix" values="0 0 0 0 0 0 0 0 0 0 0 0 0 0 0 0 0 0 0.33 0"/>
<feBlend mode="normal" in2="BackgroundImageFix" result="effect1_dropShadow_2159_1739"/>
<feBlend mode="normal" in="SourceGraphic" in2="effect1_dropShadow_2159_1739" result="shape"/>
</filter>
<filter id="filter1_d_2159_1739" x="51.2456" y="144.08" width="286.969" height="35.28" filterUnits="userSpaceOnUse" color-interpolation-filters="sRGB">
<feFlood flood-opacity="0" result="BackgroundImageFix"/>
<feColorMatrix in="SourceAlpha" type="matrix" values="0 0 0 0 0 0 0 0 0 0 0 0 0 0 0 0 0 0 127 0" result="hardAlpha"/>
<feOffset dy="4"/>
<feComposite in2="hardAlpha" operator="out"/>
<feColorMatrix type="matrix" values="0 0 0 0 0 0 0 0 0 0 0 0 0 0 0 0 0 0 0.33 0"/>
<feBlend mode="normal" in2="BackgroundImageFix" result="effect1_dropShadow_2159_1739"/>
<feBlend mode="normal" in="SourceGraphic" in2="effect1_dropShadow_2159_1739" result="shape"/>
</filter>
<linearGradient id="paint0_linear_2159_1739" x1="388.774" y1="196" x2="364.359" y2="60.3962" gradientUnits="userSpaceOnUse">
<stop stop-color="#FF8235"/>
<stop offset="0.507089" stop-color="#141A18"/>
<stop offset="1" stop-color="#30E8BF"/>
</linearGradient>
<linearGradient id="paint1_linear_2159_1739" x1="0" y1="126" x2="24.4159" y2="261.604" gradientUnits="userSpaceOnUse">
<stop offset="0.166369" stop-color="#30E8BF"/>
<stop offset="0.83689" stop-color="#FF8235"/>
</linearGradient>
</defs>
</svg>
