<svg width="304" height="72" viewBox="0 0 304 72" fill="none" xmlns="http://www.w3.org/2000/svg">
<g clip-path="url(#clip0_1479_50)">
<path fill-rule="evenodd" clip-rule="evenodd" d="M31.1585 0.292882C25.2274 1.05557 19.7511 3.27115 15.0981 6.57125L28.4559 32.8639C29.3359 32.7328 30.2367 32.6196 31.1585 32.5258V0.292882ZM11.2313 9.74018C7.89528 12.8864 5.16405 16.667 3.23053 20.8892L21.0467 34.5146C21.6539 34.3288 22.2768 34.1525 22.916 33.9864C23.102 33.9381 23.2891 33.8906 23.4773 33.8441L11.2313 9.74018ZM1.4443 25.67C0.504297 28.8712 0 32.2588 0 35.7641C0 40.2645 0.83117 44.5705 2.34837 48.5374C4.80491 44.3368 8.86727 39.8001 15.6981 36.5711L1.4443 25.67ZM5.03603 54.0743C11.2785 64.5284 22.7042 71.5294 35.7652 71.5294C38.5775 71.5294 41.3139 71.2048 43.9391 70.591C40.6398 67.2987 38.4701 63.9264 37.4805 60.5555C36.1335 55.9666 37.0493 51.6135 39.8369 47.9771C42.5569 44.4286 46.9534 41.6823 52.4464 39.8192C53.7348 39.3822 55.0926 38.9906 56.5157 38.6468C52.8931 38.1626 49.3671 37.796 46.4086 37.5384C44.9955 37.4154 43.7231 37.3181 42.6454 37.2454C41.7564 37.1853 40.8853 37.142 40.032 37.1147C38.5966 37.0688 37.2109 37.0679 35.8736 37.1082C35.1545 37.1298 34.4493 37.1634 33.758 37.2083C33.2294 37.2426 32.7088 37.2835 32.1962 37.3306C31.0496 37.4363 29.9424 37.5734 28.8734 37.7391C28.4183 37.8098 27.9701 37.8854 27.5288 37.9661C26.3529 38.1812 25.2252 38.4313 24.1439 38.7123C23.1698 38.9652 22.2448 39.2429 21.3658 39.542C11.3514 42.9492 7.02795 49.2547 5.03603 54.0743ZM49.2773 68.889C60.5398 64.29 68.9328 54.1141 71.0243 41.793C64.3268 41.9279 58.5915 42.8908 54.0147 44.4431C49.0764 46.1181 45.6483 48.4216 43.712 50.9476C41.8429 53.3858 41.2707 56.1319 42.1655 59.1802C43.0078 62.0499 45.2095 65.3602 49.2773 68.889ZM71.5234 36.4773C71.5281 36.2402 71.5303 36.0024 71.5303 35.7641C71.5303 31.2353 70.6886 26.903 69.153 22.9153L53.5972 33.3618C59.4864 34.0473 66.1811 35.0639 71.5234 36.4773ZM67.0612 18.4386C64.6114 14.0229 61.2543 10.1802 57.2415 7.16236L44.028 32.4483C44.6346 32.4929 45.2848 32.5438 45.972 32.601L67.0612 18.4386ZM53.1291 4.48948C48.0626 1.67042 42.2396 0.0468544 36.0412 0V32.219C36.8941 32.1972 37.7631 32.191 38.6481 32.2011L53.1291 4.48948Z" fill="url(#paint0_linear_1479_50)"/>
<path d="M105.364 29.3807C103.951 29.3807 102.655 29.1304 101.475 28.6297C100.294 28.1111 99.266 27.3958 98.3898 26.4838C97.5315 25.5539 96.8609 24.4631 96.378 23.2113C95.8952 21.9595 95.6538 20.5826 95.6538 19.0805C95.6538 17.5784 95.8952 16.2014 96.378 14.9497C96.8609 13.6979 97.5315 12.6071 98.3898 11.6772C99.266 10.7473 100.294 10.032 101.475 9.5313C102.655 9.01271 103.951 8.75342 105.364 8.75342C106.723 8.75342 107.939 8.99483 109.012 9.47765C110.103 9.96048 111.015 10.5864 111.748 11.3553C112.499 12.1064 113.035 12.9021 113.357 13.7426L111.346 14.6278C110.845 13.4654 110.076 12.5355 109.039 11.8381C108.019 11.1228 106.795 10.7652 105.364 10.7652C103.898 10.7652 102.592 11.1139 101.448 11.8113C100.303 12.5087 99.4091 13.4833 98.7653 14.7351C98.1216 15.9689 97.7997 17.4174 97.7997 19.0805C97.7997 20.7257 98.1216 22.1741 98.7653 23.4259C99.4091 24.6777 100.303 25.6522 101.448 26.3497C102.592 27.0292 103.898 27.3689 105.364 27.3689C106.795 27.3689 108.019 27.0202 109.039 26.3228C110.076 25.6254 110.845 24.6955 111.346 23.5332L113.357 24.4184C113.035 25.2409 112.499 26.0367 111.748 26.8057C111.015 27.5567 110.103 28.1737 109.012 28.6565C107.939 29.1393 106.723 29.3807 105.364 29.3807ZM120.506 29.3807C119.594 29.3807 118.78 29.2108 118.065 28.8711C117.35 28.5134 116.786 28.0306 116.375 27.4226C115.964 26.8146 115.758 26.1172 115.758 25.3304C115.758 24.2217 116.125 23.256 116.858 22.4334C117.591 21.6108 118.753 21.0654 120.345 20.7972L125.549 19.9388V19.1878C125.549 18.3294 125.236 17.632 124.61 17.0955C123.984 16.5591 123.17 16.2908 122.169 16.2908C121.293 16.2908 120.524 16.5144 119.862 16.9614C119.2 17.3906 118.709 17.9539 118.387 18.6513L116.563 17.6588C116.831 17.0508 117.251 16.4965 117.823 15.9958C118.414 15.4951 119.084 15.1017 119.835 14.8155C120.586 14.5115 121.364 14.3595 122.169 14.3595C123.224 14.3595 124.154 14.5652 124.959 14.9765C125.781 15.3878 126.416 15.96 126.863 16.6932C127.328 17.4085 127.56 18.24 127.56 19.1878V29.0588H125.549V26.9934C125.084 27.6908 124.404 28.2631 123.51 28.7101C122.616 29.1572 121.615 29.3807 120.506 29.3807ZM117.904 25.2499C117.904 25.8937 118.154 26.4391 118.655 26.8861C119.174 27.3332 119.835 27.5567 120.64 27.5567C121.623 27.5567 122.482 27.3511 123.215 26.9398C123.948 26.5106 124.52 25.9384 124.932 25.2231C125.343 24.5078 125.549 23.712 125.549 22.8358V21.7628L120.828 22.5407C119.791 22.7195 119.039 23.0504 118.575 23.5332C118.127 24.016 117.904 24.5882 117.904 25.2499ZM131.403 29.0588V14.6814H133.415V16.4518C133.844 15.7901 134.407 15.2805 135.105 14.9228C135.82 14.5473 136.589 14.3595 137.411 14.3595C138.395 14.3595 139.298 14.6099 140.121 15.1106C140.943 15.6113 141.578 16.2729 142.025 17.0955C142.454 16.2014 143.071 15.5219 143.876 15.0569C144.698 14.592 145.593 14.3595 146.558 14.3595C147.524 14.3595 148.409 14.592 149.214 15.0569C150.036 15.5219 150.689 16.1657 151.172 16.9882C151.673 17.7929 151.923 18.7049 151.923 19.7242V29.0588H149.911V20.5021C149.911 19.1967 149.571 18.1864 148.892 17.4711C148.212 16.7379 147.354 16.3713 146.317 16.3713C145.28 16.3713 144.412 16.7379 143.715 17.4711C143.017 18.2042 142.669 19.2146 142.669 20.5021V29.0588H140.657V20.5021C140.657 19.1967 140.317 18.1864 139.638 17.4711C138.958 16.7379 138.1 16.3713 137.063 16.3713C136.025 16.3713 135.158 16.7379 134.461 17.4711C133.763 18.2042 133.415 19.2146 133.415 20.5021V29.0588H131.403ZM155.469 12.0259V9.0753H157.481V12.0259H155.469ZM155.469 29.0588V14.6814H157.481V29.0588H155.469ZM161.303 29.0588V14.6814H163.315V16.4518C163.744 15.808 164.316 15.2984 165.032 14.9228C165.747 14.5473 166.552 14.3595 167.446 14.3595C168.465 14.3595 169.377 14.592 170.182 15.0569C171.004 15.5219 171.648 16.1657 172.113 16.9882C172.596 17.7929 172.837 18.7049 172.837 19.7242V29.0588H170.826V20.5021C170.826 19.1967 170.477 18.1864 169.78 17.4711C169.1 16.7379 168.206 16.3713 167.097 16.3713C166.006 16.3713 165.103 16.7379 164.388 17.4711C163.673 18.2042 163.315 19.2146 163.315 20.5021V29.0588H161.303ZM183.118 29.3807C181.758 29.3807 180.525 29.0588 179.416 28.4151C178.307 27.7534 177.422 26.8593 176.76 25.7327C176.117 24.5882 175.795 23.2918 175.795 21.8433C175.795 20.4127 176.117 19.1341 176.76 18.0075C177.404 16.8809 178.271 15.9958 179.362 15.352C180.471 14.6904 181.723 14.3595 183.118 14.3595C184.512 14.3595 185.755 14.6814 186.846 15.3252C187.955 15.9689 188.822 16.8541 189.448 17.9807C190.092 19.1073 190.414 20.3948 190.414 21.8433C190.414 23.3097 190.083 24.6151 189.421 25.7595C188.759 26.8861 187.874 27.7713 186.766 28.4151C185.675 29.0588 184.459 29.3807 183.118 29.3807ZM183.118 27.3689C184.083 27.3689 184.95 27.1275 185.719 26.6447C186.506 26.1619 187.123 25.5002 187.57 24.6598C188.035 23.8193 188.268 22.8805 188.268 21.8433C188.268 20.8061 188.035 19.8762 187.57 19.0537C187.123 18.2311 186.506 17.5784 185.719 17.0955C184.95 16.6127 184.083 16.3713 183.118 16.3713C182.152 16.3713 181.276 16.6127 180.489 17.0955C179.72 17.5784 179.103 18.2311 178.638 19.0537C178.173 19.8762 177.941 20.8061 177.941 21.8433C177.941 22.8805 178.173 23.8193 178.638 24.6598C179.103 25.5002 179.72 26.1619 180.489 26.6447C181.276 27.1275 182.152 27.3689 183.118 27.3689ZM198.225 29.0588V9.0753H200.102L211.1 24.8475V9.0753H213.246V29.0588H211.368L200.371 13.1793V29.0588H198.225ZM223.931 29.3807C222.589 29.3807 221.373 29.0588 220.283 28.4151C219.21 27.7534 218.36 26.8504 217.734 25.7059C217.109 24.5614 216.796 23.2649 216.796 21.8165C216.796 20.368 217.1 19.0894 217.708 17.9807C218.316 16.8541 219.138 15.9689 220.175 15.3252C221.23 14.6814 222.411 14.3595 223.716 14.3595C224.753 14.3595 225.674 14.5562 226.479 14.9497C227.301 15.3252 227.999 15.8438 228.571 16.5054C229.143 17.1492 229.581 17.8824 229.885 18.7049C230.189 19.5097 230.341 20.3412 230.341 21.1995C230.341 21.3784 230.333 21.584 230.315 21.8165C230.297 22.0311 230.27 22.2546 230.234 22.4871H218.915C218.95 23.5242 219.201 24.4184 219.666 25.1694C220.149 25.9026 220.765 26.4748 221.517 26.8861C222.268 27.2974 223.072 27.5031 223.931 27.5031C224.986 27.5031 225.871 27.2527 226.586 26.752C227.301 26.2513 227.883 25.6254 228.33 24.8744L230.046 25.7864C229.76 26.4301 229.322 27.0292 228.732 27.5835C228.142 28.12 227.436 28.5581 226.613 28.8979C225.808 29.2198 224.914 29.3807 223.931 29.3807ZM223.716 16.2372C222.929 16.2372 222.196 16.416 221.517 16.7737C220.837 17.1313 220.265 17.6409 219.8 18.3026C219.353 18.9464 219.076 19.7153 218.968 20.6094H228.169C228.151 19.7511 227.936 19 227.525 18.3562C227.132 17.6946 226.595 17.176 225.916 16.8005C225.254 16.4249 224.521 16.2372 223.716 16.2372ZM239.092 29.2198C237.804 29.2198 236.812 28.8442 236.114 28.0932C235.417 27.3421 235.068 26.2692 235.068 24.8744V16.6932H232.412V14.6814H233.083C233.691 14.6814 234.174 14.4847 234.532 14.0913C234.889 13.68 235.068 13.1704 235.068 12.5624V11.3553H237.08V14.6814H240.245V16.6932H237.08V24.8744C237.08 25.5897 237.25 26.1798 237.589 26.6447C237.929 27.1097 238.546 27.3421 239.44 27.3421C239.583 27.3421 239.753 27.3332 239.95 27.3153C240.147 27.2974 240.316 27.2795 240.46 27.2617V29.0588C240.245 29.1125 240.004 29.1482 239.735 29.1661C239.467 29.2019 239.252 29.2198 239.092 29.2198ZM246.863 29.0588L241.927 14.6814H244.207L247.882 25.9741L251.315 14.6814H253.327L256.787 25.9741L260.462 14.6814H262.715L257.78 29.0588H255.768L252.335 17.6857L248.874 29.0588H246.863ZM271.248 29.3807C269.889 29.3807 268.656 29.0588 267.547 28.4151C266.438 27.7534 265.553 26.8593 264.891 25.7327C264.248 24.5882 263.926 23.2918 263.926 21.8433C263.926 20.4127 264.248 19.1341 264.891 18.0075C265.535 16.8809 266.402 15.9958 267.493 15.352C268.602 14.6904 269.854 14.3595 271.248 14.3595C272.643 14.3595 273.886 14.6814 274.977 15.3252C276.086 15.9689 276.953 16.8541 277.579 17.9807C278.223 19.1073 278.544 20.3948 278.544 21.8433C278.544 23.3097 278.214 24.6151 277.552 25.7595C276.89 26.8861 276.005 27.7713 274.896 28.4151C273.806 29.0588 272.59 29.3807 271.248 29.3807ZM271.248 27.3689C272.214 27.3689 273.081 27.1275 273.85 26.6447C274.637 26.1619 275.254 25.5002 275.701 24.6598C276.166 23.8193 276.399 22.8805 276.399 21.8433C276.399 20.8061 276.166 19.8762 275.701 19.0537C275.254 18.2311 274.637 17.5784 273.85 17.0955C273.081 16.6127 272.214 16.3713 271.248 16.3713C270.283 16.3713 269.407 16.6127 268.62 17.0955C267.851 17.5784 267.234 18.2311 266.769 19.0537C266.304 19.8762 266.072 20.8061 266.072 21.8433C266.072 22.8805 266.304 23.8193 266.769 24.6598C267.234 25.5002 267.851 26.1619 268.62 26.6447C269.407 27.1275 270.283 27.3689 271.248 27.3689ZM281.797 29.0588V14.6814H283.809V16.2372C284.184 15.6828 284.685 15.2537 285.311 14.9497C285.954 14.6457 286.714 14.4937 287.591 14.4937H288.503V16.5054H287.242C286.205 16.5054 285.373 16.8273 284.747 17.4711C284.122 18.1148 283.809 19.0268 283.809 20.2071V29.0588H281.797ZM290.565 29.0588V8.75342H292.577V21.9774L299.792 14.6814H302.394L296.761 20.4485L302.904 29.0588H300.489L295.313 21.9238L292.577 24.7402V29.0588H290.565ZM95.9489 64.8235V44.84H108.958V47.6565H99.114V53.6649H107.885V56.4814H99.114V64.8235H95.9489ZM117.631 65.1454C116.236 65.1454 114.958 64.8146 113.795 64.1529C112.651 63.4913 111.739 62.5882 111.059 61.4438C110.38 60.2993 110.04 59.0028 110.04 57.5544C110.04 56.088 110.371 54.7915 111.033 53.6649C111.712 52.5205 112.624 51.6264 113.769 50.9826C114.931 50.3209 116.219 49.9901 117.631 49.9901C119.044 49.9901 120.323 50.3209 121.467 50.9826C122.611 51.6264 123.515 52.5205 124.176 53.6649C124.856 54.7915 125.195 56.088 125.195 57.5544C125.195 59.0207 124.856 60.3261 124.176 61.4706C123.497 62.6151 122.585 63.5181 121.44 64.1798C120.296 64.8235 119.026 65.1454 117.631 65.1454ZM117.631 62.3289C118.472 62.3289 119.223 62.1233 119.884 61.712C120.564 61.3007 121.091 60.7374 121.467 60.0221C121.86 59.2889 122.057 58.4664 122.057 57.5544C122.057 56.6424 121.86 55.8287 121.467 55.1134C121.091 54.3981 120.564 53.8348 119.884 53.4235C119.223 53.0122 118.472 52.8066 117.631 52.8066C116.791 52.8066 116.031 53.0122 115.351 53.4235C114.69 53.8348 114.162 54.3981 113.769 55.1134C113.393 55.8287 113.205 56.6424 113.205 57.5544C113.205 58.4664 113.393 59.2889 113.769 60.0221C114.162 60.7374 114.69 61.3007 115.351 61.712C116.031 62.1233 116.791 62.3289 117.631 62.3289ZM133.037 65.1454C131.946 65.1454 130.989 64.904 130.167 64.4212C129.344 63.9205 128.7 63.232 128.235 62.3558C127.788 61.4617 127.565 60.4334 127.565 59.2711V50.312H130.596V59.0028C130.596 60.0042 130.891 60.8089 131.481 61.4169C132.089 62.0249 132.858 62.3289 133.788 62.3289C134.736 62.3289 135.514 62.016 136.122 61.3901C136.73 60.7642 137.034 59.9238 137.034 58.8687V50.312H140.038V64.8235H137.168V63.0264C136.756 63.7059 136.193 64.2334 135.478 64.6089C134.763 64.9666 133.949 65.1454 133.037 65.1454ZM143.281 64.8235V50.312H146.178V52.0824C146.589 51.4028 147.153 50.8842 147.868 50.5266C148.583 50.1689 149.388 49.9901 150.282 49.9901C151.337 49.9901 152.276 50.2226 153.099 50.6875C153.921 51.1525 154.565 51.7962 155.03 52.6188C155.513 53.4235 155.754 54.3624 155.754 55.4353V64.8235H152.75V56.2668C152.75 55.1939 152.446 54.3534 151.838 53.7454C151.248 53.1195 150.479 52.8066 149.531 52.8066C148.601 52.8066 147.832 53.1195 147.224 53.7454C146.616 54.3534 146.312 55.1939 146.312 56.2668V64.8235H143.281ZM165.41 65.1454C164.015 65.1454 162.763 64.8146 161.654 64.1529C160.563 63.4734 159.696 62.5614 159.052 61.4169C158.426 60.2725 158.114 58.9849 158.114 57.5544C158.114 56.1238 158.426 54.8362 159.052 53.6918C159.696 52.5473 160.563 51.6442 161.654 50.9826C162.763 50.3209 164.006 49.9901 165.383 49.9901C166.384 49.9901 167.287 50.1689 168.092 50.5266C168.914 50.8842 169.594 51.376 170.13 52.0019V44.5181H173.135V64.8235H170.265V62.9459C169.728 63.6612 169.031 64.2066 168.172 64.5821C167.332 64.9577 166.411 65.1454 165.41 65.1454ZM165.705 62.3289C166.545 62.3289 167.296 62.1233 167.958 61.712C168.637 61.3007 169.165 60.7374 169.54 60.0221C169.934 59.2889 170.13 58.4664 170.13 57.5544C170.13 56.6424 169.934 55.8287 169.54 55.1134C169.165 54.3981 168.637 53.8348 167.958 53.4235C167.296 53.0122 166.545 52.8066 165.705 52.8066C164.864 52.8066 164.104 53.0122 163.425 53.4235C162.763 53.8348 162.235 54.3981 161.842 55.1134C161.466 55.8287 161.279 56.6424 161.279 57.5544C161.279 58.4664 161.466 59.2889 161.842 60.0221C162.218 60.7374 162.736 61.3007 163.398 61.712C164.077 62.1233 164.846 62.3289 165.705 62.3289ZM180.724 65.1454C179.257 65.1454 178.068 64.7699 177.156 64.0188C176.244 63.2499 175.788 62.2395 175.788 60.9878C175.788 59.8254 176.181 58.8419 176.968 58.0372C177.773 57.2146 179.016 56.6602 180.697 56.3741L185.31 55.6231V55.0598C185.31 54.3445 185.042 53.7633 184.506 53.3162C183.987 52.8513 183.29 52.6188 182.413 52.6188C181.609 52.6188 180.902 52.8245 180.294 53.2358C179.704 53.6471 179.266 54.1925 178.98 54.872L176.459 53.6113C176.745 52.896 177.183 52.2701 177.773 51.7337C178.381 51.1972 179.087 50.7769 179.892 50.4729C180.715 50.1511 181.582 49.9901 182.494 49.9901C183.638 49.9901 184.649 50.2047 185.525 50.6339C186.401 51.0631 187.09 51.6621 187.59 52.4311C188.091 53.1821 188.341 54.0584 188.341 55.0598V64.8235H185.444V63.1337C184.908 63.7774 184.237 64.2781 183.433 64.6358C182.628 64.9755 181.725 65.1454 180.724 65.1454ZM178.953 60.8805C178.953 61.4348 179.159 61.8908 179.57 62.2485C179.999 62.5882 180.545 62.7581 181.206 62.7581C182.029 62.7581 182.744 62.5882 183.352 62.2485C183.96 61.8908 184.434 61.408 184.774 60.8C185.132 60.192 185.31 59.5214 185.31 58.7882V58.0104L181.287 58.7078C180.482 58.8329 179.892 59.0833 179.516 59.4588C179.141 59.8344 178.953 60.3082 178.953 60.8805ZM197.604 64.9845C196.084 64.9845 194.904 64.5553 194.064 63.6969C193.223 62.8386 192.803 61.6315 192.803 60.0758V53.048H190.255V50.312H190.657C191.337 50.312 191.864 50.1153 192.24 49.7219C192.615 49.3285 192.803 48.792 192.803 48.1125V46.9859H195.834V50.312H199.133V53.048H195.834V59.9417C195.834 60.6748 196.013 61.256 196.371 61.6852C196.746 62.0965 197.372 62.3021 198.248 62.3021C198.57 62.3021 198.901 62.2753 199.241 62.2217V64.8235C199.008 64.8593 198.74 64.8951 198.436 64.9308C198.132 64.9666 197.855 64.9845 197.604 64.9845ZM201.904 48.3271V44.84H204.935V48.3271H201.904ZM201.904 64.8235V50.312H204.935V64.8235H201.904ZM215.185 65.1454C213.79 65.1454 212.512 64.8146 211.349 64.1529C210.205 63.4913 209.293 62.5882 208.613 61.4438C207.934 60.2993 207.594 59.0028 207.594 57.5544C207.594 56.088 207.925 54.7915 208.586 53.6649C209.266 52.5205 210.178 51.6264 211.322 50.9826C212.485 50.3209 213.772 49.9901 215.185 49.9901C216.598 49.9901 217.876 50.3209 219.021 50.9826C220.165 51.6264 221.068 52.5205 221.73 53.6649C222.41 54.7915 222.749 56.088 222.749 57.5544C222.749 59.0207 222.41 60.3261 221.73 61.4706C221.05 62.6151 220.138 63.5181 218.994 64.1798C217.85 64.8235 216.58 65.1454 215.185 65.1454ZM215.185 62.3289C216.026 62.3289 216.777 62.1233 217.438 61.712C218.118 61.3007 218.645 60.7374 219.021 60.0221C219.414 59.2889 219.611 58.4664 219.611 57.5544C219.611 56.6424 219.414 55.8287 219.021 55.1134C218.645 54.3981 218.118 53.8348 217.438 53.4235C216.777 53.0122 216.026 52.8066 215.185 52.8066C214.345 52.8066 213.585 53.0122 212.905 53.4235C212.243 53.8348 211.716 54.3981 211.322 55.1134C210.947 55.8287 210.759 56.6424 210.759 57.5544C210.759 58.4664 210.947 59.2889 211.322 60.0221C211.716 60.7374 212.243 61.3007 212.905 61.712C213.585 62.1233 214.345 62.3289 215.185 62.3289ZM225.414 64.8235V50.312H228.311V52.0824C228.722 51.4028 229.285 50.8842 230.001 50.5266C230.716 50.1689 231.521 49.9901 232.415 49.9901C233.47 49.9901 234.409 50.2226 235.231 50.6875C236.054 51.1525 236.698 51.7962 237.162 52.6188C237.645 53.4235 237.887 54.3624 237.887 55.4353V64.8235H234.882V56.2668C234.882 55.1939 234.578 54.3534 233.97 53.7454C233.38 53.1195 232.611 52.8066 231.664 52.8066C230.734 52.8066 229.965 53.1195 229.357 53.7454C228.749 54.3534 228.445 55.1939 228.445 56.2668V64.8235H225.414Z" fill="black"/>
</g>
<defs>
<linearGradient id="paint0_linear_1479_50" x1="0" y1="35.7647" x2="71.5303" y2="35.7647" gradientUnits="userSpaceOnUse">
<stop stop-color="#0085FF"/>
<stop offset="1" stop-color="#B440FC"/>
</linearGradient>
<clipPath id="clip0_1479_50">
<rect width="304" height="71.5294" fill="white"/>
</clipPath>
</defs>
</svg>
