<svg xmlns="http://www.w3.org/2000/svg" width="710" height="710" fill="none" viewBox="0 0 710 710">
  <circle cx="354.999" cy="355" r="279.077" stroke="#fff"/>
  <path stroke="#fff" d="M580.259 355c0 154.235-100.946 279.077-225.258 279.077-124.313 0-225.259-124.842-225.259-279.077S230.688 75.923 355.001 75.923c124.312 0 225.258 124.842 225.258 279.077Z"/>
  <path stroke="#fff" d="M580.259 355c0 154.235-100.946 279.077-225.258 279.077-124.313 0-225.259-124.842-225.259-279.077S230.688 75.923 355.001 75.923c124.312 0 225.258 124.842 225.258 279.077Z"/>
  <path stroke="#fff" d="M523.644 355c0 77.127-18.915 146.929-49.469 197.432-30.56 50.512-72.71 81.645-119.175 81.645-46.466 0-88.616-31.133-119.176-81.645C205.27 501.929 186.355 432.127 186.355 355c0-77.127 18.915-146.929 49.469-197.432 30.56-50.513 72.71-81.645 119.176-81.645 46.465 0 88.615 31.132 119.175 81.645 30.554 50.503 49.469 120.305 49.469 197.432Z"/>
  <path stroke="#fff" d="M523.644 355c0 77.127-18.915 146.929-49.469 197.432-30.56 50.512-72.71 81.645-119.175 81.645-46.466 0-88.616-31.133-119.176-81.645C205.27 501.929 186.355 432.127 186.355 355c0-77.127 18.915-146.929 49.469-197.432 30.56-50.513 72.71-81.645 119.176-81.645 46.465 0 88.615 31.132 119.175 81.645 30.554 50.503 49.469 120.305 49.469 197.432Z"/>
  <path stroke="#fff" d="M448.159 355.001c0 77.164-10.478 147.002-27.406 197.532-8.464 25.267-18.532 45.679-29.688 59.764-11.16 14.09-23.35 21.781-36.064 21.781-12.714 0-24.904-7.691-36.064-21.781-11.156-14.085-21.224-34.497-29.688-59.764-16.928-50.53-27.406-120.368-27.406-197.532 0-77.164 10.478-147.002 27.406-197.532 8.464-25.268 18.532-45.679 29.688-59.764 11.16-14.09 23.35-21.781 36.064-21.781 12.714 0 24.904 7.69 36.064 21.78 11.156 14.086 21.224 34.497 29.688 59.765 16.928 50.53 27.406 120.368 27.406 197.532Z"/>
  <path stroke="#fff" d="M448.159 355.001c0 77.164-10.478 147.002-27.406 197.532-8.464 25.267-18.532 45.679-29.688 59.764-11.16 14.09-23.35 21.781-36.064 21.781-12.714 0-24.904-7.691-36.064-21.781-11.156-14.085-21.224-34.497-29.688-59.764-16.928-50.53-27.406-120.368-27.406-197.532 0-77.164 10.478-147.002 27.406-197.532 8.464-25.268 18.532-45.679 29.688-59.764 11.16-14.09 23.35-21.781 36.064-21.781 12.714 0 24.904 7.69 36.064 21.78 11.156 14.086 21.224 34.497 29.688 59.765 16.928 50.53 27.406 120.368 27.406 197.532Z"/>
  <path stroke="#fff" d="M385.953 355c0 77.19-3.52 147.065-9.209 197.635-2.845 25.288-6.231 45.731-9.984 59.843-1.878 7.06-3.841 12.507-5.859 16.178-1.01 1.836-2.02 3.203-3.02 4.106-.997.901-1.956 1.315-2.881 1.315-.924 0-1.883-.414-2.881-1.315-1-.903-2.01-2.27-3.019-4.106-2.019-3.671-3.981-9.118-5.859-16.178-3.754-14.112-7.139-34.555-9.984-59.843-5.689-50.57-9.209-120.445-9.209-197.635 0-77.191 3.52-147.065 9.209-197.635 2.845-25.288 6.23-45.731 9.984-59.843 1.878-7.06 3.84-12.507 5.859-16.178 1.009-1.836 2.019-3.204 3.019-4.107.998-.9 1.957-1.314 2.881-1.314.925 0 1.884.414 2.881 1.314 1 .903 2.01 2.27 3.02 4.107 2.018 3.671 3.981 9.118 5.859 16.178 3.753 14.112 7.139 34.555 9.984 59.843 5.689 50.57 9.209 120.444 9.209 197.635Z"/>
  <path stroke="#fff" d="M385.953 355c0 77.19-3.52 147.065-9.209 197.635-2.845 25.288-6.231 45.731-9.984 59.843-1.878 7.06-3.841 12.507-5.859 16.178-1.01 1.836-2.02 3.203-3.02 4.106-.997.901-1.956 1.315-2.881 1.315-.924 0-1.883-.414-2.881-1.315-1-.903-2.01-2.27-3.019-4.106-2.019-3.671-3.981-9.118-5.859-16.178-3.754-14.112-7.139-34.555-9.984-59.843-5.689-50.57-9.209-120.445-9.209-197.635 0-77.191 3.52-147.065 9.209-197.635 2.845-25.288 6.23-45.731 9.984-59.843 1.878-7.06 3.84-12.507 5.859-16.178 1.009-1.836 2.019-3.204 3.019-4.107.998-.9 1.957-1.314 2.881-1.314.925 0 1.884.414 2.881 1.314 1 .903 2.01 2.27 3.02 4.107 2.018 3.671 3.981 9.118 5.859 16.178 3.753 14.112 7.139 34.555 9.984 59.843 5.689 50.57 9.209 120.444 9.209 197.635Z"/>
  <path stroke="#fff" d="M550.08 242.371c77.117 133.571 52.116 292.16-55.541 354.317-107.658 62.156-257.501 4.513-334.618-129.059-77.118-133.571-52.117-292.161 55.541-354.317 107.657-62.156 257.5-4.513 334.618 129.059Z"/>
  <path stroke="#fff" d="M467.629 159.921c133.572 77.117 191.215 226.96 129.059 334.618-62.156 107.657-220.746 132.658-354.317 55.541-133.572-77.118-191.215-226.961-129.059-334.618 62.156-107.658 220.746-132.659 354.317-55.541Z"/>
  <path stroke="#fff" d="M501.05 270.678c38.564 66.794 57.084 136.701 55.875 195.715-1.21 59.026-22.146 107.062-62.386 130.295-40.241 23.232-92.31 17.346-144.032-11.119-51.712-28.46-102.993-79.453-141.557-146.247-38.564-66.794-57.084-136.701-55.875-195.716 1.21-59.025 22.146-107.061 62.387-130.294 40.24-23.233 92.309-17.346 144.031 11.119 51.712 28.46 102.994 79.453 141.557 146.247Z"/>
  <path stroke="#fff" d="M439.323 208.951c66.795 38.563 117.787 89.845 146.247 141.557 28.465 51.722 34.352 103.791 11.119 144.031-23.232 40.24-71.269 61.177-130.294 62.386-59.014 1.21-128.921-17.311-195.716-55.874-66.794-38.564-117.786-89.845-146.246-141.558-28.465-51.722-34.352-103.791-11.119-144.031 23.232-40.24 71.269-61.176 130.294-62.386 59.014-1.209 128.921 17.311 195.715 55.875Z"/>
  <path stroke="#fff" d="M435.677 308.421c38.582 66.827 64.426 132.547 75.032 184.771 5.303 26.115 6.79 48.826 4.171 66.601-2.62 17.783-9.332 30.539-20.342 36.895-11.01 6.357-25.413 5.792-42.123-.83-16.703-6.62-35.628-19.264-55.593-36.914-39.924-35.296-83.918-90.538-122.5-157.364-38.582-66.826-64.426-132.547-75.032-184.771-5.303-26.115-6.789-48.826-4.171-66.601 2.62-17.782 9.332-30.538 20.342-36.895 11.01-6.357 25.413-5.792 42.123.831 16.703 6.62 35.628 19.263 55.593 36.913 39.924 35.296 83.918 90.538 122.5 157.364Z"/>
  <path stroke="#fff" d="M401.58 274.323c66.826 38.582 122.068 82.576 157.365 122.501 17.65 19.964 30.293 38.889 36.913 55.592 6.622 16.71 7.187 31.113.83 42.123-6.356 11.011-19.112 17.723-36.894 20.342-17.776 2.619-40.487 1.132-66.602-4.171-52.224-10.605-117.944-36.45-184.77-75.032-66.826-38.582-122.069-82.576-157.365-122.5-17.65-19.964-30.293-38.889-36.913-55.593-6.623-16.709-7.188-31.112-.831-42.123 6.357-11.01 19.113-17.722 36.895-20.342 17.775-2.618 40.487-1.132 66.601 4.172 52.224 10.605 117.945 36.449 184.771 75.031Z"/>
  <path stroke="#fff" d="M381.805 339.523c38.596 66.849 70.485 129.122 90.842 175.762 10.181 23.322 17.47 42.719 21.276 56.817 1.903 7.053 2.927 12.752 3.015 16.94.044 2.095-.147 3.784-.562 5.066-.414 1.279-1.037 2.117-1.838 2.579-.801.463-1.838.583-3.152.302-1.318-.282-2.876-.961-4.668-2.046-3.584-2.17-8.007-5.906-13.163-11.081-10.307-10.345-23.46-26.356-38.568-46.834-30.212-40.95-68.198-99.703-106.793-166.552-38.595-66.849-70.484-129.122-90.842-175.762-10.18-23.322-17.47-42.719-21.275-56.817-1.904-7.053-2.928-12.752-3.015-16.94-.044-2.095.147-3.784.562-5.066.413-1.279 1.036-2.117 1.837-2.579.801-.463 1.838-.583 3.152-.302 1.318.282 2.877.961 4.669 2.046 3.583 2.17 8.007 5.906 13.163 11.081 10.306 10.345 23.46 26.356 38.568 46.834 30.211 40.95 68.197 99.703 106.792 166.552Z"/>
  <path stroke="#fff" d="M370.477 328.195c66.848 38.595 125.602 76.58 166.552 106.792 20.478 15.108 36.489 28.261 46.833 38.568 5.176 5.156 8.911 9.579 11.082 13.163 1.085 1.792 1.764 3.351 2.046 4.668.281 1.314.16 2.352-.302 3.153-.462.8-1.3 1.424-2.579 1.837-1.282.415-2.971.606-5.066.562-4.189-.087-9.887-1.111-16.94-3.015-14.098-3.805-33.495-11.095-56.818-21.275-46.639-20.358-108.912-52.247-175.761-90.842-66.849-38.596-125.602-76.581-166.552-106.793-20.478-15.108-36.489-28.261-46.834-38.568-5.175-5.156-8.911-9.579-11.081-13.163-1.086-1.792-1.765-3.351-2.046-4.668-.281-1.314-.161-2.352.302-3.152.462-.801 1.3-1.424 2.578-1.838 1.282-.415 2.972-.606 5.066-.562 4.189.088 9.888 1.111 16.941 3.015 14.098 3.805 33.495 11.095 56.817 21.275 46.639 20.358 108.913 52.247 175.762 90.843Z"/>
</svg>
