<svg width="158" height="38" viewBox="0 0 158 38" fill="none" xmlns="http://www.w3.org/2000/svg">
<path d="M14.6157 17.0834C7.64966 15.2884 3.49823 13.2465 2.07194 12.1023C0.645649 10.958 1.3371 9.00293 1.3371 9.00293C3.05081 12.7991 15.459 16.1642 15.459 16.1642L14.6157 17.0834ZM14.5723 17.4278C14.5723 17.4278 2.33496 14.3474 1.00086 11.503C1.00086 11.503 0.914096 13.5204 2.47868 14.521C4.04597 15.5243 8.98918 16.9912 14.9113 18.2033L14.5723 17.4278ZM15.1743 18.6534C15.1743 18.6534 4.88655 16.4625 2.15329 14.9928C2.15329 14.9928 2.47596 15.9391 3.99174 16.7092C5.56988 17.5119 9.12746 18.3036 14.6753 19.1957L15.1743 18.6534ZM15.5702 19.6866C15.5702 19.6866 5.95764 18.3877 3.35993 16.8719C3.35993 16.8719 4.47982 18.1816 6.17185 18.6995C7.74728 19.1822 9.59656 19.6784 14.5805 20.0906L15.5702 19.6866ZM14.6428 20.3644C14.6428 20.3644 7.4978 20.1475 4.90282 18.4474C4.90282 18.4474 4.99502 18.9436 6.44843 19.7218C7.90183 20.4973 10.0277 20.7305 15.0089 21.1427L14.6428 20.3644ZM15.5132 21.3325C15.5132 21.3325 9.04882 21.3216 6.32642 20.0418C6.32642 20.0418 6.87143 20.801 7.96961 21.1861C9.57488 21.7501 10.9903 21.8965 15.9905 21.9073L15.5132 21.3325ZM17.0263 22.0239C17.0263 22.0239 10.5809 22.5364 7.79065 21.4111C7.79065 21.4111 8.37907 22.1405 9.49353 22.4632C11.1286 22.935 12.5386 22.8401 17.5307 22.5744L17.0263 22.0239Z" fill="url(#paint0_linear_550_520)" stroke="#5B3926" stroke-width="0.108463"/>
<path d="M24.5433 16.1613C24.5433 16.1613 36.9515 12.7962 38.6652 9C38.6652 9 39.3594 10.9605 37.9303 12.102C36.5013 13.2436 32.3554 15.2881 25.3865 17.0832L24.5433 16.1613ZM25.0911 18.2031C31.0131 16.991 35.9564 15.5241 37.5237 14.5208C39.0909 13.5175 39.0014 11.5028 39.0014 11.5028C37.6673 14.3499 25.43 17.4276 25.43 17.4276L25.0911 18.2031ZM25.3297 19.1983C30.8748 18.3061 34.4325 17.5144 36.0133 16.7117C37.529 15.9416 37.8517 14.9953 37.8517 14.9953C35.1186 16.4623 24.8307 18.6559 24.8307 18.6559L25.3297 19.1983ZM25.4218 20.0931C30.4058 19.6782 32.2551 19.1847 33.8306 18.702C35.5225 18.1814 36.6423 16.8744 36.6423 16.8744C34.0474 18.3902 24.4321 19.689 24.4321 19.689L25.4218 20.0931ZM24.9934 21.1424C29.9774 20.7276 32.1004 20.4971 33.554 19.7216C35.0074 18.9461 35.0995 18.4471 35.0995 18.4471C32.5046 20.1473 25.3594 20.3642 25.3594 20.3642L24.9934 21.1424ZM24.0146 21.9098C29.0148 21.8963 30.4302 21.7498 32.0354 21.1885C33.131 20.8035 33.6787 20.0443 33.6787 20.0443C30.9562 21.3241 24.4918 21.335 24.4918 21.335L24.0146 21.9098ZM22.4717 22.5715C27.4638 22.8372 28.8765 22.9348 30.5088 22.4603C31.6259 22.1376 32.2116 21.4082 32.2116 21.4082C29.4214 22.5362 22.9761 22.021 22.9761 22.021L22.4717 22.5715Z" fill="url(#paint1_linear_550_520)" stroke="#5B3926" stroke-width="0.108463"/>
<path d="M19.9876 14.0625C17.84 14.7838 16.026 13.8754 16.026 13.8754C14.6105 16.2697 13.6859 16.324 13.6859 16.324C13.6859 16.324 14.719 17.1402 14.719 18.4471C14.719 19.7541 12.0427 23.7835 14.9901 25.7413C17.1892 27.2001 19.2283 27.1513 19.9144 27.7235L19.9849 27.7885C20.5923 27.1459 22.7019 27.2544 24.9796 25.7413C27.9271 23.7835 25.2508 19.7541 25.2508 18.4471C25.2508 17.1402 26.2838 16.324 26.2838 16.324C26.2838 16.324 25.3593 16.2697 23.9437 13.8754C23.9437 13.8754 21.4979 14.754 19.9171 14.0381" fill="url(#paint2_linear_550_520)"/>
<path d="M19.9876 14.0625C17.84 14.7838 16.026 13.8754 16.026 13.8754C14.6105 16.2697 13.6859 16.324 13.6859 16.324C13.6859 16.324 14.719 17.1402 14.719 18.4471C14.719 19.7541 12.0427 23.7835 14.9901 25.7413C17.1892 27.2001 19.2283 27.1513 19.9144 27.7235L19.9849 27.7885C20.5923 27.1459 22.7019 27.2544 24.9796 25.7413C27.9271 23.7835 25.2508 19.7541 25.2508 18.4471C25.2508 17.1402 26.2838 16.324 26.2838 16.324C26.2838 16.324 25.3593 16.2697 23.9437 13.8754C23.9437 13.8754 21.4979 14.754 19.9171 14.0381" stroke="#5B3926" stroke-width="0.216926"/>
<path d="M22.0754 22.6528C22.0754 22.6528 22.8916 22.7152 23.2604 22.3464C23.6264 21.9804 23.7594 22.5498 23.7594 22.8453C23.7594 23.1409 23.7594 23.3443 23.7594 23.3443C23.7594 23.3443 25.1665 22.0292 24.2175 21.0801C23.6291 20.4917 23.1574 20.63 23.1574 20.63L22.9133 20.386C22.9133 20.386 22.3113 19.5074 20.8932 19.586C19.1496 19.586 18.4012 20.329 17.1186 21.3052H17.7098C17.7098 21.3052 16.2916 21.8665 16.1994 22.3871H16.8122C16.8122 22.3871 16.2808 22.6122 16.0259 23.1735C16.0259 23.1735 16.6902 22.6745 17.0156 22.7965C17.0156 22.7965 16.3214 23.0406 16.1371 23.9598C16.1371 23.9598 16.8095 23.0623 17.7287 23.1626C17.7287 23.1626 16.2401 24.0412 16.5872 25.5922C16.5872 25.5922 17.341 24.4506 17.8128 24.3259C17.8128 24.3259 17.7016 25.5407 17.1186 26.121C16.5356 26.7039 16.5356 26.7934 16.5356 26.7934C16.5356 26.7934 17.9945 25.9095 17.9945 26.1399C17.9945 27.3032 19.5265 25.4268 19.5265 25.4268C19.5265 25.4268 18.1192 26.8558 19.4452 27.6909C19.4452 27.6909 19.1388 26.7311 19.6079 26.8341C20.077 26.9371 19.5157 27.9567 20.0119 28.6291C20.5081 29.3016 21.506 28.8542 21.506 28.8542C21.506 28.8542 19.9034 28.4421 20.8118 27.3222C20.8118 27.3222 20.6084 27.7913 21.4843 27.7913C21.4843 27.7913 20.9935 27.0158 22.1568 26.0369C23.3201 25.0607 22.4821 23.1843 22.0754 22.6528Z" fill="#5B3926"/>
<path d="M19.6349 22.3735C19.4207 22.4468 19.3583 22.7342 19.3583 22.7342C18.7455 22.8616 18.4608 23.6724 18.4608 23.6724C19.38 23.2846 19.7461 23.488 19.7461 23.488C19.7461 23.488 19.4614 23.4094 18.8486 23.8758C18.1598 24.4018 18.3686 25.4159 18.3686 25.4159C18.3686 25.4159 18.3686 25.4159 18.8486 24.936C19.3285 24.4561 19.5942 24.5184 19.5942 24.5184C19.4614 25.6112 21.1344 26.0586 21.1344 26.0586C20.3074 25.5624 20.5324 24.231 20.5324 24.231C20.8687 24.8736 21.2158 24.9143 21.2158 24.9143C20.95 24.4452 21.1236 24.109 21.1236 24.109C21.7255 24.2201 21.9696 24.955 21.9696 24.955C22.8156 24.3422 21.7879 23.385 21.9343 22.783C22.0265 22.4034 21.4978 22.9593 20.1528 22.5661C19.7895 22.463 19.6349 22.3735 19.6349 22.3735C19.6647 22.3627 19.6132 22.3871 19.8085 22.3871C20.2179 22.3871 20.9582 21.8773 20.9582 21.8773L20.9311 21.9994C21.43 21.7635 21.4815 21.0395 21.4815 21.0395H20.9094C20.9094 21.0395 20.9229 21.5492 20.2152 21.5492C19.5617 21.5492 19.5888 20.9608 19.5617 20.9174C19.5265 20.8605 19.502 20.9798 19.502 20.9798C19.502 20.9798 19.3936 21.6008 20.0118 21.7336C20.7657 21.8963 20.9907 21.3242 20.9907 21.3242C20.9554 21.6306 20.5894 21.9424 20.2694 22.1214C20.0145 22.2651 19.7868 22.3329 19.7868 22.3329" fill="url(#paint3_linear_550_520)"/>
<path d="M22.973 20.714C22.973 20.714 22.504 20.9174 22.504 21.1831C22.504 21.4488 22.0132 21.6739 22.0132 21.6739C22.0132 21.6739 21.7312 20.8821 22.3603 20.6733C22.9894 20.4645 22.973 20.714 22.973 20.714Z" fill="#E9CE8B"/>
<path d="M18.1901 18.4607H17.1353V18.2708C17.222 18.2708 17.2898 18.26 17.3359 18.2383C17.382 18.2166 17.4091 18.1814 17.4254 18.138C17.439 18.0946 17.4471 18.0295 17.4471 17.9482V16.2209C17.4471 16.1016 17.4281 16.0175 17.3901 15.9687C17.3522 15.9199 17.2681 15.8955 17.138 15.8955V15.7057H18.1928V15.8955C18.106 15.8955 18.0382 15.9064 17.9921 15.9308C17.946 15.9524 17.9189 15.9877 17.9026 16.0311C17.8891 16.0745 17.881 16.1395 17.881 16.2209V17.9482C17.881 18.0268 17.8864 18.0892 17.8999 18.1326C17.9135 18.1759 17.9406 18.2112 17.984 18.2356C18.0274 18.26 18.0952 18.2708 18.1874 18.2708V18.4607H18.1901Z" fill="#5B3926"/>
<path d="M20.5086 18.4309H20.3622C20.3405 18.3143 20.3053 18.2112 20.2565 18.119C20.1778 18.2248 20.0883 18.317 19.9907 18.3929C19.8904 18.4688 19.7548 18.5068 19.584 18.5068C19.3969 18.5068 19.2233 18.4471 19.0634 18.3251C18.9034 18.2031 18.776 18.035 18.681 17.8208C18.5861 17.6038 18.54 17.3598 18.54 17.0886C18.54 16.8961 18.5645 16.7117 18.616 16.5382C18.6675 16.3619 18.7407 16.2101 18.8356 16.0772C18.9305 15.9444 19.0444 15.8413 19.1773 15.7654C19.3101 15.6895 19.4538 15.6515 19.6111 15.6515C19.8714 15.6515 20.0856 15.7654 20.2565 15.9904C20.2782 15.9308 20.2998 15.8467 20.3216 15.7356H20.4598L20.4842 16.7497H20.3378C20.3107 16.5789 20.2619 16.4243 20.1941 16.2914C20.1236 16.1586 20.0422 16.0555 19.9473 15.985C19.8525 15.9145 19.7521 15.8793 19.6464 15.8793C19.5298 15.8793 19.424 15.9227 19.3318 16.0067C19.2396 16.0908 19.1664 16.2209 19.1122 16.3945C19.0607 16.568 19.0336 16.7849 19.0336 17.0425C19.0336 17.2947 19.0552 17.5035 19.0986 17.6716C19.142 17.8397 19.1962 17.9645 19.2613 18.0512C19.3264 18.138 19.3915 18.195 19.4566 18.2248C19.5216 18.2546 19.584 18.2709 19.6409 18.2709C19.7657 18.2709 19.8796 18.2275 19.9799 18.1353C20.0802 18.0458 20.1643 17.9319 20.2266 17.7963C20.2917 17.6608 20.3351 17.5252 20.3568 17.3896H20.5032V18.4309H20.5086Z" fill="#5B3926"/>
<path d="M22.9572 18.4309H22.8134C22.7917 18.3143 22.7564 18.2112 22.7076 18.119C22.629 18.2248 22.5395 18.317 22.4419 18.3929C22.3416 18.4688 22.206 18.5068 22.0352 18.5068C21.8481 18.5068 21.6745 18.4471 21.5145 18.3251C21.3546 18.2031 21.2271 18.035 21.1322 17.8208C21.0373 17.6038 20.9912 17.3598 20.9912 17.0886C20.9912 16.8961 21.0156 16.7117 21.0671 16.5382C21.1187 16.3619 21.1919 16.2101 21.2868 16.0772C21.3817 15.9444 21.4956 15.8413 21.6284 15.7654C21.7613 15.6895 21.905 15.6515 22.0623 15.6515C22.3226 15.6515 22.5368 15.7654 22.7076 15.9904C22.7293 15.9308 22.751 15.8467 22.7727 15.7356H22.911L22.9354 16.7497H22.789C22.7619 16.5789 22.7131 16.4243 22.6453 16.2914C22.5748 16.1586 22.4934 16.0555 22.3985 15.985C22.3036 15.9145 22.2033 15.8793 22.0975 15.8793C21.9809 15.8793 21.8752 15.9227 21.783 16.0067C21.6908 16.0908 21.6176 16.2209 21.5633 16.3945C21.5118 16.568 21.4847 16.7849 21.4847 17.0425C21.4847 17.2947 21.5064 17.5035 21.5498 17.6716C21.5932 17.8397 21.6474 17.9645 21.7125 18.0512C21.7776 18.138 21.8427 18.195 21.9077 18.2248C21.9728 18.2546 22.0352 18.2709 22.0921 18.2709C22.2168 18.2709 22.3307 18.2275 22.4311 18.1353C22.5314 18.0458 22.6155 17.9319 22.6778 17.7963C22.7429 17.6608 22.7863 17.5252 22.808 17.3896H22.9543V18.4309H22.9572Z" fill="#5B3926"/>
<path d="M85.5032 7.74282C92.4698 7.78885 94.0086 13.5318 92.1629 16.9694C90.7709 19.561 88.3968 20.3833 85.6326 20.2552C82.7696 20.1258 80.5578 18.5656 79.7971 16.0948C79.0233 13.5779 79.4223 11.255 81.4192 9.38758C82.7718 8.12477 84.451 7.72042 85.5032 7.74282ZM89.9532 13.9275C89.9247 13.0168 89.848 12.1098 89.5433 11.2438C88.9756 9.63889 87.783 8.85011 86.0293 8.88246C84.3742 8.91356 83.2234 9.76829 82.7411 11.3907C82.2654 12.9931 82.2391 14.6267 82.6491 16.2391C83.1226 18.1028 84.3567 19.0832 86.1323 19.1268C87.8487 19.1678 89.0961 18.1688 89.6508 16.2963C89.8787 15.5274 89.9226 14.7287 89.9532 13.9275Z" fill="#5B3926"/>
<path d="M53.6219 10.9589C53.6219 13.3378 53.635 15.4528 53.6153 17.5678C53.6065 18.4674 53.9002 19.0758 54.8845 19.1156C55.301 19.1305 55.4764 19.2798 55.4304 19.7103C55.3799 20.1718 55.0401 20.0561 54.7727 20.0586C53.6766 20.0673 52.5828 20.0649 51.4867 20.0611C51.2039 20.0611 50.8883 20.1246 50.8356 19.6841C50.7787 19.2051 51.0768 19.1417 51.4275 19.1094C52.3109 19.026 52.5521 18.4711 52.5433 17.6686C52.5236 15.3321 52.5279 12.9956 52.5345 10.6591C52.5368 9.76457 52.2825 9.06038 51.285 8.90859C50.8926 8.85012 50.8071 8.64857 50.8379 8.31265C50.873 7.94189 51.1469 7.96678 51.4035 7.96678C52.2802 7.96429 53.1571 7.99041 54.0317 7.95558C54.5271 7.93567 54.7267 8.26289 54.9854 8.56895C56.7478 10.6628 58.5146 12.7493 60.2837 14.8394C60.5074 15.1019 60.7441 15.3545 61.1781 15.841C61.2198 13.5592 61.3601 11.5798 61.0664 9.60656C60.983 9.04919 60.4832 8.88993 59.979 8.89366C59.5975 8.89615 59.466 8.75183 59.4683 8.38108C59.4705 7.92945 59.7664 7.96179 60.0645 7.96179C61.1956 7.96428 62.3289 7.96428 63.4601 7.96179C63.7627 7.96179 64.0564 7.94687 64.0695 8.38357C64.0806 8.76925 63.8942 8.89615 63.5369 8.88247C62.4693 8.8439 62.3027 9.51449 62.3093 10.3891C62.3289 13.3091 62.3246 16.2304 62.3049 19.1504C62.3027 19.4726 62.5438 19.9355 62.055 20.1071C61.5793 20.2726 61.2483 20.0039 60.9413 19.6356C58.7032 16.9408 56.4497 14.2597 54.2006 11.5773C54.0713 11.4218 53.9244 11.2787 53.6219 10.9589Z" fill="#5B3926"/>
<path d="M134.557 13.0429C134.557 12.1322 134.556 11.2177 134.557 10.3058C134.56 9.48092 134.347 8.84143 133.342 8.88498C132.986 8.8999 132.793 8.77549 132.804 8.38731C132.815 7.95062 133.109 7.96431 133.411 7.96431C135.091 7.9668 136.769 7.9668 138.449 7.96431C138.765 7.96431 139.032 7.98422 139.032 8.41345C139.032 8.81904 138.803 8.89119 138.469 8.88746C137.5 8.87378 137.252 9.43488 137.267 10.3083C137.302 12.2056 137.247 14.1042 137.289 16.0002C137.333 17.9697 138.236 18.98 139.951 19.0982C141.603 19.2101 142.9 18.1725 143.142 16.3536C143.425 14.2161 143.243 12.0551 143.23 9.90393C143.225 9.29679 142.828 8.88995 142.16 8.89866C141.752 8.9024 141.439 8.87128 141.501 8.32386C141.562 7.76026 141.98 7.98421 142.25 7.97799C143.309 7.95062 144.367 7.9668 145.426 7.9668C145.722 7.9668 146.029 7.93569 146.044 8.37611C146.058 8.75309 145.884 8.89368 145.521 8.88995C144.528 8.88124 144.33 9.51451 144.337 10.3456C144.35 12.0588 144.339 13.7757 144.337 15.4926C144.332 18.3529 143.098 19.7949 140.279 20.2341C136.916 20.7579 134.571 18.7535 134.557 15.3433C134.556 14.5757 134.557 13.8106 134.557 13.0429Z" fill="#5B3926"/>
<path d="M154.572 8.97948C154.719 8.48555 154.765 7.97048 155.401 8.10734C155.956 8.22553 155.703 8.69457 155.723 9.01183C155.76 9.63017 155.749 10.2522 155.727 10.8731C155.718 11.1231 155.89 11.5001 155.405 11.5325C155.061 11.5549 154.771 11.5437 154.642 11.112C154.541 10.7698 154.348 10.4476 154.153 10.1428C153.747 9.50327 153.18 9.06284 152.424 8.90235C151.308 8.66845 150.366 9.03796 150.131 9.85785C149.843 10.8706 150.481 11.428 151.262 11.846C152.159 12.325 153.088 12.748 153.989 13.2183C156.554 14.5558 157.268 16.3772 156.037 18.3964C154.769 20.4729 152.023 20.9133 149.914 19.3718C149.684 19.2039 149.469 19.0148 149.201 18.7983C149.104 19.0061 148.985 19.1578 148.966 19.3221C148.923 19.7451 148.7 19.8782 148.303 19.8459C147.851 19.8085 147.93 19.4714 147.927 19.1964C147.919 18.2098 147.927 17.2257 147.921 16.2391C147.919 15.928 147.919 15.6456 148.347 15.6406C148.663 15.6394 148.873 15.6867 148.976 16.0711C149.186 16.845 149.51 17.579 150.065 18.1862C150.939 19.1466 152.237 19.4751 153.226 18.9861C154.408 18.4014 154.593 17.0154 153.535 16.2353C152.898 15.7663 152.161 15.4217 151.439 15.0795C150.712 14.7337 150.007 14.3604 149.39 13.8453C147.858 12.5651 147.509 11.0087 148.401 9.49829C149.296 7.98416 151.304 7.35214 152.998 8.01652C153.552 8.22927 153.982 8.62365 154.572 8.97948Z" fill="#5B3926"/>
<path d="M125.592 7.96685C127.308 7.96685 129.027 7.99795 130.742 7.95192C131.425 7.93326 131.646 8.146 131.591 8.81909C131.534 9.50959 131.572 10.2076 131.58 10.8993C131.585 11.2414 131.488 11.4592 131.099 11.4716C130.742 11.4828 130.631 11.3211 130.529 10.9814C129.969 9.15749 129.241 8.75315 127.365 9.04925C126.896 9.1239 126.881 9.37149 126.881 9.71985C126.882 12.4234 126.894 15.1257 126.876 17.8292C126.872 18.6491 127.278 19.0435 128.043 19.1094C128.449 19.1443 128.623 19.2873 128.579 19.7166C128.531 20.1968 128.185 20.0587 127.931 20.0612C126.324 20.0711 124.718 20.0699 123.11 20.0624C122.845 20.0612 122.509 20.1657 122.457 19.7054C122.405 19.25 122.639 19.1505 123.023 19.1243C123.935 19.0659 124.24 18.552 124.226 17.6575C124.186 15.0647 124.185 12.4719 124.231 9.87785C124.244 9.16993 124.002 9.04552 123.36 9.04552C121.32 9.04801 121.182 9.10026 120.561 11.0026C120.449 11.3422 120.336 11.4853 119.977 11.4766C119.505 11.4629 119.612 11.1295 119.589 10.8582C119.583 10.7861 119.589 10.7114 119.588 10.6393C119.531 7.97058 119.531 7.97058 122.196 7.97058C123.328 7.96685 124.459 7.96685 125.592 7.96685Z" fill="#5B3926"/>
<path d="M116.274 20.0612C115.508 20.0612 114.742 20.0612 113.976 20.0612C113.722 20.0612 113.457 20.0935 113.45 19.7016C113.444 19.3769 113.466 19.1591 113.889 19.1243C114.345 19.087 114.998 19.0173 114.723 18.3355C114.461 17.6799 114.627 16.6074 113.426 16.6323C112.771 16.6447 112.113 16.6348 111.455 16.6348C110.342 16.636 109.849 17.1237 109.792 18.2385C109.761 18.8817 110.186 19.0322 110.679 19.1119C111.004 19.1616 111.223 19.2537 111.197 19.6531C111.166 20.0885 110.87 20.0624 110.576 20.0624C109.555 20.0624 108.533 20.0674 107.512 20.0612C107.236 20.0587 106.905 20.1333 106.896 19.6655C106.891 19.3769 106.942 19.1815 107.271 19.1218C108.202 18.9514 108.531 18.1862 108.823 17.441C109.971 14.4986 111.087 11.5425 112.234 8.59759C112.376 8.23181 112.372 7.72793 113.027 7.73042C113.676 7.73166 113.683 8.23181 113.83 8.59759C115.024 11.601 116.199 14.613 117.372 17.6251C117.642 18.3206 117.918 19.0061 118.779 19.1206C119.222 19.179 119.161 19.4727 119.147 19.7601C119.128 20.1744 118.799 20.0537 118.573 20.0562C117.806 20.0699 117.041 20.0612 116.274 20.0612ZM112.205 11.7639C111.955 12.4171 111.786 12.8463 111.624 13.2781C110.653 15.8584 110.653 15.8584 113.422 15.7054C113.487 15.7004 113.551 15.6594 113.702 15.6021C113.235 14.4028 112.766 13.2034 112.205 11.7639Z" fill="#5B3926"/>
<path d="M72.7867 16.5751C73.7402 14.3219 74.6215 12.2915 75.4546 10.2424C75.7504 9.51704 75.6102 8.92732 74.6522 8.89373C74.3102 8.88129 73.9968 8.89373 74.0121 8.39234C74.0296 7.84864 74.4154 7.97555 74.7135 7.97058C75.7702 7.96062 76.829 7.95813 77.8856 7.97058C78.1815 7.97555 78.5761 7.84118 78.5893 8.38736C78.598 8.78051 78.4116 8.86138 78.0675 8.90493C77.2061 9.01441 76.9299 9.73353 76.6405 10.4004C75.3274 13.4299 74.0317 16.4631 72.7209 19.4951C72.574 19.8372 72.5566 20.2752 71.9844 20.2926C71.3509 20.3125 71.3224 19.8236 71.1623 19.4491C69.858 16.4133 68.558 13.3751 67.2647 10.3345C66.9425 9.5805 66.6356 8.82406 65.6096 8.88502C65.2172 8.90866 65.2436 8.63992 65.2282 8.37616C65.2063 8.01909 65.4102 7.96436 65.7039 7.96436C67.4181 7.96933 69.1324 7.97306 70.8466 7.96186C71.1886 7.96062 71.4013 8.01537 71.3815 8.4334C71.3662 8.74692 71.2566 8.8365 70.9409 8.89995C69.6892 9.14878 69.6322 9.26822 70.1365 10.4527C70.9781 12.4172 71.8353 14.3767 72.7867 16.5751Z" fill="#5B3926"/>
<path d="M100.194 20.0611C98.6619 20.0611 97.1296 20.0711 95.5996 20.0512C95.2926 20.0475 94.841 20.2627 94.8103 19.622C94.7863 19.1044 95.1304 19.1243 95.4417 19.0982C96.2812 19.0285 96.5553 18.4761 96.5597 17.7545C96.5772 15.2376 96.575 12.7219 96.5663 10.205C96.564 9.40005 96.2155 8.86507 95.3277 8.88995C94.9572 8.89866 94.8125 8.773 94.8125 8.39229C94.8148 7.94191 95.0975 7.9668 95.3956 7.9668C97.0375 7.9668 98.6772 7.96431 100.319 7.97053C100.595 7.97053 100.915 7.90459 100.942 8.36493C100.968 8.84392 100.696 8.88497 100.328 8.89368C99.4358 8.91608 99.1683 9.43987 99.1771 10.2685C99.2011 12.6746 99.1771 15.0821 99.1902 17.4895C99.1968 18.6665 99.4861 18.9364 100.694 18.9825C103.04 19.0671 103.822 18.5632 104.679 16.325C104.798 16.0177 104.929 15.9393 105.214 15.9368C105.582 15.9331 105.62 16.167 105.615 16.4419C105.6 17.4982 105.567 18.5545 105.567 19.6108C105.567 20.1333 105.219 20.0649 104.896 20.0649C103.331 20.0611 101.762 20.0611 100.194 20.0611Z" fill="#5B3926"/>
<path d="M47.7024 13.9449C47.7024 15.1107 47.72 16.2789 47.6959 17.4459C47.6762 18.3479 47.869 19.0583 48.9476 19.1156C49.3334 19.1355 49.5636 19.2586 49.5045 19.7078C49.4452 20.1631 49.1121 20.0561 48.8446 20.0561C47.2027 20.0648 45.563 20.0624 43.9211 20.0586C43.6448 20.0586 43.338 20.137 43.3029 19.6729C43.2656 19.1964 43.5242 19.1404 43.886 19.1156C44.8746 19.0496 45.1157 18.4586 45.1004 17.5504C45.0588 15.1803 45.0697 12.809 45.0938 10.4389C45.1027 9.5008 44.8659 8.83642 43.7719 8.88992C43.3423 8.91107 43.3095 8.66971 43.3095 8.34375C43.3095 7.96055 43.5638 7.96925 43.829 7.96925C45.5432 7.96925 47.2575 7.96925 48.9717 7.96925C49.237 7.96925 49.4934 7.96925 49.5045 8.33876C49.5132 8.66846 49.454 8.90236 49.0353 8.88743C47.8626 8.84762 47.6805 9.60655 47.6959 10.5509C47.7179 11.6818 47.7024 12.814 47.7024 13.9449Z" fill="#5B3926"/>
<path d="M47.0304 27.7624H46.1953C46.1715 27.6255 46.1275 27.5048 46.0636 27.3991C45.9995 27.2908 45.9199 27.2 45.8247 27.1266C45.7294 27.052 45.6207 26.996 45.4986 26.9586C45.3781 26.9201 45.2478 26.9002 45.108 26.9002C44.8592 26.9002 44.639 26.9636 44.4469 27.088C44.255 27.2112 44.1046 27.3929 43.9959 27.633C43.8872 27.8706 43.833 28.1617 43.833 28.5064C43.833 28.856 43.8872 29.1508 43.9959 29.3897C44.106 29.6286 44.2565 29.809 44.4469 29.9309C44.639 30.0516 44.8585 30.1113 45.1057 30.1113C45.2426 30.1113 45.3706 30.0939 45.4897 30.0578C45.6103 30.0205 45.7182 29.967 45.8135 29.8948C45.9102 29.8239 45.9914 29.7356 46.0569 29.6311C46.1238 29.5278 46.17 29.4084 46.1953 29.274L47.0304 29.279C46.9992 29.4955 46.9314 29.6995 46.8272 29.8898C46.7245 30.0814 46.5897 30.2494 46.423 30.395C46.2563 30.5393 46.0613 30.6525 45.838 30.7346C45.6147 30.8143 45.3669 30.8553 45.0945 30.8553C44.6925 30.8553 44.3338 30.762 44.0182 30.5754C43.7027 30.39 43.4541 30.1213 43.2725 29.7704C43.0908 29.4183 43 28.9978 43 28.5064C43 28.0137 43.0916 27.5919 43.2747 27.2423C43.4578 26.8915 43.7072 26.6227 44.0227 26.4361C44.3383 26.2507 44.6955 26.1574 45.0945 26.1574C45.3491 26.1574 45.5857 26.1923 45.8046 26.2644C46.0234 26.3353 46.2184 26.4411 46.3896 26.5792C46.5607 26.716 46.7015 26.884 46.8116 27.0843C46.9232 27.2821 46.9962 27.5086 47.0304 27.7624ZM49.3899 30.7931H48.5057L50.1156 26.2196H51.1382L52.7504 30.7931H51.8662L50.6448 27.1577H50.6091L49.3899 30.7931ZM49.4189 28.999H51.8305V29.6647H49.4189V28.999ZM54.4216 30.7931V26.2196H56.1364C56.4878 26.2196 56.7825 26.2806 57.0207 26.4025C57.2604 26.5244 57.4412 26.6961 57.5633 26.9163C57.6869 27.1353 57.7486 27.3904 57.7486 27.6827C57.7486 27.9751 57.6861 28.2302 57.5611 28.4454C57.4374 28.6606 57.2552 28.8261 57.0141 28.9443C56.7728 29.06 56.4766 29.1185 56.1254 29.1185H54.904V28.4305H56.0136C56.2191 28.4305 56.3873 28.4019 56.5183 28.3459C56.6493 28.2874 56.7461 28.2028 56.8085 28.0933C56.8726 27.9813 56.9046 27.8445 56.9046 27.6827C56.9046 27.5198 56.8726 27.3817 56.8085 27.2672C56.7446 27.1502 56.647 27.0631 56.516 27.0034C56.385 26.9425 56.2161 26.9114 56.0092 26.9114H55.25V30.7931H54.4216ZM56.784 28.7204L57.9161 30.7931H56.9917L55.8796 28.7204H56.784ZM59.5801 30.7931V26.2196H61.2949C61.6463 26.2196 61.941 26.2806 62.1791 26.4025C62.4188 26.5244 62.5997 26.6961 62.7217 26.9163C62.8453 27.1353 62.9071 27.3904 62.9071 27.6827C62.9071 27.9751 62.8445 28.2302 62.7195 28.4454C62.5959 28.6606 62.4135 28.8261 62.1724 28.9443C61.9313 29.06 61.6351 29.1185 61.2837 29.1185H60.0623V28.4305H61.1721C61.3775 28.4305 61.5457 28.4019 61.6767 28.3459C61.8078 28.2874 61.9045 28.2028 61.967 28.0933C62.0311 27.9813 62.0631 27.8445 62.0631 27.6827C62.0631 27.5198 62.0311 27.3817 61.967 27.2672C61.9031 27.1502 61.8055 27.0631 61.6745 27.0034C61.5435 26.9425 61.3745 26.9114 61.1676 26.9114H60.4085V30.7931H59.5801ZM61.9425 28.7204L63.0745 30.7931H62.1501L61.0381 28.7204H61.9425ZM65.5669 26.2196V30.7931H64.7385V26.2196H65.5669ZM67.5328 30.7931V26.2196H70.5071V26.9139H68.3613V28.1555H70.353V28.8497H68.3613V30.0976H70.5249V30.7931H67.5328ZM72.4211 30.7931V26.2196H74.136C74.4872 26.2196 74.782 26.2806 75.0202 26.4025C75.2598 26.5244 75.4407 26.6961 75.5628 26.9163C75.6863 27.1353 75.7482 27.3904 75.7482 27.6827C75.7482 27.9751 75.6856 28.2302 75.5605 28.4454C75.437 28.6606 75.2546 28.8261 75.0135 28.9443C74.7724 29.06 74.4761 29.1185 74.1248 29.1185H72.9034V28.4305H74.0132C74.2186 28.4305 74.3868 28.4019 74.5178 28.3459C74.6488 28.2874 74.7455 28.2028 74.8081 28.0933C74.872 27.9813 74.9041 27.8445 74.9041 27.6827C74.9041 27.5198 74.872 27.3817 74.8081 27.2672C74.744 27.1502 74.6466 27.0631 74.5156 27.0034C74.3846 26.9425 74.2156 26.9114 74.0087 26.9114H73.2495V30.7931H72.4211ZM74.7835 28.7204L75.9156 30.7931H74.9912L73.8792 28.7204H74.7835ZM84.1224 27.7624H83.2873C83.2634 27.6255 83.2195 27.5048 83.1556 27.3991C83.0915 27.2908 83.0119 27.2 82.9166 27.1266C82.8214 27.052 82.7126 26.996 82.5906 26.9586C82.47 26.9201 82.3398 26.9002 82.1998 26.9002C81.9512 26.9002 81.731 26.9636 81.5389 27.088C81.3469 27.2112 81.1965 27.3929 81.0879 27.633C80.9792 27.8706 80.9249 28.1617 80.9249 28.5064C80.9249 28.856 80.9792 29.1508 81.0879 29.3897C81.198 29.6286 81.3484 29.809 81.5389 29.9309C81.731 30.0516 81.9505 30.1113 82.1977 30.1113C82.3345 30.1113 82.4626 30.0939 82.5816 30.0578C82.7023 30.0205 82.8102 29.967 82.9055 29.8948C83.0022 29.8239 83.0834 29.7356 83.1488 29.6311C83.2158 29.5278 83.2619 29.4084 83.2873 29.274L84.1224 29.279C84.0912 29.4955 84.0233 29.6995 83.9192 29.8898C83.8164 30.0814 83.6817 30.2494 83.515 30.395C83.3483 30.5393 83.1533 30.6525 82.93 30.7346C82.7067 30.8143 82.4588 30.8553 82.1865 30.8553C81.7845 30.8553 81.4258 30.762 81.1102 30.5754C80.7947 30.39 80.5461 30.1213 80.3644 29.7704C80.1828 29.4183 80.092 28.9978 80.092 28.5064C80.092 28.0137 80.1835 27.5919 80.3667 27.2423C80.5498 26.8915 80.7992 26.6227 81.1147 26.4361C81.4303 26.2507 81.7875 26.1574 82.1865 26.1574C82.441 26.1574 82.6777 26.1923 82.8965 26.2644C83.1154 26.3353 83.3103 26.4411 83.4815 26.5792C83.6527 26.716 83.7934 26.884 83.9035 27.0843C84.0151 27.2821 84.0882 27.5086 84.1224 27.7624ZM90.0361 28.5064C90.0361 28.999 89.9437 29.4208 89.7592 29.7717C89.5761 30.1225 89.326 30.39 89.0089 30.5754C88.6934 30.762 88.3353 30.8553 87.9349 30.8553C87.5345 30.8553 87.1758 30.762 86.8586 30.5754C86.5431 30.3888 86.2931 30.12 86.1084 29.7704C85.9254 29.4183 85.8338 28.9978 85.8338 28.5064C85.8338 28.0137 85.9254 27.5919 86.1084 27.2423C86.2931 26.8915 86.5431 26.6227 86.8586 26.4361C87.1758 26.2507 87.5345 26.1574 87.9349 26.1574C88.3353 26.1574 88.6934 26.2507 89.0089 26.4361C89.326 26.6227 89.5761 26.8915 89.7592 27.2423C89.9437 27.5919 90.0361 28.0137 90.0361 28.5064ZM89.2032 28.5064C89.2032 28.1592 89.1489 27.8669 89.0402 27.628C88.933 27.3891 88.7842 27.2075 88.5936 27.0855C88.4031 26.9624 88.1835 26.9002 87.9349 26.9002C87.6864 26.9002 87.4668 26.9624 87.2763 27.0855C87.0857 27.2075 86.9361 27.3891 86.8274 27.628C86.7203 27.8669 86.6667 28.1592 86.6667 28.5064C86.6667 28.8535 86.7203 29.1459 86.8274 29.386C86.9361 29.6236 87.0857 29.8053 87.2763 29.9284C87.4668 30.0504 87.6864 30.1113 87.9349 30.1113C88.1835 30.1113 88.4031 30.0504 88.5936 29.9284C88.7842 29.8053 88.933 29.6236 89.0402 29.386C89.1489 29.1459 89.2032 28.8535 89.2032 28.5064ZM95.646 26.2196V30.7931H94.9093L92.7545 27.6778H92.7166V30.7931H91.8882V26.2196H92.6295L94.782 29.3362H94.8222V26.2196H95.646ZM100.103 27.4762C100.082 27.2821 99.9942 27.1303 99.8393 27.0208C99.686 26.9126 99.4866 26.8579 99.241 26.8579C99.0683 26.8579 98.9201 26.884 98.7966 26.9363C98.673 26.9885 98.5785 27.0594 98.5131 27.149C98.4475 27.2373 98.414 27.3393 98.4125 27.4538C98.4125 27.5496 98.4342 27.6317 98.4773 27.7026C98.522 27.7723 98.5822 27.832 98.6581 27.8806C98.7341 27.9291 98.8182 27.9689 98.9106 28.0012C99.0027 28.0336 99.0958 28.0622 99.1896 28.0846L99.6183 28.1916C99.791 28.2314 99.957 28.2862 100.116 28.3546C100.277 28.423 100.421 28.5089 100.547 28.6134C100.675 28.7179 100.776 28.8435 100.851 28.9903C100.925 29.1384 100.963 29.3101 100.963 29.5091C100.963 29.7766 100.894 30.013 100.757 30.2171C100.62 30.4186 100.422 30.5779 100.163 30.6923C99.9056 30.8055 99.5937 30.8615 99.2276 30.8615C98.8717 30.8615 98.5629 30.8068 98.3009 30.6961C98.0404 30.5866 97.8365 30.4261 97.6891 30.2146C97.5432 30.0031 97.4644 29.7455 97.4524 29.442H98.2675C98.2793 29.6012 98.3284 29.7331 98.4148 29.8388C98.5011 29.9446 98.6136 30.0242 98.7519 30.0752C98.8919 30.1275 99.0482 30.1536 99.2208 30.1536C99.401 30.1536 99.5588 30.1275 99.6942 30.074C99.8312 30.018 99.9383 29.9421 100.016 29.8463C100.093 29.748 100.133 29.6323 100.134 29.5017C100.133 29.3822 100.098 29.2852 100.029 29.2068C99.9607 29.1284 99.8647 29.0625 99.7411 29.0102C99.6191 28.9567 99.4761 28.9095 99.3124 28.8684L98.7921 28.734C98.4155 28.637 98.1178 28.4902 97.8989 28.2936C97.6817 28.0958 97.573 27.8333 97.573 27.5061C97.573 27.2361 97.646 27.0009 97.7918 26.7982C97.9392 26.5954 98.1394 26.4386 98.3925 26.3266C98.6456 26.2134 98.9321 26.1574 99.2521 26.1574C99.5767 26.1574 99.861 26.2134 100.105 26.3266C100.351 26.4386 100.543 26.5941 100.683 26.7932C100.823 26.991 100.895 27.2187 100.9 27.4762H100.103ZM105.653 26.2196H106.481V29.2068C106.481 29.5353 106.404 29.8227 106.249 30.0715C106.095 30.3203 105.88 30.5144 105.601 30.6538C105.323 30.7931 104.998 30.8615 104.625 30.8615C104.252 30.8615 103.926 30.7931 103.648 30.6538C103.369 30.5144 103.153 30.3203 103 30.0715C102.847 29.8227 102.77 29.5353 102.77 29.2068V26.2196H103.598V29.1384C103.598 29.3287 103.64 29.4979 103.723 29.6472C103.808 29.7965 103.927 29.9122 104.081 29.9981C104.234 30.0815 104.416 30.1225 104.625 30.1225C104.835 30.1225 105.017 30.0815 105.17 29.9981C105.325 29.9122 105.444 29.7965 105.528 29.6472C105.611 29.4979 105.653 29.3287 105.653 29.1384V26.2196ZM108.45 30.7931V26.2196H109.279V30.0976H111.293V30.7931H108.45ZM112.296 26.9139V26.2196H115.945V26.9139H114.532V30.7931H113.71V26.9139H112.296ZM118.545 26.2196V30.7931H117.717V26.2196H118.545ZM124.269 26.2196V30.7931H123.533L121.378 27.6778H121.34V30.7931H120.512V26.2196H121.252L123.405 29.3362H123.446V26.2196H124.269ZM129.305 27.6803C129.267 27.5596 129.216 27.4513 129.15 27.3555C129.087 27.2597 129.008 27.1764 128.919 27.1079C128.829 27.0395 128.726 26.9885 128.61 26.9537C128.495 26.9188 128.368 26.9002 128.231 26.9002C127.985 26.9002 127.766 26.9624 127.574 27.0855C127.382 27.21 127.231 27.3916 127.121 27.6305C127.012 27.8694 126.958 28.1592 126.958 28.5014C126.958 28.8473 127.012 29.1396 127.121 29.3785C127.229 29.6186 127.381 29.8015 127.574 29.9259C127.768 30.0504 127.992 30.1113 128.248 30.1113C128.481 30.1113 128.681 30.0665 128.852 29.9769C129.022 29.8886 129.154 29.7617 129.246 29.5975C129.339 29.4333 129.385 29.2392 129.385 29.0177L129.572 29.0463H128.33V28.3994H130.187V28.948C130.187 29.3399 130.103 29.6783 129.937 29.9645C129.77 30.2494 129.541 30.4709 129.249 30.6251C128.957 30.7782 128.622 30.8553 128.245 30.8553C127.823 30.8553 127.453 30.7608 127.135 30.5716C126.817 30.3813 126.569 30.1113 126.391 29.7605C126.214 29.4096 126.125 28.9928 126.125 28.5101C126.125 28.1418 126.177 27.8121 126.281 27.521C126.387 27.2311 126.534 26.9848 126.723 26.782C126.912 26.5779 127.135 26.4237 127.389 26.3179C127.644 26.2109 127.92 26.1574 128.22 26.1574C128.472 26.1574 128.709 26.1947 128.928 26.2681C129.147 26.3415 129.341 26.4461 129.51 26.5817C129.682 26.7173 129.822 26.8778 129.932 27.0632C130.042 27.2498 130.114 27.4551 130.148 27.6803H129.305ZM137.749 27.6803C137.711 27.5596 137.66 27.4513 137.594 27.3555C137.531 27.2597 137.454 27.1764 137.363 27.1079C137.273 27.0395 137.17 26.9885 137.054 26.9537C136.939 26.9188 136.812 26.9002 136.675 26.9002C136.429 26.9002 136.21 26.9624 136.018 27.0855C135.826 27.21 135.675 27.3916 135.565 27.6305C135.456 27.8694 135.402 28.1592 135.402 28.5014C135.402 28.8473 135.456 29.1396 135.565 29.3785C135.673 29.6186 135.825 29.8015 136.018 29.9259C136.212 30.0504 136.436 30.1113 136.692 30.1113C136.925 30.1113 137.125 30.0665 137.296 29.9769C137.466 29.8886 137.598 29.7617 137.69 29.5975C137.783 29.4333 137.829 29.2392 137.829 29.0177L138.016 29.0463H136.776V28.3994H138.631V28.948C138.631 29.3399 138.547 29.6783 138.381 29.9645C138.214 30.2494 137.985 30.4709 137.693 30.6251C137.401 30.7782 137.066 30.8553 136.689 30.8553C136.267 30.8553 135.897 30.7608 135.579 30.5716C135.262 30.3813 135.013 30.1113 134.835 29.7605C134.658 29.4096 134.569 28.9928 134.569 28.5101C134.569 28.1418 134.621 27.8121 134.725 27.521C134.831 27.2311 134.978 26.9848 135.167 26.782C135.356 26.5779 135.579 26.4237 135.833 26.3179C136.088 26.2109 136.364 26.1574 136.664 26.1574C136.916 26.1574 137.153 26.1947 137.372 26.2681C137.591 26.3415 137.785 26.4461 137.954 26.5817C138.126 26.7173 138.266 26.8778 138.376 27.0632C138.486 27.2498 138.559 27.4551 138.592 27.6803H137.749ZM140.501 26.2196H141.515L142.872 29.5328H142.925L144.283 26.2196H145.297V30.7931H144.502V27.6504H144.459L143.195 30.7794H142.602L141.338 27.6442H141.296V30.7931H140.501V26.2196ZM147.268 30.7931V26.2196H149.018C149.349 26.2196 149.624 26.2719 149.842 26.3764C150.063 26.4784 150.227 26.619 150.336 26.7982C150.446 26.9761 150.501 27.1789 150.501 27.4053C150.501 27.5919 150.465 27.7512 150.394 27.883C150.322 28.0137 150.226 28.1207 150.105 28.2028C149.985 28.2837 149.85 28.3434 149.701 28.3782V28.423C149.864 28.433 150.02 28.4827 150.168 28.5735C150.318 28.6619 150.441 28.7888 150.537 28.953C150.632 29.116 150.679 29.3138 150.679 29.5465C150.679 29.7829 150.622 29.9956 150.507 30.1847C150.393 30.3726 150.22 30.5206 149.99 30.6301C149.758 30.7384 149.468 30.7931 149.119 30.7931H147.268ZM148.096 30.1001H148.987C149.288 30.1001 149.505 30.0429 149.636 29.9284C149.771 29.8127 149.838 29.6634 149.838 29.4818C149.838 29.3462 149.804 29.2242 149.737 29.116C149.67 29.0053 149.575 28.9194 149.451 28.8572C149.328 28.7925 149.181 28.7602 149.009 28.7602H148.096V30.1001ZM148.096 28.1642H148.916C149.059 28.1642 149.187 28.1381 149.302 28.0858C149.416 28.0323 149.507 27.9577 149.572 27.8606C149.639 27.7624 149.672 27.6467 149.672 27.5123C149.672 27.3356 149.61 27.1888 149.485 27.0744C149.361 26.9599 149.177 26.9027 148.933 26.9027H148.096V28.1642ZM152.469 30.7931V26.2196H153.298V28.1555H155.417V26.2196H156.248V30.7931H155.417V28.8497H153.298V30.7931H152.469Z" fill="#5B3926"/>
<defs>
<linearGradient id="paint0_linear_550_520" x1="13.7913" y1="13.2724" x2="4.30235" y2="18.7509" gradientUnits="userSpaceOnUse">
<stop offset="0.0275" stop-color="#847B6F"/>
<stop offset="0.2527" stop-color="#B6997C"/>
<stop offset="0.3058" stop-color="#C4A881"/>
<stop offset="0.4612" stop-color="#EAD08F"/>
<stop offset="0.544" stop-color="#F9E093"/>
<stop offset="0.6186" stop-color="#ECD28F"/>
<stop offset="0.7525" stop-color="#CBAF84"/>
<stop offset="0.8297" stop-color="#B6997C"/>
<stop offset="0.9945" stop-color="#847B6F"/>
</linearGradient>
<linearGradient id="paint1_linear_550_520" x1="26.2129" y1="13.2722" x2="35.7016" y2="18.7507" gradientUnits="userSpaceOnUse">
<stop offset="0.0275" stop-color="#847B6F"/>
<stop offset="0.2527" stop-color="#B6997C"/>
<stop offset="0.3058" stop-color="#C4A881"/>
<stop offset="0.4612" stop-color="#EAD08F"/>
<stop offset="0.544" stop-color="#F9E093"/>
<stop offset="0.6186" stop-color="#ECD28F"/>
<stop offset="0.7525" stop-color="#CBAF84"/>
<stop offset="0.8297" stop-color="#B6997C"/>
<stop offset="0.9945" stop-color="#847B6F"/>
</linearGradient>
<linearGradient id="paint2_linear_550_520" x1="13.608" y1="20.8327" x2="26.367" y2="20.8327" gradientUnits="userSpaceOnUse">
<stop offset="0.0275" stop-color="#847B6F"/>
<stop offset="0.2527" stop-color="#B6997C"/>
<stop offset="0.3058" stop-color="#C4A881"/>
<stop offset="0.4612" stop-color="#EAD08F"/>
<stop offset="0.544" stop-color="#F9E093"/>
<stop offset="0.6186" stop-color="#ECD28F"/>
<stop offset="0.7525" stop-color="#CBAF84"/>
<stop offset="0.8297" stop-color="#B6997C"/>
<stop offset="0.9945" stop-color="#847B6F"/>
</linearGradient>
<linearGradient id="paint3_linear_550_520" x1="18.34" y1="23.4817" x2="22.3103" y2="23.4817" gradientUnits="userSpaceOnUse">
<stop stop-color="#B6997C"/>
<stop offset="1" stop-color="#F9E093"/>
</linearGradient>
</defs>
</svg>
