<svg width="173" height="120" viewBox="0 0 173 120" fill="none" xmlns="http://www.w3.org/2000/svg">
<path d="M76.959 100.4C82.5585 100.437 83.7954 105.053 82.3119 107.816C81.193 109.899 79.2848 110.56 77.063 110.457C74.7619 110.353 72.9841 109.099 72.3727 107.113C71.7507 105.09 72.0714 103.223 73.6765 101.722C74.7636 100.707 76.1133 100.382 76.959 100.4ZM80.5358 105.371C80.5129 104.639 80.4512 103.91 80.2063 103.214C79.75 101.924 78.7915 101.29 77.3819 101.316C76.0516 101.341 75.1266 102.028 74.739 103.332C74.3566 104.62 74.3355 105.933 74.665 107.229C75.0456 108.727 76.0375 109.515 77.4647 109.55C78.8443 109.583 79.8469 108.78 80.2927 107.275C80.4759 106.657 80.5112 106.015 80.5358 105.371Z" fill="white"/>
<path d="M51.334 102.985C51.334 104.897 51.3445 106.597 51.3287 108.297C51.3216 109.02 51.5577 109.509 52.3488 109.541C52.6836 109.553 52.8246 109.673 52.7876 110.019C52.747 110.39 52.4739 110.297 52.259 110.299C51.378 110.306 50.4988 110.304 49.6178 110.301C49.3905 110.301 49.1368 110.352 49.0945 109.998C49.0487 109.613 49.2883 109.562 49.5702 109.536C50.2803 109.469 50.4741 109.023 50.4671 108.378C50.4512 106.5 50.4547 104.622 50.46 102.744C50.4618 102.025 50.2574 101.459 49.4557 101.337C49.1403 101.29 49.0716 101.128 49.0963 100.858C49.1245 100.56 49.3447 100.58 49.5509 100.58C50.2556 100.578 50.9604 100.599 51.6634 100.571C52.0616 100.555 52.222 100.818 52.4299 101.064C53.8465 102.747 55.2666 104.424 56.6885 106.104C56.8683 106.315 57.0586 106.518 57.4074 106.909C57.4409 105.075 57.5537 103.484 57.3176 101.898C57.2506 101.45 56.8489 101.322 56.4436 101.325C56.137 101.327 56.0313 101.211 56.0331 100.913C56.0349 100.55 56.2727 100.576 56.5123 100.576C57.4215 100.578 58.3324 100.578 59.2416 100.576C59.4848 100.576 59.7209 100.564 59.7314 100.915C59.7403 101.225 59.5905 101.327 59.3033 101.316C58.4452 101.285 58.3113 101.824 58.3166 102.527C58.3324 104.874 58.3289 107.222 58.3131 109.569C58.3113 109.828 58.5051 110.2 58.1122 110.338C57.7299 110.471 57.4638 110.255 57.2171 109.959C55.4182 107.793 53.6069 105.638 51.7991 103.482C51.6952 103.357 51.5771 103.242 51.334 102.985Z" fill="white"/>
<path d="M116.387 104.66C116.387 103.928 116.386 103.193 116.387 102.46C116.389 101.797 116.218 101.283 115.41 101.318C115.124 101.33 114.969 101.23 114.978 100.918C114.987 100.567 115.223 100.578 115.466 100.578C116.816 100.58 118.165 100.58 119.515 100.578C119.769 100.578 119.984 100.594 119.984 100.939C119.984 101.265 119.8 101.323 119.531 101.32C118.752 101.309 118.553 101.76 118.565 102.462C118.593 103.987 118.549 105.513 118.583 107.037C118.618 108.62 119.344 109.432 120.722 109.527C122.05 109.617 123.093 108.783 123.287 107.321C123.515 105.603 123.368 103.866 123.358 102.137C123.354 101.649 123.035 101.322 122.498 101.329C122.17 101.332 121.918 101.307 121.968 100.867C122.017 100.414 122.353 100.594 122.57 100.589C123.421 100.567 124.272 100.58 125.123 100.58C125.361 100.58 125.608 100.555 125.62 100.909C125.631 101.212 125.491 101.325 125.199 101.322C124.401 101.315 124.242 101.824 124.248 102.492C124.258 103.869 124.249 105.249 124.248 106.629C124.244 108.928 123.252 110.087 120.986 110.44C118.283 110.861 116.398 109.25 116.387 106.509C116.386 105.892 116.387 105.277 116.387 104.66Z" fill="white"/>
<path d="M132.474 101.394C132.592 100.997 132.629 100.583 133.14 100.693C133.586 100.788 133.383 101.165 133.399 101.42C133.429 101.917 133.42 102.417 133.402 102.916C133.395 103.117 133.533 103.42 133.143 103.446C132.867 103.464 132.634 103.455 132.53 103.108C132.449 102.833 132.294 102.574 132.137 102.329C131.811 101.815 131.355 101.461 130.747 101.332C129.85 101.144 129.093 101.441 128.904 102.1C128.673 102.914 129.186 103.362 129.813 103.698C130.534 104.083 131.281 104.423 132.005 104.801C134.067 105.876 134.641 107.34 133.651 108.963C132.632 110.632 130.425 110.986 128.73 109.747C128.545 109.612 128.372 109.46 128.157 109.286C128.079 109.453 127.983 109.575 127.968 109.707C127.933 110.047 127.754 110.154 127.435 110.128C127.072 110.098 127.135 109.827 127.133 109.606C127.126 108.813 127.133 108.022 127.128 107.229C127.126 106.979 127.126 106.752 127.47 106.748C127.724 106.747 127.893 106.785 127.976 107.094C128.145 107.716 128.405 108.306 128.851 108.794C129.554 109.566 130.597 109.83 131.392 109.437C132.342 108.967 132.491 107.853 131.64 107.226C131.128 106.849 130.536 106.572 129.956 106.297C129.371 106.019 128.805 105.719 128.309 105.305C127.077 104.276 126.797 103.025 127.514 101.811C128.233 100.594 129.847 100.086 131.209 100.62C131.654 100.791 132 101.108 132.474 101.394Z" fill="white"/>
<path d="M109.181 100.58C110.56 100.58 111.942 100.605 113.32 100.568C113.869 100.553 114.047 100.724 114.003 101.265C113.957 101.82 113.987 102.381 113.994 102.937C113.998 103.212 113.92 103.387 113.607 103.397C113.32 103.406 113.231 103.276 113.149 103.003C112.699 101.537 112.114 101.212 110.606 101.45C110.229 101.51 110.217 101.709 110.217 101.989C110.218 104.162 110.227 106.334 110.213 108.507C110.21 109.166 110.536 109.483 111.151 109.536C111.477 109.564 111.617 109.679 111.582 110.024C111.543 110.41 111.265 110.299 111.061 110.301C109.769 110.309 108.478 110.308 107.186 110.302C106.973 110.301 106.703 110.385 106.661 110.015C106.619 109.649 106.807 109.569 107.116 109.548C107.849 109.501 108.094 109.088 108.083 108.369C108.051 106.285 108.05 104.201 108.087 102.116C108.097 101.547 107.903 101.447 107.387 101.447C105.747 101.449 105.636 101.491 105.137 103.02C105.047 103.293 104.956 103.408 104.668 103.401C104.288 103.39 104.374 103.122 104.356 102.904C104.351 102.846 104.356 102.786 104.355 102.728C104.309 100.583 104.309 100.583 106.451 100.583C107.361 100.58 108.27 100.58 109.181 100.58Z" fill="white"/>
<path d="M101.691 110.301C101.076 110.301 100.46 110.301 99.8446 110.301C99.6403 110.301 99.4271 110.327 99.4218 110.012C99.4165 109.751 99.4341 109.576 99.7742 109.548C100.141 109.518 100.666 109.462 100.445 108.914C100.234 108.387 100.368 107.525 99.4024 107.545C98.8756 107.555 98.347 107.547 97.8184 107.547C96.9233 107.548 96.5269 107.94 96.4811 108.836C96.4564 109.353 96.7982 109.474 97.1947 109.538C97.4554 109.578 97.6316 109.652 97.6105 109.973C97.5858 110.323 97.348 110.302 97.1119 110.302C96.2908 110.302 95.4697 110.306 94.6486 110.301C94.4266 110.299 94.1606 110.359 94.1535 109.983C94.15 109.751 94.1905 109.594 94.4548 109.546C95.2037 109.409 95.4679 108.794 95.7023 108.195C96.6256 105.83 97.5224 103.454 98.4439 101.087C98.5584 100.793 98.5549 100.388 99.0817 100.39C99.6033 100.391 99.6085 100.793 99.7266 101.087C100.687 103.501 101.631 105.922 102.574 108.343C102.791 108.902 103.013 109.453 103.705 109.545C104.061 109.592 104.012 109.828 104.001 110.059C103.985 110.392 103.721 110.295 103.539 110.297C102.923 110.308 102.308 110.301 101.691 110.301ZM98.421 103.632C98.2201 104.157 98.0845 104.502 97.9541 104.849C97.1735 106.923 97.1735 106.923 99.3989 106.8C99.4517 106.796 99.5028 106.763 99.6244 106.717C99.2491 105.753 98.8721 104.789 98.421 103.632Z" fill="white"/>
<path d="M66.7377 107.499C67.5041 105.688 68.2124 104.056 68.882 102.409C69.1198 101.826 69.0071 101.352 68.2371 101.325C67.9622 101.315 67.7103 101.325 67.7226 100.922C67.7367 100.485 68.0468 100.587 68.2864 100.583C69.1357 100.575 69.9867 100.573 70.836 100.583C71.0738 100.587 71.391 100.479 71.4016 100.918C71.4086 101.234 71.2588 101.299 70.9822 101.334C70.2898 101.422 70.0678 102 69.8352 102.536C68.7798 104.971 67.7384 107.409 66.6848 109.846C66.5667 110.121 66.5527 110.473 66.0928 110.487C65.5836 110.503 65.5607 110.11 65.432 109.809C64.3837 107.369 63.3388 104.927 62.2993 102.483C62.0403 101.877 61.7936 101.269 60.969 101.318C60.6536 101.337 60.6748 101.121 60.6624 100.909C60.6448 100.622 60.8087 100.578 61.0448 100.578C62.4226 100.582 63.8005 100.585 65.1783 100.576C65.4532 100.575 65.6241 100.619 65.6082 100.955C65.5959 101.207 65.5078 101.279 65.2541 101.33C64.248 101.53 64.2022 101.626 64.6075 102.578C65.284 104.157 65.973 105.732 66.7377 107.499Z" fill="white"/>
<path d="M88.7668 110.301C87.5352 110.301 86.3036 110.309 85.0738 110.293C84.8271 110.29 84.4641 110.463 84.4394 109.948C84.4201 109.532 84.6967 109.548 84.9469 109.527C85.6217 109.471 85.842 109.027 85.8455 108.447C85.8596 106.424 85.8578 104.402 85.8508 102.379C85.849 101.732 85.5689 101.302 84.8553 101.322C84.5575 101.329 84.4412 101.228 84.4412 100.922C84.443 100.56 84.6703 100.58 84.9099 100.58C86.2296 100.58 87.5475 100.578 88.8672 100.583C89.0892 100.583 89.3465 100.53 89.3676 100.9C89.3888 101.285 89.1703 101.318 88.8743 101.325C88.1572 101.343 87.9422 101.764 87.9493 102.43C87.9686 104.364 87.9493 106.299 87.9598 108.234C87.9651 109.18 88.1977 109.397 89.1685 109.434C91.0538 109.502 91.6828 109.097 92.3718 107.298C92.4669 107.051 92.5726 106.988 92.8017 106.986C93.0977 106.983 93.1277 107.171 93.1241 107.392C93.1118 108.241 93.0854 109.09 93.0854 109.939C93.0854 110.359 92.8052 110.304 92.5462 110.304C91.2882 110.301 90.0266 110.301 88.7668 110.301Z" fill="white"/>
<path d="M46.5762 105.385C46.5762 106.322 46.5903 107.261 46.5709 108.199C46.5551 108.924 46.7101 109.495 47.577 109.541C47.8871 109.557 48.0721 109.656 48.0246 110.017C47.977 110.383 47.7092 110.297 47.4942 110.297C46.1745 110.304 44.8566 110.302 43.5369 110.299C43.3148 110.299 43.0682 110.362 43.04 109.989C43.01 109.606 43.2179 109.561 43.5087 109.541C44.3033 109.488 44.4971 109.013 44.4848 108.283C44.4513 106.378 44.4601 104.472 44.4795 102.567C44.4866 101.813 44.2963 101.279 43.417 101.322C43.0717 101.339 43.0453 101.145 43.0453 100.883C43.0453 100.575 43.2497 100.582 43.4629 100.582C44.8407 100.582 46.2186 100.582 47.5964 100.582C47.8096 100.582 48.0157 100.582 48.0246 100.879C48.0316 101.144 47.984 101.332 47.6475 101.32C46.7049 101.288 46.5586 101.898 46.5709 102.657C46.5886 103.566 46.5762 104.476 46.5762 105.385Z" fill="white"/>
<path d="M62.4647 37.4185C31.0797 29.331 12.3757 20.1317 5.94966 14.9762C-0.476389 9.82072 2.6389 1.01239 2.6389 1.01239C10.3599 18.1159 66.2641 33.277 66.2641 33.277L62.4647 37.4185ZM62.2692 38.9701C62.2692 38.9701 7.13469 25.0917 1.12401 12.2763C1.12401 12.2763 0.733077 21.3656 7.78218 25.8736C14.8435 30.3938 37.1148 37.0031 63.7963 42.4641L62.2692 38.9701ZM64.9813 44.4921C64.9813 44.4921 18.6307 34.6209 6.31616 27.9993C6.31616 27.9993 7.76996 32.263 14.5992 35.7326C21.7094 39.3488 37.7378 42.9161 62.7334 46.9354L64.9813 44.4921ZM66.765 49.1467C66.765 49.1467 23.4564 43.2948 11.7526 36.4656C11.7526 36.4656 16.7982 42.3663 24.4215 44.6997C31.5195 46.8743 39.8513 49.11 62.3059 50.967L66.765 49.1467ZM62.5868 52.2009C62.5868 52.2009 30.3955 51.2235 18.704 43.5636C18.704 43.5636 19.1194 45.7993 25.6676 49.3055C32.2158 52.7995 41.7938 53.8501 64.2361 55.7071L62.5868 52.2009ZM66.5084 56.5623C66.5084 56.5623 37.3835 56.5134 25.1179 50.7471C25.1179 50.7471 27.5734 54.1678 32.5212 55.9026C39.7536 58.4437 46.1308 59.1034 68.6586 59.1522L66.5084 56.5623ZM73.3254 59.6776C73.3254 59.6776 44.286 61.9865 31.7149 56.9166C31.7149 56.9166 34.366 60.2029 39.3871 61.6567C46.7538 63.7824 53.1066 63.3548 75.5978 62.1576L73.3254 59.6776Z" fill="url(#paint0_linear_1176_487)" stroke="#5B3926" stroke-width="0.488673"/>
<path d="M107.192 33.2646C107.192 33.2646 163.096 18.1035 170.817 1C170.817 1 173.945 9.83276 167.506 14.976C161.068 20.1193 142.389 29.3308 110.991 37.4183L107.192 33.2646ZM109.66 42.4639C136.341 37.003 158.613 30.3937 165.674 25.8734C172.735 21.3532 172.332 12.2761 172.332 12.2761C166.321 25.1038 111.187 38.9699 111.187 38.9699L109.66 42.4639ZM110.735 46.9475C135.718 42.9281 151.747 39.3608 158.869 35.7446C165.698 32.2751 167.152 28.0114 167.152 28.0114C154.838 34.6207 108.487 44.5041 108.487 44.5041L110.735 46.9475ZM111.15 50.979C133.605 49.1098 141.937 46.8864 149.035 44.7118C156.658 42.3661 161.703 36.4776 161.703 36.4776C150.012 43.3068 106.691 49.1587 106.691 49.1587L111.15 50.979ZM109.22 55.7069C131.675 53.8377 141.24 52.7993 147.789 49.3053C154.337 45.8113 154.752 43.5634 154.752 43.5634C143.061 51.2233 110.869 52.2007 110.869 52.2007L109.22 55.7069ZM104.81 59.1643C127.338 59.1032 133.715 58.4435 140.947 55.9146C145.883 54.1798 148.351 50.7591 148.351 50.7591C136.085 56.5254 106.96 56.5743 106.96 56.5743L104.81 59.1643ZM97.8584 62.1452C120.35 63.3424 126.715 63.7822 134.069 61.6443C139.102 60.1905 141.741 56.9042 141.741 56.9042C129.17 61.9864 100.131 59.6652 100.131 59.6652L97.8584 62.1452Z" fill="url(#paint1_linear_1176_487)" stroke="#5B3926" stroke-width="0.488673"/>
<path d="M86.667 23.8088C76.9913 27.0585 68.8182 22.9659 68.8182 22.9659C62.441 33.7533 58.2751 33.9977 58.2751 33.9977C58.2751 33.9977 62.9297 37.6749 62.9297 43.5634C62.9297 49.4519 50.8717 67.6061 64.1514 76.4267C74.0592 82.9993 83.2463 82.7794 86.3371 85.3572L86.6548 85.6504C89.3914 82.755 98.896 83.2437 109.158 76.4267C122.438 67.6061 110.38 49.4519 110.38 43.5634C110.38 37.6749 115.034 33.9977 115.034 33.9977C115.034 33.9977 110.869 33.7533 104.491 22.9659C104.491 22.9659 93.4718 26.9241 86.3494 23.6989" fill="url(#paint2_linear_1176_487)"/>
<path d="M86.667 23.8088C76.9913 27.0585 68.8182 22.9659 68.8182 22.9659C62.441 33.7533 58.2751 33.9977 58.2751 33.9977C58.2751 33.9977 62.9297 37.6749 62.9297 43.5634C62.9297 49.4519 50.8717 67.6061 64.1514 76.4267C74.0592 82.9993 83.2463 82.7794 86.3371 85.3572L86.6548 85.6504C89.3914 82.755 98.896 83.2437 109.158 76.4267C122.438 67.6061 110.38 49.4519 110.38 43.5634C110.38 37.6749 115.034 33.9977 115.034 33.9977C115.034 33.9977 110.869 33.7533 104.491 22.9659C104.491 22.9659 93.4718 26.9241 86.3494 23.6989" stroke="#5B3926" stroke-width="0.977346"/>
<path d="M96.0731 62.5117C96.0731 62.5117 99.7504 62.7926 101.412 61.1312C103.061 59.4819 103.66 62.0474 103.66 63.379C103.66 64.7107 103.66 65.6269 103.66 65.6269C103.66 65.6269 110 59.7018 105.724 55.4259C103.073 52.7749 100.948 53.3979 100.948 53.3979L99.8481 52.2984C99.8481 52.2984 97.136 48.3401 90.7466 48.6944C82.8912 48.6944 79.5193 52.0418 73.7408 56.4399H76.404C76.404 56.4399 70.0146 58.9688 69.5993 61.3144H72.3603C72.3603 61.3144 69.9658 62.3284 68.8174 64.8573C68.8174 64.8573 71.8105 62.6094 73.2765 63.1591C73.2765 63.1591 70.149 64.2587 69.3183 68.4002C69.3183 68.4002 72.348 64.3564 76.4895 64.8084C76.4895 64.8084 69.7825 68.7667 71.3463 75.7547C71.3463 75.7547 74.7425 70.6114 76.8683 70.0494C76.8683 70.0494 76.3674 75.5226 73.7408 78.137C71.1141 80.7636 71.1141 81.1667 71.1141 81.1667C71.1141 81.1667 77.6868 77.1841 77.6868 78.2225C77.6868 83.4635 84.5893 75.0095 84.5893 75.0095C84.5893 75.0095 78.2488 81.4477 84.2228 85.2105C84.2228 85.2105 82.8423 80.8858 84.9558 81.35C87.0693 81.8142 84.5404 86.4078 86.7761 89.4375C89.0118 92.4673 93.5076 90.4515 93.5076 90.4515C93.5076 90.4515 86.2874 88.5946 90.3801 83.549C90.3801 83.549 89.4638 85.6625 93.4098 85.6625C93.4098 85.6625 91.1986 82.1685 96.4396 77.7583C101.681 73.3602 97.9056 64.9062 96.0731 62.5117Z" fill="#5B3926"/>
<path d="M85.0776 61.2533C84.1124 61.5832 83.8314 62.8782 83.8314 62.8782C81.0704 63.4524 79.7877 67.1052 79.7877 67.1052C83.9292 65.3582 85.5785 66.2745 85.5785 66.2745C85.5785 66.2745 84.2957 65.9202 81.5347 68.0215C78.4316 70.3915 79.3723 74.9606 79.3723 74.9606C79.3723 74.9606 79.3723 74.9606 81.5347 72.7982C83.6971 70.6359 84.8943 70.9168 84.8943 70.9168C84.2957 75.8402 91.8335 77.856 91.8335 77.856C88.1073 75.6203 89.1213 69.6219 89.1213 69.6219C90.6362 72.5173 92.2 72.7005 92.2 72.7005C91.0027 70.587 91.7846 69.0721 91.7846 69.0721C94.4967 69.573 95.5962 72.8838 95.5962 72.8838C99.4079 70.1228 94.7777 65.8102 95.4374 63.0981C95.8528 61.3877 93.4705 63.8922 87.411 62.1207C85.7739 61.6565 85.0776 61.2533 85.0776 61.2533C85.2119 61.2045 84.9798 61.3144 85.8594 61.3144C87.7042 61.3144 91.0394 59.0177 91.0394 59.0177L90.9172 59.5674C93.1651 58.5046 93.3972 55.2427 93.3972 55.2427H90.8195C90.8195 55.2427 90.8805 57.5394 87.692 57.5394C84.7477 57.5394 84.8699 54.8884 84.7477 54.6929C84.5889 54.4364 84.4789 54.9739 84.4789 54.9739C84.4789 54.9739 83.9903 57.7716 86.7757 58.3702C90.172 59.1032 91.186 56.5254 91.186 56.5254C91.0271 57.9059 89.3779 59.3109 87.9363 60.1172C86.7879 60.7647 85.7617 61.0701 85.7617 61.0701" fill="url(#paint3_linear_1176_487)"/>
<path d="M100.117 53.7767C100.117 53.7767 98.004 54.6929 98.004 55.8902C98.004 57.0874 95.7927 58.1014 95.7927 58.1014C95.7927 58.1014 94.5222 54.5341 97.3565 53.5934C100.191 52.6527 100.117 53.7767 100.117 53.7767Z" fill="#E9CE8B"/>
<path d="M78.5678 43.6245H73.8154V42.7693C74.2064 42.7693 74.5118 42.7205 74.7195 42.6227C74.9272 42.525 75.0493 42.3662 75.1226 42.1707C75.1837 41.9752 75.2204 41.682 75.2204 41.3155V33.5334C75.2204 32.9959 75.1348 32.6172 74.9638 32.3973C74.7928 32.1773 74.4141 32.0674 73.8276 32.0674V31.2122H78.58V32.0674C78.1891 32.0674 77.8836 32.1163 77.6759 32.2262C77.4683 32.3239 77.3461 32.4828 77.2728 32.6782C77.2117 32.8737 77.1751 33.1669 77.1751 33.5334V41.3155C77.1751 41.6698 77.1995 41.9508 77.2606 42.1463C77.3217 42.3417 77.4438 42.5006 77.6393 42.6105C77.8348 42.7205 78.1402 42.7693 78.5556 42.7693V43.6245H78.5678Z" fill="#5B3926"/>
<path d="M89.0149 43.4901H88.3552C88.2575 42.9648 88.0987 42.5005 87.8788 42.0851C87.5245 42.5616 87.1213 42.977 86.6815 43.319C86.2295 43.6611 85.6186 43.8321 84.849 43.8321C84.006 43.8321 83.2241 43.5634 82.5034 43.0136C81.7826 42.4639 81.2084 41.7064 80.7808 40.7413C80.3532 39.7639 80.1455 38.6644 80.1455 37.4428C80.1455 36.5754 80.2555 35.7446 80.4876 34.9627C80.7197 34.1686 81.0496 33.4845 81.4771 32.8859C81.9047 32.2873 82.4178 31.823 83.0165 31.4809C83.6151 31.1389 84.2626 30.9678 84.9712 30.9678C86.144 30.9678 87.1091 31.4809 87.8788 32.4949C87.9765 32.2262 88.0742 31.8474 88.172 31.3466H88.795L88.905 35.9156H88.2453C88.1231 35.146 87.9032 34.4496 87.5978 33.851C87.2801 33.2524 86.9136 32.7881 86.486 32.4705C86.0585 32.1529 85.6064 31.994 85.13 31.994C84.6047 31.994 84.1282 32.1895 83.7128 32.5682C83.2974 32.947 82.9676 33.5334 82.7233 34.3152C82.4911 35.0971 82.369 36.0745 82.369 37.2351C82.369 38.3712 82.4667 39.3119 82.6622 40.0694C82.8576 40.8268 83.102 41.3888 83.3952 41.7797C83.6884 42.1707 83.9816 42.4272 84.2748 42.5616C84.568 42.696 84.849 42.7693 85.1055 42.7693C85.6675 42.7693 86.1806 42.5738 86.6326 42.1584C87.0847 41.7553 87.4634 41.2422 87.7444 40.6313C88.0376 40.0205 88.233 39.4097 88.3308 38.7988H88.9905V43.4901H89.0149Z" fill="#5B3926"/>
<path d="M100.046 43.4901H99.3982C99.3004 42.9648 99.1416 42.5005 98.9217 42.0851C98.5674 42.5616 98.1643 42.977 97.7245 43.319C97.2725 43.6611 96.6616 43.8321 95.892 43.8321C95.049 43.8321 94.2671 43.5634 93.5463 43.0136C92.8255 42.4639 92.2513 41.7064 91.8237 40.7413C91.3962 39.7639 91.1885 38.6644 91.1885 37.4428C91.1885 36.5754 91.2984 35.7446 91.5305 34.9627C91.7627 34.1686 92.0925 33.4845 92.5201 32.8859C92.9477 32.2873 93.4608 31.823 94.0594 31.4809C94.6581 31.1389 95.3055 30.9678 96.0141 30.9678C97.1869 30.9678 98.1521 31.4809 98.9217 32.4949C99.0195 32.2262 99.1172 31.8474 99.2149 31.3466H99.838L99.9479 35.9156H99.2882C99.1661 35.146 98.9462 34.4496 98.6407 33.851C98.3231 33.2524 97.9566 32.7881 97.529 32.4705C97.1014 32.1529 96.6494 31.994 96.1729 31.994C95.6476 31.994 95.1712 32.1895 94.7558 32.5682C94.3404 32.947 94.0106 33.5334 93.7662 34.3152C93.5341 35.0971 93.4119 36.0745 93.4119 37.2351C93.4119 38.3712 93.5097 39.3119 93.7051 40.0694C93.9006 40.8268 94.145 41.3888 94.4382 41.7797C94.7314 42.1707 95.0246 42.4272 95.3178 42.5616C95.611 42.696 95.8919 42.7693 96.1485 42.7693C96.7105 42.7693 97.2236 42.5738 97.6756 42.1584C98.1276 41.7553 98.5064 41.2422 98.7873 40.6313C99.0805 40.0205 99.276 39.4097 99.3737 38.7988H100.033V43.4901H100.046Z" fill="#5B3926"/>
<path d="M46.036 116.491H45.3648C45.3456 116.381 45.3103 116.284 45.2589 116.199C45.2074 116.112 45.1434 116.039 45.0669 115.98C44.9903 115.92 44.9029 115.875 44.8048 115.845C44.7079 115.814 44.6032 115.798 44.4908 115.798C44.2909 115.798 44.1139 115.849 43.9595 115.949C43.8052 116.048 43.6843 116.194 43.597 116.387C43.5096 116.578 43.466 116.812 43.466 117.089C43.466 117.37 43.5096 117.607 43.597 117.799C43.6855 117.991 43.8064 118.136 43.9595 118.234C44.1139 118.331 44.2903 118.379 44.489 118.379C44.599 118.379 44.7019 118.365 44.7976 118.336C44.8946 118.306 44.9813 118.263 45.0579 118.205C45.1356 118.148 45.2009 118.077 45.2535 117.993C45.3073 117.91 45.3444 117.814 45.3648 117.706L46.036 117.71C46.0109 117.884 45.9564 118.048 45.8727 118.201C45.7901 118.355 45.6818 118.49 45.5478 118.607C45.4138 118.723 45.2571 118.814 45.0776 118.88C44.8981 118.944 44.6989 118.977 44.48 118.977C44.1569 118.977 43.8686 118.902 43.6149 118.752C43.3613 118.603 43.1615 118.387 43.0155 118.105C42.8695 117.822 42.7965 117.484 42.7965 117.089C42.7965 116.693 42.8701 116.354 43.0173 116.073C43.1645 115.791 43.3649 115.575 43.6185 115.425C43.8722 115.276 44.1593 115.201 44.48 115.201C44.6846 115.201 44.8748 115.229 45.0507 115.287C45.2266 115.344 45.3833 115.429 45.5209 115.54C45.6585 115.65 45.7716 115.785 45.8601 115.946C45.9498 116.105 46.0085 116.287 46.036 116.491ZM47.9325 118.927H47.2218L48.5158 115.251H49.3377L50.6335 118.927H49.9228L48.9411 116.005H48.9124L47.9325 118.927ZM47.9558 117.485H49.8941V118.02H47.9558V117.485ZM51.9768 118.927V115.251H53.3551C53.6375 115.251 53.8744 115.3 54.0658 115.398C54.2585 115.496 54.4038 115.634 54.502 115.811C54.6013 115.987 54.6509 116.192 54.6509 116.427C54.6509 116.662 54.6007 116.867 54.5002 117.04C54.4008 117.213 54.2543 117.346 54.0605 117.441C53.8666 117.534 53.6285 117.581 53.3462 117.581H52.3645V117.028H53.2564C53.4215 117.028 53.5567 117.005 53.662 116.96C53.7673 116.913 53.8451 116.845 53.8953 116.757C53.9468 116.667 53.9725 116.557 53.9725 116.427C53.9725 116.296 53.9468 116.185 53.8953 116.093C53.8439 115.999 53.7655 115.929 53.6602 115.881C53.5549 115.832 53.4191 115.807 53.2528 115.807H52.6426V118.927H51.9768ZM53.8756 117.261L54.7855 118.927H54.0425L53.1487 117.261H53.8756ZM56.123 118.927V115.251H57.5013C57.7837 115.251 58.0206 115.3 58.212 115.398C58.4046 115.496 58.55 115.634 58.6481 115.811C58.7474 115.987 58.7971 116.192 58.7971 116.427C58.7971 116.662 58.7468 116.867 58.6463 117.04C58.547 117.213 58.4004 117.346 58.2066 117.441C58.0128 117.534 57.7747 117.581 57.4923 117.581H56.5106V117.028H57.4026C57.5677 117.028 57.7029 117.005 57.8082 116.96C57.9135 116.913 57.9913 116.845 58.0415 116.757C58.093 116.667 58.1187 116.557 58.1187 116.427C58.1187 116.296 58.093 116.185 58.0415 116.093C57.9901 115.999 57.9117 115.929 57.8064 115.881C57.7011 115.832 57.5653 115.807 57.399 115.807H56.7888V118.927H56.123ZM58.0218 117.261L58.9317 118.927H58.1887L57.2949 117.261H58.0218ZM60.935 115.251V118.927H60.2691V115.251H60.935ZM62.5151 118.927V115.251H64.9057V115.809H63.181V116.807H64.7819V117.365H63.181V118.368H64.92V118.927H62.5151ZM66.4441 118.927V115.251H67.8225C68.1048 115.251 68.3417 115.3 68.5332 115.398C68.7258 115.496 68.8712 115.634 68.9693 115.811C69.0686 115.987 69.1183 116.192 69.1183 116.427C69.1183 116.662 69.068 116.867 68.9675 117.04C68.8682 117.213 68.7216 117.346 68.5278 117.441C68.334 117.534 68.0959 117.581 67.8135 117.581H66.8318V117.028H67.7238C67.8889 117.028 68.0241 117.005 68.1294 116.96C68.2347 116.913 68.3124 116.845 68.3627 116.757C68.4141 116.667 68.4399 116.557 68.4399 116.427C68.4399 116.296 68.4141 116.185 68.3627 116.093C68.3112 115.999 68.2329 115.929 68.1276 115.881C68.0223 115.832 67.8865 115.807 67.7202 115.807H67.11V118.927H66.4441ZM68.3429 117.261L69.2529 118.927H68.5099L67.6161 117.261H68.3429ZM75.8492 116.491H75.178C75.1588 116.381 75.1235 116.284 75.0721 116.199C75.0206 116.112 74.9566 116.039 74.88 115.98C74.8035 115.92 74.7161 115.875 74.618 115.845C74.5211 115.814 74.4164 115.798 74.3039 115.798C74.1041 115.798 73.9271 115.849 73.7727 115.949C73.6184 116.048 73.4975 116.194 73.4102 116.387C73.3228 116.578 73.2792 116.812 73.2792 117.089C73.2792 117.37 73.3228 117.607 73.4102 117.799C73.4987 117.991 73.6196 118.136 73.7727 118.234C73.9271 118.331 74.1035 118.379 74.3022 118.379C74.4122 118.379 74.5151 118.365 74.6108 118.336C74.7078 118.306 74.7945 118.263 74.8711 118.205C74.9488 118.148 75.0141 118.077 75.0667 117.993C75.1205 117.91 75.1576 117.814 75.178 117.706L75.8492 117.71C75.8241 117.884 75.7696 118.048 75.6859 118.201C75.6033 118.355 75.495 118.49 75.361 118.607C75.227 118.723 75.0703 118.814 74.8908 118.88C74.7113 118.944 74.5121 118.977 74.2932 118.977C73.9701 118.977 73.6818 118.902 73.4281 118.752C73.1745 118.603 72.9747 118.387 72.8287 118.105C72.6827 117.822 72.6097 117.484 72.6097 117.089C72.6097 116.693 72.6833 116.354 72.8305 116.073C72.9777 115.791 73.1781 115.575 73.4317 115.425C73.6854 115.276 73.9725 115.201 74.2932 115.201C74.4978 115.201 74.688 115.229 74.8639 115.287C75.0398 115.344 75.1965 115.429 75.3341 115.54C75.4717 115.65 75.5848 115.785 75.6733 115.946C75.763 116.105 75.8217 116.287 75.8492 116.491ZM80.6024 117.089C80.6024 117.485 80.5282 117.824 80.3799 118.106C80.2327 118.388 80.0317 118.603 79.7768 118.752C79.5232 118.902 79.2354 118.977 78.9136 118.977C78.5917 118.977 78.3034 118.902 78.0485 118.752C77.7949 118.602 77.5939 118.386 77.4455 118.105C77.2984 117.822 77.2248 117.484 77.2248 117.089C77.2248 116.693 77.2984 116.354 77.4455 116.073C77.5939 115.791 77.7949 115.575 78.0485 115.425C78.3034 115.276 78.5917 115.201 78.9136 115.201C79.2354 115.201 79.5232 115.276 79.7768 115.425C80.0317 115.575 80.2327 115.791 80.3799 116.073C80.5282 116.354 80.6024 116.693 80.6024 117.089ZM79.933 117.089C79.933 116.81 79.8893 116.575 79.802 116.383C79.7158 116.191 79.5962 116.045 79.443 115.947C79.2899 115.848 79.1134 115.798 78.9136 115.798C78.7138 115.798 78.5373 115.848 78.3842 115.947C78.231 116.045 78.1108 116.191 78.0234 116.383C77.9373 116.575 77.8942 116.81 77.8942 117.089C77.8942 117.368 77.9373 117.603 78.0234 117.796C78.1108 117.987 78.231 118.133 78.3842 118.232C78.5373 118.33 78.7138 118.379 78.9136 118.379C79.1134 118.379 79.2899 118.33 79.443 118.232C79.5962 118.133 79.7158 117.987 79.802 117.796C79.8893 117.603 79.933 117.368 79.933 117.089ZM85.1115 115.251V118.927H84.5193L82.7874 116.423H82.7569V118.927H82.0911V115.251H82.6869L84.417 117.756H84.4493V115.251H85.1115ZM88.6937 116.261C88.677 116.105 88.6064 115.983 88.4819 115.895C88.3587 115.808 88.1984 115.764 88.001 115.764C87.8622 115.764 87.7431 115.785 87.6438 115.827C87.5445 115.869 87.4685 115.926 87.4159 115.998C87.3632 116.069 87.3363 116.151 87.3351 116.243C87.3351 116.32 87.3525 116.386 87.3872 116.443C87.4231 116.499 87.4715 116.547 87.5325 116.586C87.5936 116.625 87.6612 116.657 87.7354 116.683C87.8095 116.709 87.8843 116.732 87.9597 116.75L88.3043 116.836C88.4431 116.868 88.5765 116.912 88.7045 116.967C88.8337 117.022 88.9492 117.091 89.0509 117.175C89.1538 117.259 89.2351 117.36 89.2949 117.478C89.3548 117.597 89.3847 117.735 89.3847 117.895C89.3847 118.11 89.3296 118.3 89.2196 118.464C89.1095 118.626 88.9504 118.754 88.7422 118.846C88.5352 118.937 88.2845 118.982 87.9902 118.982C87.7042 118.982 87.456 118.938 87.2454 118.849C87.036 118.761 86.8721 118.632 86.7536 118.462C86.6364 118.292 86.573 118.085 86.5634 117.841H87.2185C87.228 117.969 87.2675 118.075 87.3369 118.16C87.4063 118.245 87.4967 118.309 87.6079 118.35C87.7204 118.392 87.846 118.413 87.9848 118.413C88.1296 118.413 88.2564 118.392 88.3653 118.349C88.4754 118.304 88.5615 118.243 88.6237 118.166C88.6859 118.087 88.7177 117.994 88.7188 117.889C88.7177 117.793 88.6895 117.715 88.6345 117.652C88.5795 117.589 88.5023 117.536 88.403 117.494C88.3049 117.451 88.19 117.413 88.0584 117.38L87.6402 117.272C87.3375 117.194 87.0982 117.076 86.9223 116.918C86.7477 116.759 86.6603 116.548 86.6603 116.285C86.6603 116.068 86.719 115.879 86.8362 115.716C86.9547 115.553 87.1156 115.427 87.319 115.337C87.5224 115.246 87.7527 115.201 88.0099 115.201C88.2708 115.201 88.4993 115.246 88.6955 115.337C88.8929 115.427 89.0479 115.552 89.1603 115.712C89.2728 115.871 89.3308 116.054 89.3344 116.261H88.6937ZM93.1544 115.251H93.8202V117.652C93.8202 117.916 93.758 118.147 93.6336 118.347C93.5104 118.547 93.3369 118.703 93.1131 118.815C92.8894 118.927 92.628 118.982 92.3288 118.982C92.0285 118.982 91.7665 118.927 91.5428 118.815C91.319 118.703 91.1455 118.547 91.0223 118.347C90.8991 118.147 90.8374 117.916 90.8374 117.652V115.251H91.5033V117.597C91.5033 117.75 91.5368 117.886 91.6038 118.006C91.672 118.126 91.7677 118.219 91.8909 118.288C92.0142 118.355 92.1601 118.388 92.3288 118.388C92.4975 118.388 92.6435 118.355 92.7668 118.288C92.8912 118.219 92.9869 118.126 93.0539 118.006C93.1209 117.886 93.1544 117.75 93.1544 117.597V115.251ZM95.4031 118.927V115.251H96.069V118.368H97.6878V118.927H95.4031ZM98.4944 115.809V115.251H101.427V115.809H100.291V118.927H99.6305V115.809H98.4944ZM103.517 115.251V118.927H102.851V115.251H103.517ZM108.118 115.251V118.927H107.526L105.794 116.423H105.763V118.927H105.098V115.251H105.693L107.423 117.756H107.456V115.251H108.118ZM112.165 116.425C112.135 116.328 112.094 116.241 112.041 116.164C111.99 116.087 111.927 116.02 111.855 115.965C111.783 115.91 111.7 115.869 111.607 115.841C111.514 115.813 111.412 115.798 111.302 115.798C111.104 115.798 110.928 115.848 110.774 115.947C110.62 116.047 110.498 116.193 110.41 116.385C110.322 116.577 110.279 116.81 110.279 117.085C110.279 117.363 110.322 117.598 110.41 117.79C110.497 117.983 110.619 118.13 110.774 118.23C110.93 118.33 111.11 118.379 111.316 118.379C111.503 118.379 111.664 118.343 111.801 118.271C111.938 118.2 112.044 118.098 112.118 117.966C112.193 117.834 112.23 117.678 112.23 117.5L112.38 117.523H111.382V117.003H112.874V117.444C112.874 117.759 112.807 118.031 112.673 118.261C112.539 118.49 112.355 118.668 112.12 118.792C111.886 118.915 111.616 118.977 111.313 118.977C110.974 118.977 110.677 118.901 110.421 118.749C110.166 118.596 109.966 118.379 109.823 118.097C109.681 117.815 109.609 117.48 109.609 117.092C109.609 116.796 109.651 116.531 109.735 116.297C109.82 116.064 109.938 115.866 110.09 115.703C110.242 115.539 110.421 115.415 110.625 115.33C110.83 115.244 111.052 115.201 111.293 115.201C111.496 115.201 111.686 115.231 111.862 115.29C112.038 115.349 112.194 115.433 112.33 115.542C112.468 115.651 112.581 115.78 112.669 115.929C112.758 116.079 112.816 116.244 112.843 116.425H112.165ZM118.952 116.425C118.922 116.328 118.881 116.241 118.828 116.164C118.777 116.087 118.715 116.02 118.642 115.965C118.57 115.91 118.487 115.869 118.394 115.841C118.301 115.813 118.199 115.798 118.089 115.798C117.891 115.798 117.715 115.848 117.561 115.947C117.407 116.047 117.285 116.193 117.197 116.385C117.109 116.577 117.066 116.81 117.066 117.085C117.066 117.363 117.109 117.598 117.197 117.79C117.284 117.983 117.406 118.13 117.561 118.23C117.717 118.33 117.897 118.379 118.103 118.379C118.29 118.379 118.451 118.343 118.588 118.271C118.725 118.2 118.831 118.098 118.905 117.966C118.98 117.834 119.017 117.678 119.017 117.5L119.167 117.523H118.17V117.003H119.661V117.444C119.661 117.759 119.594 118.031 119.46 118.261C119.326 118.49 119.142 118.668 118.907 118.792C118.673 118.915 118.403 118.977 118.1 118.977C117.761 118.977 117.464 118.901 117.208 118.749C116.953 118.596 116.753 118.379 116.61 118.097C116.468 117.815 116.396 117.48 116.396 117.092C116.396 116.796 116.438 116.531 116.522 116.297C116.607 116.064 116.725 115.866 116.877 115.703C117.029 115.539 117.208 115.415 117.412 115.33C117.617 115.244 117.839 115.201 118.08 115.201C118.283 115.201 118.473 115.231 118.649 115.29C118.825 115.349 118.981 115.433 119.117 115.542C119.255 115.651 119.368 115.78 119.456 115.929C119.545 116.079 119.603 116.244 119.63 116.425H118.952ZM121.164 115.251H121.979L123.07 117.914H123.113L124.204 115.251H125.019V118.927H124.38V116.401H124.346L123.33 118.916H122.853L121.837 116.396H121.803V118.927H121.164V115.251ZM126.603 118.927V115.251H128.01C128.276 115.251 128.497 115.293 128.672 115.377C128.85 115.459 128.982 115.572 129.069 115.716C129.158 115.859 129.202 116.022 129.202 116.204C129.202 116.354 129.173 116.482 129.116 116.588C129.058 116.693 128.981 116.779 128.884 116.845C128.787 116.91 128.679 116.958 128.559 116.986V117.022C128.69 117.03 128.815 117.07 128.934 117.143C129.055 117.214 129.154 117.316 129.231 117.448C129.307 117.579 129.345 117.738 129.345 117.925C129.345 118.115 129.299 118.286 129.207 118.438C129.115 118.589 128.976 118.708 128.791 118.796C128.605 118.883 128.372 118.927 128.091 118.927H126.603ZM127.269 118.37H127.985C128.227 118.37 128.401 118.324 128.507 118.232C128.615 118.139 128.669 118.019 128.669 117.873C128.669 117.764 128.642 117.666 128.588 117.579C128.534 117.49 128.458 117.421 128.358 117.371C128.259 117.319 128.141 117.293 128.003 117.293H127.269V118.37ZM127.269 116.814H127.928C128.043 116.814 128.146 116.793 128.238 116.751C128.33 116.708 128.403 116.648 128.455 116.57C128.509 116.491 128.536 116.398 128.536 116.29C128.536 116.148 128.486 116.03 128.385 115.938C128.286 115.846 128.138 115.8 127.942 115.8H127.269V116.814ZM130.784 118.927V115.251H131.45V116.807H133.153V115.251H133.821V118.927H133.153V117.365H131.45V118.927H130.784Z" fill="white"/>
<defs>
<linearGradient id="paint0_linear_1176_487" x1="58.7505" y1="20.2484" x2="15.9986" y2="44.9311" gradientUnits="userSpaceOnUse">
<stop offset="0.0275" stop-color="#847B6F"/>
<stop offset="0.2527" stop-color="#B6997C"/>
<stop offset="0.3058" stop-color="#C4A881"/>
<stop offset="0.4612" stop-color="#EAD08F"/>
<stop offset="0.544" stop-color="#F9E093"/>
<stop offset="0.6186" stop-color="#ECD28F"/>
<stop offset="0.7525" stop-color="#CBAF84"/>
<stop offset="0.8297" stop-color="#B6997C"/>
<stop offset="0.9945" stop-color="#847B6F"/>
</linearGradient>
<linearGradient id="paint1_linear_1176_487" x1="114.714" y1="20.2482" x2="157.465" y2="44.931" gradientUnits="userSpaceOnUse">
<stop offset="0.0275" stop-color="#847B6F"/>
<stop offset="0.2527" stop-color="#B6997C"/>
<stop offset="0.3058" stop-color="#C4A881"/>
<stop offset="0.4612" stop-color="#EAD08F"/>
<stop offset="0.544" stop-color="#F9E093"/>
<stop offset="0.6186" stop-color="#ECD28F"/>
<stop offset="0.7525" stop-color="#CBAF84"/>
<stop offset="0.8297" stop-color="#B6997C"/>
<stop offset="0.9945" stop-color="#847B6F"/>
</linearGradient>
<linearGradient id="paint2_linear_1176_487" x1="57.9241" y1="54.3116" x2="115.409" y2="54.3116" gradientUnits="userSpaceOnUse">
<stop offset="0.0275" stop-color="#847B6F"/>
<stop offset="0.2527" stop-color="#B6997C"/>
<stop offset="0.3058" stop-color="#C4A881"/>
<stop offset="0.4612" stop-color="#EAD08F"/>
<stop offset="0.544" stop-color="#F9E093"/>
<stop offset="0.6186" stop-color="#ECD28F"/>
<stop offset="0.7525" stop-color="#CBAF84"/>
<stop offset="0.8297" stop-color="#B6997C"/>
<stop offset="0.9945" stop-color="#847B6F"/>
</linearGradient>
<linearGradient id="paint3_linear_1176_487" x1="79.2433" y1="66.2459" x2="97.1315" y2="66.2459" gradientUnits="userSpaceOnUse">
<stop stop-color="#B6997C"/>
<stop offset="1" stop-color="#F9E093"/>
</linearGradient>
</defs>
</svg>
