<svg xmlns="http://www.w3.org/2000/svg" width="115" height="32" fill="none" viewBox="0 0 160 44">
  <g clip-path="url(#a)">
    <path fill="#000" d="M82.148 6.418V24.42h22.507v-4.84H86.988v-4.948h17.667V.003H88.562l-6.414 6.415Zm17.555-1.575v4.84H86.988v-1.24l3.6-3.6h9.115Zm45.689 0h13.954V.003h-15.979l-6.528 6.415v8.215h17.668v4.951h-17.668v4.84h22.507V9.796h-17.555V8.444l3.601-3.601Zm-35.898 1.575V24.42h4.951V8.444l3.488-3.601h9.115v19.58H132V.003h-16.092l-6.414 6.415ZM27.345 26v18.004h22.507v-4.84H32.297v-4.839h17.555V19.7H33.758l-6.414 6.302Zm17.668-1.575v4.84H32.297v-1.35l3.6-3.601h9.116v.111ZM4.84 21.16V4.845H0v39.16h4.84V28.026l3.6-3.6h9.115v19.58h4.951v-24.42H6.414l-1.575 1.576Zm72.358 13.052v-6.527l-7.201-5.626 7.201-5.627V9.793H72.36v4.164l-6.414 4.951-6.303-4.951V9.793h-4.84v6.64l7.202 5.626-7.201 5.627v6.527h4.839V30.05l6.301-4.952 6.415 4.952v4.163h4.84ZM59.642.004h-7.314l-7.315 7.315v7.314h4.84v-5.29l4.5-4.5h5.29V.003Zm22.51 34.658-4.504 4.505h-5.29v4.839h7.316l7.314-7.318v-7.315h-4.836v5.29Z"/>
  </g>
  <defs>
    <clipPath id="a">
      <path fill="#fff" d="M0 0h159.345v44H0z"/>
    </clipPath>
  </defs>
</svg>
