<svg width="6075" height="2263" viewBox="0 0 6075 2263" fill="none" xmlns="http://www.w3.org/2000/svg">
<path d="M5172.09 985.097C5135.42 980.072 5099.57 970.238 5065.48 955.838C5031.49 942.051 4998.62 925.376 4965.6 909.426C4931.29 892.913 4896.98 876.159 4863.07 858.763C4796.08 825.313 4731.43 787.367 4669.57 745.18C4607.2 701.892 4549.33 652.596 4490.33 605.063C4429.25 555.921 4366 509.834 4301.96 464.7C4185.89 382.696 4069.5 300.213 3946.21 229.675C3835.99 166.75 3719.04 113.204 3595.75 81.8585C3640.02 67.946 3685.75 59.2043 3732.02 55.8084C3804.75 50.7834 3877.69 49.6043 3950.54 52.2834C4025.73 53.8043 4101.72 59.4126 4172.66 86.2668C4207.5 100.338 4241.01 117.504 4272.78 137.571C4306.69 158.013 4340.19 179.175 4373.86 200.017C4442 242.179 4510.13 283.784 4578.03 326.909C4642 366.396 4701.81 412.271 4756.54 463.821C4812.01 517.688 4864.6 573.88 4923.03 624.78C4981.47 675.68 5043.27 723.696 5104.35 771.151C5205.19 849.147 5308.84 931.467 5429.88 974.676C5382.58 981.492 5334.95 985.905 5287.2 987.901C5248.82 990.093 5210.32 989.155 5172.09 985.097ZM5531.84 958.642C5390.84 935.076 5272.69 848.663 5161.99 763.534C5100.35 716.084 5038.62 668.546 4979.23 618.367C4919.83 568.188 4864.52 513.196 4809.37 457.646C4755.02 403.038 4695.23 354.125 4630.93 311.675C4564.56 267.667 4496.1 226.788 4428.37 184.863L4321.52 118.654C4289.44 98.0418 4256.2 79.3085 4221.96 62.5418C4151.02 29.1126 4074.62 16.2876 3996.79 12.3584C3922.72 8.59591 3847.7 8.27508 3773.62 11.6417C3701.48 14.9251 3628.62 24.0668 3561.12 50.1168C3548.46 55.0043 3536.11 60.5376 3523.93 66.1501C3518.56 65.1876 3513.11 64.146 3507.9 63.2626C3496.88 60.596 3485.69 66.946 3482.33 77.771C3479.4 88.846 3485.89 100.225 3496.92 103.342L3508.06 105.346C3513.83 110.933 3522.4 112.513 3529.78 109.354C3656.2 134.284 3776.11 183.584 3889.14 245.063C4013.55 312.796 4129.62 393.759 4245.69 475.205C4309.81 520.25 4373.94 565.059 4435.1 613.48C4496.26 661.892 4554.78 711.913 4617.06 757.763C4738.35 847.542 4876.06 914.317 5012.73 977.243C5047.11 994.005 5083.03 1007.43 5119.98 1017.32C5158.52 1026.2 5197.95 1030.61 5237.5 1030.47C5316.8 1030.37 5395.95 1023.43 5474.05 1009.71C5493.39 1006.39 5512.66 1002.73 5531.84 998.726C5551.16 994.634 5552.12 962.092 5531.84 958.642Z" fill="#7FBCE2"/>
<path d="M4532.88 1538.52C4438.35 1528.33 4345.17 1508.04 4254.97 1478C4162.3 1447.62 4071.64 1408.82 3989.88 1355.19C3946.02 1325.23 3904.83 1291.55 3866.75 1254.51C3829.48 1219.64 3789.64 1186.06 3740.02 1171.15C3680.54 1099 3602.47 1047.78 3525.03 996.959C3553.27 1010.69 3582.81 1021.57 3613.21 1029.42C3631.49 1033.52 3650.07 1036.2 3668.76 1037.44C3685.83 1049.54 3703.55 1060.76 3720.86 1072.47L3844.95 1155.92C3872.12 1174.11 3915.25 1162.01 3930.24 1133.55C3946.61 1103.69 3936.79 1066.24 3907.88 1048.26L3889.52 1035.91C3905.95 1045.46 3927.2 1046.58 3941.3 1031.11C3953.81 1017.72 3956.71 997.989 3948.6 981.568C3960.22 984.934 3974.01 966.739 3984.02 959.768L3986.91 963.293L3991.48 968.984C3991.96 969.543 3999.5 979.084 3993.97 972.109C3999.72 981.214 4008.53 987.976 4018.82 991.189C4029.65 994.097 4041.19 992.572 4050.88 986.939C4067.87 976.039 4079.9 948.622 4065.79 930.105C4003.42 848.501 3940.74 781.572 3878.37 699.967C3836.21 644.901 3794.29 589.43 3743.39 542.697C3758.86 553.359 3774.25 564.259 3789.24 575.563C3857.86 627.422 3920.46 686.984 3983.47 745.418C4046.47 803.855 4109.8 863.576 4173.44 922.172C4299.37 1038.16 4428.11 1152.63 4567.91 1251.87C4704.9 1349.1 4856.48 1422.85 5020.25 1461.33L5026.18 1462.68C4874.36 1537.07 4700.89 1555.67 4532.88 1538.52ZM2536.11 347.826C2566.49 358.167 2596.95 368.03 2627.33 378.367C2635.34 381.092 2643.36 384.138 2651.37 387.105L2653.62 388.067L2655.47 388.871L2657.23 389.83C2675.91 401.696 2694.26 413.88 2712.38 426.784C2718.58 431.117 2726.08 433.18 2733.62 432.634L2761.52 448.667L2830.62 487.305C2732.58 439.609 2634.14 393.759 2536.11 347.826ZM2679.27 48.2712C2661.79 49.6587 2644.35 51.2379 2626.93 53.0004C2620.38 53.6004 2613.99 55.392 2608.09 58.292C2582.28 58.292 2556.55 59.5754 2530.74 61.5795C2523.92 60.617 2517.03 59.7337 2510.14 58.9337C2466.41 54.4587 2422.29 55.5379 2378.83 62.1379C2358.47 62.1379 2338.19 62.542 2317.91 64.0629L2309.26 64.9462C2429.74 38.5712 2558.39 39.1337 2679.27 48.2712ZM3804.79 741.972C3804.79 741.33 3805.43 740.688 3805.75 740.047L3806.23 740.688C3805.43 741.088 3805.03 741.572 3804.55 741.972H3804.79ZM3860.9 1013.55L3882.95 1031.11L3884.15 1031.99L3860.5 1015.96C3860.66 1015.23 3860.82 1014.43 3860.9 1013.55ZM3254.89 743.093C3254.97 745.78 3255.24 748.459 3255.7 751.109C3250.24 744.534 3244.56 738.042 3238.7 731.709C3244.16 735.717 3249.53 739.326 3254.9 743.093H3254.89ZM3035.9 144.946C3027.4 138.959 3018.83 133.025 3010.17 127.15C3034.22 136.767 3058.27 147.35 3082.31 158.65C3067.03 153.521 3051.56 148.95 3035.9 144.946ZM3775.93 761.693C3782.6 760.601 3788.89 757.847 3794.21 753.676C3794.85 753.193 3795.41 752.555 3795.97 752.072C3792.55 757.709 3790.38 764.03 3789.64 770.588L3775.93 761.693ZM3037.34 495.642C3044.19 495.163 3050.87 493.309 3056.98 490.188C3053.74 500.622 3054.52 511.884 3059.15 521.772L3034.62 507.426L3014.9 496.205C3022.44 495.963 3029.89 495.722 3037.42 495.242L3037.34 495.642ZM3169.37 290.513C3160.79 286.826 3152.13 283.301 3143.47 279.851C3144.73 278.526 3145.88 277.105 3146.92 275.605L3160.79 282.417C3180.67 292.601 3200.31 303.338 3219.79 314.48L3220.51 314.963C3203.84 305.663 3186.84 297.567 3169.37 290.113V290.513ZM3297.62 360.892C3292.49 357.367 3287.36 354.001 3282.23 350.634L3300.67 361.696L3297.62 360.892ZM3593.65 762.976C3589.02 771.197 3587.29 780.743 3588.76 790.068L3482.79 683.697C3492.01 688.747 3501.07 693.955 3509.88 699.726C3518.7 705.501 3529.36 712.476 3538.82 719.288L3545.8 724.417L3546.59 725.059H3547.08C3551.97 729.063 3556.94 733.072 3561.83 737.243C3573.25 747.255 3588.8 751.134 3603.59 747.663L3605.43 750.068C3600.57 753.38 3596.55 757.805 3593.73 762.976H3593.65ZM3417.86 558.967L3426.76 569.947C3423.71 568.988 3420.67 567.947 3417.54 567.063C3417.93 564.384 3418.04 561.672 3417.86 558.967ZM3687.68 884.413C3685.73 883.797 3683.75 883.288 3681.75 882.893L3647.44 848.501C3665.71 862.051 3683.91 875.759 3702.11 889.468C3696.9 887.78 3692.09 886.018 3687.28 884.413H3687.68ZM2672.38 201.775C2672.35 207.821 2673.69 213.796 2676.31 219.25C2664.36 210.675 2652.26 202.338 2639.83 194.484C2650.33 196.725 2661.16 199.13 2672.38 201.775ZM3398.14 524.738C3370.82 500.047 3341.7 477.434 3311.01 457.084C3312.21 457.567 3313.25 458.126 3314.54 458.526C3318.38 459.809 3322.55 461.092 3326.08 462.617L3325.36 462.134C3325.78 462.422 3326.24 462.663 3326.72 462.855C3327.64 463.151 3328.54 463.555 3329.37 464.059L3330.41 464.459C3337.94 467.905 3345.24 471.834 3352.37 476.005C3367.14 484.822 3381.4 494.455 3395.09 504.859L3399.02 507.826C3397.52 513.417 3397.22 519.263 3398.14 524.98V524.738ZM3251.21 481.134L3248.57 479.93L3251.29 481.134H3251.21ZM3625.23 684.897C3623.86 682.701 3622.37 680.584 3620.74 678.563L3587.64 637.605L3592.37 640.409C3619.09 656.763 3645.01 674.263 3670.12 692.913L3680.22 700.93L3681.1 701.572L3684.63 704.376L3685.67 705.18L3658.34 688.263C3648.27 682.434 3636.19 681.209 3625.15 684.897H3625.23ZM5092.15 1433.83C4928.33 1403.38 4772.46 1339.77 4634.12 1246.9C4491.92 1152.47 4362.7 1038.48 4236.77 923.613C4172.64 865.338 4109.87 806.101 4046.55 747.263C3983.22 688.426 3920.7 628.626 3854.17 573.876C3787.25 520.438 3716.35 472.201 3642.07 429.588C3565.03 384.138 3487.28 339.734 3409.6 294.921C3334.17 251.317 3259.3 206.746 3182.91 164.742C3110.77 124.663 3035.42 88.5129 2956.22 64.3045C2938.67 58.9337 2921.03 54.3629 2903.16 50.3545V49.8754C2883.84 27.4295 2853.7 23.8212 2825.96 20.8587C2792.06 17.2503 2758.07 13.7212 2724 10.6753C2656.07 3.94615 2587.85 0.658647 2519.59 0.81698C2398.47 2.10031 2277.11 20.2128 2165.29 68.3087C2105.87 93.5879 2050.99 128.409 2002.81 171.396C1996.84 177.35 1995.12 186.35 1998.48 194.08C2001.85 201.617 2009.22 206.567 2017.47 206.83C2085.66 215.305 2152.8 230.696 2217.87 252.759C2284.01 275.042 2346.93 305.263 2410.26 334.842C2539.39 395.442 2668.93 455.08 2797.43 516.963C2860.51 547.263 2923.19 578.447 2984.76 611.63C3044.56 643.697 3105.72 676.642 3160.47 717.201C3213.53 756.559 3247.44 811.468 3289.6 861.488C3327.4 904.18 3370.29 942.084 3417.3 974.355C3507.96 1039.36 3609.04 1092.19 3686.87 1173.55C3696.33 1183.41 3705.39 1193.75 3714.05 1204.41C3716.86 1207.73 3720.86 1209.8 3725.19 1210.18C3725.65 1210.44 3726.13 1210.63 3726.63 1210.74C3770 1223.17 3804.39 1252.99 3836.61 1282.88C3871.77 1317.04 3909.27 1348.69 3948.84 1377.64C4031.48 1435.59 4124.79 1477.19 4219.86 1510.14C4402.62 1573.54 4600.53 1603.2 4793.07 1576.27C4900.34 1561.97 5003.71 1526.56 5097.2 1472.06C5111.47 1463.33 5110.35 1437.2 5092.15 1433.83Z" fill="#7FBCE2"/>
<path d="M3692.75 2220.59C3788.47 2221.88 3883.77 2210.73 3974.92 2177.62C3976.29 2177.12 3977.62 2176.54 3978.92 2175.86L4002.25 2171.61L4025.82 2169.05C3919.05 2207.1 3806.03 2224.59 3692.75 2220.59ZM3380.61 2149.73C3389.35 2152.62 3398.17 2155.34 3406.99 2157.75C3406.99 2158.63 3406.99 2159.59 3407.39 2160.47C3398.41 2157.11 3389.43 2153.5 3380.61 2149.73ZM1974.14 1121.21C2007.69 1139.53 2041.47 1157.49 2075.46 1175.07L2190.89 1306.78C2135.49 1258.68 2080.02 1210.18 2023.91 1162.49C2007.35 1148.86 1990.76 1135.1 1974.14 1121.21ZM729.66 177.488C805.268 160.742 881.831 148.617 958.914 141.175C1036.11 133.721 1115.23 128.588 1192.74 134.121C1273.62 139.971 1345.76 171.075 1418.87 203.7L1467.61 225.421C1299.27 169.313 1124.93 130.675 947.452 143.821C872.256 150.225 797.939 164.521 725.73 186.467H713.706C698.135 186.521 683.172 192.513 671.864 203.221C630.822 216.605 590.18 231.276 549.622 246.346L518.681 236.888C587.947 213.159 658.493 193.33 729.981 177.488H729.66ZM3190.55 2050.57L3191.28 2051.14L3190.32 2050.57H3190.55ZM378.96 306.867V309.351C379.126 312.988 379.585 316.605 380.326 320.171L343.451 306.626L373.51 293.238C374.764 297.988 376.593 302.563 378.96 306.867ZM3360.49 1919.19C3371.42 1915.91 3381.21 1909.6 3388.71 1901C3419.81 1917.51 3451.4 1933.06 3483.62 1947.41C3534.23 1969.9 3585.98 1989.75 3638.65 2006.89L3615.8 2005.04C3527.65 1986.52 3441.97 1957.76 3360.49 1919.35V1919.19ZM3735.64 1997.59C3752.63 2004.8 3769.79 2011.78 3786.94 2018.67L3724.9 2013.7C3729.62 2009.25 3733.3 2003.8 3735.64 1997.75V1997.59ZM2964.02 1737.31L2968.91 1739.56L3047.47 1819.23C3053.05 1825.08 3060.25 1829.13 3068.15 1830.86C3076.17 1837.19 3083.54 1843.44 3091.39 1849.53C3048.46 1825.71 3006.75 1799.73 2966.43 1771.7C2971.12 1760.56 2970.22 1747.85 2964.02 1737.47V1737.31ZM1371.74 422.697L1358.51 416.442L1365.32 418.046C1367.49 419.567 1369.65 421.092 1371.74 422.697ZM1750.09 554.159C1752.79 562.676 1757.98 570.184 1765 575.717L1840.59 634.638C1839.99 636.963 1839.5 639.317 1839.14 641.692C1812.91 628.759 1786.61 616.013 1760.27 603.455C1703.44 563.376 1647.16 521.855 1591.05 480.492C1618.52 489.309 1645.91 498.526 1673.22 508.147C1698.92 523.322 1724.54 538.659 1750.09 554.159ZM3404.18 2071.57L3603.37 2087.61C3631.43 2093.49 3659.67 2098.38 3688.1 2102.28C3655.35 2104.68 3622.51 2106.69 3589.59 2108.29C3526.68 2103.24 3464.57 2090.92 3404.5 2071.57H3404.18ZM4438.24 1993.82C4437.52 1977.79 4283.13 1938.35 4238.48 1928.17C4196.15 1918.55 4158.32 1911.42 4118.24 1895.63C4083.69 1879.59 4051.87 1858.84 4017.88 1842.16C3979.32 1823.16 3939.16 1807.85 3899.48 1791.42C3851.87 1771.07 3805.62 1747.64 3761.05 1721.28C3738.6 1708.05 3716.56 1693.94 3695.08 1679.19C3683.77 1671.18 3672.71 1663.56 3661.65 1655.15L3647.14 1644.25L3639.12 1637.67C3634.12 1633.57 3628.75 1629.92 3623.1 1626.77C3391.44 1446.73 3171.24 1252.66 2946.15 1064.69C2828.63 966.497 2709.68 870.068 2587.27 778.043C2477.29 695.397 2364.83 615.238 2246.28 545.58C2083.03 430.051 1901.46 342.896 1709.21 287.788L1511.21 199.613C1439.07 167.55 1366.93 130.192 1290.86 108.95C1214.79 87.7087 1132.62 89.3129 1053.58 92.9171C976.297 96.6671 899.297 104.884 822.964 117.53C696.639 138.421 572.66 171.605 452.789 216.605L449.422 215.563C421.935 207.259 392.459 219.946 379.601 245.621L375.355 247.467C345.618 260.051 316.276 273.517 287.18 287.546C282.189 287.471 277.447 289.721 274.351 293.638L269.943 295.642C245.897 307.505 266.976 343.176 290.784 331.634L765.651 505.18C786.226 512.713 806.852 520.167 827.535 527.542L1038.27 613.555L1232.58 692.83C1241 696.026 1250.18 696.638 1258.95 694.597C1272.34 700.688 1285.56 706.859 1299.03 713.272C1313.84 722.463 1328.61 731.738 1343.36 741.088C1472.58 822.451 1601.87 903.893 1732.94 982.289C1806.04 1036.8 1877.22 1093.79 1947.12 1152.07C2166.12 1334.75 2374.45 1530.02 2600.1 1704.61C2653.97 1746.29 2709.12 1786.21 2764.91 1824.85C2801.58 1857.65 2840.29 1888.09 2880.82 1915.99C2938.29 1955.58 2998.49 1990.78 3058.69 2025.89C3065.94 2030 3073.97 2032.59 3082.26 2033.5C3181.26 2096.03 3282.1 2155.98 3390.95 2199.19C3646.98 2300.83 3944.05 2278.63 4183.65 2143.08C4251.07 2128.09 4309.9 2083.12 4373.87 2056.59C4374.51 2056.59 4442.8 2012.66 4437.44 2003.12C4438.01 2000.05 4438.28 1996.94 4438.24 1993.82Z" fill="#7FBCE2"/>
<path d="M3329.7 463.659L3327.05 462.455H3326.65C3327.59 463.042 3328.62 463.45 3329.7 463.659Z" fill="#7FBCE2"/>
<path d="M1290.12 1668.62C1283.71 1676.63 1270.56 1677.36 1260.86 1679.04L1277.86 1664.77C1281.94 1662.15 1285.68 1659.02 1289 1655.47C1295.54 1649.17 1296.83 1639.18 1292.12 1631.42C1293.94 1628.88 1295.55 1626.21 1296.93 1623.41V1640.48C1297.52 1650.08 1295.26 1659.65 1290.44 1667.98L1290.12 1668.62ZM1112.65 1650.34H1121.38C1125.31 1658.13 1130.25 1665.38 1136.05 1671.9C1130.46 1668.56 1125.32 1664.52 1120.74 1659.88C1117.92 1656.67 1115.32 1653.26 1112.96 1649.7L1112.65 1650.34ZM1076.01 1493.23C1075.53 1480.72 1075.45 1468.22 1075.45 1455.71C1076.56 1482.73 1079.24 1509.65 1083.47 1536.36C1086.11 1552.38 1090.52 1568.42 1093.57 1585.01C1095.78 1592.87 1095.78 1601.19 1093.57 1609.06C1091.41 1601.76 1089.48 1594.47 1087.8 1587.26C1080.83 1556.16 1076.98 1524.44 1076.33 1492.58L1076.01 1493.23ZM1071.04 1293.71C1071.68 1295.15 1072.33 1296.6 1072.88 1298.12V1313.27C1072.48 1308.46 1072.08 1303.73 1071.53 1298.92C1071.84 1296.51 1071.61 1294.75 1071.36 1293.07L1071.04 1293.71ZM1012.28 1217.8L912.81 1218.68H894.93C896.347 1218.8 897.768 1218.8 899.18 1218.68L904.151 1217.88C919.06 1217.88 933.968 1218.28 948.639 1217.08C957.193 1216.58 965.568 1214.46 973.331 1210.83C988.656 1210.83 1003.89 1213.27 1018.46 1218.04L1012.28 1217.8ZM498.464 1222.29L420.23 1223.01C424.972 1221.89 429.122 1219.03 431.851 1214.99C435.601 1219.59 441.318 1222.12 447.243 1221.81L887.318 1218.04C889.447 1218.72 891.66 1219.09 893.889 1219.16L498.464 1222.29ZM232.576 1468.7C235.059 1440.16 234.98 1411.23 235.059 1382.77L243.076 1347.58C242.434 1365.53 242.355 1383.57 240.992 1401.45C239.597 1423.79 236.892 1446.03 232.897 1468.06L232.576 1468.7ZM659.743 593.359L866.797 590.471L1032.01 588.146C1031.21 590.105 1030.65 592.151 1030.32 594.238H930.122C928.464 593.876 926.768 593.709 925.072 593.759L915.372 594.238C820.305 594.238 725.234 594.934 630.164 596.321L526.839 597.926L532.851 596.646C533.426 596.53 533.989 596.371 534.534 596.163C576.459 592.717 618.543 593.359 660.384 592.717L659.743 593.359ZM1305.91 697.563C1304.63 693.717 1303.26 689.871 1301.82 686.021C1300.55 670.359 1297.7 654.863 1293.33 639.771C1283.78 610.751 1261.66 594.959 1235.77 585.58C1246.18 585.601 1256.48 587.701 1266.07 591.755C1305.51 609.388 1310.24 656.842 1306.23 697.005L1305.91 697.563ZM1173.41 1683.53L1174.85 1684.49H1172.44L1173.41 1683.53ZM1051.88 1215.31C1058.7 1215.31 1065.67 1215.31 1072.65 1215.79V1228.3C1065.91 1223.26 1058.69 1218.91 1051.08 1215.31H1051.88ZM43.5589 1669.1C45.6256 1672.44 48.1339 1675.48 51.0131 1678.16L42.9965 1678.63L43.5589 1669.1ZM161.234 1566.81V1560.48C161.955 1559.6 162.597 1558.72 163.238 1557.76C165.401 1554.79 167.247 1551.66 169.088 1548.54C169.73 1548.93 170.451 1549.18 171.092 1549.5C167.888 1556.95 164.359 1564.33 160.43 1571.46C160.809 1569.86 160.997 1568.22 160.992 1566.58L161.234 1566.81ZM103.921 1637.36C108.955 1634.8 112.738 1630.32 114.422 1624.93C116.63 1618.44 119.309 1612.11 122.434 1606.01C126.959 1599.16 132.084 1592.72 137.747 1586.77C143.851 1587.34 149.93 1585.4 154.58 1581.4C151.455 1586.37 148.247 1591.34 144.801 1596.15C133.676 1611.9 120.463 1626.05 105.521 1638.23C104.401 1639.12 103.197 1639.92 101.997 1640.72C102.555 1639.36 103.197 1638.23 103.68 1637.11L103.921 1637.36ZM79.8714 1364.81V1314.31C80.4589 1362.41 80.9923 1410.51 81.4756 1458.6C80.5923 1468.06 79.4715 1477.6 78.4299 1487.06C79.0174 1446.33 79.4964 1405.58 79.8714 1364.81ZM1119.46 638.246C1118.98 637.367 1118.42 636.642 1117.93 635.842H1121.14C1120.53 636.463 1119.96 637.134 1119.46 637.846V638.246ZM1219.9 1406.41C1222.32 1407.96 1225.06 1408.96 1227.91 1409.3C1227.91 1414.67 1228.31 1420.12 1228.48 1425.33C1225.82 1425.57 1223.24 1426.31 1220.86 1427.5C1220.62 1420.2 1220.3 1413.07 1219.9 1406.01V1406.41ZM1209.64 1172.59V1174.43C1209.73 1173.82 1209.73 1173.2 1209.64 1172.59ZM1150.72 999.768C1149.26 999.093 1147.73 998.58 1146.15 998.243C1147.32 996.413 1148.18 994.409 1148.72 992.313H1150.72C1150.72 994.076 1150.72 995.759 1151.2 997.522L1150.72 999.768ZM249.247 1026.22C249.209 1026.7 249.209 1027.18 249.247 1027.66H248.688C248.83 1027.16 249.017 1026.68 249.247 1026.22ZM1019.9 843.376C1020.3 848.988 1020.62 854.517 1021.02 860.126C1023.11 888.263 1040.02 950.709 1039.7 978.926C1039.38 979.722 1039 980.497 1038.58 981.247C1035.15 982.105 1031.6 982.401 1028.08 982.13H891.726L714.093 982.609C649.372 981.763 584.664 984.976 520.347 992.23C457.905 1000.25 382.955 979.405 321.551 992.872C358.747 924.092 429.688 872.63 503.434 849.784C516.901 849.147 530.447 848.584 543.913 847.863C550.639 847.755 556.864 844.297 560.509 838.647C595.034 836.263 629.697 836.692 664.155 839.926L691.489 841.772C694.78 844.251 698.834 845.497 702.951 845.297L730.526 844.097C762.11 845.859 793.772 847.142 825.514 847.542C869.16 848.534 912.818 846.472 956.176 841.367C977.281 842.013 998.447 842.68 1019.66 843.376H1019.9ZM1202.83 979.163C1203.63 996.213 1204.46 1013.31 1205.31 1030.47C1202.26 1026.26 1199.81 1021.64 1198.02 1016.76C1195.84 1010.56 1194.26 1004.18 1193.28 997.68V996.88C1194.09 992.551 1194.81 988.222 1195.61 983.897C1198.3 982.93 1200.7 981.305 1202.58 979.163H1202.83ZM194.659 1197.92V1205.13C193.172 1203.58 191.438 1202.28 189.53 1201.29C188.647 1193.75 187.767 1186.13 186.805 1178.6C189.634 1181.83 193.43 1184.05 197.626 1184.93C197.297 1186.2 197.08 1187.48 196.984 1188.78C195.401 1191.58 194.522 1194.71 194.417 1197.92H194.659ZM1328.11 1060.69C1328.75 1058.77 1329.13 1056.77 1329.23 1054.76C1331.59 1002.68 1330.73 950.501 1326.67 898.526C1326.35 882.492 1325.92 866.276 1325.39 849.867C1326.23 830.509 1328.15 811.213 1331.16 792.072C1341.26 730.188 1362.26 668.384 1335.25 607.705C1324.98 583.463 1306.03 563.934 1282.1 552.959C1251.4 539.651 1216.37 543.417 1183.83 543.817L972.685 546.784L759.464 549.751C689.964 550.713 620.226 550.23 551.051 553.355C517.418 554.605 483.943 558.521 450.93 565.063C445.501 566.317 440.913 569.93 438.426 574.921C433.305 575.313 428.443 577.338 424.555 580.692C420.743 583.834 416.726 586.726 412.53 589.351C397.622 595.521 382.955 602.255 368.447 609.388L350.33 615.721C321.23 626.142 293.013 638.084 270.167 659.409C267.284 662.134 264.559 664.938 261.751 667.426C246.842 676.001 231.934 684.659 217.505 694.038C207.309 696.667 197.442 700.43 188.088 705.259C160.834 720.651 142.955 747.826 127.247 774.038C108.005 806.101 88.8465 838.322 69.7715 870.709C50.2757 900.722 34.1423 932.792 21.6756 966.338C9.97146 1001.93 8.3673 1040.01 6.28396 1077.12C4.09229 1115.43 2.72972 1153.76 2.19638 1192.07C1.07555 1278.37 4.20058 1364.6 11.5756 1450.74C11.5298 1451.49 11.5298 1452.24 11.5756 1452.99L0.271484 1698.28C0.525651 1709.65 9.659 1718.82 21.034 1719.12C76.2632 1725.05 129.488 1703.08 171.492 1667.98C216.784 1630.62 246.122 1578.36 262.634 1522.65C280.509 1462.45 284.117 1398.8 285.88 1336.36C285.238 1325.15 286.426 1313.91 289.409 1303.09C293.097 1292.83 300.151 1264.69 311.851 1264.53L417.584 1263.65L842.426 1259.88L948.081 1259L999.86 1258.52C1007.87 1257.94 1015.9 1257.94 1023.91 1258.52C1028.4 1259.08 1028 1259.4 1029.2 1263.01C1033.53 1276.48 1032.73 1321.93 1033.37 1335.88C1034.09 1351.91 1034.33 1368.42 1034.41 1384.77C1034.41 1418.03 1033.69 1451.31 1034.41 1484.57C1035.04 1518.81 1038.63 1552.92 1045.15 1586.53C1050.16 1616.43 1061.06 1645.04 1077.21 1670.7C1111.68 1720.16 1169.8 1730.98 1226.47 1725.13C1240.98 1723.61 1255.49 1721.44 1269.92 1718.88C1283.85 1717.47 1297.33 1713.18 1309.52 1706.29C1334.04 1689.78 1339.01 1659.8 1338.93 1632.3C1338.93 1561.68 1336.29 1490.98 1335.01 1420.44C1332.6 1300.52 1330.31 1180.61 1328.11 1060.69Z" fill="#0D2144"/>
<path d="M2066.46 1311.18C2067.99 1313.43 2069.67 1315.59 2071.27 1317.76C2065.98 1311.66 2060.85 1305.49 2055.96 1299.08C2048.49 1290.47 2043.21 1280.19 2040.57 1269.1C2048.54 1283.69 2057.29 1297.85 2066.79 1311.5L2066.46 1311.18ZM2176.92 1413.71L2184.22 1418.27C2173.64 1414.03 2163.06 1409.53 2152.79 1404.57C2149.99 1402.41 2147.27 1400.08 2144.78 1397.68C2131.69 1385.65 2119.29 1372.88 2107.66 1359.44C2128.88 1380.02 2152.2 1398.32 2177.24 1414.03L2176.92 1413.71ZM2021.89 1232.46C2024.54 1238 2027.19 1243.53 2029.91 1248.98C2028.64 1248.24 2027.3 1247.62 2025.9 1247.13L2021.89 1232.46ZM2540.69 1286.89L2533.72 1293.78C2537.16 1289.7 2540.53 1285.77 2543.73 1281.28C2543.09 1283.53 2541.97 1285.29 2541.01 1287.21L2540.69 1286.89ZM1984.14 1548.29C1984.47 1548.68 1984.85 1549.03 1985.26 1549.33L1983.82 1548.61L1984.14 1548.29ZM1944.06 1457.23C1950.79 1465.25 1957.77 1472.54 1964.9 1479.84L1960.81 1477.19C1954.54 1473.92 1949.48 1468.73 1946.39 1462.36C1945.83 1460.66 1945.05 1459.04 1944.06 1457.56V1457.23ZM1922.58 1435.19C1916.56 1425.17 1910.79 1414.99 1905.1 1404.73C1909.11 1411.3 1913.12 1417.71 1917.69 1423.96C1924.58 1433.75 1931.96 1443.04 1939.65 1452.18C1938.18 1451.03 1936.56 1450.09 1934.84 1449.38C1931.56 1445.21 1928.19 1441.36 1924.58 1437.03C1923.96 1436.46 1923.29 1435.96 1922.58 1435.51V1435.19ZM2718.96 1256.67L2717.6 1260.52C2719.09 1245.82 2720.81 1231.21 2722.73 1216.67C2722.53 1230.19 2721.27 1243.67 2718.96 1256.99V1256.67ZM1823.74 1074.31C1824.94 1090.46 1827.14 1106.53 1830.31 1122.41C1829.51 1122.62 1828.73 1122.91 1827.99 1123.29C1826.39 1106.46 1824.79 1089.62 1823.02 1072.79L1823.74 1074.31ZM2671.27 1321.2C2671.27 1325.53 2670.71 1329.94 2670.54 1334.27C2665.5 1344.45 2660.21 1354.39 2654.52 1363.93C2660.21 1349.74 2665.74 1335.47 2671.27 1321.2ZM2982.52 549.988C2943.57 548.305 2907.02 549.988 2870.87 565.617C2839.28 579.488 2806.74 595.197 2780.77 618.363C2754.79 641.53 2736.52 674.476 2720.49 705.576C2714.79 717.038 2709.74 728.822 2704.93 740.688C2695.74 739.947 2687.54 746.409 2686.09 755.518C2664.54 856.751 2636.2 956.43 2601.29 1053.87C2583.82 1102.45 2565.14 1150.78 2543.89 1198.16C2534.54 1220.23 2522.59 1241.11 2508.3 1260.36C2494.23 1277.94 2478.41 1294.06 2461.09 1308.46C2423.71 1340 2384.17 1368.9 2342.77 1394.95C2324.66 1406.49 2305.18 1419 2282.97 1418.43C2260.77 1417.87 2241.45 1404.81 2223.66 1393.98C2182.06 1368.58 2142.06 1342.28 2111.84 1303.33C2085.28 1266.74 2063.16 1227.13 2045.94 1185.33C2007.06 1098.76 1975 1009.46 1944.54 919.843C1942.14 907.98 1939.81 896.197 1937.49 884.334C1929.86 842.58 1919.14 801.455 1905.42 761.288C1880.01 691.551 1837.45 624.134 1771.08 587.101C1728.99 563.617 1681.62 557.042 1634.81 550.867C1633.9 550.788 1632.99 550.788 1632.08 550.867H1630.08C1607.71 546.301 1597.45 577.405 1614.53 588.463C1627.03 662.905 1640.6 737.188 1655.25 811.309C1665.83 864.455 1676.33 917.839 1691 970.105C1693.4 987.018 1696.45 1003.77 1699.81 1020.53C1708.23 1108.14 1717.53 1195.51 1748.39 1278.56C1759.95 1310.88 1775 1341.84 1793.28 1370.9C1803.27 1400.6 1817.96 1428.51 1836.81 1453.55C1840.34 1460.12 1843.86 1466.69 1847.55 1473.26C1869.03 1511.74 1891.24 1549.42 1927.31 1576.03C1929.35 1577.49 1931.71 1578.46 1934.2 1578.83C1936.45 1580.63 1938.96 1582.07 1941.66 1583.08C1947.99 1585.41 1954.08 1588.13 1960.09 1591.1C1983.7 1614.43 2009.11 1635.88 2036.08 1655.23C2072.34 1680.51 2112.31 1700.01 2154.56 1713.02C2202.51 1727.41 2251.88 1736.53 2301.81 1740.2C2307.33 1740.49 2312.69 1738.28 2316.4 1734.18C2354.4 1733.14 2391.19 1719.99 2426.54 1706.61C2575.96 1649.69 2721.45 1559.43 2798.4 1414.19C2819.82 1372.76 2835.2 1328.5 2844.09 1282.73C2846.5 1270.7 2849.06 1258.68 2851.47 1246.41C2856.87 1243.91 2860.96 1239.21 2862.69 1233.51C2876.22 1192.08 2887.3 1149.9 2895.87 1107.18C2904.29 1063.57 2909.42 1019 2913.99 975.234C2922.89 889.626 2932.67 804.897 2953.03 721.047C2963.72 676.747 2976.7 633.005 2991.99 589.83C3002.19 583.863 3005.63 570.755 2999.67 560.551C2996.07 554.397 2989.64 550.434 2982.52 549.988Z" fill="#0D2144"/>
<path d="M4399.84 1152.47C4406.2 1151.18 4412.44 1149.38 4418.51 1147.1C4413.79 1149.75 4408.9 1152.23 4403.85 1154.47L4399.84 1152.47ZM4259.56 1367.38C4250.7 1355.04 4241.09 1343.26 4230.78 1332.11C4232.14 1330.99 4233.35 1329.69 4234.39 1328.26C4254.19 1346.53 4270.5 1368.26 4282.48 1392.39C4284.33 1399.6 4286.01 1406.81 4287.53 1414.11C4279.49 1397.8 4270.14 1382.17 4259.56 1367.38ZM3433.92 607.147C3381.65 607.147 3329.71 607.147 3277.28 606.584C3276.72 604.259 3276.24 601.934 3275.68 599.53C3328.19 598.489 3380.85 603.618 3433.92 607.147ZM4489.7 744.618C4490.98 746.139 4492.1 747.664 4493.3 749.268L4471.02 732.435C4469.58 728.901 4467.89 725.472 4465.97 722.176C4474.6 728.851 4482.55 736.372 4489.7 744.618ZM4485.77 1084.33C4489.22 1080.73 4492.58 1077.04 4495.95 1073.35C4491.22 1080.54 4486.11 1087.47 4480.64 1094.11C4482.52 1090.95 4484.23 1087.68 4485.77 1084.33ZM4123.85 1245.69V1246.18C4123.5 1248.86 4123.71 1251.59 4124.49 1254.19C4117.2 1250.91 4109.82 1247.78 4102.28 1245.06L4123.85 1245.69ZM3445.38 1457.48V1449.46C3446.4 1450.33 3447.5 1451.11 3448.67 1451.79C3447.86 1462.21 3446.82 1472.63 3445.54 1482.96C3445.46 1474.47 3445.38 1465.97 3445.38 1457.48ZM3550.79 612.197L3550.31 611.793H3556.8L3550.79 612.197ZM4231.26 606.022C4231.35 605.197 4231.35 604.364 4231.26 603.539C4235.67 604.501 4239.92 605.701 4244.25 606.905C4239.76 606.264 4235.51 605.864 4231.26 605.701V606.022ZM3808.18 658.768H3774.67C3770.1 658.63 3765.64 660.201 3762.17 663.176H3755.04C3754.25 661.351 3753.19 659.651 3751.91 658.126H3808.02C3808.07 658.234 3808.12 658.343 3808.18 658.447V658.768ZM3416.12 689.547H3382.53V688.026L3416.12 689.547ZM4309.66 820.368L4312.06 821.01C4312.06 821.735 4312.06 822.451 4312.46 823.176C4311.42 822.535 4310.54 821.572 4309.58 820.689L4309.66 820.368ZM3965.45 756.964V755.118H3981.49C3984.98 755.155 3988.41 754.243 3991.42 752.472L4008.98 753.276C4011.93 754.914 4015.32 755.614 4018.68 755.28L4030.38 754.239L4046.42 754.88C4030.38 755.201 4014.35 755.601 3998.32 756.08L3965.45 756.964ZM4185.65 810.026C4166.5 807.622 4147.1 806.422 4127.7 805.86L4132.42 804.739C4147.58 804.739 4162.81 804.739 4178.04 803.939C4179.89 806.743 4182.5 808.968 4185.57 810.351L4185.65 810.026ZM4303.65 957.601C4305.33 951.16 4306.66 944.631 4307.65 938.043V956.56L4303.65 957.601ZM3694.43 821.33C3636.88 823.176 3579.32 823.655 3521.85 821.33H3694.43ZM3490.03 1034.71L3479.29 1035.11C3480.1 1033.2 3480.63 1031.17 3480.89 1029.11H3490.35C3490 1030.95 3489.89 1032.84 3490.03 1034.71ZM4213.63 847.701C4225.62 850.326 4237.37 853.972 4248.74 858.605C4260.07 863.751 4268.22 874.051 4270.62 886.26C4271.63 896.939 4271.42 907.697 4269.98 918.326C4269.3 934.255 4267.45 950.118 4264.45 965.776C4259.2 984.718 4244.21 999.397 4225.17 1004.26C4198.52 1011.06 4171.05 1014.06 4143.57 1013.15C4113.59 1013.15 4083.61 1012.59 4053.63 1012.19L3874.79 1009.38L3482.97 1003.93C3484.26 960.568 3484.66 895.239 3484.02 851.63C3702.21 864.86 3920.08 832.072 4138.36 839.205C4163.58 839.718 4188.7 842.589 4213.39 847.785L4213.63 847.701ZM4029.26 1038.24C4029.26 1037.68 4028.7 1037.2 4028.46 1036.64H4052.75C4044.89 1037.36 4037.04 1037.76 4029.26 1038.32V1038.24ZM4538.11 893.955V899.405C4536.99 899.33 4535.87 899.33 4534.75 899.405L4534.35 895.96C4535.74 894.505 4536.83 892.789 4537.55 890.91C4537.87 892.114 4538.03 892.993 4538.11 893.955ZM4576.91 955.918C4583.13 896.314 4575.42 836.085 4554.38 779.968C4544.59 752.526 4529 727.514 4508.69 706.622C4486.81 686.868 4462.83 669.559 4437.19 655.001C4385.41 622.534 4332.03 590.872 4273.27 572.997C4212.59 554.238 4148.14 551.034 4085.05 552.397C3953.99 555.201 3823.17 565.864 3692.27 570.03C3625.74 572.114 3559.12 572.839 3492.67 570.03C3426.22 567.226 3359.13 559.209 3292.27 559.051C3276.24 559.051 3259.65 559.53 3243.3 560.73C3241.69 560.893 3240.11 561.213 3238.57 561.693C3229.46 563.084 3222.9 571.172 3223.42 580.372V581.014C3225.72 729.147 3226.89 877.335 3226.95 1025.58C3227 1173.82 3225.85 1322.25 3223.5 1470.86C3222.16 1554.34 3220.48 1637.79 3218.45 1721.2C3218.57 1732.31 3227.67 1741.22 3238.78 1741.1C3240.44 1741.09 3242.1 1740.86 3243.7 1740.44C3281.33 1729.14 3317.81 1714.3 3352.63 1696.11C3386.46 1678.4 3422.7 1658.36 3445.06 1626.45C3466.22 1596.24 3473.92 1557.04 3480.09 1521.36C3486.88 1480.23 3490.61 1438.65 3491.23 1396.96C3492.03 1355.91 3490.67 1314.88 3489.07 1273.83C3531.46 1266.96 3574.37 1263.74 3617.32 1264.21C3665.9 1263.81 3714.4 1264.21 3762.97 1263.81H3913.19C3959.28 1263.81 4006.9 1261.57 4052.27 1271.18C4121.58 1286.99 4182.66 1327.73 4223.89 1385.66C4245.24 1415.08 4261.35 1447.98 4271.5 1482.89C4284.25 1526.81 4289.54 1572.59 4303.57 1616.11C4308.62 1641.64 4320.32 1665.39 4337.47 1684.97C4348.54 1700.74 4362.08 1714.62 4377.55 1726.09C4417.63 1755.19 4467.65 1756.15 4514.87 1752.79L4517.75 1753.42C4525.73 1755.08 4533.97 1752.18 4539.15 1745.89C4548.5 1744.8 4555.24 1736.41 4554.3 1727.05C4549.65 1635.67 4545.17 1544.29 4540.28 1452.99C4536.03 1373.23 4528.09 1288.5 4480.4 1221.41C4469.2 1205.56 4456.03 1191.21 4441.2 1178.68C4519.75 1133.39 4567.29 1046.74 4576.91 955.918Z" fill="#0D2144"/>
<path d="M6034.51 1699.88C6035.07 1649.46 6032.98 1588.78 6028.89 1529.94C6031.78 1528.49 6034.32 1526.44 6036.35 1523.93C6036.67 1584.69 6036.03 1645.45 6034.51 1699.56V1699.88ZM6029.06 1754.87C6031.47 1751.36 6032.88 1747.26 6033.14 1743.01C6033.14 1751.02 6032.58 1759.04 6032.18 1767.05C6031.78 1775.79 6030.42 1765.05 6029.06 1754.87ZM5925.57 1705.89C5934.95 1709.74 5945.32 1710.48 5955.15 1707.97C5956.54 1712.68 5957.9 1717.25 5959.24 1721.68C5952.66 1718.88 5946.09 1715.99 5939.6 1712.95C5934.87 1710.7 5930.22 1708.3 5925.57 1705.89ZM5828.42 1615.47C5814.39 1586.77 5810.7 1553.83 5809.58 1522.08C5809.58 1514.07 5809.1 1505.41 5809.02 1497.08C5812.95 1521.13 5817.03 1544.77 5821.28 1567.93C5826.25 1596.63 5849.02 1624.45 5856.15 1652.59C5856.15 1653.95 5856.79 1655.23 5857.19 1656.51C5845.54 1644.4 5835.83 1630.55 5828.42 1615.47ZM4986.26 1622.29C4960.45 1657.31 4924.27 1683.34 4882.85 1696.67L4886.62 1693.39H4887.1C4903.17 1686.3 4918.8 1678.27 4933.92 1669.34C4959.09 1654.76 4978.67 1632.19 4989.55 1605.21C4992.66 1602.44 4995.51 1599.38 4998.05 1596.07C5003.1 1588.69 5006.47 1580.29 5007.9 1571.46C5008.86 1570.83 5009.75 1570.11 5010.55 1569.3L5013.68 1565.13V1564.17H5014.24C5008.29 1585 4998.83 1604.65 4986.26 1622.29ZM5799.24 1309.02V1311.43C5798.68 1310.55 5797.96 1309.82 5797.39 1309.02H5799.24ZM5049.43 1276.96H5056.96C5054.32 1278.48 5050.55 1242.41 5048.22 1244.33C5047.98 1242.65 5049.35 1278.72 5049.43 1276.96ZM5797.08 733.638V736.363C5792.42 732.755 5787.7 729.551 5782.81 726.422L5797.16 733.559L5797.08 733.638ZM5989.46 1682.16V1686.17C5989.31 1685.55 5989.12 1684.93 5988.9 1684.33C5989.12 1683.62 5989.31 1682.9 5989.46 1682.16ZM5898.31 1515.99C5899.76 1503.17 5901.2 1490.34 5902.73 1477.43V1481.85C5902.92 1484.85 5903.6 1487.8 5904.73 1490.58C5905.53 1513.35 5906.03 1536.11 5906.25 1558.88C5903.28 1544.69 5900.56 1530.34 5898.31 1515.99ZM5728.54 704.78C5725.16 704.201 5721.68 704.48 5718.44 705.58C5711.54 701.655 5704.57 697.563 5697.52 694.118C5709.14 697.647 5720.68 701.493 5732.06 705.663L5728.54 704.78ZM5988.41 1196C5988.41 1184.46 5987.86 1172.83 5987.37 1161.28C5991.01 1186.67 5993.89 1212.13 5996.03 1237.68C5993.54 1223.81 5990.98 1209.86 5988.41 1196ZM5011.27 1230.87H5012.23C5011.74 1231.98 5011.33 1233.13 5011.03 1234.31L5011.27 1230.87ZM5005.02 1353.67C5005.02 1341.41 5004.46 1329.14 5004.46 1317.03V1287.86C5006.68 1284.28 5008 1280.2 5008.3 1276V1274.71L5009.67 1275.51C5009.03 1301.41 5007.42 1327.62 5005.02 1353.67ZM4839.89 1664.21C4841.15 1665.21 4842.53 1666.07 4843.98 1666.77L4840.05 1668.3C4839.97 1666.21 4839.97 1664.85 4839.89 1663.49V1664.21ZM5866.89 1311.51C5867.69 1305.89 5868.58 1300.28 5869.38 1294.67C5872 1314.07 5874.67 1333.47 5877.39 1352.87C5876.11 1363.69 5874.83 1374.59 5873.63 1385.41L5866.89 1311.51ZM4988.26 689.068H4990.27C4990.76 690.168 4991.11 691.326 4991.31 692.513C4980.41 691.955 4969.59 691.151 4958.77 690.188L4975.52 689.147C4979.77 688.509 4984.02 688.668 4988.26 688.426V689.068ZM4990.35 689.068C4991.55 689.068 4991.07 690.03 4990.35 689.068ZM4989.79 735.159H4984.1C4983.16 735.08 4982.23 735.08 4981.29 735.159C4981.25 734.384 4981.25 733.609 4981.29 732.834L4989.71 733.234C4989.77 733.738 4989.8 734.251 4989.79 734.759V735.159ZM5588.34 695.08C5586.9 694.197 5585.45 693.476 5583.93 692.676H5589.3C5588.9 693.318 5588.66 694.118 5588.34 694.922V695.08ZM5909.78 1010.19C5911.33 1009.6 5912.81 1008.85 5914.19 1007.94C5915.07 1015.32 5915.87 1022.69 5916.67 1030.15C5914.43 1023.33 5912.1 1016.68 5909.78 1010.19ZM5014.15 1185.9V1181.73H5146.1C5145.55 1182.99 5145.12 1184.31 5144.82 1185.66H5057.76L5014.15 1185.9ZM5751.62 846.822C5760.15 848.551 5769 847.801 5777.11 844.659L5778.24 844.097C5783.06 853.076 5786.69 862.643 5789.06 872.551C5777.21 862.98 5764.73 854.222 5751.7 846.339L5751.62 846.822ZM5897.76 1119.36H5897.27C5896.79 1111.35 5896.15 1104.13 5895.51 1096.52C5897.76 1104.05 5899.84 1111.67 5901.92 1119.28C5900.57 1119.08 5899.2 1119.02 5897.83 1119.12L5897.76 1119.36ZM5667.22 844.897H5678.84C5678.97 846.593 5679.32 848.264 5679.88 849.868L5667.22 844.897ZM5344.33 1173.56C5345.55 1171.92 5346.5 1170.11 5347.14 1168.18H5348.26L5354.11 1168.74C5354.26 1170.33 5354.61 1171.89 5355.15 1173.39L5344.33 1173.56ZM5288.22 733.476C5288.7 732.663 5289.1 731.801 5289.43 730.913C5305.99 731.338 5322.53 732.143 5339.04 733.318L5288.22 733.476ZM5480.2 850.909C5469.62 849.789 5459.04 848.905 5448.14 848.184L5467.22 846.984L5485.49 848.905C5487.04 850.047 5488.74 850.964 5490.54 851.63L5492.95 852.593C5488.94 852.034 5484.69 851.393 5480.28 850.909H5480.2ZM5838.68 1162.97C5837.88 1167.3 5836.99 1171.71 5836.03 1176.12C5835.39 1172.59 5834.67 1169.14 5833.95 1165.7C5835.63 1164.99 5837.22 1164.08 5838.68 1162.97ZM5078.44 789.188C5077.32 789.188 5077.24 788.305 5078.44 789.188ZM5628.66 933.476C5665.89 951.98 5700.06 976.097 5729.98 1004.98C5558.17 1006.74 5386.42 1006.13 5214.71 1003.13C5164.64 1002.23 5114.57 1001.16 5064.5 999.926C5061.9 984.305 5060.27 968.534 5059.6 952.714C5059.29 937.122 5059.8 921.518 5061.13 905.98C5060.91 901.318 5061.82 896.672 5063.78 892.43C5064.25 891.793 5057.2 875.28 5063.78 874.239C5067.6 873.764 5071.46 873.497 5075.32 873.434C5140.62 870.872 5206.03 869.48 5271.55 869.268C5389.78 868.947 5519.48 879.047 5628.98 933.234L5628.66 933.476ZM5111.15 843.455L5291.03 843.934L5292.23 845.38H5273.39C5238.76 845.38 5204.03 845.859 5169.18 846.822C5142.25 847.384 5114.6 846.822 5087.42 848.426C5095.76 846.501 5103.61 844.739 5111.47 843.213L5111.15 843.455ZM5025.86 879.205V868.226L5034.52 864.859C5030.9 869.009 5028.07 873.793 5026.18 878.964L5025.86 879.205ZM5189.7 1043.69C5188.06 1043.73 5186.42 1043.95 5184.82 1044.33C5148.1 1042.89 5111.31 1041.85 5074.52 1041.77H5074.03L5073.55 1039.76C5125.82 1041.16 5178.05 1042.25 5230.27 1043.05L5189.7 1043.69ZM5757.48 1041.29C5758.75 1040.45 5759.91 1039.46 5760.92 1038.32C5762.37 1040.01 5763.89 1041.69 5765.33 1043.46C5762.89 1042.43 5760.37 1041.63 5757.8 1041.05L5757.48 1041.29ZM5023.85 996.801C5023.9 996.105 5023.9 995.409 5023.85 994.718V996.801ZM5022.25 1032.39C5024.91 1034.25 5028 1035.38 5031.23 1035.68C5031.79 1037.68 5032.19 1039.76 5032.75 1041.85H5021.77L5022.25 1032.39ZM4908.83 1611.39C4910.59 1602.33 4912.28 1593.35 4914.04 1584.29C4916.53 1585.64 4919.24 1586.51 4922.05 1586.86C4919.57 1592.71 4916.92 1598.64 4914.6 1604.65L4908.83 1611.39ZM5049.43 1235.43C5049.11 1233.88 5048.6 1232.37 5047.9 1230.95H5062.09C5062.44 1232.46 5062.95 1233.94 5063.61 1235.36L5049.43 1235.43ZM6073.14 1377.88C6069.06 1239.28 6053.66 1099.64 6013.91 966.901C6003.81 933.234 5992.02 900.13 5978.88 867.664C5966.94 835.239 5949.68 805.034 5927.81 778.284C5897.11 743.097 5856.47 716.805 5814.47 695.963C5750.63 650.426 5678.91 617.134 5602.93 597.767C5553.39 585.984 5502.89 584.863 5452.23 584.863H4908.83C4897.68 584.863 4886.38 584.863 4875.16 585.422C4863.94 585.984 4846.62 588.388 4839.01 598.967H4833.8C4825.4 599.301 4818.1 604.792 4815.44 612.755C4809.23 611.28 4802.73 613.53 4798.77 618.53C4784.98 635.842 4773.68 661.172 4786.1 682.655C4787.62 685.388 4789.54 687.872 4791.8 690.03C4792.43 742.376 4797.56 794.238 4803.1 846.58C4795.2 911.776 4791.19 977.384 4791.07 1043.05C4790.03 1176.12 4793.88 1309.34 4796.28 1442.41C4792.23 1446.18 4789.92 1451.46 4789.87 1457C4786.5 1538.12 4783.16 1619.21 4779.85 1700.28C4779.7 1703 4780.08 1705.72 4780.97 1708.3C4778.3 1710.81 4776.41 1714.04 4775.52 1717.59C4772.88 1727.54 4778.73 1741.64 4789.39 1743.17C4897.36 1761.92 5009.1 1695.79 5048.86 1588.94C5073.8 1521.93 5066.02 1407.06 5066.02 1336.6C5064.95 1320.57 5065.27 1304.48 5066.98 1288.5C5069.15 1276.23 5076.84 1272.47 5088.14 1271.18C5103.63 1269.86 5119.18 1269.46 5134.72 1269.98L5190.1 1269.34C5264.12 1268.54 5338.08 1268.3 5411.99 1268.62C5484.61 1268.62 5557.48 1268.62 5630.1 1271.43C5663.54 1272.37 5696.8 1276.59 5729.42 1284.01C5737.43 1286.02 5747.29 1326.1 5755.39 1328.74C5760.28 1329.68 5764.68 1332.32 5767.82 1336.2C5769.94 1341.87 5770.68 1347.97 5769.98 1353.99V1495.79C5768.99 1530.86 5772.68 1565.91 5780.96 1600C5796.99 1657.4 5837.07 1700.36 5885.17 1729.86C5909.32 1744 5934.61 1756.12 5960.76 1766.09C5973.42 1771.06 5986.17 1775.71 5999 1780.2C6011.82 1784.69 6026.73 1790.46 6040.76 1786.21C6059.76 1780.52 6064.81 1763.04 6065.93 1744.37C6066.81 1726.89 6067.53 1709.42 6068.33 1691.94C6069.88 1657.47 6071.19 1622.98 6072.26 1588.46C6074.35 1518.64 6075.23 1448.18 6073.14 1377.88Z" fill="#0D2144"/>
</svg>
