<svg width="234" height="88" viewBox="0 0 234 88" fill="none" xmlns="http://www.w3.org/2000/svg">
<mask id="mask0_1430_86" style="mask-type:luminance" maskUnits="userSpaceOnUse" x="9" y="4" width="163" height="85">
<path d="M9.83936 12.6209C93.4272 32.6177 115.135 114.191 171.662 79.525C156.995 79.9169 136.956 60.8567 113.92 41.7966C91.1157 22.9289 65.3806 4.06115 39.0104 4.06347C29.3354 4.06347 19.57 6.60683 9.83936 12.6209Z" fill="white"/>
</mask>
<g mask="url(#mask0_1430_86)">
<path d="M9.83948 12.6216C93.4273 32.6184 115.135 114.191 171.662 79.5256C156.995 79.9175 136.957 60.8573 113.92 41.7972C91.1158 22.9295 65.3808 4.06176 39.0105 4.06408C29.3355 4.06408 19.5701 6.60744 9.83948 12.6216Z" fill="url(#paint0_linear_1430_86)"/>
</g>
<mask id="mask1_1430_86" style="mask-type:luminance" maskUnits="userSpaceOnUse" x="77" y="0" width="121" height="64">
<path d="M77.6382 7.08C139.692 21.9252 155.805 82.4859 197.767 56.744C186.88 57.0361 172.002 42.8888 154.904 28.7391C137.976 14.731 118.872 0.72507 99.295 0.72507C92.1124 0.727388 84.8625 2.61463 77.6382 7.08Z" fill="white"/>
</mask>
<g mask="url(#mask1_1430_86)">
<path d="M77.6382 7.08098C139.692 21.9261 155.805 82.4869 197.767 56.7449C186.88 57.0371 172.002 42.8898 154.904 28.7401C137.976 14.7319 118.872 0.726046 99.295 0.726046C92.1124 0.728365 84.8625 2.6156 77.6382 7.08098Z" fill="url(#paint1_linear_1430_86)"/>
</g>
<mask id="mask2_1430_86" style="mask-type:luminance" maskUnits="userSpaceOnUse" x="135" y="0" width="80" height="42">
<path d="M135.178 4.21989C176.398 14.0757 187.105 54.3081 214.982 37.2117C207.748 37.4042 197.867 28.0074 186.504 18.606C175.259 9.30199 162.568 -0.00204193 149.564 0.000276542C144.792 0.000276542 139.977 1.25225 135.178 4.21989Z" fill="white"/>
</mask>
<g mask="url(#mask2_1430_86)">
<path d="M135.178 4.22099C176.398 14.0768 187.105 54.3092 214.982 37.2128C207.748 37.4053 197.867 28.0085 186.504 18.6071C175.259 9.30308 162.568 -0.000943295 149.564 0.00137518C144.792 0.00137518 139.977 1.25335 135.178 4.22099Z" fill="url(#paint2_linear_1430_86)"/>
</g>
<path d="M40.3112 38.5998H9.52891C9.7538 37.9043 10.0645 37.2482 10.4424 36.6384C11.0776 35.6067 11.8288 34.7489 12.7122 34.0348C13.6048 33.3044 14.5623 32.7573 15.5894 32.3678C16.6211 31.9829 17.6296 31.7974 18.6312 31.7974H40.3112V38.5998ZM11.9517 24.1882C9.74917 25.0808 7.75992 26.3514 6.0002 27.9812C4.23353 29.6181 2.78912 31.5911 1.68321 33.8632C0.556433 36.184 0 38.7529 0 41.535V65.035H1.16851C2.39034 65.035 3.54494 64.7684 4.56275 64.2212C5.49477 63.7135 6.31319 63.1107 6.98323 62.3873C7.62081 61.6988 8.13551 60.9823 8.50183 60.2265C8.84496 59.5032 9.06754 58.8586 9.07681 58.1538V47.4935H40.3112V58.1538C40.3112 58.9096 40.5222 59.6655 40.8769 60.4445C41.2479 61.2722 41.7927 62.021 42.479 62.6818C43.1746 63.3518 44.0069 63.9036 44.9482 64.3395C45.9521 64.8055 47.0649 65.035 48.2358 65.0304H49.3881V22.8435H18.6312C16.3869 22.8435 14.1473 23.2956 11.9517 24.1882Z" fill="#0E4096"/>
<path d="M193.429 38.5998V31.7974H215.102C216.106 31.7974 217.117 31.9829 218.148 32.3678C219.18 32.7573 220.133 33.3044 221.023 34.0348C221.907 34.7489 222.653 35.6067 223.298 36.6384C223.678 37.2482 223.977 37.9043 224.206 38.5998H193.429ZM232.054 33.8632C230.946 31.5911 229.511 29.6181 227.735 27.9812C225.978 26.3514 223.986 25.0808 221.784 24.1882C219.588 23.2956 217.36 22.8435 215.102 22.8435H184.345V65.0304H185.504C186.673 65.035 187.781 64.8055 188.792 64.3395C189.733 63.9036 190.563 63.3518 191.259 62.6818C191.943 62.021 192.487 61.2722 192.863 60.4445C193.211 59.6655 193.419 58.9096 193.429 58.1538V47.4935H224.661V58.1538C224.67 58.8586 224.895 59.5032 225.24 60.2265C225.602 60.9823 226.119 61.6988 226.757 62.3873C227.422 63.1107 228.243 63.7135 229.18 64.2212C230.193 64.7684 231.347 65.035 232.571 65.035H233.74V41.535C233.74 38.7529 233.181 36.184 232.054 33.8632Z" fill="#0E4096"/>
<path d="M162.532 36.5954C162.396 36.9849 162.166 37.3257 161.795 37.6688C161.44 37.9934 160.921 38.3087 160.205 38.5777C159.567 38.8211 158.642 38.9625 157.464 38.9625H133.271V31.7985H157.464C158.688 31.7961 159.643 31.9468 160.295 32.188C161.035 32.4569 161.554 32.7745 161.876 33.0759C162.224 33.4191 162.428 33.7529 162.551 34.1332C162.718 34.6154 162.776 35.035 162.776 35.3805C162.776 35.712 162.704 36.1201 162.532 36.5954ZM170.216 41.4665C171.273 39.6697 171.797 37.6109 171.797 35.3805C171.797 33.5512 171.44 31.8518 170.728 30.3146C170.021 28.7868 168.989 27.4421 167.658 26.3176C166.314 25.1769 164.665 24.3191 162.76 23.7232C160.842 23.1297 158.688 22.8422 156.3 22.8422H124.192L124.125 65.0361H125.284C126.506 65.0361 127.651 64.7833 128.671 64.257C129.603 63.7818 130.421 63.1975 131.11 62.5089C131.785 61.8435 132.32 61.1155 132.71 60.3365C133.081 59.5853 133.324 58.8875 133.329 58.1572L133.276 47.8608H153.653C154.694 47.8608 155.735 48.0602 156.813 48.4636C157.863 48.8647 158.797 49.442 159.643 50.2071C160.462 50.9629 161.155 51.8996 161.716 53.0867C162.242 54.1949 162.528 55.5048 162.528 57.0443V58.28C162.528 59.0498 162.76 59.8149 163.135 60.5985C163.52 61.3961 164.058 62.1333 164.714 62.7848C165.403 63.4734 166.237 64.0298 167.211 64.4703C168.22 64.9317 169.335 65.1543 170.503 65.1543H171.662V56.6177C171.669 56.4948 171.669 56.3603 171.669 56.2282C171.669 53.5759 171.275 51.2713 170.434 49.3238C169.724 47.6846 168.542 46.2309 166.947 44.9488C168.328 43.989 169.43 42.8251 170.216 41.4665Z" fill="#0E4096"/>
<path d="M108.611 23.0301C108.541 23.044 108.484 23.0788 108.421 23.0927C107.96 23.204 107.507 23.3361 107.081 23.5355C106.912 23.6097 106.77 23.714 106.61 23.7975C106.555 23.8253 106.506 23.8554 106.455 23.8833C105.773 24.2589 105.143 24.6808 104.612 25.2002C104.572 25.2349 104.547 25.279 104.507 25.3138C103.32 26.3779 102.078 27.9081 101.572 29.9739L97.8858 44.5756C95.4491 53.6594 89.4187 55.586 86.7942 55.9732C84.1744 55.586 78.1417 53.6594 75.7073 44.5756L72.0186 29.9739C71.5132 27.9081 70.2705 26.3779 69.0811 25.3138C69.0463 25.279 69.0162 25.2349 68.9791 25.2002C68.4482 24.6808 67.8152 24.2589 67.1359 23.8833C67.0826 23.8554 67.0339 23.8253 66.9829 23.7975C66.8229 23.714 66.6792 23.6097 66.5099 23.5355C66.0857 23.3361 65.6312 23.204 65.1722 23.0927C65.1049 23.0788 65.0447 23.044 64.9797 23.0301C64.414 22.9095 63.8298 22.8423 63.227 22.8423H62.0701L66.8855 46.333C69.7975 59.9332 78.9972 62.7942 81.2206 63.6914C83.0615 64.4333 84.9255 64.8506 86.7942 64.9758C88.6629 64.8506 90.5293 64.4333 92.3702 63.6914C94.5913 62.7942 103.793 59.9332 106.703 46.333L111.518 22.8423H110.366C109.759 22.8423 109.177 22.9072 108.611 23.0301Z" fill="#0E4096"/>
<defs>
<linearGradient id="paint0_linear_1430_86" x1="146.204" y1="101.525" x2="61.7925" y2="17.1137" gradientUnits="userSpaceOnUse">
<stop stop-color="#5CC4E7"/>
<stop offset="0.398178" stop-color="#5CC4E7"/>
<stop offset="0.527466" stop-color="#A9DDF1"/>
<stop offset="0.655076" stop-color="#A9DDF1"/>
<stop offset="0.873627" stop-color="#0098DC"/>
<stop offset="0.968213" stop-color="#0084BC"/>
<stop offset="1" stop-color="#0084BC"/>
</linearGradient>
<linearGradient id="paint1_linear_1430_86" x1="176.801" y1="71.0095" x2="112.949" y2="7.15977" gradientUnits="userSpaceOnUse">
<stop stop-color="#C8A2CA"/>
<stop offset="0.398178" stop-color="#C8A2CA"/>
<stop offset="0.527466" stop-color="#DBC6DF"/>
<stop offset="0.655076" stop-color="#DBC6DF"/>
<stop offset="0.873627" stop-color="#A0509B"/>
<stop offset="0.968213" stop-color="#A0509B"/>
<stop offset="1" stop-color="#A0509B"/>
</linearGradient>
<linearGradient id="paint2_linear_1430_86" x1="197.866" y1="43.5024" x2="150.575" y2="-3.78895" gradientUnits="userSpaceOnUse">
<stop stop-color="#C8A2CA"/>
<stop offset="0.398178" stop-color="#C8A2CA"/>
<stop offset="0.527466" stop-color="#DBC6DF"/>
<stop offset="0.655076" stop-color="#DBC6DF"/>
<stop offset="0.873627" stop-color="#A0509B"/>
<stop offset="0.968213" stop-color="#A0509B"/>
<stop offset="1" stop-color="#A0509B"/>
</linearGradient>
</defs>
</svg>
