<svg width="116" height="82" viewBox="0 0 116 82" fill="none" xmlns="http://www.w3.org/2000/svg">
<path d="M51.2167 67.9232C54.9867 67.9481 55.8194 71.0561 54.8206 72.9162C54.0673 74.3184 52.7826 74.7633 51.2867 74.6945C49.7374 74.6245 48.5405 73.7798 48.1288 72.4429C47.7101 71.0811 47.926 69.8236 49.0067 68.8129C49.7386 68.1296 50.6473 67.9113 51.2167 67.9232ZM53.6248 71.2697C53.6094 70.7774 53.5679 70.2863 53.403 69.8177C53.0958 68.9493 52.4504 68.5223 51.5014 68.5401C50.6058 68.5567 49.983 69.0193 49.722 69.8972C49.4646 70.7643 49.4503 71.6481 49.6722 72.5212C49.9284 73.5295 50.5963 74.0598 51.5572 74.0835C52.486 74.1061 53.161 73.5651 53.4611 72.552C53.5845 72.1357 53.6082 71.7039 53.6248 71.2697Z" fill="#5B3926"/>
<path d="M33.9644 69.6635C33.9644 70.9506 33.9716 72.0953 33.9609 73.2401C33.9561 73.7264 34.1151 74.0562 34.6477 74.0776C34.8731 74.0859 34.968 74.1666 34.9431 74.3991C34.9158 74.6494 34.732 74.5865 34.5872 74.5877C33.9941 74.5924 33.4021 74.5913 32.809 74.5889C32.656 74.5889 32.4852 74.6233 32.4567 74.3848C32.4258 74.1262 32.5872 74.0918 32.777 74.074C33.255 74.0289 33.3855 73.7288 33.3808 73.2946C33.3701 72.0301 33.3725 70.7655 33.376 69.5009C33.3772 69.0169 33.2396 68.6361 32.6999 68.5543C32.4875 68.5223 32.4413 68.4131 32.4579 68.2316C32.4768 68.0311 32.6251 68.0442 32.7639 68.0442C33.2384 68.043 33.7129 68.0573 34.1863 68.0383C34.4544 68.0276 34.5623 68.2043 34.7023 68.3704C35.6561 69.5033 36.6122 70.6326 37.5695 71.7632C37.6905 71.9055 37.8186 72.0419 38.0535 72.3053C38.0761 71.0704 38.152 69.9992 37.993 68.9315C37.9479 68.6302 37.6775 68.5436 37.4046 68.546C37.1982 68.5472 37.127 68.4689 37.1282 68.2684C37.1294 68.024 37.2896 68.0418 37.4509 68.0418C38.063 68.043 38.6763 68.043 39.2884 68.0418C39.4521 68.0418 39.6111 68.0335 39.6182 68.2696C39.6242 68.4784 39.5233 68.5472 39.33 68.5401C38.7522 68.5187 38.6621 68.8817 38.6656 69.355C38.6763 70.9351 38.6739 72.5164 38.6633 74.0966C38.6621 74.2709 38.7926 74.5213 38.528 74.6138C38.2706 74.7039 38.0915 74.558 37.9254 74.3587C36.7142 72.9008 35.4947 71.45 34.2776 69.998C34.2076 69.9137 34.1281 69.8367 33.9644 69.6635Z" fill="#5B3926"/>
<path d="M77.7627 70.7917C77.7627 70.2982 77.7616 69.8035 77.7627 69.31C77.7639 68.864 77.6488 68.5176 77.1043 68.5413C76.9122 68.5496 76.8078 68.482 76.8137 68.2721C76.8196 68.036 76.9786 68.0431 77.1423 68.0431C78.051 68.0443 78.9597 68.0443 79.8684 68.0431C80.0392 68.0431 80.1839 68.0538 80.1839 68.2863C80.1839 68.5057 80.0605 68.5449 79.879 68.5425C79.3547 68.5354 79.2207 68.8391 79.229 69.3112C79.248 70.3385 79.2183 71.3659 79.2408 72.392C79.2646 73.4573 79.7533 74.0041 80.681 74.0682C81.5754 74.1287 82.2777 73.5676 82.4082 72.583C82.5612 71.4263 82.4628 70.2567 82.4556 69.0929C82.4533 68.7643 82.2385 68.5437 81.8767 68.5484C81.6561 68.5508 81.4865 68.5342 81.5197 68.2376C81.5529 67.9328 81.7795 68.0538 81.9254 68.0502C82.4983 68.036 83.0713 68.0443 83.6443 68.0443C83.8044 68.0443 83.9705 68.0277 83.9788 68.2661C83.9859 68.4702 83.8922 68.5461 83.6953 68.5437C83.1579 68.539 83.0512 68.8818 83.0547 69.3314C83.0618 70.2591 83.0559 71.1879 83.0547 72.1168C83.0523 73.6649 82.3845 74.4454 80.8589 74.6827C79.0392 74.9662 77.7699 73.8819 77.7627 72.0361C77.7616 71.6209 77.7627 71.2069 77.7627 70.7917Z" fill="#5B3926"/>
<path d="M88.5936 68.5923C88.6731 68.3254 88.698 68.0466 89.042 68.1201C89.3422 68.1842 89.2058 68.438 89.2164 68.6101C89.2366 68.9446 89.2307 69.2815 89.2188 69.6172C89.214 69.7524 89.3066 69.9565 89.0444 69.9743C88.8582 69.9861 88.7016 69.9802 88.6316 69.7465C88.577 69.5615 88.4726 69.3871 88.3671 69.2222C88.1476 68.8758 87.8403 68.6373 87.4311 68.5507C86.8273 68.4238 86.3172 68.6243 86.1902 69.068C86.0348 69.616 86.38 69.9173 86.8024 70.1439C87.2875 70.4025 87.7905 70.6315 88.2781 70.8865C89.666 71.6102 90.0527 72.5959 89.3861 73.6885C88.7004 74.8119 87.214 75.0503 86.0728 74.2164C85.9482 74.125 85.832 74.023 85.6873 73.9056C85.6351 74.0183 85.5698 74.1001 85.5603 74.1891C85.5366 74.4181 85.4156 74.4904 85.2009 74.4726C84.9565 74.4525 84.9992 74.2698 84.998 74.1215C84.9933 73.5877 84.998 73.055 84.9945 72.5212C84.9933 72.3527 84.9933 72.1997 85.2246 72.1973C85.3954 72.1962 85.5093 72.2223 85.5651 72.4299C85.679 72.8486 85.8545 73.246 86.1546 73.5746C86.628 74.0942 87.3303 74.2721 87.8653 74.0076C88.5047 73.6909 88.6055 72.9411 88.0325 72.5188C87.6873 72.265 87.2887 72.0787 86.8984 71.8937C86.5046 71.7063 86.1238 71.5046 85.7893 71.2258C84.9601 70.533 84.7715 69.6907 85.2543 68.8734C85.7383 68.0537 86.8249 67.712 87.7419 68.0715C88.042 68.1865 88.2745 68.4001 88.5936 68.5923Z" fill="#5B3926"/>
<path d="M72.9109 68.0442C73.8397 68.0442 74.7698 68.0609 75.6974 68.036C76.0676 68.0265 76.1874 68.1415 76.1577 68.5057C76.1269 68.8794 76.147 69.2566 76.1518 69.6315C76.1542 69.8166 76.102 69.934 75.8908 69.9411C75.6974 69.947 75.6381 69.8593 75.5824 69.6754C75.2799 68.6884 74.886 68.4701 73.8706 68.6303C73.6167 68.6706 73.6084 68.8047 73.6084 68.9933C73.6096 70.4559 73.6155 71.9186 73.606 73.3813C73.6037 73.825 73.8231 74.0385 74.2371 74.0741C74.4566 74.0931 74.5515 74.1702 74.5278 74.4027C74.5017 74.6625 74.3142 74.5878 74.1766 74.5889C73.3071 74.5949 72.4376 74.5937 71.568 74.5901C71.4245 74.589 71.243 74.6459 71.2145 74.3968C71.186 74.15 71.313 74.0966 71.5206 74.0824C72.0141 74.0504 72.1789 73.7728 72.1718 73.2888C72.1505 71.8854 72.1493 70.482 72.1742 69.0787C72.1813 68.6955 72.0508 68.6279 71.7033 68.6279C70.5988 68.6291 70.5241 68.6576 70.1884 69.6873C70.1279 69.8711 70.0662 69.9482 69.8728 69.9435C69.6166 69.9364 69.6747 69.7561 69.6629 69.609C69.6593 69.5698 69.6629 69.5295 69.6617 69.4903C69.6308 68.0466 69.6308 68.0466 71.0733 68.0466C71.6855 68.0443 72.2976 68.0442 72.9109 68.0442Z" fill="#5B3926"/>
<path d="M67.8682 74.5889C67.4542 74.5889 67.039 74.5889 66.625 74.5889C66.4874 74.5889 66.3439 74.6067 66.3403 74.3944C66.3368 74.2188 66.3486 74.1014 66.5776 74.0824C66.8243 74.0622 67.1778 74.0243 67.0295 73.6553C66.8872 73.3006 66.9773 72.7205 66.3273 72.7336C65.9726 72.7407 65.6167 72.7348 65.2608 72.7348C64.6582 72.736 64.3913 72.9993 64.3604 73.6031C64.3438 73.9507 64.5739 74.0326 64.8409 74.0753C65.0164 74.1026 65.1351 74.1524 65.1208 74.3683C65.1042 74.6043 64.9441 74.5901 64.7851 74.5901C64.2323 74.5901 63.6795 74.5925 63.1267 74.5889C62.9772 74.5878 62.7981 74.6281 62.7933 74.3754C62.791 74.2188 62.8183 74.1132 62.9962 74.0812C63.5004 73.9887 63.6783 73.5747 63.8361 73.1713C64.4577 71.5793 65.0615 69.9791 65.6819 68.3859C65.759 68.1878 65.7567 67.915 66.1114 67.9161C66.4625 67.9173 66.4661 68.1878 66.5455 68.3859C67.1921 70.0111 67.8279 71.641 68.4626 73.271C68.6085 73.647 68.758 74.0183 69.2242 74.08C69.4638 74.1121 69.4306 74.271 69.4234 74.4264C69.4128 74.6506 69.2348 74.5854 69.1126 74.5866C68.6974 74.5937 68.2834 74.5889 67.8682 74.5889ZM65.6665 70.0989C65.5313 70.4524 65.4399 70.6849 65.3522 70.9186C64.8266 72.3148 64.8266 72.3148 66.3249 72.2318C66.3605 72.2294 66.3949 72.2069 66.4767 72.176C66.2241 71.5272 65.9702 70.8783 65.6665 70.0989Z" fill="#5B3926"/>
<path d="M44.3348 72.7028C44.8508 71.4833 45.3277 70.3848 45.7785 69.2757C45.9386 68.883 45.8627 68.5639 45.3443 68.5461C45.1593 68.539 44.9896 68.5461 44.9979 68.2745C45.0074 67.9803 45.2162 68.049 45.3775 68.0467C45.9493 68.0407 46.5223 68.0396 47.0941 68.0467C47.2542 68.049 47.4678 67.9767 47.4749 68.2721C47.4796 68.4844 47.3788 68.5283 47.1925 68.552C46.7263 68.6113 46.5769 69.0004 46.4203 69.3611C45.7097 71.0005 45.0086 72.6423 44.2992 74.2829C44.2197 74.468 44.2102 74.7052 43.9006 74.7147C43.5578 74.7254 43.5424 74.4609 43.4558 74.258C42.7499 72.615 42.0465 70.9708 41.3466 69.3255C41.1722 68.9174 41.0061 68.5082 40.4509 68.5414C40.2386 68.5544 40.2528 68.4085 40.2445 68.2661C40.2327 68.0728 40.343 68.0431 40.5019 68.0431C41.4296 68.0455 42.3573 68.0479 43.2849 68.0419C43.47 68.0407 43.5851 68.0704 43.5744 68.297C43.5661 68.4666 43.5068 68.5153 43.336 68.5497C42.6586 68.6837 42.6278 68.749 42.9006 69.3895C43.3561 70.4524 43.82 71.513 44.3348 72.7028Z" fill="#5B3926"/>
<path d="M59.1671 74.589C58.3379 74.589 57.5087 74.5949 56.6806 74.5842C56.5146 74.5818 56.2702 74.6981 56.2536 74.3517C56.2405 74.0717 56.4268 74.0824 56.5952 74.0682C57.0496 74.0302 57.1979 73.7313 57.2002 73.341C57.2097 71.9791 57.2085 70.6173 57.2038 69.2555C57.2026 68.8201 57.014 68.5307 56.5336 68.5437C56.3331 68.5484 56.2548 68.4808 56.2548 68.2744C56.256 68.0312 56.409 68.0443 56.5703 68.0443C57.4588 68.0443 58.3462 68.0431 59.2347 68.0466C59.3842 68.0466 59.5574 68.011 59.5716 68.2602C59.5858 68.5188 59.4387 68.5413 59.2394 68.546C58.7566 68.5579 58.6119 68.8414 58.6166 69.2898C58.6297 70.5924 58.6167 71.8949 58.6238 73.1975C58.6273 73.8345 58.7839 73.9804 59.4376 74.0053C60.7069 74.0516 61.1304 73.7787 61.5942 72.5675C61.6583 72.4015 61.7294 72.3588 61.8837 72.3576C62.0829 72.3552 62.1031 72.4821 62.1007 72.6304C62.0924 73.2022 62.0746 73.774 62.0746 74.3458C62.0746 74.6281 61.886 74.5913 61.7116 74.5913C60.8646 74.589 60.0153 74.589 59.1671 74.589Z" fill="#5B3926"/>
<path d="M30.7617 71.2791C30.7617 71.9102 30.7712 72.5424 30.7581 73.1735C30.7475 73.6623 30.8518 74.0466 31.4355 74.0775C31.6443 74.0882 31.7688 74.1546 31.7368 74.3978C31.7048 74.6445 31.5245 74.5864 31.3797 74.5864C30.4912 74.5911 29.6039 74.59 28.7154 74.5876C28.5659 74.5876 28.3998 74.6303 28.3808 74.3788C28.3607 74.1214 28.5007 74.0905 28.6964 74.0775C29.2314 74.0419 29.3619 73.7216 29.3536 73.2305C29.331 71.9481 29.337 70.6646 29.35 69.3822C29.3548 68.8745 29.2267 68.5151 28.6347 68.5435C28.4022 68.5554 28.3844 68.4249 28.3844 68.2481C28.3844 68.0405 28.522 68.0453 28.6655 68.0453C29.5932 68.0453 30.5209 68.0453 31.4486 68.0453C31.5921 68.0453 31.7309 68.0453 31.7368 68.2458C31.7416 68.4237 31.7095 68.5506 31.483 68.5423C30.8483 68.521 30.7498 68.9314 30.7581 69.4427C30.77 70.0548 30.7617 70.6669 30.7617 71.2791Z" fill="#5B3926"/>
<path d="M41.4588 25.5197C20.3281 20.0746 7.7353 13.881 3.40882 10.4099C-0.917656 6.93885 1.17978 1.00845 1.17978 1.00845C6.37813 12.5238 44.0168 22.7313 44.0168 22.7313L41.4588 25.5197ZM41.3272 26.5643C41.3272 26.5643 4.20667 17.2204 0.15985 8.59212C0.15985 8.59212 -0.103357 14.7117 4.64261 17.7468C9.3968 20.7902 24.3914 25.24 42.3553 28.9167L41.3272 26.5643ZM43.1532 30.2821C43.1532 30.2821 11.9466 23.6361 3.65558 19.178C3.65558 19.178 4.63438 22.0486 9.23229 24.3846C14.0194 26.8193 24.8109 29.221 41.6397 31.9271L43.1532 30.2821ZM44.3541 33.4159C44.3541 33.4159 15.1956 29.476 7.31581 24.8781C7.31581 24.8781 10.7128 28.8509 15.8454 30.4219C20.6242 31.886 26.2339 33.3912 41.3519 34.6415L44.3541 33.4159ZM41.541 35.4722C41.541 35.4722 19.8675 34.8142 11.996 29.657C11.996 29.657 12.2756 31.1622 16.6844 33.5228C21.0931 35.8752 27.5417 36.5826 42.6514 37.8328L41.541 35.4722ZM44.1813 38.4086C44.1813 38.4086 24.5724 38.3757 16.3142 34.4934C16.3142 34.4934 17.9675 36.7965 21.2987 37.9645C26.1681 39.6753 30.4616 40.1195 45.629 40.1524L44.1813 38.4086ZM48.771 40.5061C48.771 40.5061 29.2196 42.0606 20.7559 38.6471C20.7559 38.6471 22.5407 40.8597 25.9213 41.8385C30.8811 43.2697 35.1582 42.9818 50.3009 42.1758L48.771 40.5061Z" fill="url(#paint0_linear_1076_102)" stroke="#5B3926" stroke-width="0.32901"/>
<path d="M71.5727 22.7229C71.5727 22.7229 109.211 12.5153 114.41 1C114.41 1 116.515 6.94685 112.181 10.4097C107.846 13.8725 95.2696 20.0743 74.1307 25.5194L71.5727 22.7229ZM73.2342 28.9165C91.1981 25.2398 106.193 20.7899 110.947 17.7466C115.701 14.7032 115.43 8.5919 115.43 8.5919C111.383 17.2284 74.2623 26.564 74.2623 26.564L73.2342 28.9165ZM73.958 31.9351C90.7786 29.229 101.57 26.8273 106.365 24.3926C110.963 22.0566 111.942 19.186 111.942 19.186C103.651 23.6359 72.4445 30.2901 72.4445 30.2901L73.958 31.9351ZM74.2376 34.6495C89.3556 33.391 94.9652 31.894 99.7441 30.4299C104.877 28.8507 108.274 24.8861 108.274 24.8861C100.402 29.484 71.2354 33.4239 71.2354 33.4239L74.2376 34.6495ZM72.938 37.8326C88.056 36.5742 94.4964 35.875 98.9051 33.5226C103.314 31.1702 103.594 29.6567 103.594 29.6567C95.722 34.814 74.0485 35.472 74.0485 35.472L72.938 37.8326ZM69.9687 40.1604C85.1361 40.1192 89.4297 39.6751 94.299 37.9724C97.622 36.8045 99.2835 34.5014 99.2835 34.5014C91.0254 38.3837 71.4164 38.4166 71.4164 38.4166L69.9687 40.1604ZM65.2886 42.1673C80.4312 42.9734 84.7166 43.2695 89.6682 41.8301C93.057 40.8513 94.8336 38.6387 94.8336 38.6387C86.3699 42.0604 66.8185 40.4976 66.8185 40.4976L65.2886 42.1673Z" fill="url(#paint1_linear_1076_102)" stroke="#5B3926" stroke-width="0.32901"/>
<path d="M57.7531 16.3567C51.2388 18.5446 45.7361 15.7892 45.7361 15.7892C41.4425 23.0521 38.6377 23.2166 38.6377 23.2166C38.6377 23.2166 41.7715 25.6924 41.7715 29.6569C41.7715 33.6215 33.6532 45.8442 42.594 51.7828C49.2647 56.208 55.4501 56.06 57.5311 57.7955L57.7449 57.9929C59.5874 56.0435 65.9866 56.3725 72.8958 51.7828C81.8366 45.8442 73.7183 33.6215 73.7183 29.6569C73.7183 25.6924 76.8521 23.2166 76.8521 23.2166C76.8521 23.2166 74.0473 23.0521 69.7538 15.7892C69.7538 15.7892 62.3346 18.4542 57.5393 16.2827" fill="url(#paint2_linear_1076_102)"/>
<path d="M57.7531 16.3567C51.2388 18.5446 45.7361 15.7892 45.7361 15.7892C41.4425 23.0521 38.6377 23.2166 38.6377 23.2166C38.6377 23.2166 41.7715 25.6924 41.7715 29.6569C41.7715 33.6215 33.6532 45.8442 42.594 51.7828C49.2647 56.208 55.4501 56.06 57.5311 57.7955L57.7449 57.9929C59.5874 56.0435 65.9866 56.3725 72.8958 51.7828C81.8366 45.8442 73.7183 33.6215 73.7183 29.6569C73.7183 25.6924 76.8521 23.2166 76.8521 23.2166C76.8521 23.2166 74.0473 23.0521 69.7538 15.7892C69.7538 15.7892 62.3346 18.4542 57.5393 16.2827" stroke="#5B3926" stroke-width="0.658019"/>
<path d="M64.0866 42.4141C64.0866 42.4141 66.5624 42.6033 67.681 41.4847C68.7914 40.3742 69.1945 42.1015 69.1945 42.9981C69.1945 43.8946 69.1945 44.5115 69.1945 44.5115C69.1945 44.5115 73.4634 40.5223 70.5845 37.6435C68.7997 35.8586 67.3685 36.2781 67.3685 36.2781L66.6282 35.5378C66.6282 35.5378 64.8022 32.8728 60.5004 33.1114C55.2116 33.1114 52.9414 35.3651 49.0509 38.3262H50.844C50.844 38.3262 46.5422 40.0288 46.2625 41.608H48.1214C48.1214 41.608 46.5093 42.2907 45.7361 43.9933C45.7361 43.9933 47.7513 42.4799 48.7383 42.85C48.7383 42.85 46.6326 43.5903 46.0733 46.3787C46.0733 46.3787 48.1132 43.6561 50.9015 43.9604C50.9015 43.9604 46.3859 46.6254 47.4387 51.3303C47.4387 51.3303 49.7253 47.8674 51.1565 47.4891C51.1565 47.4891 50.8193 51.174 49.0509 52.9342C47.2824 54.7026 47.2824 54.974 47.2824 54.974C47.2824 54.974 51.7076 52.2926 51.7076 52.9918C51.7076 56.5204 56.3549 50.8285 56.3549 50.8285C56.3549 50.8285 52.086 55.1632 56.1081 57.6966C56.1081 57.6966 55.1787 54.7849 56.6016 55.0974C58.0246 55.41 56.322 58.5027 57.8272 60.5425C59.3324 62.5824 62.3593 61.2252 62.3593 61.2252C62.3593 61.2252 57.4982 59.975 60.2536 56.578C60.2536 56.578 59.6367 58.0009 62.2935 58.0009C62.2935 58.0009 60.8047 55.6485 64.3334 52.6792C67.862 49.7181 65.3204 44.0263 64.0866 42.4141Z" fill="#5B3926"/>
<path d="M56.6829 41.567C56.0331 41.7891 55.8439 42.6609 55.8439 42.6609C53.985 43.0475 53.1214 45.5069 53.1214 45.5069C55.9097 44.3306 57.0201 44.9475 57.0201 44.9475C57.0201 44.9475 56.1565 44.709 54.2976 46.1238C52.2084 47.7194 52.8417 50.7957 52.8417 50.7957C52.8417 50.7957 52.8417 50.7957 54.2976 49.3398C55.7534 47.8839 56.5595 48.0731 56.5595 48.0731C56.1565 51.3879 61.2314 52.7451 61.2314 52.7451C58.7227 51.2398 59.4054 47.2013 59.4054 47.2013C60.4254 49.1506 61.4782 49.274 61.4782 49.274C60.6721 47.8511 61.1985 46.8311 61.1985 46.8311C63.0245 47.1684 63.7648 49.3974 63.7648 49.3974C66.3311 47.5385 63.2137 44.635 63.6579 42.809C63.9375 41.6574 62.3336 43.3436 58.2539 42.151C57.1517 41.8384 56.6829 41.567 56.6829 41.567C56.7734 41.5341 56.6171 41.6081 57.2093 41.6081C58.4513 41.6081 60.6968 40.0617 60.6968 40.0617L60.6145 40.4319C62.128 39.7163 62.2843 37.5202 62.2843 37.5202H60.5487C60.5487 37.5202 60.5899 39.0665 58.4431 39.0665C56.4608 39.0665 56.5431 37.2816 56.4608 37.15C56.3539 36.9773 56.2798 37.3392 56.2798 37.3392C56.2798 37.3392 55.9508 39.2228 57.8262 39.6258C60.1128 40.1193 60.7955 38.3838 60.7955 38.3838C60.6886 39.3133 59.5782 40.2592 58.6076 40.802C57.8344 41.238 57.1435 41.4436 57.1435 41.4436" fill="url(#paint3_linear_1076_102)"/>
<path d="M66.8097 36.5332C66.8097 36.5332 65.3867 37.1501 65.3867 37.9562C65.3867 38.7623 63.8979 39.445 63.8979 39.445C63.8979 39.445 63.0425 37.0432 64.9508 36.4098C66.859 35.7765 66.8097 36.5332 66.8097 36.5332Z" fill="#E9CE8B"/>
<path d="M52.3002 29.6975H49.1006V29.1217C49.3638 29.1217 49.5694 29.0888 49.7093 29.023C49.8491 28.9572 49.9313 28.8503 49.9807 28.7187C50.0218 28.5871 50.0465 28.3897 50.0465 28.1429V22.9035C50.0465 22.5416 49.9889 22.2866 49.8738 22.1385C49.7586 21.9905 49.5036 21.9164 49.1088 21.9164V21.3407H52.3084V21.9164C52.0452 21.9164 51.8396 21.9493 51.6998 22.0234C51.5599 22.0892 51.4777 22.1961 51.4283 22.3277C51.3872 22.4593 51.3625 22.6567 51.3625 22.9035V28.1429C51.3625 28.3815 51.379 28.5707 51.4201 28.7023C51.4612 28.8339 51.5435 28.9408 51.6751 29.0148C51.8067 29.0888 52.0123 29.1217 52.292 29.1217V29.6975H52.3002Z" fill="#5B3926"/>
<path d="M59.3333 29.6072H58.8892C58.8234 29.2535 58.7164 28.941 58.5684 28.6613C58.3299 28.9821 58.0584 29.2618 57.7623 29.4921C57.458 29.7224 57.0467 29.8375 56.5285 29.8375C55.961 29.8375 55.4346 29.6566 54.9493 29.2864C54.464 28.9163 54.0774 28.4063 53.7895 27.7566C53.5016 27.0985 53.3618 26.3583 53.3618 25.5357C53.3618 24.9517 53.4358 24.3924 53.5921 23.866C53.7484 23.3314 53.9705 22.8708 54.2584 22.4677C54.5463 22.0647 54.8917 21.7521 55.2947 21.5218C55.6978 21.2915 56.1337 21.1764 56.6108 21.1764C57.4004 21.1764 58.0502 21.5218 58.5684 22.2045C58.6342 22.0236 58.7 21.7686 58.7658 21.4313H59.1853L59.2593 24.5076H58.8152C58.7329 23.9894 58.5848 23.5206 58.3792 23.1175C58.1654 22.7145 57.9186 22.4019 57.6307 22.1881C57.3428 21.9742 57.0385 21.8673 56.7177 21.8673C56.364 21.8673 56.0432 21.9989 55.7636 22.2539C55.4839 22.5089 55.2618 22.9037 55.0973 23.4301C54.9411 23.9565 54.8588 24.6145 54.8588 25.3959C54.8588 26.1609 54.9246 26.7942 55.0562 27.3042C55.1878 27.8141 55.3523 28.1925 55.5497 28.4557C55.7471 28.7189 55.9445 28.8916 56.142 28.9821C56.3394 29.0726 56.5285 29.1219 56.7013 29.1219C57.0796 29.1219 57.4251 28.9903 57.7294 28.7107C58.0338 28.4393 58.2887 28.0938 58.4779 27.6825C58.6753 27.2713 58.8069 26.86 58.8727 26.4487H59.3169V29.6072H59.3333Z" fill="#5B3926"/>
<path d="M66.7604 29.6072H66.3245C66.2587 29.2535 66.1518 28.941 66.0037 28.6613C65.7652 28.9821 65.4937 29.2618 65.1976 29.4921C64.8933 29.7224 64.482 29.8375 63.9638 29.8375C63.3963 29.8375 62.8699 29.6566 62.3846 29.2864C61.8993 28.9163 61.5127 28.4063 61.2248 27.7566C60.9369 27.0985 60.7971 26.3583 60.7971 25.5357C60.7971 24.9517 60.8711 24.3924 61.0274 23.866C61.1837 23.3314 61.4058 22.8708 61.6937 22.4677C61.9816 22.0647 62.327 21.7521 62.73 21.5218C63.1331 21.2915 63.569 21.1764 64.0461 21.1764C64.8357 21.1764 65.4855 21.5218 66.0037 22.2045C66.0695 22.0236 66.1353 21.7686 66.2011 21.4313H66.6206L66.6946 24.5076H66.2505C66.1682 23.9894 66.0201 23.5206 65.8145 23.1175C65.6007 22.7145 65.3539 22.4019 65.066 22.1881C64.7781 21.9742 64.4738 21.8673 64.153 21.8673C63.7993 21.8673 63.4785 21.9989 63.1989 22.2539C62.9192 22.5089 62.6972 22.9037 62.5326 23.4301C62.3764 23.9565 62.2941 24.6145 62.2941 25.3959C62.2941 26.1609 62.3599 26.7942 62.4915 27.3042C62.6231 27.8141 62.7876 28.1925 62.985 28.4557C63.1824 28.7189 63.3798 28.8916 63.5772 28.9821C63.7747 29.0726 63.9638 29.1219 64.1366 29.1219C64.5149 29.1219 64.8604 28.9903 65.1647 28.7107C65.4691 28.4393 65.724 28.0938 65.9132 27.6825C66.1106 27.2713 66.2422 26.86 66.308 26.4487H66.7522V29.6072H66.7604Z" fill="#5B3926"/>
<path d="M30.6195 79.3059H30.1092C30.0946 79.2222 30.0678 79.1481 30.0287 79.0835C29.9896 79.018 29.9409 78.9625 29.8827 78.917C29.8245 78.8716 29.7581 78.8374 29.6835 78.8147C29.6098 78.791 29.5302 78.7792 29.4447 78.7792C29.2928 78.7792 29.1581 78.8174 29.0408 78.8938C28.9234 78.9693 28.8316 79.0803 28.7652 79.2268C28.6987 79.3723 28.6655 79.5502 28.6655 79.7603C28.6655 79.9741 28.6987 80.1542 28.7652 80.3007C28.8325 80.4462 28.9243 80.5563 29.0408 80.6309C29.1581 80.7045 29.2923 80.7414 29.4433 80.7414C29.527 80.7414 29.6052 80.7305 29.678 80.7086C29.7517 80.6859 29.8176 80.6527 29.8759 80.609C29.935 80.5654 29.9846 80.5117 30.0246 80.448C30.0655 80.3843 30.0937 80.3116 30.1092 80.2297L30.6195 80.2324C30.6004 80.3652 30.559 80.4899 30.4953 80.6063C30.4326 80.7227 30.3503 80.8255 30.2484 80.9147C30.1465 81.0029 30.0273 81.0721 29.8909 81.1221C29.7544 81.1712 29.603 81.1958 29.4365 81.1958C29.1909 81.1958 28.9716 81.1389 28.7788 81.0252C28.5859 80.9115 28.434 80.7473 28.3231 80.5326C28.2121 80.3179 28.1566 80.0605 28.1566 79.7603C28.1566 79.4592 28.2125 79.2018 28.3244 78.988C28.4363 78.7733 28.5887 78.6091 28.7815 78.4954C28.9744 78.3817 29.1927 78.3248 29.4365 78.3248C29.592 78.3248 29.7367 78.3467 29.8704 78.3903C30.0041 78.434 30.1233 78.4981 30.2279 78.5827C30.3325 78.6664 30.4185 78.7692 30.4858 78.8911C30.554 79.0121 30.5986 79.1504 30.6195 79.3059ZM31.6964 81.1576H31.156L32.1399 78.363H32.7648L33.75 81.1576H33.2096L32.4632 78.9361H32.4414L31.6964 81.1576ZM31.7141 80.0619H33.1878V80.4685H31.7141V80.0619ZM34.4062 81.1576V78.363H35.4542C35.6689 78.363 35.849 78.4003 35.9945 78.4749C36.141 78.5495 36.2515 78.6541 36.3261 78.7888C36.4016 78.9225 36.4394 79.0785 36.4394 79.2568C36.4394 79.436 36.4011 79.5916 36.3247 79.7235C36.2492 79.8545 36.1378 79.9559 35.9904 80.0277C35.8431 80.0987 35.662 80.1342 35.4474 80.1342H34.701V79.7139H35.3791C35.5047 79.7139 35.6075 79.6966 35.6875 79.6621C35.7676 79.6266 35.8267 79.5752 35.8649 79.5079C35.904 79.4396 35.9236 79.356 35.9236 79.2568C35.9236 79.1576 35.904 79.073 35.8649 79.003C35.8258 78.932 35.7662 78.8784 35.6861 78.842C35.6061 78.8047 35.5028 78.786 35.3764 78.786H34.9125V81.1576H34.4062ZM35.8499 79.8913L36.5417 81.1576H35.9768L35.2973 79.8913H35.8499ZM37.1935 81.1576V78.363H38.2415C38.4561 78.363 38.6363 78.4003 38.7818 78.4749C38.9283 78.5495 39.0388 78.6541 39.1134 78.7888C39.1889 78.9225 39.2266 79.0785 39.2266 79.2568C39.2266 79.436 39.1884 79.5916 39.112 79.7235C39.0365 79.8545 38.9251 79.9559 38.7777 80.0277C38.6303 80.0987 38.4493 80.1342 38.2346 80.1342H37.4883V79.7139H38.1664C38.2919 79.7139 38.3947 79.6966 38.4748 79.6621C38.5548 79.6266 38.614 79.5752 38.6522 79.5079C38.6913 79.4396 38.7109 79.356 38.7109 79.2568C38.7109 79.1576 38.6913 79.073 38.6522 79.003C38.6131 78.932 38.5535 78.8784 38.4734 78.842C38.3934 78.8047 38.2901 78.786 38.1637 78.786H37.6998V81.1576H37.1935ZM38.6372 79.8913L39.329 81.1576H38.7641L38.0845 79.8913H38.6372ZM40.487 78.363V81.1576H39.9808V78.363H40.487ZM41.3234 81.1576V78.363H43.1409V78.7874H41.8296V79.5461H43.0468V79.9704H41.8296V80.7332H43.1519V81.1576H41.3234ZM43.9456 81.1576V78.363H44.9935C45.2082 78.363 45.3883 78.4003 45.5339 78.4749C45.6803 78.5495 45.7909 78.6541 45.8655 78.7888C45.941 78.9225 45.9787 79.0785 45.9787 79.2568C45.9787 79.436 45.9405 79.5916 45.8641 79.7235C45.7886 79.8545 45.6772 79.9559 45.5298 80.0277C45.3824 80.0987 45.2014 80.1342 44.9867 80.1342H44.2403V79.7139H44.9185C45.044 79.7139 45.1468 79.6966 45.2269 79.6621C45.3069 79.6266 45.366 79.5752 45.4042 79.5079C45.4434 79.4396 45.4629 79.356 45.4629 79.2568C45.4629 79.1576 45.4434 79.073 45.4042 79.003C45.3651 78.932 45.3055 78.8784 45.2255 78.842C45.1454 78.8047 45.0422 78.786 44.9158 78.786H44.4518V81.1576H43.9456ZM45.3892 79.8913L46.081 81.1576H45.5161L44.8366 79.8913H45.3892ZM50.3661 79.3059H49.8558C49.8413 79.2222 49.8144 79.1481 49.7753 79.0835C49.7362 79.018 49.6875 78.9625 49.6293 78.917C49.5711 78.8716 49.5047 78.8374 49.4301 78.8147C49.3564 78.791 49.2768 78.7792 49.1913 78.7792C49.0394 78.7792 48.9048 78.8174 48.7874 78.8938C48.6701 78.9693 48.5782 79.0803 48.5118 79.2268C48.4454 79.3723 48.4122 79.5502 48.4122 79.7603C48.4122 79.9741 48.4454 80.1542 48.5118 80.3007C48.5791 80.4462 48.671 80.5563 48.7874 80.6309C48.9048 80.7045 49.0389 80.7414 49.1899 80.7414C49.2736 80.7414 49.3519 80.7305 49.4246 80.7086C49.4983 80.6859 49.5643 80.6527 49.6225 80.609C49.6816 80.5654 49.7312 80.5117 49.7712 80.448C49.8122 80.3843 49.8404 80.3116 49.8558 80.2297L50.3661 80.2324C50.347 80.3652 50.3057 80.4899 50.242 80.6063C50.1792 80.7227 50.0969 80.8255 49.995 80.9147C49.8931 81.0029 49.774 81.0721 49.6375 81.1221C49.5011 81.1712 49.3496 81.1958 49.1831 81.1958C48.9375 81.1958 48.7183 81.1389 48.5254 81.0252C48.3326 80.9115 48.1807 80.7473 48.0697 80.5326C47.9587 80.3179 47.9032 80.0605 47.9032 79.7603C47.9032 79.4592 47.9592 79.2018 48.071 78.988C48.1829 78.7733 48.3353 78.6091 48.5282 78.4954C48.721 78.3817 48.9393 78.3248 49.1831 78.3248C49.3387 78.3248 49.4833 78.3467 49.617 78.3903C49.7508 78.434 49.8699 78.4981 49.9745 78.5827C50.0791 78.6664 50.1651 78.7692 50.2324 78.8911C50.3007 79.0121 50.3452 79.1504 50.3661 79.3059ZM53.615 79.7603C53.615 80.0614 53.5586 80.3193 53.4458 80.534C53.3339 80.7478 53.1811 80.9115 52.9873 81.0252C52.7945 81.1389 52.5757 81.1958 52.331 81.1958C52.0863 81.1958 51.867 81.1389 51.6733 81.0252C51.4804 80.9106 51.3276 80.7464 51.2148 80.5326C51.1029 80.3179 51.047 80.0605 51.047 79.7603C51.047 79.4592 51.1029 79.2018 51.2148 78.988C51.3276 78.7733 51.4804 78.6091 51.6733 78.4954C51.867 78.3817 52.0863 78.3248 52.331 78.3248C52.5757 78.3248 52.7945 78.3817 52.9873 78.4954C53.1811 78.6091 53.3339 78.7733 53.4458 78.988C53.5586 79.2018 53.615 79.4592 53.615 79.7603ZM53.106 79.7603C53.106 79.5484 53.0728 79.3696 53.0064 79.2241C52.9409 79.0776 52.8499 78.9671 52.7335 78.8925C52.6171 78.817 52.4829 78.7792 52.331 78.7792C52.1791 78.7792 52.0449 78.817 51.9284 78.8925C51.812 78.9671 51.7206 79.0776 51.6542 79.2241C51.5887 79.3696 51.5559 79.5484 51.5559 79.7603C51.5559 79.9723 51.5887 80.1515 51.6542 80.2979C51.7206 80.4435 51.812 80.554 51.9284 80.6295C52.0449 80.7041 52.1791 80.7414 52.331 80.7414C52.4829 80.7414 52.6171 80.7041 52.7335 80.6295C52.8499 80.554 52.9409 80.4435 53.0064 80.2979C53.0728 80.1515 53.106 79.9723 53.106 79.7603ZM56.6782 78.363V81.1576H56.2279L54.9112 79.2541H54.888V81.1576H54.3818V78.363H54.8348L56.1502 80.2679H56.1747V78.363H56.6782ZM59.0367 79.1313C59.024 79.0121 58.9703 78.9193 58.8757 78.8529C58.782 78.7865 58.6601 78.7533 58.51 78.7533C58.4045 78.7533 58.314 78.7692 58.2385 78.8011C58.163 78.8329 58.1052 78.8761 58.0652 78.9307C58.0252 78.9853 58.0047 79.0476 58.0038 79.1176C58.0038 79.1758 58.017 79.2263 58.0434 79.2691C58.0706 79.3118 58.1075 79.3482 58.1539 79.3782C58.2003 79.4074 58.2517 79.4319 58.3081 79.4519C58.3645 79.4719 58.4213 79.4888 58.4786 79.5024L58.7406 79.5679C58.8461 79.5925 58.9476 79.6257 59.0449 79.6675C59.1431 79.7094 59.2309 79.7621 59.3083 79.8258C59.3865 79.8895 59.4483 79.9663 59.4938 80.0564C59.5393 80.1465 59.5621 80.252 59.5621 80.373C59.5621 80.5367 59.5202 80.6809 59.4365 80.8055C59.3528 80.9292 59.2318 81.0261 59.0736 81.0962C58.9162 81.1653 58.7256 81.1999 58.5018 81.1999C58.2844 81.1999 58.0957 81.1662 57.9356 81.0989C57.7764 81.0316 57.6517 80.9333 57.5617 80.8042C57.4725 80.675 57.4243 80.5176 57.417 80.332H57.9151C57.9224 80.4294 57.9524 80.5103 58.0051 80.5749C58.0579 80.6395 58.1266 80.6877 58.2112 80.7196C58.2967 80.7514 58.3922 80.7673 58.4977 80.7673C58.6078 80.7673 58.7042 80.7509 58.787 80.7182C58.8707 80.6845 58.9362 80.6381 58.9835 80.579C59.0308 80.519 59.0549 80.4489 59.0558 80.3689C59.0549 80.2961 59.0335 80.2361 58.9917 80.1888C58.9498 80.1405 58.8912 80.1005 58.8157 80.0687C58.7411 80.0359 58.6537 80.0068 58.5537 79.9814L58.2358 79.8995C58.0056 79.8404 57.8237 79.7508 57.6899 79.6307C57.5571 79.5097 57.4907 79.3491 57.4907 79.149C57.4907 78.9844 57.5353 78.8402 57.6245 78.7165C57.7145 78.5927 57.8369 78.4968 57.9915 78.4285C58.1461 78.3594 58.3213 78.3248 58.5168 78.3248C58.7151 78.3248 58.8889 78.3594 59.0381 78.4285C59.1882 78.4968 59.306 78.5918 59.3915 78.7137C59.477 78.8347 59.5211 78.9739 59.5238 79.1313H59.0367ZM62.0631 78.363H62.5694V80.1888C62.5694 80.3889 62.5221 80.5649 62.4275 80.7168C62.3338 80.8687 62.2019 80.9875 62.0317 81.073C61.8616 81.1576 61.6629 81.1999 61.4355 81.1999C61.2071 81.1999 61.0079 81.1576 60.8378 81.073C60.6677 80.9875 60.5358 80.8687 60.4421 80.7168C60.3484 80.5649 60.3015 80.3889 60.3015 80.1888V78.363H60.8078V80.1465C60.8078 80.2629 60.8333 80.3666 60.8842 80.4576C60.936 80.5485 61.0088 80.6199 61.1025 80.6718C61.1962 80.7227 61.3072 80.7482 61.4355 80.7482C61.5637 80.7482 61.6747 80.7227 61.7684 80.6718C61.863 80.6199 61.9358 80.5485 61.9867 80.4576C62.0377 80.3666 62.0631 80.2629 62.0631 80.1465V78.363ZM63.4078 81.1576V78.363H63.914V80.7332H65.1448V81.1576H63.4078ZM65.3931 78.7874V78.363H67.6227V78.7874H66.759V81.1576H66.2568V78.7874H65.3931ZM68.8469 78.363V81.1576H68.3407V78.363H68.8469ZM71.9798 78.363V81.1576H71.5295L70.2127 79.2541H70.1895V81.1576H69.6833V78.363H70.1363L71.4517 80.2679H71.4763V78.363H71.9798ZM74.6917 79.2554C74.6689 79.1818 74.6375 79.1158 74.5975 79.0576C74.5584 78.9985 74.5111 78.948 74.4556 78.9061C74.401 78.8643 74.3383 78.8329 74.2673 78.812C74.1963 78.7901 74.119 78.7792 74.0353 78.7792C73.8852 78.7792 73.7515 78.817 73.6342 78.8925C73.5168 78.968 73.4245 79.079 73.3572 79.2254C73.2908 79.371 73.2576 79.5484 73.2576 79.7576C73.2576 79.9686 73.2908 80.1474 73.3572 80.2938C73.4236 80.4403 73.5159 80.5517 73.6342 80.6281C73.7524 80.7036 73.8898 80.7414 74.0462 80.7414C74.1882 80.7414 74.311 80.7141 74.4147 80.6595C74.5193 80.6049 74.5998 80.5276 74.6562 80.4275C74.7126 80.3266 74.7408 80.2083 74.7408 80.0728L74.8554 80.0905H74.0967V79.6948H75.2306V80.0305C75.2306 80.2697 75.1797 80.4767 75.0778 80.6513C74.9759 80.826 74.8358 80.9606 74.6575 81.0552C74.4793 81.1489 74.2746 81.1958 74.0435 81.1958C73.7861 81.1958 73.56 81.138 73.3654 81.0225C73.1716 80.906 73.0201 80.7409 72.911 80.5272C72.8027 80.3125 72.7486 80.0578 72.7486 79.763C72.7486 79.5374 72.7804 79.3359 72.8441 79.1586C72.9087 78.9812 72.9988 78.8306 73.1143 78.7069C73.2298 78.5823 73.3654 78.4877 73.5209 78.4231C73.6765 78.3576 73.8457 78.3248 74.0285 78.3248C74.1832 78.3248 74.3273 78.3476 74.4611 78.3931C74.5948 78.4376 74.7135 78.5013 74.8172 78.5841C74.9218 78.6669 75.0078 78.7651 75.0751 78.8788C75.1424 78.9925 75.1865 79.1181 75.2074 79.2554H74.6917ZM79.1217 79.2554C79.099 79.1818 79.0676 79.1158 79.0276 79.0576C78.9885 78.9985 78.9412 78.948 78.8857 78.9061C78.8311 78.8643 78.7683 78.8329 78.6974 78.812C78.6264 78.7901 78.5491 78.7792 78.4654 78.7792C78.3153 78.7792 78.1816 78.817 78.0642 78.8925C77.9469 78.968 77.8546 79.079 77.7873 79.2254C77.7208 79.371 77.6876 79.5484 77.6876 79.7576C77.6876 79.9686 77.7208 80.1474 77.7873 80.2938C77.8537 80.4403 77.946 80.5517 78.0642 80.6281C78.1825 80.7036 78.3199 80.7414 78.4763 80.7414C78.6182 80.7414 78.741 80.7141 78.8447 80.6595C78.9494 80.6049 79.0299 80.5276 79.0863 80.4275C79.1427 80.3266 79.1709 80.2083 79.1709 80.0728L79.2855 80.0905H78.5268V79.6948H79.6607V80.0305C79.6607 80.2697 79.6098 80.4767 79.5079 80.6513C79.406 80.826 79.2659 80.9606 79.0876 81.0552C78.9093 81.1489 78.7047 81.1958 78.4736 81.1958C78.2162 81.1958 77.9901 81.138 77.7954 81.0225C77.6017 80.906 77.4502 80.7409 77.3411 80.5272C77.2328 80.3125 77.1787 80.0578 77.1787 79.763C77.1787 79.5374 77.2105 79.3359 77.2742 79.1586C77.3388 78.9812 77.4288 78.8306 77.5444 78.7069C77.6599 78.5823 77.7954 78.4877 77.951 78.4231C78.1065 78.3576 78.2757 78.3248 78.4586 78.3248C78.6132 78.3248 78.7574 78.3476 78.8911 78.3931C79.0249 78.4376 79.1436 78.5013 79.2473 78.5841C79.3519 78.6669 79.4379 78.7651 79.5052 78.8788C79.5725 78.9925 79.6166 79.1181 79.6375 79.2554H79.1217ZM80.4384 78.363H81.0579L81.8875 80.388H81.9203L82.7499 78.363H83.3694V81.1576H82.8836V79.2377H82.8577L82.0854 81.1494H81.7224L80.9501 79.2336H80.9242V81.1576H80.4384V78.363ZM84.2088 81.1576V78.363H85.2786C85.4806 78.363 85.6484 78.3949 85.7821 78.4586C85.9167 78.5213 86.0173 78.6073 86.0837 78.7165C86.151 78.8256 86.1846 78.9493 86.1846 79.0876C86.1846 79.2013 86.1628 79.2986 86.1192 79.3796C86.0755 79.4597 86.0168 79.5247 85.9431 79.5747C85.8694 79.6248 85.7871 79.6607 85.6962 79.6825V79.7098C85.7953 79.7153 85.8904 79.7458 85.9813 79.8012C86.0732 79.8558 86.1483 79.9331 86.2065 80.0332C86.2647 80.1333 86.2938 80.2543 86.2938 80.3962C86.2938 80.5408 86.2588 80.6709 86.1887 80.7864C86.1187 80.901 86.0132 80.9915 85.8722 81.058C85.7312 81.1244 85.5538 81.1576 85.34 81.1576H84.2088ZM84.7151 80.7346H85.2595C85.4433 80.7346 85.5756 80.6995 85.6566 80.6295C85.7385 80.5585 85.7794 80.4676 85.7794 80.3566C85.7794 80.2738 85.7589 80.1992 85.718 80.1328C85.6771 80.0655 85.6188 80.0127 85.5433 79.9745C85.4678 79.9354 85.3778 79.9159 85.2732 79.9159H84.7151V80.7346ZM84.7151 79.5515H85.2158C85.3032 79.5515 85.3819 79.5356 85.4519 79.5038C85.522 79.471 85.577 79.4251 85.617 79.366C85.6579 79.3059 85.6784 79.235 85.6784 79.1531C85.6784 79.0448 85.6402 78.9557 85.5638 78.8857C85.4883 78.8156 85.3759 78.7806 85.2268 78.7806H84.7151V79.5515ZM87.0224 81.1576V78.363H87.5286V79.5461H88.8235V78.363H89.3311V81.1576H88.8235V79.9704H87.5286V81.1576H87.0224Z" fill="#5B3926"/>
<defs>
<linearGradient id="paint0_linear_1076_102" x1="38.9581" y1="13.9595" x2="10.1745" y2="30.5777" gradientUnits="userSpaceOnUse">
<stop offset="0.0275" stop-color="#847B6F"/>
<stop offset="0.2527" stop-color="#B6997C"/>
<stop offset="0.3058" stop-color="#C4A881"/>
<stop offset="0.4612" stop-color="#EAD08F"/>
<stop offset="0.544" stop-color="#F9E093"/>
<stop offset="0.6186" stop-color="#ECD28F"/>
<stop offset="0.7525" stop-color="#CBAF84"/>
<stop offset="0.8297" stop-color="#B6997C"/>
<stop offset="0.9945" stop-color="#847B6F"/>
</linearGradient>
<linearGradient id="paint1_linear_1076_102" x1="76.6367" y1="13.9593" x2="105.42" y2="30.5775" gradientUnits="userSpaceOnUse">
<stop offset="0.0275" stop-color="#847B6F"/>
<stop offset="0.2527" stop-color="#B6997C"/>
<stop offset="0.3058" stop-color="#C4A881"/>
<stop offset="0.4612" stop-color="#EAD08F"/>
<stop offset="0.544" stop-color="#F9E093"/>
<stop offset="0.6186" stop-color="#ECD28F"/>
<stop offset="0.7525" stop-color="#CBAF84"/>
<stop offset="0.8297" stop-color="#B6997C"/>
<stop offset="0.9945" stop-color="#847B6F"/>
</linearGradient>
<linearGradient id="paint2_linear_1076_102" x1="38.4014" y1="36.8933" x2="77.1044" y2="36.8933" gradientUnits="userSpaceOnUse">
<stop offset="0.0275" stop-color="#847B6F"/>
<stop offset="0.2527" stop-color="#B6997C"/>
<stop offset="0.3058" stop-color="#C4A881"/>
<stop offset="0.4612" stop-color="#EAD08F"/>
<stop offset="0.544" stop-color="#F9E093"/>
<stop offset="0.6186" stop-color="#ECD28F"/>
<stop offset="0.7525" stop-color="#CBAF84"/>
<stop offset="0.8297" stop-color="#B6997C"/>
<stop offset="0.9945" stop-color="#847B6F"/>
</linearGradient>
<linearGradient id="paint3_linear_1076_102" x1="52.7548" y1="44.9283" x2="64.7985" y2="44.9283" gradientUnits="userSpaceOnUse">
<stop stop-color="#B6997C"/>
<stop offset="1" stop-color="#F9E093"/>
</linearGradient>
</defs>
</svg>
