<svg width="120" height="40" viewBox="0 0 120 40" fill="none" xmlns="http://www.w3.org/2000/svg">
<path d="M13.8495 0.1123C7.56503 1.10656 2.61249 5.53383 0.980408 11.6495C0.455139 13.6005 0.41762 17.0522 0.86785 18.9469C2.61249 26.0568 8.7844 30.8781 16.1006 30.8781C23.4169 30.8781 29.5888 26.0568 31.3334 18.9469C31.7837 17.0522 31.7462 13.6005 31.2209 11.6495C29.7389 6.09661 25.4804 1.8757 19.9839 0.468733C18.2955 0.0372619 15.4065 -0.131575 13.8495 0.1123ZM19.3085 4.33321C21.2783 4.83972 22.7415 5.6839 24.2798 7.22219C26.5685 9.4921 27.6378 12.156 27.6378 15.5327V17.1835H18.802H9.96626L10.0976 17.69C10.3414 18.7031 11.2794 20.11 12.1611 20.7854C14.4123 22.4925 18.258 22.4362 20.603 20.6353C21.2033 20.1851 21.5972 20.0162 21.8411 20.0913C22.7978 20.3914 26.137 22.0798 26.137 22.2486C26.137 22.3612 25.5555 23.0178 24.8614 23.7306C22.629 25.9443 20.0214 26.9198 16.2695 26.9385C12.6489 26.9385 10.0788 25.9255 7.73386 23.5806C5.46395 21.3107 4.56349 19.022 4.56349 15.589C4.56349 11.9684 5.46395 9.69846 7.84642 7.31599C9.60983 5.53383 11.3732 4.55833 13.5869 4.14562C15.2002 3.8267 17.6577 3.9205 19.3085 4.33321Z" fill="#006EB7"/>
<path d="M14.7391 9.04195C13.3697 9.5297 12.4505 10.2801 11.6813 11.4619L10.9497 12.5875L16.8027 12.6438C20.0294 12.6626 22.6932 12.6438 22.7307 12.6063C22.8996 12.4374 22.0366 11.0492 21.3425 10.4114C20.1232 9.24831 19.1664 8.87311 17.2529 8.79807C16.0523 8.76056 15.3207 8.81683 14.7391 9.04195Z" fill="#006EB7"/>
<path d="M68.9734 1.55676C67.7353 2.15707 66.8911 3.77039 67.1537 5.04605C67.5664 7.03457 69.705 8.29146 71.5059 7.59735C72.2188 7.33472 73.063 6.52806 73.3631 5.79643C74.5262 3.09505 71.5997 0.262349 68.9734 1.55676Z" fill="black"/>
<path d="M114.522 6.79078V11.7621L113.734 11.143C111.858 9.661 110.357 9.11697 108.069 9.11697C104.485 9.11697 101.521 10.9179 99.8143 14.1633C98.9514 15.8329 98.5762 17.4275 98.5762 19.6224C98.5762 22.9991 99.4579 25.194 101.672 27.4263C105.048 30.8406 109.813 31.2345 113.528 28.4206L114.522 27.6702V28.7208V29.7525H117.054H119.587V15.7766V1.80073H117.054H114.522V6.79078ZM111.558 14.2383C112.477 14.6323 113.715 15.908 114.203 16.9772C114.522 17.6526 114.616 18.2154 114.616 19.6224C114.616 21.1982 114.559 21.5358 114.09 22.4738C112.458 25.7755 108.331 26.6572 105.611 24.2747C104.317 23.1304 103.773 21.9298 103.679 19.9975C103.585 18.1591 103.979 16.8272 104.973 15.6266C106.455 13.8256 109.194 13.2441 111.558 14.2383Z" fill="black"/>
<path d="M37.1572 2.51344C37.0822 2.64475 32.3547 29.3772 32.3547 29.6773C32.3547 29.7149 33.4991 29.7524 34.8873 29.7524C37.3448 29.7524 37.4198 29.7336 37.5136 29.3209C37.5511 29.0958 38.2265 25.2876 39.0144 20.8603C39.7835 16.4331 40.4401 12.7937 40.4589 12.7562C40.4964 12.7374 41.8283 16.5456 43.4041 21.2355L46.2931 29.7524H48.5818H50.8892L53.4781 22.0985C56.5359 13.0376 56.7047 12.5686 56.7422 12.6811C56.761 12.7374 57.4176 16.5644 58.2242 21.2168L59.6687 29.6586L62.22 29.7149C64.5837 29.7524 64.7713 29.7336 64.6963 29.4335C64.6588 29.2459 63.6458 23.3178 62.4639 16.2455C61.2821 9.1731 60.2503 3.17002 60.194 2.86987L60.0814 2.36336H57.5864C55.4103 2.36336 55.0726 2.40088 54.9788 2.68227C54.9038 2.86987 53.4968 7.01574 51.8272 11.9308C50.1764 16.827 48.7506 20.9541 48.6756 21.1042C48.6006 21.2543 47.2874 17.6524 45.3739 11.912L42.2035 2.45716L39.7273 2.40088C38.3766 2.38212 37.2135 2.41964 37.1572 2.51344Z" fill="black"/>
<path d="M86.3449 9.39821C85.8572 9.56705 84.8442 10.0923 84.0938 10.5988L82.7243 11.518L82.668 10.505L82.6118 9.49201H80.098H77.5654V19.6222V29.7524H80.098H82.6305V24.9124C82.6305 19.1907 82.7994 17.3898 83.4559 16.0954C84.938 13.1876 88.6711 12.8125 89.9843 15.4576C90.4158 16.3205 90.4158 16.4706 90.472 23.0364L90.5283 29.7524H93.0609H95.5934L95.5371 21.8171L95.4809 13.9005L94.9743 12.8312C94.374 11.5368 93.2485 10.4112 91.8602 9.73588C90.9598 9.30441 90.5283 9.21061 89.0088 9.17309C87.8269 9.13557 86.9265 9.21061 86.3449 9.39821Z" fill="black"/>
<path d="M67.8101 19.6222V29.7524H70.3426H72.8752V19.6222V9.49201H70.3426H67.8101V19.6222Z" fill="black"/>
<path d="M7.86086 34.248C7.86086 33.9882 7.77505 33.7914 7.60343 33.6576C7.43181 33.5222 7.19957 33.4545 6.90672 33.4545C6.69259 33.4545 6.49971 33.4891 6.32809 33.5584C6.15648 33.6277 6.01635 33.7229 5.90771 33.8441C5.79907 33.9654 5.73215 34.1032 5.70696 34.2575C5.68649 34.3866 5.69987 34.4976 5.74711 34.5905C5.79434 34.6818 5.86126 34.7581 5.94786 34.8195C6.03603 34.8794 6.1305 34.929 6.23126 34.9683C6.33203 35.0061 6.42492 35.0368 6.50995 35.0604L6.98229 35.1927C7.10038 35.2258 7.23185 35.2714 7.3767 35.3297C7.52155 35.3879 7.65696 35.4674 7.78292 35.5682C7.90888 35.6674 8.00492 35.7949 8.07105 35.9508C8.13875 36.1067 8.15371 36.298 8.11592 36.5247C8.07184 36.7861 7.96398 37.0222 7.79236 37.2332C7.62232 37.4442 7.39717 37.6119 7.11691 37.7363C6.83823 37.8607 6.5131 37.9229 6.14152 37.9229C5.79513 37.9229 5.50385 37.867 5.26768 37.7552C5.03308 37.6434 4.85989 37.4875 4.7481 37.2875C4.63788 37.0876 4.59537 36.8554 4.62057 36.5908H5.22517C5.20942 36.7735 5.24564 36.9246 5.33381 37.0443C5.42198 37.1624 5.54479 37.2505 5.70224 37.3088C5.85968 37.3655 6.03445 37.3938 6.22654 37.3938C6.45012 37.3938 6.65637 37.3576 6.84531 37.2852C7.03582 37.2112 7.19327 37.1088 7.31766 36.9782C7.44362 36.8459 7.52077 36.6916 7.54911 36.5153C7.57745 36.3547 7.5554 36.224 7.48298 36.1232C7.41055 36.0224 7.30585 35.9406 7.16887 35.8776C7.03189 35.8146 6.88153 35.7595 6.71778 35.7123L6.15096 35.5422C5.79198 35.4336 5.51881 35.2785 5.33145 35.077C5.14566 34.8754 5.07874 34.6117 5.1307 34.2858C5.17793 34.015 5.29208 33.7788 5.47315 33.5773C5.65421 33.3742 5.87858 33.2167 6.14624 33.1049C6.4139 32.9916 6.70203 32.9349 7.01063 32.9349C7.32238 32.9349 7.58926 32.9916 7.81126 33.1049C8.03326 33.2167 8.19858 33.3718 8.30722 33.5702C8.41586 33.767 8.45601 33.9929 8.42767 34.248H7.86086ZM10.7489 37.9134C10.4151 37.9134 10.1357 37.8339 9.91053 37.6749C9.68538 37.5158 9.52635 37.2931 9.43346 37.0065C9.34214 36.7199 9.32718 36.3862 9.38859 36.0051C9.44842 35.6336 9.56729 35.31 9.74521 35.0345C9.9247 34.7574 10.1475 34.5432 10.4136 34.3921C10.6812 34.2393 10.9757 34.163 11.2969 34.163C11.6307 34.163 11.9093 34.2433 12.1329 34.4039C12.3581 34.5629 12.5171 34.7865 12.61 35.0746C12.7029 35.3612 12.7186 35.6965 12.6572 36.0807C12.5974 36.4491 12.4769 36.7711 12.2959 37.0467C12.1164 37.3206 11.8936 37.534 11.6275 37.6867C11.363 37.8378 11.0701 37.9134 10.7489 37.9134ZM10.7584 37.4127C11.0135 37.4127 11.2347 37.3474 11.422 37.2167C11.611 37.086 11.7637 36.9136 11.8802 36.6995C11.9983 36.4853 12.0778 36.2539 12.1187 36.0051C12.1565 35.769 12.155 35.5493 12.114 35.3462C12.0731 35.1415 11.9857 34.977 11.8519 34.8526C11.718 34.7266 11.5299 34.6637 11.2874 34.6637C11.0323 34.6637 10.8096 34.7298 10.619 34.8621C10.4301 34.9943 10.2774 35.1683 10.1609 35.384C10.0444 35.5997 9.96642 35.8319 9.92706 36.0807C9.88927 36.3169 9.89006 36.5365 9.92942 36.7396C9.97036 36.9412 10.0577 37.1041 10.1916 37.2285C10.327 37.3513 10.5159 37.4127 10.7584 37.4127ZM15.9055 34.2102L15.8299 34.6826H13.8744L13.95 34.2102H15.9055ZM13.9311 37.8378L14.6207 33.7095C14.6522 33.5017 14.7277 33.3285 14.8474 33.19C14.9686 33.0514 15.1127 32.9475 15.2796 32.8782C15.4481 32.8089 15.6189 32.7743 15.7921 32.7743C15.9291 32.7743 16.0385 32.7853 16.1204 32.8074C16.2038 32.8294 16.2644 32.8499 16.3022 32.8688L16.0661 33.3505C16.0377 33.3411 15.9999 33.3293 15.9527 33.3151C15.907 33.301 15.8441 33.2939 15.7638 33.2939C15.5795 33.2939 15.4394 33.3403 15.3434 33.4332C15.2473 33.5261 15.1828 33.6623 15.1497 33.8418L14.4884 37.8378H13.9311ZM18.7298 34.2102L18.6542 34.6826H16.7743L16.8498 34.2102H18.7298ZM17.5395 33.3411H18.0968L17.5206 36.7987C17.4954 36.9561 17.4993 37.0742 17.5324 37.1529C17.567 37.2301 17.619 37.282 17.6883 37.3088C17.7591 37.334 17.8355 37.3466 17.9173 37.3466C17.9788 37.3466 18.0291 37.3434 18.0685 37.3371C18.1079 37.3293 18.1394 37.323 18.163 37.3182L18.2008 37.8189C18.1582 37.8331 18.1008 37.8473 18.0283 37.8614C17.9575 37.8772 17.8701 37.8851 17.7662 37.8851C17.6087 37.8851 17.4607 37.8512 17.3222 37.7835C17.1836 37.7158 17.0774 37.6127 17.0034 37.4741C16.9294 37.3356 16.9097 37.1608 16.9443 36.9498L17.5395 33.3411ZM20.251 37.8378L19.7503 34.2102H20.336L20.6572 36.9876H20.695L21.9326 34.2102H22.5277L22.83 36.9782H22.8678L24.1148 34.2102H24.7005L22.9906 37.8378H22.4427L22.1121 35.051H22.0554L20.7989 37.8378H20.251ZM26.3564 37.9229C26.1265 37.9229 25.925 37.8796 25.7518 37.793C25.5786 37.7048 25.4503 37.578 25.3668 37.4127C25.2834 37.2458 25.2605 37.0443 25.2983 36.8081C25.3345 36.6003 25.4046 36.4318 25.5085 36.3027C25.6124 36.172 25.7384 36.0697 25.8864 35.9957C26.036 35.9201 26.1966 35.8642 26.3682 35.828C26.5414 35.7902 26.7138 35.7611 26.8854 35.7406C27.109 35.7123 27.2908 35.6902 27.431 35.6745C27.5711 35.6587 27.6766 35.6328 27.7474 35.5966C27.8183 35.5603 27.8616 35.4981 27.8773 35.41V35.3911C27.9151 35.1596 27.8844 34.9794 27.7852 34.8502C27.686 34.7196 27.5089 34.6542 27.2538 34.6542C26.9893 34.6542 26.7681 34.7125 26.5902 34.829C26.4123 34.9455 26.2808 35.0699 26.1958 35.2021L25.7045 35.0132C25.8336 34.7928 25.9879 34.6212 26.1674 34.4983C26.3469 34.374 26.5351 34.2874 26.7319 34.2386C26.9287 34.1882 27.1184 34.163 27.3011 34.163C27.4176 34.163 27.549 34.1772 27.6955 34.2055C27.8419 34.2323 27.9789 34.2882 28.1064 34.3732C28.2355 34.4582 28.3323 34.5865 28.3969 34.7581C28.463 34.9298 28.4725 35.1596 28.4252 35.4478L28.0285 37.8378H27.4711L27.5561 37.3466H27.5278C27.4774 37.4253 27.4002 37.5095 27.2963 37.5993C27.194 37.689 27.0641 37.7654 26.9066 37.8284C26.7508 37.8914 26.5673 37.9229 26.3564 37.9229ZM26.517 37.4222C26.7374 37.4222 26.9303 37.3789 27.0956 37.2923C27.2625 37.2057 27.3963 37.0939 27.4971 36.9569C27.5994 36.8199 27.6632 36.6759 27.6884 36.5247L27.7734 36.0146C27.7451 36.0429 27.6892 36.0689 27.6057 36.0925C27.5223 36.1146 27.4278 36.1342 27.3223 36.1516C27.2184 36.1673 27.1168 36.1815 27.0177 36.1941C26.92 36.2051 26.8413 36.2145 26.7815 36.2224C26.6335 36.2413 26.4926 36.272 26.3587 36.3145C26.2265 36.3555 26.1147 36.4176 26.0234 36.5011C25.9336 36.583 25.8777 36.6948 25.8557 36.8365C25.8226 37.0301 25.8691 37.1765 25.995 37.2757C26.121 37.3734 26.295 37.4222 26.517 37.4222ZM29.5113 37.8378L30.1159 34.2102H30.6544L30.5599 34.7581H30.5977C30.6922 34.5786 30.8363 34.433 31.0299 34.3212C31.2236 34.2094 31.429 34.1535 31.6463 34.1535C31.6888 34.1535 31.74 34.1543 31.7998 34.1559C31.8597 34.1559 31.9061 34.1583 31.9392 34.163L31.8447 34.7298C31.8258 34.7251 31.7833 34.718 31.7172 34.7085C31.6511 34.6975 31.5802 34.692 31.5046 34.692C31.3283 34.692 31.1653 34.729 31.0157 34.803C30.8662 34.8754 30.741 34.9762 30.6402 35.1053C30.5395 35.2328 30.4749 35.3785 30.4466 35.5422L30.0687 37.8378H29.5113ZM33.8655 37.9134C33.5175 37.9134 33.2301 37.8363 33.0034 37.682C32.7767 37.5261 32.6185 37.3088 32.5287 37.0301C32.439 36.7499 32.4248 36.4239 32.4862 36.0524C32.5476 35.6808 32.6696 35.3533 32.8523 35.0699C33.0349 34.7849 33.2624 34.5629 33.5348 34.4039C33.8072 34.2433 34.1063 34.163 34.4323 34.163C34.6212 34.163 34.8031 34.1945 34.9778 34.2575C35.1526 34.3204 35.3037 34.4228 35.4313 34.5645C35.5588 34.7046 35.6478 34.8904 35.6982 35.1218C35.7485 35.3533 35.7454 35.6383 35.6887 35.9768L35.6509 36.213H32.8546L32.9302 35.7312H35.1597C35.1959 35.5265 35.1864 35.3438 35.1313 35.1832C35.0778 35.0227 34.9841 34.8959 34.8503 34.803C34.718 34.7101 34.5504 34.6637 34.3472 34.6637C34.1378 34.6637 33.9426 34.7203 33.7615 34.8337C33.5805 34.9455 33.4293 35.0872 33.3081 35.2588C33.1869 35.4289 33.1113 35.6021 33.0814 35.7784L33.0152 36.1941C32.968 36.4948 32.9751 36.7341 33.0365 36.912C33.0995 37.0899 33.2089 37.2183 33.3648 37.297C33.5206 37.3741 33.7159 37.4127 33.9505 37.4127C34.1001 37.4127 34.2378 37.3923 34.3638 37.3513C34.4897 37.3088 34.6023 37.2458 34.7015 37.1624C34.8007 37.0774 34.8841 36.9719 34.9518 36.8459L35.462 36.9971C35.3754 37.1797 35.2534 37.3403 35.0959 37.4788C34.94 37.6158 34.7574 37.7229 34.548 37.8C34.3402 37.8756 34.1126 37.9134 33.8655 37.9134ZM41.2594 34.2102L41.1838 34.6826H39.2283L39.3039 34.2102H41.2594ZM39.285 37.8378L39.9746 33.7095C40.0061 33.5017 40.0817 33.3285 40.2014 33.19C40.3226 33.0514 40.4667 32.9475 40.6335 32.8782C40.802 32.8089 40.9728 32.7743 41.146 32.7743C41.283 32.7743 41.3924 32.7853 41.4743 32.8074C41.5578 32.8294 41.6184 32.8499 41.6562 32.8688L41.42 33.3505C41.3917 33.3411 41.3539 33.3293 41.3066 33.3151C41.261 33.301 41.198 33.2939 41.1177 33.2939C40.9335 33.2939 40.7934 33.3403 40.6973 33.4332C40.6013 33.5261 40.5367 33.6623 40.5037 33.8418L39.8424 37.8378H39.285ZM43.2494 37.9134C42.9157 37.9134 42.6362 37.8339 42.411 37.6749C42.1859 37.5158 42.0269 37.2931 41.934 37.0065C41.8426 36.7199 41.8277 36.3862 41.8891 36.0051C41.9489 35.6336 42.0678 35.31 42.2457 35.0345C42.4252 34.7574 42.648 34.5432 42.9141 34.3921C43.1817 34.2393 43.4762 34.163 43.7974 34.163C44.1312 34.163 44.4098 34.2433 44.6334 34.4039C44.8586 34.5629 45.0176 34.7865 45.1105 35.0746C45.2034 35.3612 45.2191 35.6965 45.1577 36.0807C45.0979 36.4491 44.9774 36.7711 44.7964 37.0467C44.6169 37.3206 44.3941 37.534 44.128 37.6867C43.8635 37.8378 43.5706 37.9134 43.2494 37.9134ZM43.2589 37.4127C43.514 37.4127 43.7352 37.3474 43.9225 37.2167C44.1115 37.086 44.2642 36.9136 44.3807 36.6995C44.4988 36.4853 44.5783 36.2539 44.6192 36.0051C44.657 35.769 44.6555 35.5493 44.6145 35.3462C44.5736 35.1415 44.4862 34.977 44.3524 34.8526C44.2185 34.7266 44.0304 34.6637 43.7879 34.6637C43.5329 34.6637 43.3101 34.7298 43.1195 34.8621C42.9306 34.9943 42.7779 35.1683 42.6614 35.384C42.5449 35.5997 42.4669 35.8319 42.4276 36.0807C42.3898 36.3169 42.3906 36.5365 42.4299 36.7396C42.4709 36.9412 42.5582 37.1041 42.6921 37.2285C42.8275 37.3513 43.0164 37.4127 43.2589 37.4127ZM46.1859 37.8378L46.7905 34.2102H47.329L47.2346 34.7581H47.2723C47.3668 34.5786 47.5109 34.433 47.7045 34.3212C47.8982 34.2094 48.1037 34.1535 48.3209 34.1535C48.3635 34.1535 48.4146 34.1543 48.4745 34.1559C48.5343 34.1559 48.5807 34.1583 48.6138 34.163L48.5193 34.7298C48.5004 34.7251 48.4579 34.718 48.3918 34.7085C48.3257 34.6975 48.2548 34.692 48.1792 34.692C48.0029 34.692 47.8399 34.729 47.6904 34.803C47.5408 34.8754 47.4156 34.9762 47.3149 35.1053C47.2141 35.2328 47.1495 35.3785 47.1212 35.5422L46.7433 37.8378H46.1859ZM53.6572 34.2102L53.5817 34.6826H51.7017L51.7773 34.2102H53.6572ZM52.4669 33.3411H53.0243L52.448 36.7987C52.4228 36.9561 52.4268 37.0742 52.4598 37.1529C52.4945 37.2301 52.5464 37.282 52.6157 37.3088C52.6866 37.334 52.7629 37.3466 52.8448 37.3466C52.9062 37.3466 52.9566 37.3434 52.996 37.3371C53.0353 37.3293 53.0668 37.323 53.0904 37.3182L53.1282 37.8189C53.0857 37.8331 53.0282 37.8473 52.9558 37.8614C52.885 37.8772 52.7976 37.8851 52.6937 37.8851C52.5362 37.8851 52.3882 37.8512 52.2497 37.7835C52.1111 37.7158 52.0048 37.6127 51.9308 37.4741C51.8568 37.3356 51.8371 37.1608 51.8718 36.9498L52.4669 33.3411ZM55.3509 35.6556L54.9919 37.8378H54.4345L55.2375 33.001H55.7949L55.502 34.777H55.5493C55.6626 34.5881 55.8138 34.4385 56.0027 34.3283C56.1932 34.2181 56.4326 34.163 56.7207 34.163C56.9663 34.163 57.1734 34.2126 57.3418 34.3118C57.5119 34.4094 57.6315 34.5598 57.7008 34.7629C57.7717 34.9644 57.7819 35.221 57.7315 35.5328L57.3442 37.8378H56.7868L57.1647 35.5706C57.2119 35.2824 57.1734 35.0597 57.049 34.9022C56.9262 34.7432 56.7349 34.6637 56.4751 34.6637C56.2924 34.6637 56.1224 34.7022 55.9649 34.7794C55.8091 34.8565 55.6768 34.9691 55.5682 35.1171C55.4611 35.2651 55.3887 35.4446 55.3509 35.6556ZM60.3409 37.9134C59.9929 37.9134 59.7056 37.8363 59.4789 37.682C59.2522 37.5261 59.0939 37.3088 59.0042 37.0301C58.9144 36.7499 58.9003 36.4239 58.9617 36.0524C59.0231 35.6808 59.1451 35.3533 59.3277 35.0699C59.5104 34.7849 59.7379 34.5629 60.0103 34.4039C60.2827 34.2433 60.5818 34.163 60.9077 34.163C61.0967 34.163 61.2785 34.1945 61.4533 34.2575C61.628 34.3204 61.7792 34.4228 61.9067 34.5645C62.0343 34.7046 62.1232 34.8904 62.1736 35.1218C62.224 35.3533 62.2208 35.6383 62.1642 35.9768L62.1264 36.213H59.3301L59.4057 35.7312H61.6351C61.6713 35.5265 61.6619 35.3438 61.6068 35.1832C61.5533 35.0227 61.4596 34.8959 61.3257 34.803C61.1935 34.7101 61.0258 34.6637 60.8227 34.6637C60.6133 34.6637 60.4181 34.7203 60.237 34.8337C60.0559 34.9455 59.9048 35.0872 59.7835 35.2588C59.6623 35.4289 59.5867 35.6021 59.5568 35.7784L59.4907 36.1941C59.4435 36.4948 59.4505 36.7341 59.5119 36.912C59.5749 37.0899 59.6843 37.2183 59.8402 37.297C59.9961 37.3741 60.1913 37.4127 60.4259 37.4127C60.5755 37.4127 60.7133 37.3923 60.8392 37.3513C60.9652 37.3088 61.0778 37.2458 61.177 37.1624C61.2762 37.0774 61.3596 36.9719 61.4273 36.8459L61.9374 36.9971C61.8508 37.1797 61.7288 37.3403 61.5714 37.4788C61.4155 37.6158 61.2329 37.7229 61.0234 37.8C60.8156 37.8756 60.5881 37.9134 60.3409 37.9134ZM66.0439 33.5206L66.1289 33.001H69.7565L69.6715 33.5206H68.1505L67.4326 37.8378H66.8469L67.5648 33.5206H66.0439ZM69.8707 37.8378L70.4753 34.2102H71.0138L70.9193 34.7581H70.9571C71.0516 34.5786 71.1957 34.433 71.3893 34.3212C71.583 34.2094 71.7885 34.1535 72.0057 34.1535C72.0482 34.1535 72.0994 34.1543 72.1592 34.1559C72.2191 34.1559 72.2655 34.1583 72.2986 34.163L72.2041 34.7298C72.1852 34.7251 72.1427 34.718 72.0766 34.7085C72.0105 34.6975 71.9396 34.692 71.864 34.692C71.6877 34.692 71.5247 34.729 71.3752 34.803C71.2256 34.8754 71.1004 34.9762 70.9996 35.1053C70.8989 35.2328 70.8343 35.3785 70.806 35.5422L70.4281 37.8378H69.8707ZM73.8818 37.9229C73.6519 37.9229 73.4504 37.8796 73.2772 37.793C73.104 37.7048 72.9757 37.578 72.8923 37.4127C72.8088 37.2458 72.786 37.0443 72.8238 36.8081C72.86 36.6003 72.93 36.4318 73.034 36.3027C73.1379 36.172 73.2638 36.0697 73.4118 35.9957C73.5614 35.9201 73.722 35.8642 73.8936 35.828C74.0668 35.7902 74.2392 35.7611 74.4108 35.7406C74.6344 35.7123 74.8163 35.6902 74.9564 35.6745C75.0965 35.6587 75.202 35.6328 75.2729 35.5966C75.3437 35.5603 75.387 35.4981 75.4028 35.41V35.3911C75.4406 35.1596 75.4099 34.9794 75.3107 34.8502C75.2115 34.7196 75.0343 34.6542 74.7793 34.6542C74.5148 34.6542 74.2935 34.7125 74.1156 34.829C73.9377 34.9455 73.8062 35.0699 73.7212 35.2021L73.23 35.0132C73.3591 34.7928 73.5134 34.6212 73.6929 34.4983C73.8724 34.374 74.0605 34.2874 74.2573 34.2386C74.4541 34.1882 74.6439 34.163 74.8265 34.163C74.943 34.163 75.0745 34.1772 75.2209 34.2055C75.3673 34.2323 75.5043 34.2882 75.6319 34.3732C75.761 34.4582 75.8578 34.5865 75.9224 34.7581C75.9885 34.9298 75.9979 35.1596 75.9507 35.4478L75.5539 37.8378H74.9966L75.0816 37.3466H75.0532C75.0029 37.4253 74.9257 37.5095 74.8218 37.5993C74.7194 37.689 74.5896 37.7654 74.4321 37.8284C74.2762 37.8914 74.0928 37.9229 73.8818 37.9229ZM74.0424 37.4222C74.2628 37.4222 74.4557 37.3789 74.621 37.2923C74.7879 37.2057 74.9218 37.0939 75.0225 36.9569C75.1249 36.8199 75.1886 36.6759 75.2138 36.5247L75.2989 36.0146C75.2705 36.0429 75.2146 36.0689 75.1312 36.0925C75.0477 36.1146 74.9533 36.1342 74.8478 36.1516C74.7439 36.1673 74.6423 36.1815 74.5431 36.1941C74.4455 36.2051 74.3668 36.2145 74.3069 36.2224C74.1589 36.2413 74.018 36.272 73.8842 36.3145C73.7519 36.3555 73.6401 36.4176 73.5488 36.5011C73.4591 36.583 73.4032 36.6948 73.3811 36.8365C73.3481 37.0301 73.3945 37.1765 73.5205 37.2757C73.6464 37.3734 73.8204 37.4222 74.0424 37.4222ZM80.4778 34.2102L78.5318 37.8378H77.9649L77.2281 34.2102H77.8091L78.3287 37.101H78.3664L79.8496 34.2102H80.4778ZM82.456 37.9134C82.1081 37.9134 81.8207 37.8363 81.594 37.682C81.3673 37.5261 81.2091 37.3088 81.1193 37.0301C81.0296 36.7499 81.0154 36.4239 81.0768 36.0524C81.1382 35.6808 81.2602 35.3533 81.4429 35.0699C81.6255 34.7849 81.853 34.5629 82.1254 34.4039C82.3978 34.2433 82.6969 34.163 83.0229 34.163C83.2118 34.163 83.3937 34.1945 83.5684 34.2575C83.7432 34.3204 83.8943 34.4228 84.0219 34.5645C84.1494 34.7046 84.2384 34.8904 84.2887 35.1218C84.3391 35.3533 84.336 35.6383 84.2793 35.9768L84.2415 36.213H81.4452L81.5208 35.7312H83.7503C83.7865 35.5265 83.777 35.3438 83.7219 35.1832C83.6684 35.0227 83.5747 34.8959 83.4409 34.803C83.3086 34.7101 83.1409 34.6637 82.9378 34.6637C82.7284 34.6637 82.5332 34.7203 82.3521 34.8337C82.1711 34.9455 82.0199 35.0872 81.8987 35.2588C81.7774 35.4289 81.7019 35.6021 81.672 35.7784L81.6058 36.1941C81.5586 36.4948 81.5657 36.7341 81.6271 36.912C81.6901 37.0899 81.7995 37.2183 81.9554 37.297C82.1112 37.3741 82.3065 37.4127 82.5411 37.4127C82.6906 37.4127 82.8284 37.3923 82.9544 37.3513C83.0803 37.3088 83.1929 37.2458 83.2921 37.1624C83.3913 37.0774 83.4747 36.9719 83.5424 36.8459L84.0526 36.9971C83.966 37.1797 83.844 37.3403 83.6865 37.4788C83.5306 37.6158 83.348 37.7229 83.1386 37.8C82.9308 37.8756 82.7032 37.9134 82.456 37.9134ZM86.6543 33.001L85.8513 37.8378H85.2939L86.0969 33.001H86.6543ZM91.138 33.001L90.335 37.8378H89.7493L90.5523 33.001H91.138ZM92.8157 35.6556L92.4567 37.8378H91.8994L92.504 34.2102H93.0424L92.948 34.777H92.9952C93.1086 34.5928 93.2621 34.4448 93.4557 34.333C93.6494 34.2197 93.8832 34.163 94.1572 34.163C94.3996 34.163 94.6043 34.2134 94.7712 34.3141C94.9397 34.4133 95.0586 34.5645 95.1278 34.7676C95.1987 34.9691 95.2089 35.2242 95.1586 35.5328L94.7712 37.8378H94.2139L94.5917 35.5706C94.639 35.2872 94.602 35.0652 94.4807 34.9046C94.3611 34.744 94.1713 34.6637 93.9116 34.6637C93.7321 34.6637 93.566 34.7022 93.4132 34.7794C93.2621 34.8565 93.1338 34.9691 93.0283 35.1171C92.9244 35.2651 92.8535 35.4446 92.8157 35.6556ZM97.6203 37.9134C97.3165 37.9134 97.0614 37.837 96.8551 37.6843C96.6489 37.53 96.5032 37.3127 96.4182 37.0325C96.3348 36.7506 96.3245 36.4176 96.3875 36.0335C96.4521 35.6524 96.5725 35.3218 96.7489 35.0415C96.9268 34.7613 97.1448 34.5448 97.4031 34.3921C97.6613 34.2393 97.9431 34.163 98.2486 34.163C98.4847 34.163 98.665 34.2023 98.7894 34.2811C98.9154 34.3582 99.0067 34.4464 99.0634 34.5456C99.12 34.6432 99.1633 34.7235 99.1933 34.7865H99.2405L99.5381 33.001H100.095L99.2924 37.8378H98.754L98.8484 37.2805H98.7823C98.7304 37.3466 98.6579 37.43 98.565 37.5308C98.4721 37.63 98.3493 37.719 98.1966 37.7977C98.0455 37.8748 97.8534 37.9134 97.6203 37.9134ZM97.7573 37.4127C97.9809 37.4127 98.1809 37.3545 98.3572 37.238C98.5351 37.1199 98.6831 36.9569 98.8012 36.7491C98.9193 36.5397 99.0012 36.298 99.0468 36.024C99.0925 35.7532 99.0909 35.5163 99.0421 35.3131C98.9933 35.1085 98.8996 34.9494 98.7611 34.8361C98.6225 34.7211 98.4391 34.6637 98.2108 34.6637C97.9762 34.6637 97.7723 34.7243 97.5991 34.8455C97.4259 34.9652 97.285 35.1281 97.1763 35.3344C97.0677 35.5391 96.9921 35.769 96.9496 36.024C96.9071 36.2822 96.9063 36.5168 96.9472 36.7278C96.9882 36.9372 97.0748 37.1041 97.207 37.2285C97.3409 37.3513 97.5243 37.4127 97.7573 37.4127ZM103.383 36.3547L103.742 34.2102H104.3L103.695 37.8378H103.138L103.242 37.2238H103.204C103.09 37.408 102.932 37.5647 102.729 37.6938C102.526 37.8213 102.287 37.8851 102.013 37.8851C101.787 37.8851 101.593 37.8355 101.432 37.7363C101.273 37.6355 101.16 37.4844 101.092 37.2828C101.026 37.0797 101.018 36.8239 101.069 36.5153L101.456 34.2102H102.013L101.636 36.4775C101.593 36.742 101.633 36.953 101.756 37.1104C101.879 37.2679 102.056 37.3466 102.287 37.3466C102.426 37.3466 102.572 37.3112 102.727 37.2403C102.883 37.1695 103.021 37.0608 103.142 36.9144C103.265 36.768 103.345 36.5814 103.383 36.3547ZM108.223 35.0227L107.694 35.1644C107.675 35.0793 107.642 34.9975 107.595 34.9187C107.549 34.8384 107.479 34.7731 107.383 34.7227C107.288 34.6708 107.159 34.6448 106.995 34.6448C106.773 34.6448 106.58 34.6959 106.417 34.7983C106.253 34.8991 106.159 35.0274 106.136 35.1832C106.112 35.3202 106.143 35.4297 106.23 35.5115C106.317 35.5934 106.461 35.6603 106.665 35.7123L107.184 35.8445C107.496 35.9248 107.718 36.0453 107.85 36.2059C107.984 36.3649 108.03 36.5719 107.987 36.827C107.952 37.0348 107.862 37.2206 107.716 37.3844C107.569 37.5481 107.382 37.6772 107.153 37.7717C106.925 37.8662 106.671 37.9134 106.391 37.9134C106.017 37.9134 105.723 37.8331 105.507 37.6725C105.292 37.5103 105.177 37.2757 105.162 36.9687L105.72 36.8365C105.734 37.0301 105.803 37.1765 105.928 37.2757C106.054 37.3734 106.23 37.4222 106.457 37.4222C106.717 37.4222 106.933 37.3671 107.106 37.2568C107.279 37.1451 107.378 37.0112 107.401 36.8554C107.425 36.7278 107.4 36.6215 107.326 36.5365C107.253 36.4515 107.127 36.3877 106.948 36.3452L106.372 36.2035C106.051 36.1232 105.825 36.0004 105.696 35.8351C105.569 35.6698 105.526 35.4619 105.569 35.2116C105.603 35.0069 105.692 34.8258 105.833 34.6684C105.977 34.5109 106.156 34.3873 106.372 34.2976C106.589 34.2079 106.825 34.163 107.08 34.163C107.439 34.163 107.708 34.2417 107.886 34.3992C108.063 34.555 108.176 34.7629 108.223 35.0227ZM111.304 34.2102L111.228 34.6826H109.348L109.424 34.2102H111.304ZM110.114 33.3411H110.671L110.095 36.7987C110.069 36.9561 110.073 37.0742 110.106 37.1529C110.141 37.2301 110.193 37.282 110.262 37.3088C110.333 37.334 110.41 37.3466 110.491 37.3466C110.553 37.3466 110.603 37.3434 110.643 37.3371C110.682 37.3293 110.713 37.323 110.737 37.3182L110.775 37.8189C110.732 37.8331 110.675 37.8473 110.602 37.8614C110.532 37.8772 110.444 37.8851 110.34 37.8851C110.183 37.8851 110.035 37.8512 109.896 37.7835C109.758 37.7158 109.651 37.6127 109.577 37.4741C109.503 37.3356 109.484 37.1608 109.518 36.9498L110.114 33.3411ZM112.003 37.8378L112.608 34.2102H113.146L113.052 34.7581H113.09C113.184 34.5786 113.328 34.433 113.522 34.3212C113.715 34.2094 113.921 34.1535 114.138 34.1535C114.181 34.1535 114.232 34.1543 114.292 34.1559C114.352 34.1559 114.398 34.1583 114.431 34.163L114.337 34.7298C114.318 34.7251 114.275 34.718 114.209 34.7085C114.143 34.6975 114.072 34.692 113.997 34.692C113.82 34.692 113.657 34.729 113.508 34.803C113.358 34.8754 113.233 34.9762 113.132 35.1053C113.031 35.2328 112.967 35.3785 112.938 35.5422L112.561 37.8378H112.003ZM115.204 39.1982C115.109 39.1982 115.026 39.1903 114.953 39.1746C114.882 39.1604 114.834 39.1462 114.807 39.1321L115.034 38.6408C115.163 38.6755 115.278 38.6857 115.378 38.6715C115.481 38.6589 115.578 38.6093 115.669 38.5227C115.762 38.4377 115.859 38.3039 115.959 38.1212L116.115 37.8378L115.388 34.2102H115.969L116.488 37.1104H116.526L118.009 34.2102H118.638L116.413 38.3621C116.309 38.5558 116.195 38.714 116.07 38.8368C115.946 38.9596 115.811 39.0502 115.667 39.1084C115.522 39.1683 115.367 39.1982 115.204 39.1982Z" fill="black"/>
</svg>
