<svg width="226" height="40" viewBox="0 0 226 40" fill="none" xmlns="http://www.w3.org/2000/svg">
<path fill-rule="evenodd" clip-rule="evenodd" d="M0 18.3334L10 1.66669H11.6667H14.1667H36.6667V5.00002H12.1667L6.16667 15H8.66667L13.6667 6.66669H15H17.5H33.3333H36.6667V10V11.6667V15L33.3333 15L19.5833 15L17.5 18.3334H13.3333L17.3333 11.6667H18.3333H21.6667H33.3333V10H15.5952L10.8333 18.3334H10H6.66667H4.16667H3.33333H0ZM0 21.6667L10 38.3334H11.6667H14.1667H33.3333H36.6667V35V33.3334V30H33.3333H15.5952L12.7381 25H15.3333L17.3333 28.3334H18.3333H21.6667H36.6667V25H19.5833L17.5 21.6667H16.6667H13.3333H10.8333H10H6.66667L13.6667 33.3334H15H17.5H33.3333V35H12.1667L4.16667 21.6667H0Z" fill="white"/>
<path d="M53.1081 20.3364C53.1081 18.5385 53.5096 16.9327 54.3125 15.5189C55.1328 14.0876 56.2412 12.9793 57.6376 12.1938C59.0514 11.3909 60.631 10.9895 62.3765 10.9895C64.4187 10.9895 66.2078 11.5131 67.7438 12.5604C69.2798 13.6076 70.3532 15.0564 70.9641 16.9065H66.7489C66.3299 16.0338 65.7365 15.3793 64.9685 14.9429C64.2179 14.5065 63.3452 14.2884 62.3503 14.2884C61.2856 14.2884 60.3343 14.5415 59.4965 15.0476C58.6761 15.5364 58.0303 16.2345 57.559 17.1422C57.1052 18.0498 56.8783 19.1145 56.8783 20.3364C56.8783 21.5407 57.1052 22.6055 57.559 23.5305C58.0303 24.4382 58.6761 25.1451 59.4965 25.6513C60.3343 26.14 61.2856 26.3844 62.3503 26.3844C63.3452 26.3844 64.2179 26.1662 64.9685 25.7298C65.7365 25.276 66.3299 24.6127 66.7489 23.74H70.9641C70.3532 25.6076 69.2798 27.0651 67.7438 28.1124C66.2252 29.1422 64.4361 29.6571 62.3765 29.6571C60.631 29.6571 59.0514 29.2644 57.6376 28.4789C56.2412 27.676 55.1328 26.5676 54.3125 25.1538C53.5096 23.74 53.1081 22.1342 53.1081 20.3364ZM81.7182 14.7858C82.8178 14.7858 83.7953 15.0302 84.6505 15.5189C85.5058 15.9902 86.1691 16.6971 86.6404 17.6396C87.1291 18.5647 87.3734 19.6818 87.3734 20.9909V29.5H83.708V21.4884C83.708 20.3364 83.42 19.4549 82.844 18.844C82.268 18.2156 81.4825 17.9015 80.4876 17.9015C79.4753 17.9015 78.6724 18.2156 78.0789 18.844C77.5029 19.4549 77.2149 20.3364 77.2149 21.4884V29.5H73.5494V10.1255H77.2149V16.8018C77.6862 16.1735 78.3145 15.6847 79.1 15.3356C79.8854 14.9691 80.7582 14.7858 81.7182 14.7858ZM89.3711 22.1953C89.3711 20.7291 89.6591 19.4287 90.2351 18.2942C90.8286 17.1596 91.6227 16.2869 92.6176 15.676C93.63 15.0651 94.7558 14.7596 95.9951 14.7596C97.0773 14.7596 98.0198 14.9778 98.8227 15.4142C99.6431 15.8505 100.298 16.4004 100.786 17.0636V14.9953H104.478V29.5H100.786V27.3793C100.315 28.06 99.6606 28.6273 98.8227 29.0811C98.0024 29.5175 97.0511 29.7356 95.9689 29.7356C94.7471 29.7356 93.63 29.4215 92.6176 28.7931C91.6227 28.1647 90.8286 27.2833 90.2351 26.1487C89.6591 24.9967 89.3711 23.6789 89.3711 22.1953ZM100.786 22.2476C100.786 21.3575 100.612 20.5982 100.263 19.9698C99.9136 19.324 99.4424 18.8353 98.8489 18.5036C98.2555 18.1545 97.6184 17.98 96.9376 17.98C96.2569 17.98 95.6286 18.1458 95.0526 18.4775C94.4766 18.8091 94.0053 19.2978 93.6387 19.9436C93.2896 20.572 93.1151 21.3225 93.1151 22.1953C93.1151 23.068 93.2896 23.836 93.6387 24.4993C94.0053 25.1451 94.4766 25.6425 95.0526 25.9916C95.646 26.3407 96.2744 26.5153 96.9376 26.5153C97.6184 26.5153 98.2555 26.3495 98.8489 26.0178C99.4424 25.6687 99.9136 25.18 100.263 24.5516C100.612 23.9058 100.786 23.1378 100.786 22.2476ZM109.371 13.2673C108.726 13.2673 108.185 13.0665 107.748 12.6651C107.329 12.2462 107.12 11.7313 107.12 11.1204C107.12 10.5095 107.329 10.0033 107.748 9.60182C108.185 9.18291 108.726 8.97345 109.371 8.97345C110.017 8.97345 110.55 9.18291 110.969 9.60182C111.405 10.0033 111.623 10.5095 111.623 11.1204C111.623 11.7313 111.405 12.2462 110.969 12.6651C110.55 13.0665 110.017 13.2673 109.371 13.2673ZM111.178 14.9953V29.5H107.513V14.9953H111.178ZM122.292 14.7858C124.02 14.7858 125.416 15.3356 126.481 16.4353C127.546 17.5175 128.078 19.036 128.078 20.9909V29.5H124.413V21.4884C124.413 20.3364 124.125 19.4549 123.549 18.844C122.973 18.2156 122.187 17.9015 121.192 17.9015C120.18 17.9015 119.377 18.2156 118.783 18.844C118.207 19.4549 117.919 20.3364 117.919 21.4884V29.5H114.254V14.9953H117.919V16.8018C118.408 16.1735 119.028 15.6847 119.778 15.3356C120.546 14.9691 121.384 14.7858 122.292 14.7858ZM130.442 25.7822V22.9022L139.004 10.6491H143.271V22.588H145.575V25.7822H143.271V29.5H139.606V25.7822H130.442ZM139.841 14.5764L134.474 22.588H139.841V14.5764ZM160.219 11.2251V14.1836H155.349V29.5H151.683V14.1836H146.814V11.2251H160.219ZM166.013 17.2469C166.484 16.4789 167.095 15.8767 167.846 15.4404C168.614 15.004 169.487 14.7858 170.464 14.7858V18.6345H169.495C168.343 18.6345 167.471 18.9051 166.877 19.4462C166.301 19.9873 166.013 20.9298 166.013 22.2738V29.5H162.348V14.9953H166.013V17.2469ZM171.445 22.1953C171.445 20.7291 171.733 19.4287 172.309 18.2942C172.902 17.1596 173.697 16.2869 174.692 15.676C175.704 15.0651 176.83 14.7596 178.069 14.7596C179.151 14.7596 180.094 14.9778 180.897 15.4142C181.717 15.8505 182.372 16.4004 182.86 17.0636V14.9953H186.552V29.5H182.86V27.3793C182.389 28.06 181.734 28.6273 180.897 29.0811C180.076 29.5175 179.125 29.7356 178.043 29.7356C176.821 29.7356 175.704 29.4215 174.692 28.7931C173.697 28.1647 172.902 27.2833 172.309 26.1487C171.733 24.9967 171.445 23.6789 171.445 22.1953ZM182.86 22.2476C182.86 21.3575 182.686 20.5982 182.337 19.9698C181.988 19.324 181.516 18.8353 180.923 18.5036C180.329 18.1545 179.692 17.98 179.012 17.98C178.331 17.98 177.702 18.1458 177.126 18.4775C176.55 18.8091 176.079 19.2978 175.713 19.9436C175.364 20.572 175.189 21.3225 175.189 22.1953C175.189 23.068 175.364 23.836 175.713 24.4993C176.079 25.1451 176.55 25.6425 177.126 25.9916C177.72 26.3407 178.348 26.5153 179.012 26.5153C179.692 26.5153 180.329 26.3495 180.923 26.0178C181.516 25.6687 181.988 25.18 182.337 24.5516C182.686 23.9058 182.86 23.1378 182.86 22.2476ZM195.634 26.1225L199.3 14.9953H203.201L197.834 29.5H193.383L188.042 14.9953H191.969L195.634 26.1225ZM218.198 21.9335C218.198 22.4571 218.163 22.9284 218.093 23.3473H207.49C207.577 24.3945 207.943 25.2149 208.589 25.8084C209.235 26.4018 210.029 26.6985 210.972 26.6985C212.333 26.6985 213.302 26.1138 213.878 24.9444H217.831C217.412 26.3407 216.61 27.4927 215.423 28.4004C214.236 29.2905 212.778 29.7356 211.05 29.7356C209.654 29.7356 208.397 29.4302 207.28 28.8193C206.18 28.1909 205.316 27.3095 204.688 26.1749C204.077 25.0404 203.772 23.7313 203.772 22.2476C203.772 20.7465 204.077 19.4287 204.688 18.2942C205.299 17.1596 206.154 16.2869 207.254 15.676C208.354 15.0651 209.619 14.7596 211.05 14.7596C212.429 14.7596 213.66 15.0564 214.742 15.6498C215.842 16.2433 216.688 17.0898 217.282 18.1895C217.892 19.2716 218.198 20.5196 218.198 21.9335ZM214.402 20.8862C214.384 19.9436 214.044 19.1931 213.38 18.6345C212.717 18.0585 211.906 17.7705 210.946 17.7705C210.038 17.7705 209.27 18.0498 208.642 18.6084C208.031 19.1495 207.655 19.9087 207.516 20.8862H214.402ZM223.993 10.1255V29.5H220.328V10.1255H223.993Z" fill="white"/>
</svg>
