<svg width="161" height="88" viewBox="0 0 161 88" fill="none" xmlns="http://www.w3.org/2000/svg">
<path d="M29.1101 70.7781L36.4758 66.7605L25.7621 55.7121L28.7753 54.7018L36.4934 57.0571L23.4185 29.1041H0L20.6579 68.505L29.1101 70.7781Z" fill="#241E4F"/>
<path d="M48.5345 60.7342C48.5345 60.7342 58.1262 55.859 59.9236 55.0426C60.464 54.7959 61.0455 54.6784 61.627 54.6432L74.9662 29.1042H51.5477L38.3201 57.6153L48.5345 60.7342Z" fill="#241E4F"/>
<path d="M36.4758 73.7915C34.1322 74.7959 24.7577 75.4655 24.7577 75.4655L23.9883 74.8488L30.884 88H44.1997L57.3686 62.79C49.8561 66.837 38.1028 73.0984 36.4758 73.7974V73.7915Z" fill="#241E4F"/>
<path d="M102.449 11.4714C102.449 17.768 97.2746 22.9427 90.978 22.9427C84.6813 22.9427 79.5066 17.768 79.5066 11.4714C79.5066 5.17474 84.6813 0 90.978 0C97.2746 0 102.449 5.17474 102.449 11.4714Z" fill="#B91312"/>
<path d="M101.022 87.9999H80.1292V29.1041H101.022V87.9999Z" fill="#241E4F"/>
<path d="M111.765 41.9265C111.959 41.7033 112.158 41.4978 112.382 41.3157C113.586 40.323 115.553 39.4831 118.291 38.7782C117.198 38.7019 115.97 38.649 114.614 38.6255C113.797 38.6138 112.846 38.6666 111.759 38.7782V41.9265H111.765Z" fill="#241E4F"/>
<path d="M114.567 32.9985C116.094 32.9985 118.12 33.6152 120.64 34.8546C120.376 33.8501 119.976 32.6872 119.442 31.3538C119.236 30.8076 118.819 30.0499 118.191 29.0807H111.765V33.7268C112.734 33.2452 113.668 32.9985 114.567 32.9985Z" fill="#241E4F"/>
<path d="M127.16 29.0808C126.702 29.5742 126.179 30.2262 125.574 31.0427C125.398 31.4832 125.292 32.1469 125.263 33.0338C127.783 30.6256 130.285 29.5272 132.775 29.7269C135.859 29.9971 138.719 33.075 141.363 38.9663C137.785 35.7769 134.943 34.2673 132.816 34.4435C131.401 34.561 129.715 35.5889 127.771 37.5272C136.505 37.3217 140.91 40.4582 140.998 46.9369C141.016 47.6594 140.916 48.4582 140.722 49.3099H160.893V29.0691H127.16V29.0808Z" fill="#241E4F"/>
<path d="M130.502 74.0324C128.47 73.9737 126.761 73.4921 125.38 72.5816L123.747 68.2233L127.559 71.1308C127.442 69.6272 127.336 68.4172 127.248 67.495L127.201 66.9546C126.343 57.727 124.769 49.5625 122.473 42.4436C120.458 42.8548 118.59 43.8415 116.869 45.4098C114.414 47.7065 112.711 50.9957 111.753 55.2777V87.8415H132.646V74.0148C131.982 74.0559 131.272 74.0677 130.496 74.0383L130.502 74.0324Z" fill="#241E4F"/>
<path d="M125.392 48.5753L128.276 47.9997C128.804 49.6855 129.292 51.3712 129.732 53.0511L126.896 53.4505L126.854 54.2024L129.915 53.9322C130.355 55.6179 130.772 57.2978 131.154 58.9836L128.229 59.383L128.188 60.1348L131.242 59.9116C131.506 61.2097 131.865 63.0129 132.305 65.3154L128.934 65.4916L128.893 66.2435L132.434 66.2024L132.611 67.3125L132.652 67.8529V49.3213H135.947C135.036 46.4197 133.656 44.3463 131.8 43.1245C130.696 42.3903 128.793 41.9204 126.108 41.7148C126.784 43.4887 127.436 45.3742 128.053 47.383L125.304 47.8705L125.392 48.5812V48.5753Z" fill="#241E4F"/>
</svg>
