<svg width="174" height="40" viewBox="0 0 174 40" fill="none" xmlns="http://www.w3.org/2000/svg">
<path d="M30.7666 9.12109H34.0399V18.5729C34.0399 19.5065 34.1887 20.3198 34.4864 21.0144C34.7836 21.7088 35.2061 22.2455 35.7548 22.6248C36.3035 23.0039 36.9511 23.1933 37.6978 23.1933C38.8296 23.1933 39.9088 22.7739 40.9358 21.9334C41.4024 21.5482 41.7675 21.0318 42.0297 20.3844C42.2922 19.7367 42.4237 18.9927 42.4237 18.1527V9.12109H45.6794V25.8541H42.5987L42.4237 23.3512C41.9921 24.2264 41.2946 24.9205 40.3319 25.434C39.3692 25.9475 38.3337 26.2041 37.2251 26.2041C35.1602 26.2041 33.5672 25.5716 32.4468 24.3051C31.3265 23.0393 30.7666 21.2511 30.7666 18.9402V9.12109Z" fill="#006E8A"/>
<path d="M51.1226 25.8544V9.12109H54.2032L54.3779 11.624C55.1368 10.0603 56.8811 9.27874 59.6115 9.27874C60.9066 9.27874 62.0531 9.60231 63.051 10.2503C64.0486 10.8979 64.8158 11.7643 65.3525 12.8489C65.866 13.9229 66.105 15.0312 66.0703 16.1748L65.7899 25.8893L62.6223 25.8544L62.797 16.385C62.8202 14.9965 62.5316 13.9375 61.9304 13.2082C61.3299 12.479 60.4456 12.1143 59.2792 12.1143C58.532 12.1143 57.8758 12.1845 57.31 12.3242C56.7443 12.4643 56.2625 12.703 55.8659 13.0418C55.3524 13.4617 54.944 14.0045 54.6407 14.6698C54.3374 15.3351 54.1915 16.0523 54.2032 16.8227L54.3779 25.8544H51.1226Z" fill="#006E8A"/>
<path d="M74.3504 9.12109H71.3044V25.8541H74.5252L74.3504 9.12109Z" fill="#006E8A"/>
<path d="M87.9485 25.8544H84.7982L77.8491 9.12109H81.2798L86.3733 21.1636L91.4316 9.12109H94.9148L87.9135 25.8544H87.9485Z" fill="#006E8A"/>
<path d="M98.2307 12.9448C98.9717 11.6204 100.002 10.5846 101.32 9.83849C102.627 9.1148 104.085 8.75308 105.696 8.75308C107.295 8.75308 108.724 9.1116 109.984 9.82942C111.244 10.547 112.23 11.5649 112.942 12.8835C113.653 14.1911 114.01 15.7075 114.01 17.4345C114.01 17.7026 113.975 17.9069 113.905 18.0469C113.834 18.1985 113.799 18.3038 113.799 18.3622L100.392 18.7122C100.521 19.6226 100.833 20.4248 101.328 21.1191C101.825 21.8129 102.457 22.347 103.228 22.7202C104.009 23.0941 104.867 23.2809 105.8 23.2809C106.582 23.2809 107.224 23.2307 107.726 23.132C108.228 23.0322 108.665 22.8487 109.038 22.5804C109.412 22.3355 109.757 21.9386 110.071 21.3904C110.352 21.4952 111.017 21.5478 112.067 21.5478H112.644C113.076 21.5478 113.327 21.5657 113.397 21.6006C112.697 23.0122 111.688 24.1035 110.369 24.8731C109.05 25.6435 107.551 26.0284 105.871 26.0284C104.26 26.0284 102.787 25.6669 101.451 24.9438C100.115 24.2201 99.0618 23.2107 98.292 21.9156C97.5099 20.632 97.1194 19.1382 97.1194 17.4345C97.1194 15.7657 97.4896 14.2692 98.2307 12.9448ZM110.772 16.1741C110.643 15.2642 110.34 14.4704 109.861 13.7936C109.383 13.1169 108.765 12.598 108.007 12.236C107.271 11.8749 106.442 11.6929 105.521 11.6929C104.132 11.6929 103.009 12.0843 102.151 12.8661C101.294 13.648 100.766 14.751 100.567 16.1741H110.772Z" fill="#006E8A"/>
<path d="M118.159 25.8544V9.12112H121.239L121.415 12.8842C121.799 11.5427 122.377 10.5562 123.147 9.92644C123.917 9.29611 124.892 8.98108 126.071 8.98108C127.576 8.98108 128.544 9.12112 128.976 9.40148L128.468 12.2717C128.141 12.1082 127.8 12.0004 127.444 11.9479C127.088 11.8959 126.607 11.8692 126 11.8692C124.985 11.8692 124.095 12.2165 123.331 12.9103C122.567 13.6049 122.027 14.5471 121.712 15.7376C121.584 16.2159 121.502 16.7203 121.467 17.2514C121.432 17.7823 121.415 18.6193 121.415 19.7631V25.8544H118.159Z" fill="#006E8A"/>
<path d="M134.052 20.8302C134.11 21.2154 134.262 21.5801 134.507 21.9239C134.752 22.2683 135.056 22.5396 135.417 22.7383C135.768 22.9482 136.097 23.0997 136.406 23.1931C136.715 23.2862 137.074 23.3331 137.482 23.3331C137.809 23.3331 138.002 23.327 138.06 23.3155C138.865 23.2571 139.492 23.0477 139.941 22.6855C140.391 22.3238 140.615 21.8449 140.615 21.2501C140.615 20.7019 140.415 20.229 140.012 19.8328C139.609 19.4354 139.07 19.1612 138.393 19.0099L136.1 18.4671C134.548 18.0587 133.407 17.4633 132.678 16.682C131.949 15.9001 131.584 14.9022 131.584 13.6888L131.619 13.0235C131.689 12.2416 131.996 11.5244 132.538 10.8711C133.081 10.2173 133.789 9.69818 134.665 9.31299C135.54 8.93954 136.462 8.75308 137.43 8.75308C138.958 8.75308 140.242 9.10893 141.281 9.82062C141.794 10.1594 142.2 10.6579 142.497 11.3174C142.795 11.9765 142.978 12.7554 143.049 13.6538L140.108 13.4788C140.026 12.8835 139.77 12.4198 139.337 12.0872C138.906 11.7546 138.352 11.5884 137.675 11.5884C137.034 11.5884 136.453 11.7311 135.934 12.0176C135.414 12.303 135.097 12.662 134.98 13.0936C134.91 13.3388 134.875 13.6248 134.875 13.9515C134.875 14.1385 134.921 14.2954 135.014 14.4239C135.271 14.9724 135.931 15.3986 136.993 15.7017L139.46 16.3144C142.354 17.0381 143.801 18.6658 143.801 21.1981C143.801 22.1658 143.518 23.0322 142.952 23.7968C142.386 24.5613 141.602 25.1532 140.598 25.5733C139.606 25.9932 138.509 26.2036 137.307 26.2036C136.234 26.2036 135.242 25.9932 134.332 25.5733C133.422 25.1532 132.67 24.5413 132.074 23.7357C131.806 23.3737 131.608 22.9421 131.479 22.4403C131.351 21.9386 131.275 21.344 131.251 20.6552L134.052 20.8302Z" fill="#006E8A"/>
<path d="M148.062 12.9096C148.826 11.5505 149.867 10.5144 151.185 9.80301C152.47 9.10306 153.881 8.75308 155.422 8.75308C156.693 8.75308 157.861 9.0097 158.922 9.52293C159.984 10.0367 160.772 10.7366 161.285 11.6233V8.94514H164.523V25.8537H161.81L161.285 23.2803C160.76 24.179 159.964 24.8912 158.896 25.4159C157.828 25.9409 156.67 26.2036 155.422 26.2036C153.858 26.2036 152.428 25.8331 151.133 25.0921C149.838 24.3508 148.811 23.3155 148.052 21.9853C147.295 20.6435 146.915 19.1382 146.915 17.4694C146.915 15.7889 147.297 14.2695 148.062 12.9096ZM151.011 20.27C151.513 21.1215 152.201 21.7932 153.076 22.2827C153.94 22.7732 154.873 23.0176 155.876 23.0176C156.903 23.0176 157.825 22.7876 158.642 22.3264C159.459 21.866 160.101 21.2154 160.567 20.3749C161.023 19.5349 161.25 18.5546 161.25 17.4342C161.25 16.3491 160.985 15.3685 160.454 14.4938C159.923 13.6186 159.22 12.9653 158.344 12.5337C157.925 12.3235 157.521 12.1718 157.137 12.0784C156.751 11.9853 156.332 11.9384 155.876 11.9384C154.85 11.9384 153.907 12.1718 153.049 12.6383C152.192 13.1049 151.513 13.7528 151.011 14.5813C150.509 15.4098 150.258 16.3611 150.258 17.4342C150.258 18.4727 150.509 19.4183 151.011 20.27Z" fill="#006E8A"/>
<path d="M169.966 25.8522H173.222V0.192625L169.966 3.05176e-05V25.8522Z" fill="#006E8A"/>
<path d="M70.6567 4.16897C70.6567 3.57411 70.876 3.07182 71.3132 2.66316C71.7507 2.2553 72.285 2.05096 72.9148 2.05096C73.5448 2.05096 74.0788 2.2553 74.5166 2.66316C74.9538 3.07182 75.1728 3.57411 75.1728 4.16897C75.1728 4.76382 74.9538 5.26584 74.5166 5.67451C74.0788 6.08237 73.5448 6.28697 72.9148 6.28697C72.2959 6.28697 71.7651 6.08237 71.3217 5.67451C70.8781 5.26584 70.6567 4.76382 70.6567 4.16897Z" fill="#006E8A"/>
<path d="M36.2603 37.7457C36.2603 38.9269 35.3128 39.8738 34.1319 39.8738H30.7666V32.073H33.8753C35.0122 32.073 35.9258 32.9981 35.9258 34.1237C35.9258 34.8816 35.5248 35.5055 34.9228 35.8285C35.703 36.13 36.2603 36.8542 36.2603 37.7457ZM31.3566 32.6297V35.617H33.8753C34.6777 35.617 35.3352 34.948 35.3352 34.1237C35.3352 33.299 34.6777 32.6297 33.8753 32.6297H31.3566ZM35.6697 37.7457C35.6697 36.8766 34.9785 36.1743 34.1319 36.1743H31.3566V39.3171H34.1319C34.9785 39.3171 35.6697 38.615 35.6697 37.7457Z" fill="#58595B"/>
<path d="M43.3145 39.3171V39.8741H38.8232V32.073H43.2593V32.6299H39.4141V35.6616H42.9802V36.2188H39.4141V39.3171H43.3145Z" fill="#58595B"/>
<path d="M50.4823 37.8903H46.5708L45.8129 39.8744H45.1885L48.2198 32.073H48.8443L51.8641 39.8744H51.2399L50.4823 37.8903ZM50.2708 37.3333L48.5324 32.7969L46.7935 37.3333H50.2708Z" fill="#58595B"/>
<path d="M53.3914 35.9763C53.3914 33.7474 55.0745 31.9529 57.4483 31.9529C58.8861 31.9529 60.1449 32.6889 60.7912 33.8258L60.2676 34.1264C59.7552 33.168 58.6738 32.5214 57.4483 32.5214C55.3973 32.5214 53.9822 34.0595 53.9822 35.9763C53.9822 37.8932 55.3973 39.4313 57.4483 39.4313C58.6855 39.4313 59.7776 38.7738 60.29 37.7927L60.8136 38.0938C60.1788 39.2414 58.9085 40 57.4483 40C55.0745 40 53.3914 38.2053 53.3914 35.9763Z" fill="#58595B"/>
<path d="M69.0422 32.073V39.8744H68.4511V36.1409H63.9156V39.8744H63.3245V32.073H63.9156V35.5837H68.4511V32.073H69.0422Z" fill="#58595B"/>
<path d="M81.9056 32.073V39.8744H81.3153V36.1409H76.7795V39.8744H76.189V32.073H76.7795V35.5837H81.3153V32.073H81.9056Z" fill="#58595B"/>
<path d="M84.5154 35.9763C84.5154 33.7474 86.2877 31.9529 88.5395 31.9529C90.7904 31.9529 92.5624 33.7474 92.5624 35.9763C92.5624 38.2053 90.7904 40 88.5395 40C86.2877 40 84.5154 38.2053 84.5154 35.9763ZM91.972 35.9763C91.972 34.0595 90.4665 32.5214 88.5395 32.5214C86.6112 32.5214 85.1068 34.0595 85.1068 35.9763C85.1068 37.8932 86.6112 39.4313 88.5395 39.4313C90.4665 39.4313 91.972 37.8932 91.972 35.9763Z" fill="#58595B"/>
<path d="M99.5181 32.6297H97.0659V39.8738H96.4641V32.6297H94.0125V32.073H99.5181V32.6297Z" fill="#58595B"/>
<path d="M106.35 39.3171V39.8741H101.859V32.073H106.295V32.6299H102.45V35.6616H106.016V36.2188H102.45V39.3171H106.35Z" fill="#58595B"/>
<path d="M113.182 39.3171V39.8741H108.914V32.073H109.504V39.3171H113.182Z" fill="#58595B"/>
<path d="M114.834 38.1603L115.346 37.8594C115.614 38.7951 116.405 39.4303 117.687 39.4303C118.99 39.4303 119.648 38.7621 119.648 37.8701C119.648 36.934 118.824 36.5776 117.631 36.1983C116.327 35.775 115.157 35.4074 115.157 34.0478C115.157 32.7658 116.194 31.9525 117.519 31.9525C118.801 31.9525 119.648 32.6882 120.027 33.5908L119.526 33.8696C119.236 33.1675 118.634 32.5212 117.519 32.5212C116.439 32.5212 115.759 33.1563 115.759 34.0254C115.759 34.9617 116.551 35.2514 117.664 35.6187C119.047 36.0756 120.25 36.5102 120.25 37.8594C120.25 39.1521 119.236 39.9993 117.687 39.9993C116.227 39.9993 115.19 39.2636 114.834 38.1603Z" fill="#58595B"/>
<path d="M22.1574 10.5182C22.1574 10.3953 22.1481 10.2744 22.13 10.1563C20.8805 2.56668 15.095 0.595121 15.095 0.595121C17.1527 1.92754 19.2131 5.96775 19.6279 8.12549C23.3109 27.2955 18.0655 35.986 18.0653 35.9884L18.065 35.9887C18.1474 35.1962 18.2141 33.3772 18.2147 33.3353C18.2141 33.3414 18.2138 33.3534 18.2136 33.3615C18.316 25.5131 15.4954 16.1814 10.1802 8.80704C10.0359 8.59338 9.87079 8.36744 9.67926 8.12549C5.11948 2.36795 11.9018 0 11.9018 0C-0.64787 3.16953 3.96099 10.4377 4.91808 11.4105C10.6921 17.278 17.4718 28.1873 16.794 38.1198H16.7937C16.7982 37.8511 16.7929 38.116 16.7937 38.1192C15.2927 32.0704 10.2994 24.787 4.91808 20.2064C1.19029 16.9851 2.66994 12.3415 2.66994 12.3415C-3.36096 20.8727 4.91702 26.2117 4.91808 26.2123C9.19485 28.9048 15.4175 33.2726 15.7977 39.067C15.7977 39.067 11.5628 37.6084 10.4547 37.017C8.9361 36.2063 6.72903 34.8606 5.31607 33.2139C2.96096 30.4693 4.69455 27.8525 4.69455 27.8525C2.59898 31.1109 1.98146 33.0144 5.10961 35.4344C9.93987 39.0531 16.9385 39.999 16.9385 39.999C16.9385 39.999 17.6091 39.4588 18.7879 37.7175C20.0123 35.9089 21.4543 32.4548 22.1977 28.8912C23.8953 20.7567 22.1574 10.5182 22.1574 10.5182Z" fill="#006E8A"/>
</svg>
