<svg width="161" height="24" viewBox="0 0 161 24" fill="none" xmlns="http://www.w3.org/2000/svg">
<g clip-path="url(#clip0_1076_50)">
<g clip-path="url(#clip1_1076_50)">
<mask id="mask0_1076_50" style="mask-type:luminance" maskUnits="userSpaceOnUse" x="0" y="0" width="161" height="24">
<path d="M160.054 0.0610657H0.870605V23.9386H160.054V0.0610657Z" fill="white"/>
</mask>
<g mask="url(#mask0_1076_50)">
<path d="M4.8502 1.408H10.238V0.0610657H4.72775C1.48285 0.0610657 0.870605 1.8978 0.870605 4.77535V11.5713H2.0951V6.85699H9.19714V5.3876H2.0951V4.77535C2.0951 2.08147 2.64612 1.408 4.8502 1.408Z" fill="#00458A"/>
<path d="M15.8706 0.0610046C12.6869 0.0610046 12.0134 1.89774 12.0134 4.77529V11.5712H13.2379V4.83652C13.2379 2.14264 13.7277 1.40794 15.993 1.40794H21.0134V0.0610046H15.8706Z" fill="#00458A"/>
<path d="M23.6464 7.16305H30.2586C33.1362 7.16305 33.5035 5.38754 33.5035 3.61203C33.5035 1.10182 32.5851 0.0610046 30.1974 0.0610046H26.83C23.1566 0.0610046 22.4219 2.38754 22.4219 5.81611C22.4219 9.24468 23.1566 11.5712 26.83 11.5712H33.1974V10.1018H26.8913C24.6872 10.1018 23.83 9.36713 23.6464 7.16305ZM30.0137 5.75488H23.5851C23.5851 2.87733 24.0749 1.46917 26.8913 1.46917H30.0749C31.9729 1.46917 32.279 2.14264 32.279 3.67325C32.279 5.26509 31.8504 5.75488 30.0137 5.75488Z" fill="#00458A"/>
<path d="M42.6872 4.83652H38.4015C36.7484 4.83652 36.5648 4.34672 36.5648 3.12223C36.5648 2.02019 36.7484 1.53039 38.4015 1.53039H45.5648V0.0610046H38.2178C36.2586 0.0610046 35.2791 1.0406 35.2791 3.12223C35.2791 5.38754 36.075 6.24468 38.2178 6.24468H42.4423C44.2791 6.24468 44.7076 6.61203 44.7076 8.20386C44.7076 9.7957 44.3403 10.163 42.5035 10.163H35.5852V11.6324H42.626C45.0138 11.6324 45.9321 10.6528 45.9321 8.26509C45.9321 6.12223 45.3811 4.83652 42.6872 4.83652Z" fill="#00458A"/>
<path d="M57.32 0.0610046V5.02019H49.4833V0.0610046H48.2588V11.5712H49.4833V6.48958H57.32V11.6324H58.5445V0.0610046H57.32Z" fill="#00458A"/>
<path d="M65.5236 2.08141H72.0134V0.0610046H65.4624C61.238 0.0610046 60.687 2.81611 60.687 5.81611C60.687 8.81611 61.238 11.5712 65.4624 11.5712H72.0134V9.48958H65.5236C63.1971 9.48958 62.5236 8.69366 62.5236 5.75488C62.5236 2.81611 63.1971 2.08141 65.5236 2.08141Z" fill="#00458A"/>
<path d="M75.1972 7.46917H81.3808C84.5645 7.46917 84.9931 5.50998 84.9931 3.7957C84.9931 1.28549 83.891 0.0610046 81.3196 0.0610046H77.9523C73.7278 0.0610046 73.1768 2.93856 73.1768 5.81611C73.1768 8.69366 73.7278 11.5712 77.9523 11.5712H84.6257V9.5508H78.0135C76.1768 9.5508 75.4421 9.06101 75.1972 7.46917ZM75.0747 5.32631C75.1972 2.81611 75.8706 2.08141 78.0747 2.08141H81.1972C82.789 2.08141 83.0951 2.44876 83.0951 3.73447C83.0951 5.02019 82.8502 5.32631 81.1972 5.32631H75.0747Z" fill="#00458A"/>
<path d="M90.7481 9.5508C88.7889 9.5508 88.3603 9.06101 88.3603 6.67325V0.0610046H86.4011V6.7957C86.4011 9.3059 86.8909 11.5712 90.6256 11.5712H96.5644V9.5508H90.7481Z" fill="#00458A"/>
<path d="M101.769 9.5508C99.8094 9.5508 99.3808 9.06101 99.3808 6.67325V0.0610046H97.4216V6.7957C97.4216 9.3059 97.9114 11.5712 101.646 11.5712H107.524V9.5508H101.769Z" fill="#00458A"/>
<path d="M116.095 4.53039H111.809C110.34 4.53039 110.34 4.22427 110.34 3.24468C110.34 2.44876 110.34 2.08141 111.809 2.08141H119.34V0.0610046H111.687C109.544 0.0610046 108.381 1.16305 108.381 3.3059C108.381 5.63243 109.36 6.5508 111.626 6.5508H115.85C117.626 6.5508 117.748 6.7957 117.748 8.02019C117.748 9.24468 117.626 9.48958 115.85 9.48958H108.626V11.5712H115.973C118.544 11.5712 119.646 10.5304 119.646 8.02019C119.646 5.50998 118.605 4.53039 116.095 4.53039Z" fill="#00458A"/>
<path d="M4.44425 18.3406L3.79711 18.5237C3.75642 18.4158 3.69638 18.3111 3.61701 18.2093C3.53968 18.1055 3.43386 18.0201 3.29955 17.9529C3.16524 17.8857 2.99328 17.8521 2.78368 17.8521C2.49673 17.8521 2.25762 17.9183 2.06633 18.0505C1.87708 18.1808 1.78245 18.3466 1.78245 18.5481C1.78245 18.7272 1.84756 18.8686 1.97781 18.9724C2.10805 19.0762 2.31155 19.1627 2.58831 19.2319L3.28429 19.4028C3.70351 19.5046 4.01588 19.6603 4.22142 19.8698C4.42695 20.0774 4.52972 20.3451 4.52972 20.6727C4.52972 20.9413 4.45239 21.1814 4.29773 21.3931C4.1451 21.6047 3.93143 21.7716 3.6567 21.8937C3.38197 22.0158 3.06247 22.0768 2.69821 22.0768C2.21998 22.0768 1.82416 21.9731 1.51077 21.7655C1.19738 21.5579 0.998963 21.2547 0.915527 20.8559L1.59929 20.6849C1.66441 20.9372 1.78753 21.1265 1.96865 21.2526C2.1518 21.3788 2.39091 21.4419 2.68599 21.4419C3.02177 21.4419 3.28836 21.3707 3.48575 21.2282C3.68519 21.0837 3.7849 20.9108 3.7849 20.7093C3.7849 20.5465 3.72792 20.4101 3.61397 20.3002C3.5 20.1883 3.32499 20.1049 3.08893 20.05L2.30748 19.8668C1.87809 19.7651 1.56266 19.6074 1.3612 19.3937C1.16176 19.1779 1.06205 18.9083 1.06205 18.5847C1.06205 18.3202 1.13633 18.0862 1.28488 17.8827C1.43547 17.6792 1.64 17.5194 1.89844 17.4034C2.15892 17.2874 2.454 17.2294 2.78368 17.2294C3.24766 17.2294 3.61193 17.3312 3.87648 17.5347C4.14307 17.7382 4.33232 18.0068 4.44425 18.3406Z" fill="#0566AB"/>
<path d="M6.52487 23.7377C6.40277 23.7377 6.29389 23.7275 6.19825 23.7072C6.1026 23.6889 6.03646 23.6706 5.99983 23.6522L6.18299 23.0173C6.358 23.0621 6.51266 23.0784 6.64697 23.0662C6.78128 23.0539 6.90033 22.9939 7.0041 22.886C7.10996 22.7803 7.20657 22.6083 7.29413 22.3702L7.42839 22.0039L5.69458 17.2907H6.47603L7.77033 21.0271H7.81913L9.11341 17.2907H9.89488L7.9046 22.6632C7.81509 22.9054 7.70415 23.1058 7.5719 23.2646C7.43959 23.4253 7.28598 23.5444 7.11094 23.6217C6.93798 23.699 6.74262 23.7377 6.52487 23.7377Z" fill="#0566AB"/>
<path d="M14.6142 18.3406L13.967 18.5237C13.9263 18.4158 13.8663 18.3111 13.7869 18.2093C13.7096 18.1055 13.6038 18.0201 13.4695 17.9529C13.3351 17.8857 13.1632 17.8521 12.9536 17.8521C12.6666 17.8521 12.4276 17.9183 12.2362 18.0505C12.047 18.1808 11.9524 18.3466 11.9524 18.5481C11.9524 18.7272 12.0175 18.8686 12.1477 18.9724C12.278 19.0762 12.4815 19.1627 12.7582 19.2319L13.4542 19.4028C13.8734 19.5046 14.1858 19.6603 14.3913 19.8698C14.5969 20.0774 14.6997 20.3451 14.6997 20.6727C14.6997 20.9413 14.6223 21.1814 14.4677 21.3931C14.315 21.6047 14.1014 21.7716 13.8266 21.8937C13.5519 22.0158 13.2324 22.0768 12.8681 22.0768C12.3899 22.0768 11.9941 21.9731 11.6807 21.7655C11.3673 21.5579 11.1689 21.2547 11.0854 20.8559L11.7692 20.6849C11.8343 20.9372 11.9575 21.1265 12.1386 21.2526C12.3217 21.3788 12.5608 21.4419 12.8559 21.4419C13.1917 21.4419 13.4583 21.3707 13.6557 21.2282C13.8551 21.0837 13.9548 20.9108 13.9548 20.7093C13.9548 20.5465 13.8979 20.4101 13.7839 20.3002C13.6699 20.1883 13.4949 20.1049 13.2589 20.05L12.4774 19.8668C12.048 19.7651 11.7326 19.6074 11.5311 19.3937C11.3317 19.1779 11.232 18.9083 11.232 18.5847C11.232 18.3202 11.3062 18.0862 11.4548 17.8827C11.6054 17.6792 11.8099 17.5194 12.0683 17.4034C12.3289 17.2874 12.6239 17.2294 12.9536 17.2294C13.4176 17.2294 13.7818 17.3312 14.0464 17.5347C14.313 17.7382 14.5023 18.0068 14.6142 18.3406Z" fill="#0566AB"/>
<path d="M18.2699 17.2906V17.9011H15.8401V17.2906H18.2699ZM16.5483 16.1673H17.2686V20.6362C17.2686 20.8397 17.2981 20.9923 17.3572 21.0941C17.4182 21.1937 17.4955 21.2609 17.5891 21.2955C17.6848 21.3281 17.7856 21.3443 17.8914 21.3443C17.9708 21.3443 18.0358 21.3402 18.0867 21.3321C18.1376 21.3219 18.1783 21.3138 18.2088 21.3077L18.3554 21.9548C18.3065 21.9732 18.2383 21.9915 18.1508 22.0098C18.0633 22.0301 17.9524 22.0403 17.8181 22.0403C17.6146 22.0403 17.4151 21.9966 17.2198 21.9091C17.0265 21.8215 16.8657 21.6882 16.7375 21.5092C16.6113 21.3301 16.5483 21.1042 16.5483 20.8315V16.1673Z" fill="#0566AB"/>
<path d="M21.7161 22.0768C21.2643 22.0768 20.8746 21.9771 20.547 21.7777C20.2214 21.5762 19.97 21.2954 19.793 20.9352C19.618 20.5729 19.5305 20.1517 19.5305 19.6715C19.5305 19.1912 19.618 18.7679 19.793 18.4016C19.97 18.0333 20.2163 17.7463 20.5317 17.5408C20.8492 17.3332 21.2196 17.2294 21.6428 17.2294C21.887 17.2294 22.1282 17.2701 22.3663 17.3515C22.6044 17.4329 22.8211 17.5652 23.0165 17.7483C23.2118 17.9294 23.3675 18.1696 23.4835 18.4688C23.5995 18.7679 23.6575 19.1362 23.6575 19.5737V19.879H20.0433V19.2563H22.9249C22.9249 18.9917 22.872 18.7557 22.7662 18.5481C22.6624 18.3406 22.5138 18.1767 22.3205 18.0567C22.1292 17.9366 21.9033 17.8765 21.6428 17.8765C21.3559 17.8765 21.1077 17.9478 20.898 18.0902C20.6905 18.2307 20.5307 18.4138 20.4188 18.6397C20.3068 18.8656 20.2509 19.1078 20.2509 19.3662V19.7814C20.2509 20.1354 20.3119 20.4356 20.4341 20.6818C20.5582 20.926 20.7301 21.1123 20.9499 21.2405C21.1697 21.3666 21.4251 21.4297 21.7161 21.4297C21.9054 21.4297 22.0763 21.4033 22.2289 21.3504C22.3836 21.2954 22.5169 21.214 22.6288 21.1061C22.7408 20.9962 22.8272 20.8599 22.8883 20.6971L23.5843 20.8925C23.511 21.1285 23.3878 21.3361 23.2149 21.5152C23.0419 21.6922 22.8283 21.8306 22.5739 21.9303C22.3195 22.028 22.0336 22.0768 21.7161 22.0768Z" fill="#0566AB"/>
<path d="M25.2004 21.9791V17.2904H25.8964V18.0231H25.9575C26.0552 17.7728 26.2129 17.5784 26.4306 17.4401C26.6484 17.2996 26.9099 17.2294 27.2152 17.2294C27.5245 17.2294 27.7819 17.2996 27.9874 17.4401C28.195 17.5784 28.3567 17.7728 28.4728 18.0231H28.5216C28.6417 17.7809 28.8218 17.5886 29.0619 17.4461C29.3021 17.3016 29.59 17.2294 29.9258 17.2294C30.345 17.2294 30.6879 17.3607 30.9545 17.6232C31.2211 17.8837 31.3544 18.2897 31.3544 18.8411V21.9791H30.634V18.8411C30.634 18.4952 30.5393 18.2479 30.3501 18.0994C30.1608 17.9508 29.938 17.8765 29.6816 17.8765C29.3519 17.8765 29.0965 17.9763 28.9154 18.1757C28.7343 18.3731 28.6437 18.6234 28.6437 18.9266V21.9791H27.9111V18.7679C27.9111 18.5013 27.8246 18.2866 27.6516 18.1238C27.4787 17.959 27.2558 17.8765 26.9831 17.8765C26.7959 17.8765 26.6209 17.9264 26.4581 18.0261C26.2973 18.1258 26.1671 18.2642 26.0674 18.4413C25.9697 18.6163 25.9209 18.8188 25.9209 19.0487V21.9791H25.2004Z" fill="#0566AB"/>
<path d="M36.4396 18.3406L35.7925 18.5237C35.7518 18.4158 35.6918 18.3111 35.6124 18.2093C35.535 18.1055 35.4292 18.0201 35.2949 17.9529C35.1606 17.8857 34.9887 17.8521 34.779 17.8521C34.4921 17.8521 34.253 17.9183 34.0617 18.0505C33.8724 18.1808 33.7778 18.3466 33.7778 18.5481C33.7778 18.7272 33.8429 18.8686 33.9732 18.9724C34.1034 19.0762 34.3069 19.1627 34.5837 19.2319L35.2797 19.4028C35.6989 19.5046 36.0112 19.6603 36.2168 19.8698C36.4223 20.0774 36.5251 20.3451 36.5251 20.6727C36.5251 20.9413 36.4478 21.1814 36.2931 21.3931C36.1405 21.6047 35.9268 21.7716 35.6521 21.8937C35.3773 22.0158 35.0578 22.0768 34.6936 22.0768C34.2153 22.0768 33.8195 21.9731 33.5061 21.7655C33.1928 21.5579 32.9943 21.2547 32.9109 20.8559L33.5946 20.6849C33.6598 20.9372 33.7829 21.1265 33.964 21.2526C34.1472 21.3788 34.3863 21.4419 34.6814 21.4419C35.0171 21.4419 35.2837 21.3707 35.4812 21.2282C35.6806 21.0837 35.7803 20.9108 35.7803 20.7093C35.7803 20.5465 35.7233 20.4101 35.6094 20.3002C35.4954 20.1883 35.3204 20.1049 35.0843 20.05L34.3028 19.8668C33.8735 19.7651 33.558 19.6074 33.3565 19.3937C33.1571 19.1779 33.0574 18.9083 33.0574 18.5847C33.0574 18.3202 33.1317 18.0862 33.2803 17.8827C33.4309 17.6792 33.6354 17.5194 33.8938 17.4034C34.1543 17.2874 34.4494 17.2294 34.779 17.2294C35.2431 17.2294 35.6073 17.3312 35.8718 17.5347C36.1385 17.7382 36.3277 18.0068 36.4396 18.3406Z" fill="#0566AB"/>
<path d="M42.8871 22.0768C42.4353 22.0768 42.0455 21.9771 41.7179 21.7777C41.3923 21.5762 41.141 21.2954 40.9639 20.9352C40.789 20.5729 40.7014 20.1517 40.7014 19.6715C40.7014 19.1912 40.789 18.7679 40.9639 18.4016C41.141 18.0333 41.3873 17.7463 41.7027 17.5408C42.0201 17.3332 42.3905 17.2294 42.8138 17.2294C43.058 17.2294 43.2991 17.2701 43.5372 17.3515C43.7753 17.4329 43.992 17.5652 44.1874 17.7483C44.3828 17.9294 44.5385 18.1696 44.6544 18.4688C44.7705 18.7679 44.8284 19.1362 44.8284 19.5737V19.879H41.2142V19.2563H44.0958C44.0958 18.9917 44.0429 18.7557 43.9371 18.5481C43.8334 18.3406 43.6848 18.1767 43.4914 18.0567C43.3002 17.9366 43.0743 17.8765 42.8138 17.8765C42.5268 17.8765 42.2786 17.9478 42.069 18.0902C41.8614 18.2307 41.7016 18.4138 41.5897 18.6397C41.4778 18.8656 41.4218 19.1078 41.4218 19.3662V19.7814C41.4218 20.1354 41.4829 20.4356 41.605 20.6818C41.7291 20.926 41.901 21.1123 42.1208 21.2405C42.3406 21.3666 42.596 21.4297 42.8871 21.4297C43.0763 21.4297 43.2473 21.4033 43.3999 21.3504C43.5545 21.2954 43.6878 21.214 43.7997 21.1061C43.9117 20.9962 43.9982 20.8599 44.0592 20.6971L44.7552 20.8925C44.6819 21.1285 44.5588 21.3361 44.3858 21.5152C44.2129 21.6922 43.9991 21.8306 43.7448 21.9303C43.4904 22.028 43.2045 22.0768 42.8871 22.0768Z" fill="#0566AB"/>
<path d="M47.0915 19.1586V21.9791H46.3711V17.2904H47.0671V18.0231H47.1281C47.238 17.785 47.4049 17.5937 47.6288 17.4492C47.8526 17.3027 48.1416 17.2294 48.4956 17.2294C48.8131 17.2294 49.0909 17.2945 49.329 17.4248C49.5671 17.553 49.7523 17.7483 49.8846 18.0109C50.0168 18.2714 50.083 18.601 50.083 18.9999V21.9791H49.3626V19.0487C49.3626 18.6804 49.267 18.3935 49.0756 18.1879C48.8844 17.9803 48.6218 17.8765 48.2881 17.8765C48.0581 17.8765 47.8526 17.9264 47.6715 18.0261C47.4924 18.1258 47.351 18.2714 47.2472 18.4626C47.1434 18.6539 47.0915 18.886 47.0915 19.1586Z" fill="#0566AB"/>
<path d="M53.7388 23.8351C53.3908 23.8351 53.0916 23.7903 52.8413 23.7008C52.5911 23.6133 52.3825 23.4973 52.2156 23.3528C52.0508 23.2104 51.9195 23.0577 51.8218 22.8949L52.3957 22.492C52.4608 22.5774 52.5432 22.6751 52.6429 22.785C52.7426 22.897 52.879 22.9936 53.052 23.075C53.227 23.1584 53.4559 23.2001 53.7388 23.2001C54.1173 23.2001 54.4297 23.1086 54.6759 22.9254C54.9222 22.7423 55.0453 22.4553 55.0453 22.0646V21.1123H54.9842C54.9313 21.1977 54.856 21.3035 54.7583 21.4297C54.6627 21.5538 54.5243 21.6647 54.3432 21.7624C54.1641 21.8581 53.922 21.9059 53.6167 21.9059C53.2382 21.9059 52.8983 21.8163 52.5971 21.6373C52.298 21.4582 52.0609 21.1977 51.8859 20.8559C51.7129 20.5139 51.6265 20.0988 51.6265 19.6104C51.6265 19.1301 51.7109 18.712 51.8798 18.3558C52.0487 17.9976 52.2838 17.7208 52.5849 17.5255C52.8861 17.3281 53.2341 17.2294 53.6289 17.2294C53.9341 17.2294 54.1763 17.2803 54.3554 17.382C54.5365 17.4818 54.6749 17.5957 54.7705 17.7239C54.8682 17.8501 54.9435 17.9539 54.9964 18.0353H55.0697V17.2904H55.7657V22.1135C55.7657 22.5164 55.6741 22.8441 55.491 23.0964C55.3098 23.3507 55.0656 23.5369 54.7583 23.655C54.4531 23.775 54.1132 23.8351 53.7388 23.8351ZM53.7143 21.2588C54.0033 21.2588 54.2475 21.1926 54.447 21.0603C54.6464 20.9281 54.798 20.7378 54.9018 20.4895C55.0056 20.2413 55.0575 19.9442 55.0575 19.5982C55.0575 19.2603 55.0066 18.9622 54.9049 18.7038C54.8031 18.4453 54.6525 18.2428 54.4531 18.0963C54.2537 17.9498 54.0074 17.8765 53.7143 17.8765C53.4091 17.8765 53.1548 17.9539 52.9512 18.1085C52.7498 18.2632 52.5982 18.4708 52.4964 18.7312C52.3967 18.9917 52.3468 19.2807 52.3468 19.5982C52.3468 19.9238 52.3977 20.2118 52.4995 20.4621C52.6032 20.7103 52.7559 20.9057 52.9574 21.0482C53.1609 21.1885 53.4132 21.2588 53.7143 21.2588Z" fill="#0566AB"/>
<path d="M57.5313 21.9793V17.2906H58.2517V21.9793H57.5313ZM57.8976 16.5092C57.7572 16.5092 57.6361 16.4614 57.5343 16.3657C57.4347 16.27 57.3848 16.1551 57.3848 16.0208C57.3848 15.8865 57.4347 15.7715 57.5343 15.6759C57.6361 15.5802 57.7572 15.5323 57.8976 15.5323C58.038 15.5323 58.1581 15.5802 58.2578 15.6759C58.3596 15.7715 58.4104 15.8865 58.4104 16.0208C58.4104 16.1551 58.3596 16.27 58.2578 16.3657C58.1581 16.4614 58.038 16.5092 57.8976 16.5092Z" fill="#0566AB"/>
<path d="M60.7387 19.1586V21.9791H60.0183V17.2904H60.7142V18.0231H60.7753C60.8852 17.785 61.0521 17.5937 61.2759 17.4492C61.4998 17.3027 61.7887 17.2294 62.1429 17.2294C62.4606 17.2294 62.738 17.2945 62.9761 17.4248C63.2143 17.553 63.3992 17.7483 63.532 18.0109C63.6643 18.2714 63.7304 18.601 63.7304 18.9999V21.9791H63.0098V19.0487C63.0098 18.6804 62.9143 18.3935 62.7227 18.1879C62.5316 17.9803 62.269 17.8765 61.9353 17.8765C61.7053 17.8765 61.4998 17.9264 61.3187 18.0261C61.1396 18.1258 60.9981 18.2714 60.8944 18.4626C60.7906 18.6539 60.7387 18.886 60.7387 19.1586Z" fill="#0566AB"/>
<path d="M67.4596 22.0768C67.0078 22.0768 66.6178 21.9771 66.2902 21.7777C65.9645 21.5762 65.7135 21.2954 65.5366 20.9352C65.3615 20.5729 65.2739 20.1517 65.2739 19.6715C65.2739 19.1912 65.3615 18.7679 65.5366 18.4016C65.7135 18.0333 65.9596 17.7463 66.2749 17.5408C66.5927 17.3332 66.9631 17.2294 67.3862 17.2294C67.6305 17.2294 67.8717 17.2701 68.1098 17.3515C68.348 17.4329 68.5647 17.5652 68.76 17.7483C68.9554 17.9294 69.1109 18.1696 69.2266 18.4688C69.3429 18.7679 69.4011 19.1362 69.4011 19.5737V19.879H65.7864V19.2563H68.6682C68.6682 18.9917 68.6156 18.7557 68.5096 18.5481C68.4056 18.3406 68.2574 18.1767 68.0639 18.0567C67.8723 17.9366 67.6464 17.8765 67.3862 17.8765C67.099 17.8765 66.8511 17.9478 66.6411 18.0902C66.4335 18.2307 66.2743 18.4138 66.1623 18.6397C66.0503 18.8656 65.9939 19.1078 65.9939 19.3662V19.7814C65.9939 20.1354 66.0551 20.4356 66.1776 20.6818C66.3013 20.926 66.4733 21.1123 66.6931 21.2405C66.9129 21.3666 67.1682 21.4297 67.4596 21.4297C67.6488 21.4297 67.8196 21.4033 67.9721 21.3504C68.127 21.2954 68.2605 21.214 68.3719 21.1061C68.4839 20.9962 68.5703 20.8599 68.6315 20.6971L69.3276 20.8925C69.2541 21.1285 69.1311 21.3361 68.9584 21.5152C68.7851 21.6922 68.5715 21.8306 68.3174 21.9303C68.0627 22.028 67.7768 22.0768 67.4596 22.0768Z" fill="#0566AB"/>
<path d="M72.9092 22.0768C72.458 22.0768 72.068 21.9771 71.7404 21.7777C71.4147 21.5762 71.1637 21.2954 70.9862 20.9352C70.8117 20.5729 70.7241 20.1517 70.7241 19.6715C70.7241 19.1912 70.8117 18.7679 70.9862 18.4016C71.1637 18.0333 71.4098 17.7463 71.7251 17.5408C72.0423 17.3332 72.4127 17.2294 72.8364 17.2294C73.0806 17.2294 73.3219 17.2701 73.5594 17.3515C73.7976 17.4329 74.0143 17.5652 74.2096 17.7483C74.4055 17.9294 74.5611 18.1696 74.6768 18.4688C74.7931 18.7679 74.8506 19.1362 74.8506 19.5737V19.879H71.2366V19.2563H74.1184C74.1184 18.9917 74.0651 18.7557 73.9598 18.5481C73.8558 18.3406 73.707 18.1767 73.5141 18.0567C73.3225 17.9366 73.0966 17.8765 72.8364 17.8765C72.5492 17.8765 72.3013 17.9478 72.0913 18.0902C71.8837 18.2307 71.7239 18.4138 71.6125 18.6397C71.5004 18.8656 71.4441 19.1078 71.4441 19.3662V19.7814C71.4441 20.1354 71.5053 20.4356 71.6272 20.6818C71.7515 20.926 71.9235 21.1123 72.1433 21.2405C72.3631 21.3666 72.6184 21.4297 72.9092 21.4297C73.099 21.4297 73.2698 21.4033 73.4223 21.3504C73.5772 21.2954 73.71 21.214 73.8221 21.1061C73.9341 20.9962 74.0204 20.8599 74.0817 20.6971L74.7778 20.8925C74.7043 21.1285 74.5813 21.3361 74.408 21.5152C74.2353 21.6922 74.0217 21.8306 73.767 21.9303C73.5129 22.028 73.227 22.0768 72.9092 22.0768Z" fill="#0566AB"/>
<path d="M76.3933 21.9794V17.2907H77.0894V17.9989H77.1384C77.2241 17.7669 77.3784 17.5787 77.6025 17.4342C77.826 17.2897 78.0788 17.2174 78.3592 17.2174C78.4125 17.2174 78.4786 17.2185 78.5576 17.2205C78.6372 17.2225 78.6972 17.2256 78.7382 17.2296V17.9622C78.7137 17.9562 78.6574 17.947 78.5698 17.9348C78.4847 17.9205 78.3941 17.9134 78.2986 17.9134C78.0703 17.9134 77.867 17.9613 77.6876 18.0569C77.5107 18.1505 77.3705 18.2807 77.2664 18.4476C77.1647 18.6124 77.1139 18.8007 77.1139 19.0123V21.9794H76.3933Z" fill="#0566AB"/>
<path d="M80.0389 21.9793V17.2906H80.7595V21.9793H80.0389ZM80.4056 16.5092C80.2648 16.5092 80.1442 16.4614 80.042 16.3657C79.9422 16.27 79.8926 16.1551 79.8926 16.0208C79.8926 15.8865 79.9422 15.7715 80.042 15.6759C80.1442 15.5802 80.2648 15.5323 80.4056 15.5323C80.5458 15.5323 80.6658 15.5802 80.7656 15.6759C80.8673 15.7715 80.9181 15.8865 80.9181 16.0208C80.9181 16.1551 80.8673 16.27 80.7656 16.3657C80.6658 16.4614 80.5458 16.5092 80.4056 16.5092Z" fill="#0566AB"/>
<path d="M83.2462 19.1586V21.9791H82.5256V17.2904H83.2218V18.0231H83.283C83.3926 17.785 83.5597 17.5937 83.7832 17.4492C84.0073 17.3027 84.2962 17.2294 84.6501 17.2294C84.9679 17.2294 85.2458 17.2945 85.4834 17.4248C85.7216 17.553 85.9071 17.7483 86.0393 18.0109C86.1716 18.2714 86.2377 18.601 86.2377 18.9999V21.9791H85.5171V19.0487C85.5171 18.6804 85.4216 18.3935 85.2305 18.1879C85.0389 17.9803 84.7763 17.8765 84.4426 17.8765C84.213 17.8765 84.0073 17.9264 83.826 18.0261C83.6473 18.1258 83.5058 18.2714 83.4018 18.4626C83.2983 18.6539 83.2462 18.886 83.2462 19.1586Z" fill="#0566AB"/>
<path d="M89.8935 23.8351C89.5457 23.8351 89.2464 23.7903 88.9959 23.7008C88.7462 23.6133 88.5374 23.4973 88.3702 23.3528C88.2055 23.2104 88.0745 23.0577 87.9766 22.8949L88.5508 22.492C88.6157 22.5774 88.6984 22.6751 88.7976 22.785C88.8974 22.897 89.0339 22.9936 89.2072 23.075C89.3817 23.1584 89.6106 23.2001 89.8935 23.2001C90.2725 23.2001 90.5847 23.1086 90.8308 22.9254C91.077 22.7423 91.2 22.4553 91.2 22.0646V21.1123H91.1394C91.0861 21.1977 91.0108 21.3035 90.9135 21.4297C90.8174 21.5538 90.679 21.6647 90.4984 21.7624C90.319 21.8581 90.0766 21.9059 89.7717 21.9059C89.3933 21.9059 89.0535 21.8163 88.7523 21.6373C88.4529 21.4582 88.216 21.1977 88.0408 20.8559C87.8676 20.5139 87.7812 20.0988 87.7812 19.6104C87.7812 19.1301 87.8657 18.712 88.0347 18.3558C88.2037 17.9976 88.4388 17.7208 88.74 17.5255C89.0413 17.3281 89.389 17.2294 89.7839 17.2294C90.0888 17.2294 90.3313 17.2803 90.51 17.382C90.6913 17.4818 90.8296 17.5957 90.9257 17.7239C91.0231 17.8501 91.0984 17.9539 91.151 18.0353H91.2245V17.2904H91.9206V22.1135C91.9206 22.5164 91.8288 22.8441 91.6457 23.0964C91.4645 23.3507 91.2202 23.5369 90.9135 23.655C90.608 23.775 90.2682 23.8351 89.8935 23.8351ZM89.869 21.2588C90.158 21.2588 90.4023 21.1926 90.6019 21.0603C90.8015 20.9281 90.9527 20.7378 91.0568 20.4895C91.1602 20.2413 91.2123 19.9442 91.2123 19.5982C91.2123 19.2603 91.1615 18.9622 91.0598 18.7038C90.9582 18.4453 90.8076 18.2428 90.608 18.0963C90.4084 17.9498 90.1623 17.8765 89.869 17.8765C89.5641 17.8765 89.3094 17.9539 89.1061 18.1085C88.9047 18.2632 88.7529 18.4708 88.6513 18.7312C88.5515 18.9917 88.5019 19.2807 88.5019 19.5982C88.5019 19.9238 88.5527 20.2118 88.6543 20.4621C88.7584 20.7103 88.9108 20.9057 89.1123 21.0482C89.3155 21.1885 89.5678 21.2588 89.869 21.2588Z" fill="#0566AB"/>
<path d="M98.4433 23.8351C98.0949 23.8351 97.7962 23.7903 97.5457 23.7008C97.2953 23.6133 97.0866 23.4973 96.92 23.3528C96.7553 23.2104 96.6237 23.0577 96.5264 22.8949L97.1 22.492C97.1649 22.5774 97.2476 22.6751 97.3474 22.785C97.4472 22.897 97.5837 22.9936 97.7564 23.075C97.9315 23.1584 98.1604 23.2001 98.4433 23.2001C98.8217 23.2001 99.1339 23.1086 99.38 22.9254C99.6268 22.7423 99.7498 22.4553 99.7498 22.0646V21.1123H99.6886C99.6359 21.1977 99.5606 21.3035 99.4627 21.4297C99.3672 21.5538 99.2288 21.6647 99.0476 21.7624C98.8688 21.8581 98.6264 21.9059 98.3209 21.9059C97.9425 21.9059 97.6027 21.8163 97.3015 21.6373C97.0027 21.4582 96.7651 21.1977 96.59 20.8559C96.4174 20.5139 96.3311 20.0988 96.3311 19.6104C96.3311 19.1301 96.4155 18.712 96.5845 18.3558C96.7529 17.9976 96.988 17.7208 97.2892 17.5255C97.5904 17.3281 97.9388 17.2294 98.3331 17.2294C98.6386 17.2294 98.8804 17.2803 99.0598 17.382C99.2411 17.4818 99.3794 17.5957 99.4749 17.7239C99.5729 17.8501 99.6482 17.9539 99.7008 18.0353H99.7743V17.2904H100.47V22.1135C100.47 22.5164 100.379 22.8441 100.196 23.0964C100.014 23.3507 99.77 23.5369 99.4627 23.655C99.1578 23.775 98.8174 23.8351 98.4433 23.8351ZM98.4188 21.2588C98.7078 21.2588 98.9521 21.1926 99.1517 21.0603C99.3506 20.9281 99.5025 20.7378 99.606 20.4895C99.71 20.2413 99.7621 19.9442 99.7621 19.5982C99.7621 19.2603 99.7113 18.9622 99.609 18.7038C99.5074 18.4453 99.3568 18.2428 99.1578 18.0963C98.9582 17.9498 98.7121 17.8765 98.4188 17.8765C98.1133 17.8765 97.8592 17.9539 97.6559 18.1085C97.4539 18.2632 97.3027 18.4708 97.201 18.7312C97.1013 18.9917 97.0511 19.2807 97.0511 19.5982C97.0511 19.9238 97.1019 20.2118 97.2041 20.4621C97.3076 20.7103 97.46 20.9057 97.6615 21.0482C97.8653 21.1885 98.1176 21.2588 98.4188 21.2588Z" fill="#0566AB"/>
<path d="M102.236 21.9791V17.2904H102.932V18.0231H102.993C103.091 17.7728 103.248 17.5784 103.466 17.4401C103.684 17.2996 103.945 17.2294 104.251 17.2294C104.56 17.2294 104.818 17.2996 105.023 17.4401C105.23 17.5784 105.393 17.7728 105.508 18.0231H105.557C105.677 17.7809 105.857 17.5886 106.097 17.4461C106.338 17.3016 106.626 17.2294 106.961 17.2294C107.381 17.2294 107.723 17.3607 107.99 17.6232C108.257 17.8837 108.39 18.2897 108.39 18.8411V21.9791H107.67V18.8411C107.67 18.4952 107.575 18.2479 107.385 18.0994C107.196 17.9508 106.973 17.8765 106.717 17.8765C106.387 17.8765 106.132 17.9763 105.951 18.1757C105.77 18.3731 105.679 18.6234 105.679 18.9266V21.9791H104.947V18.7679C104.947 18.5013 104.86 18.2866 104.687 18.1238C104.514 17.959 104.291 17.8765 104.019 17.8765C103.831 17.8765 103.656 17.9264 103.494 18.0261C103.333 18.1258 103.203 18.2642 103.103 18.4413C103.005 18.6163 102.956 18.8188 102.956 19.0487V21.9791H102.236Z" fill="#0566AB"/>
<path d="M110.252 21.9791V15.7276H110.972V18.0353H111.033C111.086 17.9539 111.159 17.8501 111.253 17.7239C111.348 17.5957 111.485 17.4818 111.662 17.382C111.841 17.2803 112.083 17.2294 112.389 17.2294C112.784 17.2294 113.131 17.3281 113.433 17.5255C113.734 17.7229 113.969 18.0027 114.138 18.3649C114.307 18.7272 114.391 19.1546 114.391 19.647C114.391 20.1436 114.307 20.574 114.138 20.9383C113.969 21.3005 113.735 21.5813 113.436 21.7808C113.136 21.9782 112.792 22.0769 112.401 22.0769C112.1 22.0769 111.858 22.027 111.677 21.9273C111.496 21.8255 111.357 21.7106 111.259 21.5823C111.161 21.4521 111.086 21.3442 111.033 21.2588H110.947V21.9791H110.252ZM110.96 19.6348C110.96 19.9889 111.012 20.3013 111.116 20.572C111.219 20.8405 111.371 21.0512 111.571 21.2038C111.77 21.3544 112.014 21.4297 112.303 21.4297C112.604 21.4297 112.856 21.3504 113.057 21.1916C113.261 21.0308 113.413 20.8151 113.515 20.5445C113.619 20.2718 113.671 19.9686 113.671 19.6348C113.671 19.3052 113.62 19.008 113.518 18.7435C113.418 18.4769 113.267 18.2662 113.063 18.1116C112.862 17.9549 112.608 17.8765 112.303 17.8765C112.01 17.8765 111.764 17.9508 111.565 18.0994C111.365 18.2459 111.214 18.4514 111.113 18.716C111.011 18.9785 110.96 19.2848 110.96 19.6348Z" fill="#0566AB"/>
<path d="M116.66 19.1587V21.9791H115.94V15.7276H116.66V18.0231H116.722C116.831 17.7809 116.996 17.5886 117.216 17.4461C117.438 17.3017 117.733 17.2294 118.101 17.2294C118.421 17.2294 118.7 17.2935 118.94 17.4217C119.181 17.5479 119.367 17.7422 119.499 18.0048C119.633 18.2653 119.701 18.597 119.701 18.9999V21.9791H118.98V19.0488C118.98 18.6763 118.883 18.3884 118.691 18.1849C118.499 17.9793 118.233 17.8765 117.893 17.8765C117.658 17.8765 117.446 17.9264 117.258 18.0261C117.074 18.1259 116.927 18.2714 116.819 18.4627C116.713 18.6539 116.66 18.886 116.66 19.1587Z" fill="#0566AB"/>
<path d="M156.28 0.0630555H149.675C148.973 0.0546337 148.285 0.251417 147.693 0.629209C148.217 0.965437 148.651 1.42528 148.955 1.96826C149.259 2.51124 149.426 3.12072 149.439 3.74306L149.392 8.41386C149.388 9.03816 149.226 9.65133 148.921 10.1959C148.615 10.7405 148.177 11.1988 147.646 11.5277C148.263 11.9273 148.988 12.1252 149.722 12.0938H156.28C156.77 12.1032 157.258 12.0151 157.714 11.8347C158.17 11.6542 158.585 11.385 158.936 11.0427C159.287 10.7003 159.567 10.2917 159.759 9.84039C159.951 9.3891 160.051 8.9042 160.054 8.41386V3.74306C160.051 3.25267 159.951 2.76777 159.759 2.31649C159.567 1.86521 159.287 1.45654 158.936 1.1142C158.585 0.771852 158.17 0.502647 157.714 0.322205C157.258 0.141763 156.77 0.0536755 156.28 0.0630555Z" fill="#7EA2D1"/>
<path d="M147.694 0.633922C147.089 0.247869 146.383 0.0492627 145.665 0.06305H139.06C138.339 0.0695383 137.635 0.282375 137.031 0.676384C137.536 1.01718 137.954 1.47273 138.249 2.00574C138.544 2.53876 138.708 3.1341 138.73 3.74305V8.41379C138.741 9.0291 138.59 9.63639 138.291 10.1747C137.993 10.713 137.559 11.1634 137.031 11.4805C137.653 11.8738 138.372 12.0862 139.107 12.0938H145.618C146.332 12.0861 147.032 11.8909 147.647 11.5277C148.177 11.1988 148.616 10.7405 148.921 10.1959C149.226 9.65133 149.388 9.03816 149.392 8.41379L149.439 3.74305C149.425 3.12152 149.259 2.51299 148.954 1.9709C148.65 1.4288 148.217 0.969705 147.694 0.633922Z" fill="#0066AC"/>
<path d="M137.031 0.680431C136.409 0.285421 135.69 0.0713903 134.955 0.0623779H128.35C127.369 0.0622994 126.428 0.448501 125.73 1.13731C125.033 1.82613 124.635 2.76207 124.622 3.74238V8.46033C124.647 9.44059 125.057 10.3716 125.764 11.0517C126.47 11.7317 127.416 12.1059 128.397 12.0931H134.955C135.69 12.0856 136.409 11.8732 137.031 11.4798C137.558 11.1627 137.993 10.7123 138.291 10.1741C138.589 9.63571 138.74 9.02843 138.729 8.41318V3.7471C138.719 3.13576 138.559 2.53617 138.263 2.00131C137.967 1.46646 137.544 1.01279 137.031 0.680431Z" fill="#00458A"/>
<path d="M149.391 8.41795L149.438 3.74721C149.425 3.12487 149.259 2.51539 148.954 1.97241C148.649 1.42943 148.217 0.969588 147.693 0.633362C147.162 0.96229 146.723 1.42051 146.418 1.9651C146.113 2.50971 145.951 3.12288 145.947 3.74721V8.46516C145.968 9.07409 146.133 9.66944 146.428 10.2025C146.723 10.7355 147.14 11.1911 147.645 11.5318C148.176 11.2029 148.615 10.7447 148.92 10.2001C149.226 9.65548 149.387 9.04232 149.391 8.41795Z" fill="#00539F"/>
<path d="M138.729 8.41927V3.74849C138.72 3.13715 138.56 2.53756 138.263 2.00271C137.967 1.46785 137.543 1.01419 137.03 0.681824C136.518 1.01511 136.096 1.46896 135.799 2.00362C135.503 2.53827 135.343 3.1374 135.332 3.74849V8.46647C135.347 9.07009 135.51 9.66072 135.807 10.187C136.103 10.7133 136.523 11.1593 137.03 11.4859C137.558 11.1688 137.992 10.7185 138.29 10.1801C138.589 9.64186 138.74 9.03452 138.729 8.41927Z" fill="#00327B"/>
</g>
</g>
</g>
<defs>
<clipPath id="clip0_1076_50">
<rect width="159.5" height="24" fill="white" transform="translate(0.666504)"/>
</clipPath>
<clipPath id="clip1_1076_50">
<rect width="159.184" height="23.8776" fill="white" transform="translate(0.870605 0.0610657)"/>
</clipPath>
</defs>
</svg>
