<svg width="204" height="64" viewBox="0 0 204 64" fill="none" xmlns="http://www.w3.org/2000/svg">
<path d="M10.2259 30.4587C9.8926 30.3616 9.5606 30.3124 9.22859 30.3124C8.44648 30.3124 7.81659 30.4987 7.33695 30.8694C6.85798 31.2415 6.61849 31.7395 6.61849 32.3654C6.61849 33.0301 6.84355 33.5432 7.293 33.9047C7.74245 34.2663 8.35856 34.4473 9.14067 34.4473C9.59012 34.4473 9.9615 34.408 10.2548 34.3292V39.4609C10.0009 39.539 9.68329 39.5973 9.30208 39.6374C8.92087 39.6761 8.5344 39.6958 8.14335 39.6958C6.52073 39.6958 5.09429 39.388 3.86207 38.7719C2.63116 38.1565 1.67845 37.3015 1.00395 36.2064C0.328784 35.1114 -0.0078125 33.8312 -0.0078125 32.3654C-0.0078125 30.8983 0.333377 29.6234 1.01773 28.5382C1.70207 27.453 2.66069 26.6079 3.8916 26.0016C5.12382 25.396 6.56009 25.0928 8.20174 25.0928C8.98451 25.0928 9.65901 25.1709 10.2259 25.3271V30.4587Z" fill="#22397E"/>
<path d="M19.5863 45.6186H13.3989L17.7681 36.8513L11.4922 25.3276H18.1789L20.8467 31.0156L23.3394 25.3276H29.2925L19.5863 45.6186Z" fill="#22397E"/>
<path d="M38.6214 34.0509C39.1096 33.6113 39.3543 33.0293 39.3543 32.3063C39.3543 31.6219 39.1581 31.08 38.7677 30.6784C38.376 30.2788 37.8393 30.0774 37.1556 30.0774C36.8623 30.0774 36.5487 30.1273 36.2167 30.2244V34.6815C36.3735 34.7012 36.5198 34.711 36.6563 34.711C37.4771 34.711 38.1319 34.4905 38.6214 34.0509ZM30.5273 19.0878H36.2167V25.0343C36.8426 24.8979 37.4095 24.829 37.918 24.829C39.3838 24.829 40.6594 25.1223 41.744 25.7089C42.8292 26.2948 43.6651 27.1307 44.2511 28.2159C44.8376 29.3012 45.1309 30.5767 45.1309 32.0425C45.1309 33.6455 44.7392 35.0384 43.9578 36.2208C43.1756 37.4038 42.0615 38.3178 40.6148 38.9621C39.1686 39.6077 37.4483 39.9306 35.4543 39.9306C34.7109 39.9306 33.9005 39.8859 33.0207 39.7987C32.1408 39.7101 31.3101 39.5881 30.5273 39.4313V19.0878Z" fill="#22397E"/>
<path d="M55.8877 30.5466C55.6922 29.6674 55.1056 29.2271 54.1279 29.2271C53.561 29.2271 53.0873 29.3983 52.7067 29.7408C52.3255 30.0833 52.0946 30.5571 52.0171 31.1627L55.8877 30.5466ZM55.6233 40.0474C53.7861 40.0474 52.193 39.7252 50.844 39.0796C49.495 38.434 48.4543 37.5259 47.7214 36.3534C46.9885 35.1802 46.6211 33.7925 46.6211 32.1895C46.6211 30.7231 46.9347 29.4325 47.56 28.3183C48.1853 27.2042 49.0554 26.3296 50.1695 25.6938C51.2836 25.0593 52.5644 24.7411 54.0111 24.7411C55.3601 24.7411 56.5478 25.0291 57.5733 25.6065C58.6001 26.1826 59.3967 26.9798 59.9642 27.9962C60.5298 29.0132 60.8139 30.2054 60.8139 31.5734C60.8139 31.8274 60.8093 32.1062 60.7988 32.4087C60.7897 32.7125 60.7654 32.9323 60.7267 33.0681L52.7205 34.2419C53.2487 35.0037 54.3431 35.3849 56.0051 35.3849C56.5911 35.3849 57.2026 35.337 57.8377 35.2393C58.4729 35.1415 59.0837 35.0149 59.671 34.8574V39.4024C59.2012 39.5973 58.5752 39.7541 57.7944 39.8709C57.0123 39.989 56.2886 40.0474 55.6233 40.0474Z" fill="#22397E"/>
<path d="M161.08 30.8766C160.659 30.4468 160.136 30.2316 159.51 30.2316C158.866 30.2316 158.337 30.4468 157.927 30.8766C157.516 31.307 157.312 31.8444 157.312 32.4901C157.312 33.1344 157.516 33.6672 157.927 34.0877C158.337 34.5077 158.866 34.7176 159.51 34.7176C160.136 34.7176 160.659 34.5077 161.08 34.0877C161.5 33.6672 161.71 33.1344 161.71 32.4901C161.71 31.8444 161.5 31.307 161.08 30.8766ZM159.51 40.1426C157.986 40.1426 156.622 39.8151 155.42 39.1603C154.218 38.5061 153.269 37.6007 152.576 36.4479C151.882 35.295 151.535 33.9755 151.535 32.4901C151.535 31.0039 151.882 29.6844 152.576 28.5309C153.269 27.3775 154.218 26.474 155.42 25.8185C156.622 25.1643 157.986 24.8356 159.51 24.8356C161.054 24.8356 162.424 25.1643 163.616 25.8185C164.808 26.474 165.746 27.3775 166.431 28.5309C167.115 29.6844 167.458 31.0039 167.458 32.4901C167.458 33.9755 167.115 35.295 166.431 36.4479C165.746 37.6007 164.808 38.5061 163.616 39.1603C162.424 39.8151 161.054 40.1426 159.51 40.1426Z" fill="#22397E"/>
<path d="M177.896 34.6303V30.2315C177.739 30.1928 177.592 30.1731 177.456 30.1731C176.635 30.1731 175.976 30.3929 175.477 30.8332C174.978 31.2722 174.73 31.864 174.73 32.6067C174.73 33.2714 174.93 33.8094 175.33 34.2195C175.73 34.6303 176.264 34.8356 176.928 34.8356C177.281 34.8356 177.603 34.7674 177.896 34.6303ZM183.585 39.1451C183.585 41.3937 182.851 43.1239 181.386 44.3358C179.92 45.5477 177.818 46.1546 175.081 46.1546C174.455 46.1546 173.771 46.1047 173.029 46.007C172.285 45.9085 171.748 45.7918 171.416 45.6546V40.9928C171.904 41.1109 172.437 41.2034 173.014 41.2716C173.59 41.3399 174.094 41.374 174.524 41.374C176.713 41.374 177.837 40.7192 177.896 39.4095C177.29 39.5263 176.713 39.5854 176.167 39.5854C173.957 39.5854 172.202 38.9699 170.903 37.7377C169.602 36.5068 168.953 34.8356 168.953 32.7235C168.953 31.1403 169.348 29.7624 170.139 28.5892C170.932 27.4167 172.051 26.5126 173.498 25.8768C174.944 25.2423 176.654 24.9247 178.628 24.9247C179.392 24.9247 180.213 24.9733 181.092 25.0704C181.972 25.1688 182.803 25.2954 183.585 25.4522V39.1451Z" fill="#22397E"/>
<path d="M186.058 25.422H191.747V39.5558H186.058V25.422ZM186.688 18.7366C187.265 18.1704 188.003 17.8869 188.902 17.8869C189.802 17.8869 190.539 18.1704 191.117 18.7366C191.693 19.3042 191.982 20.0266 191.982 20.9065C191.982 21.7863 191.693 22.5048 191.117 23.0619C190.539 23.6189 189.802 23.8971 188.902 23.8971C188.003 23.8971 187.265 23.6189 186.688 23.0619C186.112 22.5048 185.824 21.7863 185.824 20.9065C185.824 20.0266 186.112 19.3042 186.688 18.7366Z" fill="#22397E"/>
<path d="M203.945 30.5544C203.611 30.4566 203.279 30.4074 202.947 30.4074C202.165 30.4074 201.535 30.5937 201.056 30.9644C200.577 31.3365 200.337 31.8345 200.337 32.4604C200.337 33.1251 200.562 33.6382 201.012 33.9997C201.461 34.3613 202.077 34.5423 202.859 34.5423C203.309 34.5423 203.68 34.5036 203.974 34.4242V39.5559C203.72 39.634 203.402 39.6923 203.021 39.7324C202.64 39.7711 202.253 39.7908 201.862 39.7908C200.24 39.7908 198.813 39.483 197.581 38.8669C196.35 38.2515 195.397 37.3965 194.723 36.3014C194.048 35.2064 193.711 33.9262 193.711 32.4604C193.711 30.9933 194.052 29.7184 194.736 28.6332C195.421 27.548 196.379 26.7029 197.61 26.0966C198.843 25.491 200.279 25.1878 201.92 25.1878C202.703 25.1878 203.378 25.2666 203.945 25.4221V30.5544Z" fill="#22397E"/>
<path d="M140.185 45.6546V58.3108H68.2206V32.8016C68.2206 31.4093 69.3596 30.267 70.752 30.263H72.3844V25.1878H72.267C70.292 25.2082 68.9437 25.8433 68.2206 27.0939V25.4221H62.5312V58.4617H62.5319V58.6035C62.5319 61.5797 64.9544 64.0002 67.9326 64.0002H140.472C143.45 64.0002 145.873 61.5797 145.873 58.6035V45.6546H140.185Z" fill="#22397E"/>
<path d="M148.401 34.4471C147.012 34.4399 145.872 33.3002 145.872 31.9039V5.39543C145.872 2.41855 143.446 3.05176e-05 140.477 3.05176e-05H67.926C64.9491 3.05176e-05 62.5312 2.41855 62.5312 5.39543V19.1828H68.2206V5.68938H140.183V33.1315C140.183 33.2267 140.19 33.3225 140.198 33.4183C140.198 33.5134 140.205 33.6092 140.212 33.7043C140.227 33.8001 140.235 33.8959 140.249 33.9911C140.256 34.0869 140.271 34.1827 140.286 34.2778C140.308 34.3664 140.323 34.4615 140.345 34.5573C140.345 34.5718 140.352 34.5796 140.352 34.5941C140.367 34.6676 140.382 34.7483 140.403 34.829C140.426 34.9175 140.448 35.0055 140.477 35.1013C140.499 35.1892 140.529 35.2778 140.558 35.3657C140.587 35.4543 140.617 35.5422 140.646 35.6308C140.676 35.7115 140.712 35.7994 140.749 35.888C140.779 35.9687 140.815 36.0566 140.859 36.1379C140.896 36.2187 140.933 36.2994 140.977 36.3873C141.013 36.4686 141.057 36.5493 141.102 36.63C141.146 36.7035 141.19 36.7842 141.234 36.8656C141.278 36.9391 141.33 37.0198 141.374 37.0933C141.425 37.174 141.477 37.2475 141.528 37.321C141.58 37.3945 141.631 37.4679 141.683 37.5414C141.741 37.6149 141.793 37.6812 141.851 37.7547C141.91 37.8209 141.969 37.8944 142.028 37.9607C142.087 38.027 142.145 38.0932 142.204 38.1588C142.271 38.2251 142.329 38.2914 142.395 38.3504C142.454 38.4167 142.521 38.4751 142.587 38.5414C142.652 38.6004 142.719 38.6588 142.792 38.7179C142.859 38.7763 142.925 38.8353 142.998 38.8872C143.065 38.9455 143.138 39.0046 143.212 39.0558C143.285 39.1076 143.358 39.1588 143.432 39.21C143.675 39.372 143.917 39.5046 144.181 39.6069C144.233 39.6365 144.277 39.6515 144.329 39.6732C144.63 39.7834 144.946 39.8648 145.262 39.9304C145.277 39.9304 145.291 39.9383 145.307 39.9383C145.417 39.9599 145.527 39.9822 145.637 39.9967C145.747 40.019 145.865 40.0334 145.975 40.0485H146.005C146.108 40.0557 146.211 40.0702 146.321 40.0853C146.431 40.0925 146.549 40.0997 146.666 40.1069C146.784 40.1141 146.902 40.122 147.026 40.122C147.144 40.1292 147.269 40.1292 147.386 40.1292H150.033V34.4471H148.401Z" fill="#22397E"/>
</svg>
