<svg width="185" height="83" viewBox="0 0 185 83" fill="none" xmlns="http://www.w3.org/2000/svg">
<path d="M29.4414 4.32916V8.66845H21.3979V41.5306L17.2173 41.1602L16.2648 41.5836L15.2593 41.5306V30.3649L15.1535 29.8886L15.3652 29.5711L14.9418 24.8614L14.7302 24.5968L15.2593 23.3268V8.66845H7.26869V2.10659H29.3356V3.32371L29.1768 3.79997L29.4414 4.32916ZM59.7666 9.83265L60.0841 10.0443L59.8724 10.9439V16.3416L55.1627 16.712L55.7977 21.0513L56.0094 21.2101L58.1261 31.0528L57.9674 31.6879L59.7666 40.5252H54.8981L49.2359 16.5533L48.495 16.712H46.8016L45.9549 16.5533L45.3728 16.8178L45.8491 27.8778L45.5316 28.6186L45.8491 29.7828V30.3649L45.6904 30.8412L46.0079 32.6404L45.5316 32.9579L46.0079 33.6458L45.4787 35.6038V38.8318L45.6374 40.2606H40.0281L40.1869 38.5672V20.8925L39.5518 12.6902L39.7635 7.87467V2.21243L39.8694 1.41865H59.4491L59.9253 2.05367L59.7666 2.63577V9.83265ZM54.1043 10.256L54.2102 8.77428L54.1043 7.55716H45.267V10.0443L54.1043 10.256ZM91.0972 37.7205L91.3089 40.5781L91.0972 40.7898H89.933L87.1283 40.3664L86.4404 40.4723L85.3291 39.3081L85.435 37.2972L85.0116 37.0326V36.6093L85.2762 36.3447L84.3237 34.81L84.5883 34.0163L82.8949 34.4396L81.5719 34.3338L77.656 34.4925L77.1268 33.8046L76.5447 35.3392L75.698 38.7789L75.4863 40.631L70.2474 40.1548L72.2583 23.4855L74.5867 11.1556L75.1159 9.51514V7.29257L75.4863 6.86923V5.3346L76.0155 4.32916L76.333 1.89492L83.6887 2.21243L83.9003 4.22332L84.3237 5.59919L84.8529 6.65755L85.1175 6.86923V9.03887L85.7525 10.0972L85.6466 11.2614L86.0171 11.2085L87.1283 16.6591L87.6046 17.2941L88.2925 21.3688L88.9805 23.9089L88.8217 24.3322L89.8801 28.3011L90.1976 30.2062L90.3034 32.0583L90.8326 33.0637V33.3283L90.568 33.7517L90.7797 34.3338L91.0972 37.7205ZM83.4241 27.719L80.9369 11.7906H80.3019L78.926 24.3322H79.4023V24.6497L78.5556 26.5019L78.0793 28.1953L79.1906 27.9836L83.4241 27.719ZM112.442 2.15951L117.946 1.73616L115.141 22.533L114.823 22.9564L113.236 29.677V31.4233L111.172 41.0544H102.97L102.864 39.0435L102.176 35.0217L101.594 33.0637L101.858 32.6933L99.3712 19.0933L99.4241 18.5112L98.207 11.4731L98.3129 9.93848L97.2545 4.91125L96.9899 2.00075H101.541L107.15 34.5984L109.161 21.4747L112.442 4.22332V2.15951ZM147.216 35.4451V40.9485L145.152 40.8427L144.358 41.0015L143.882 40.684L141.818 41.0015H128.589V38.6201L128.165 36.768V2.21243L127.689 2.00075H145.734L146.846 2.4241V8.03343L145.999 7.663H135.839L133.669 7.76884L133.351 8.08635V11.7906L133.616 13.8015V17.4529L134.039 17.8233H139.331L142.771 17.4529L142.877 19.7284L142.665 19.94L142.93 23.6972H133.351L133.986 27.1369V31.4762L133.828 33.1696L134.039 35.4451H147.216ZM174.561 32.9579V40.3135H155.669V2.37118L155.246 1.73616H161.385L162.02 14.4365V25.2848L161.649 33.6988L162.073 34.0692L174.561 32.9579Z" fill="white"/>
<path fill-rule="evenodd" clip-rule="evenodd" d="M180.76 49.5333H4.49874L0.442383 54.6294L8.93049 52.9482L3.1707 57.0348L0.442383 67.1373L8.93049 61.3645L0.442383 70.9859L8.3242 69.0616L2.56441 75.3156L7.71791 78.6831L4.00882 82.6072H180.572L183.218 79.581H175.64L181.399 75.3163L184.128 65.2138L175.64 70.9867L184.128 61.3652L176.246 63.2895L182.006 57.0355L176.852 53.668L180.76 49.5333Z" fill="#FA6400"/>
<g filter="url(#filter0_d_1144_5961)">
<path d="M28.2993 57.9379H30.964L30.8148 58.9185V73.4572H24.3129L22.5862 73.5851V71.2828L22.5009 71.027L22.7567 69.2363V57.9379H24.8672V64.9515L25.123 68.1065L25.0377 68.2131L24.8672 71.2402H28.1075L28.2993 70.9844V57.9379ZM46.9539 67.403L46.9752 67.9999L46.9113 68.0852V71.3681L46.7408 71.432V72.6258L46.826 73.244H44.9501L41.0916 63.4805V73.1801H39.0024L38.7679 71.8371L38.8958 71.7092L38.5334 67.8933L38.64 67.4669V58.3856L38.5334 57.7461H40.1749L40.2815 57.6395L40.5373 57.7461L41.0276 57.6395L41.454 59.3236L41.7524 59.622L42.4133 61.3488L42.6477 61.4767L42.5412 61.6046L42.9036 62.3294L42.8396 62.4573L44.5877 66.8487L44.7582 67.0832V65.9747L44.3958 62.2654L44.5024 62.1375V60.1123L44.3318 60.0057L44.5024 59.8565V57.7461H46.7408V62.9263L46.9113 63.0968L46.7834 63.4166L46.9539 63.6724V67.403ZM57.087 58.7054V59.0251L57.0656 59.2809L56.5327 61.5619L54.7846 61.3914L54.2304 58.5988V58.3856L54.5501 57.8953L54.9978 57.4689L55.5094 57.1918H55.9997L56.4901 57.5116L56.8738 58.0445L57.087 58.7054ZM72.0984 66.6142V72.9882L71.9492 73.1375L70.0519 72.9669H65.426L64.5306 73.0096L64.4027 72.0929L64.2322 70.0038V68.2131L64.1469 67.7867L64.2535 66.6782L64.1256 66.2945V64.248L64.3387 63.5232V61.434L64.0829 61.1356L64.2322 61.0077V57.4263H71.2457L71.6294 57.3623L72.0131 57.7247L71.8852 58.215V64.0348L71.331 63.9495L70.9472 63.7577L70.7554 63.779L70.6488 63.6084L70.2651 63.715H70.0306L69.5829 63.5871V60.8798L69.6682 60.5174V59.5581H66.3426V60.6879L66.6411 63.8003L66.5132 64.0987V68.8526L66.4066 68.9592L66.5771 69.1297L66.4492 69.4921V69.8545L66.5771 69.9185L66.5132 70.7712L67.2166 70.8778H69.9453V67.1685L72.0984 66.6142ZM88.787 73.4146H85.5253L85.7598 73.0948L85.8664 72.6258L85.4401 66.4863H82.8819L82.6261 66.6782L82.9033 73.5638L82.5195 73.4146H80.2385L79.6417 62.7557V57.2344H82.3064L82.7114 63.6724H85.6533L85.8451 63.3953V62.8623L85.6106 61.4553V57.9592L85.5253 57.1492L86.3994 57.1918L88.1261 57.0426L88.254 57.341L88.2114 57.874L88.4459 60.3255L88.7017 65.8894V70.1317L88.5951 72.7324L88.7443 73.0735L88.787 73.4146ZM104.213 72.1995L104.298 73.3506L104.213 73.4359H103.744L102.614 73.2654L102.337 73.308L101.889 72.839L101.932 72.0289L101.762 71.9223V71.7518L101.868 71.6452L101.484 71.027L101.591 70.7072L100.909 70.8778L100.376 70.8351L98.7984 70.8991L98.5852 70.622L98.3507 71.2402L98.0096 72.6258L97.9244 73.372L95.8139 73.1801L96.624 66.465L97.562 61.498L97.7752 60.8371V59.9418L97.9244 59.7712V59.153L98.1376 58.748L98.2655 57.7674L101.229 57.8953L101.314 58.7054L101.484 59.2596L101.698 59.686L101.804 59.7712V60.6453L102.06 61.0716L102.017 61.5406L102.167 61.5193L102.614 63.715L102.806 63.9708L103.083 65.6123L103.36 66.6356L103.296 66.8061L103.723 68.4049L103.851 69.1724L103.893 69.9185L104.107 70.3235V70.4301L104 70.6006L104.085 70.8351L104.213 72.1995ZM101.122 68.1704L100.12 61.7538H99.8643L99.31 66.8061H99.5019V66.934L99.1608 67.6801L98.9689 68.3623L99.4166 68.277L101.122 68.1704ZM111.986 57.7887H114.544V71.4534L114.353 73.713L111.773 73.372V58.0658L111.581 58.0019L111.986 57.7887ZM130.879 62.9263L131.093 67.0193L131.178 67.1045L131.071 67.4243L131.135 67.4883L131.007 69.6414L131.157 69.8758L131.007 69.9398V70.1743L131.178 70.2596L131.007 70.4727L130.901 70.8991L130.816 73.3293H128.385L128.257 73.0735L128.321 72.8816L127.533 71.2402L126.445 68.7034L125.273 65.6549L124.825 64.2266V65.7189L124.953 66.0173L124.847 66.6356L125.017 67.9146L124.996 68.0852L125.06 68.2344L124.889 73.0735L124.527 73.1801H123.695L123.589 73.0735L123.418 73.1375H122.949L122.63 73.0735L122.267 62.9902V60.0057L122.523 57.6395L123.056 57.7461H124.143L124.505 57.6181L126.104 61.1569L126.232 61.2422L126.19 61.3274L126.424 61.8391L126.445 62.0949L127.17 63.6084L128.343 66.998L128.449 67.1045L128.066 58.1937L128.257 57.6821H130.496L130.752 60.3468V60.965L130.922 62.5639L131.007 62.6491V62.8623L130.879 62.9263ZM146.331 69.7693L146.076 71.8797L146.14 72.8177H138.721L138.38 65.8042V60.6239L138.103 60.1763L138.273 59.9631V57.5968H145.692L145.777 57.8526V58.8546L145.713 59.0678L145.969 60.1763H144.477L140.81 60.3681L140.64 60.4747L140.618 60.8584L140.384 60.9864L140.64 63.715L141.961 63.6298L142.729 63.715L144.157 64.0135V64.8875L144.008 65.4844L144.157 65.7828V66.2305L140.64 66.4224L140.554 66.6356L140.448 67.3817V67.9786L140.554 68.1917V70.0464L140.81 70.1743H144.285L144.797 70.0251L146.331 69.7693ZM161.719 59.7712V71.6026L161.548 71.7518L160.887 72.6258L160.418 73.372L158.713 73.2867H153.128L153.256 73.2014V71.965L153.128 70.8778L153.277 70.8991L153.533 70.8138L153.831 70.9844L154.556 70.9417V60.4108L154.449 59.9418L153.149 60.0484L153 59.9844L153.085 59.7499V58.5135L153 57.3837L160.227 57.7674L160.61 58.3856L161.719 59.7712ZM158.265 71.1123L159.48 71.027L159.182 67.2964L159.054 66.4224L159.246 66.3584L159.011 64.2266V62.7131L159.225 59.9205H156.752L156.901 61.2635V71.1123H158.265Z" fill="white"/>
</g>
<defs>
<filter id="filter0_d_1144_5961" x="22.501" y="57.0425" width="139.218" height="18.5604" filterUnits="userSpaceOnUse" color-interpolation-filters="sRGB">
<feFlood flood-opacity="0" result="BackgroundImageFix"/>
<feColorMatrix in="SourceAlpha" type="matrix" values="0 0 0 0 0 0 0 0 0 0 0 0 0 0 0 0 0 0 127 0" result="hardAlpha"/>
<feOffset dy="1.88994"/>
<feComposite in2="hardAlpha" operator="out"/>
<feColorMatrix type="matrix" values="0 0 0 0 0 0 0 0 0 0 0 0 0 0 0 0 0 0 0.63 0"/>
<feBlend mode="normal" in2="BackgroundImageFix" result="effect1_dropShadow_1144_5961"/>
<feBlend mode="normal" in="SourceGraphic" in2="effect1_dropShadow_1144_5961" result="shape"/>
</filter>
</defs>
</svg>
