<svg width="255" height="114" viewBox="0 0 255 114" fill="none" xmlns="http://www.w3.org/2000/svg">
<g filter="url(#filter0_d_272_2833)">
<path d="M42.6469 4.81192L42.2811 4.08049L42.5006 3.42221V1.73992H12V10.8096H23.0446V31.0702L22.3131 32.8256L22.6057 33.1913L23.1909 39.7011L22.8983 40.1399L23.0446 40.7982V56.2314L24.4343 56.3045L25.7509 55.7194L31.5291 56.2314V10.8096H42.6469V4.81192Z" fill="white"/>
<path d="M84.5619 12.4188V2.47135L84.7814 1.66677L84.1231 0.789062H57.0602L56.9139 1.8862V9.71249L56.6214 16.3685L57.4991 27.7056V52.1354L57.2796 54.4759H65.0328L64.8134 52.5011V48.0394L65.5448 45.3331L64.8865 44.3822L65.5448 43.9434L65.1059 41.4565L65.3254 40.7982V39.9936L64.8865 38.3845L65.3254 37.3605L64.6671 22.0736L65.4716 21.7079L66.6419 21.9273H68.9825L70.0065 21.7079L77.8328 54.8416H84.5619L82.0751 42.6268L82.2945 41.7491L79.3688 28.1445L79.0762 27.9251L78.1985 21.9273L84.7082 21.4153V13.9548L85.0008 12.7113L84.5619 12.4188ZM76.7356 13.0039L64.5208 12.7113V9.27363H76.7356L76.8819 10.9559L76.7356 13.0039Z" fill="white"/>
<path d="M127.867 50.9651L127.428 46.2839L127.135 45.4794L127.501 44.8942V44.5285L126.77 43.1388L126.623 40.5788L126.184 37.9456L124.722 32.4599L124.941 31.8748L123.99 28.3639L123.039 22.7319L122.381 21.8542L120.845 14.3205L120.333 14.3936L120.479 12.7845L119.602 11.3216V8.32277L119.236 8.0302L118.504 6.56735L117.919 4.66563L117.627 1.8862L107.46 1.44735L107.021 4.81192L106.29 6.20163V8.32277L105.778 8.90792V11.9799L105.046 14.2473L101.828 31.2896L99.0484 54.3296L106.29 54.9879L106.582 52.4279L107.752 47.6736L108.557 45.5525L109.288 46.5034L114.701 46.2839L116.53 46.4302L118.87 45.8451L118.504 46.9422L119.821 49.0634L119.455 49.4291V50.0142L120.04 50.3799L119.894 53.1594L121.43 54.7685L122.381 54.6222L126.258 55.2074H127.867L128.159 54.9148L127.867 50.9651ZM117.261 37.1411L111.41 37.5068L109.874 37.7994L110.532 35.4588L111.702 32.8988V32.4599H111.044L112.946 15.1251H113.823L117.261 37.1411Z" fill="white"/>
<path d="M157.369 1.81306V4.66563L152.834 28.5102L150.055 46.6496L142.302 1.59363H136.012L136.377 5.61649L137.84 12.5651L137.694 14.6862L139.376 24.4142L139.303 25.2188L142.741 44.0165L142.375 44.5285L143.18 47.2348L144.13 52.7936L144.277 55.5731H155.614L158.466 42.2611V39.8474L160.661 30.5582L161.1 29.9731L164.976 1.22792L157.369 1.81306Z" fill="white"/>
<path d="M205.433 47.8199H187.221L186.928 44.6748L187.148 42.3342V36.3365L186.27 31.5822H199.509L199.143 26.3891L199.436 26.0965L199.289 22.9513L194.535 23.4633H187.221L186.636 22.9513V17.9045L186.27 15.1251V10.0051L186.709 9.56621L189.708 9.41992H203.751L204.921 9.93192V2.17878L203.385 1.59363H178.444L179.102 1.8862V49.6485L179.687 52.2085V55.4999H197.973L200.825 55.0611L201.484 55.4999L202.581 55.2805L205.433 55.4268V47.8199Z" fill="white"/>
<path d="M243.23 44.3822L225.968 45.9182L225.383 45.4062L225.895 33.7765V18.7822L225.017 1.22792H216.533L217.118 2.10563V54.5491H243.23V44.3822Z" fill="white"/>
</g>
<path fill-rule="evenodd" clip-rule="evenodd" d="M250.196 67.7864H6.56707L0.959961 74.8307L12.6921 72.507L4.73101 78.1554L0.959961 92.119L12.6921 84.1398L0.959961 97.4385L11.8541 94.7788L3.893 103.423L11.0161 108.077L5.89001 113.501H249.936L253.594 109.317H243.119L251.08 103.423L254.851 89.4591L243.119 97.4383L254.851 84.1396L243.957 86.7993L251.918 78.1552L244.795 73.5006L250.196 67.7864Z" fill="#FA6400"/>
<g filter="url(#filter1_d_272_2833)">
<path d="M37.6125 79.7574V97.79L37.3473 98.1436H32.8687L33.1044 93.9596L33.2222 93.8123L32.8687 89.4514V79.7574H29.9516V95.3739L29.598 97.849L29.7159 98.2026V101.385L32.1026 101.208H41.0894V81.1128L41.2957 79.7574H37.6125ZM56.5405 92.8399V87.6835L56.3047 87.3299L56.4815 86.888L56.2458 86.6522V79.4922H53.152V82.4093L52.9162 82.6155L53.152 82.7628V85.562L53.0046 85.7388L53.5056 90.8657V92.3979L53.2698 92.0738L50.8537 86.004L50.9421 85.8272L50.4412 84.8254L50.5885 84.6486L50.2644 84.4718L49.351 82.0851L48.9385 81.6726L48.3492 79.3449L47.6715 79.4922L47.3179 79.3449L47.1706 79.4922H44.9017L45.0491 80.3762V92.9283L44.9017 93.5176L45.4026 98.7919L45.2259 98.9686L45.55 100.825H48.4376V87.4183L53.7707 100.913H56.3637L56.2458 100.059V98.4088L56.4815 98.3204V93.7828L56.5699 93.6649L56.5405 92.8399ZM63.6899 80.8181L63.3953 79.9047L62.8649 79.1681L62.1872 78.7261H61.5095L60.8024 79.1092L60.1836 79.6985L59.7416 80.3762V80.6708L60.5077 84.5307L62.9238 84.7665L63.6605 81.6137L63.6899 81.2601V80.8181ZM77.5823 91.7497L74.6063 92.5158V97.6427H70.8348L69.8625 97.4954L69.9509 96.3168L69.7741 96.2284V95.7275L69.9509 95.2266L69.7151 94.9909L69.8625 94.8435V88.2728L70.0393 87.8603L69.6267 83.5584V81.9967H74.2233V83.3227L74.1054 83.8236V87.5656L74.7242 87.7424H75.0483L75.5787 87.5951L75.726 87.8308L75.9912 87.8014L76.5216 88.0666L77.2877 88.1844V80.1404L77.4645 79.4627L76.9341 78.9618L76.4037 79.0502H66.7097V84.0004L66.5034 84.1772L66.857 84.5897V87.4773L66.5624 88.4791V91.3077L66.7392 91.8381L66.5918 93.3703L66.7097 93.9596V96.4346L66.9454 99.3222L67.1222 100.589L68.3597 100.53H74.7537L77.3761 100.766L77.5823 100.56V91.7497ZM93.7928 101.149L93.7338 100.678L93.5276 100.206L93.6749 96.6114V90.7479L93.3213 83.0575L92.9972 79.669L93.0562 78.9324L92.8794 78.5199L90.4927 78.7261L89.2846 78.6672L89.4025 79.7869V84.6191L89.7266 86.5638V87.3005L89.4614 87.6835H85.3952L84.8354 78.785H81.1523V86.4165L81.9773 101.149H85.13L85.6604 101.355L85.2774 91.8381L85.6309 91.5729H89.1668L89.7561 100.059L89.6087 100.707L89.2846 101.149H93.7928ZM108.258 99.4696L108.082 97.5838L107.964 97.2597L108.111 97.0239V96.8766L107.816 96.3168L107.757 95.2855L107.581 94.2248L106.991 92.0149L107.08 91.7792L106.697 90.3648L106.314 88.096L106.048 87.7424L105.43 84.7075L105.223 84.737L105.282 84.0888L104.929 83.4995V82.2914L104.781 82.1735L104.487 81.5842L104.251 80.8181L104.133 79.6985L100.038 79.5217L99.8608 80.8771L99.5661 81.4369V82.2914L99.3599 82.5271V83.7647L99.0652 84.6781L97.7688 91.5434L96.6491 100.825L99.5661 101.09L99.684 100.059L100.155 98.1436L100.48 97.2891L100.774 97.6722L102.955 97.5838L103.691 97.6427L104.634 97.407L104.487 97.849L105.017 98.7035L104.87 98.8508V99.0865L105.106 99.2338L105.047 100.354L105.665 101.002L106.048 100.943L107.61 101.179H108.258L108.376 101.061L108.258 99.4696ZM103.986 93.9006L101.629 94.048L101.01 94.1658L101.275 93.2229L101.747 92.1917V92.0149H101.481L102.247 85.0316H102.601L103.986 93.9006ZM112.146 79.5511L111.586 79.8458L111.852 79.9342V101.09L115.417 101.562L115.682 98.4383V79.5511H112.146ZM131.404 86.6522L131.581 86.5638V86.2692L131.463 86.1513L131.227 83.9414V83.087L130.873 79.4038H127.78L127.514 80.111L128.045 92.4274L127.897 92.2801L126.277 87.5951L125.275 85.5031L125.246 85.1495L124.921 84.4423L124.98 84.3245L124.804 84.2066L122.594 79.3154L122.093 79.4922H120.59L119.853 79.3449L119.5 82.6155V86.7406L120.001 100.678L120.443 100.766H121.091L121.327 100.678L121.474 100.825H122.623L123.124 100.678L123.36 93.989L123.271 93.7828L123.301 93.5471L123.065 91.7792L123.212 90.9247L123.036 90.5122V88.4496L123.654 90.4238L125.275 94.6373L126.778 98.1436L127.868 100.412L127.78 100.678L127.956 101.031H131.315L131.433 97.6722L131.581 97.0829L131.816 96.7882L131.581 96.6704V96.3462L131.787 96.2579L131.581 95.9337L131.757 92.9578L131.669 92.8694L131.816 92.4274L131.698 92.3095L131.404 86.6522ZM145.905 96.1105L143.784 96.4641L143.076 96.6704H138.274L137.92 96.4936V93.9301L137.773 93.6355V92.8104L137.92 91.7792L138.038 91.4845L142.9 91.2193V90.6006L142.693 90.188L142.9 89.363V88.155L140.925 87.7424L139.865 87.6246L138.038 87.7424L137.684 83.9709L138.008 83.7941L138.038 83.2637L138.274 83.1164L143.342 82.8512H145.404L145.051 81.319L145.139 81.0244V79.6395L145.021 79.286H134.767V82.5566L134.531 82.8512L134.915 83.47V90.63L135.386 100.324H145.64L145.551 99.0276L145.905 96.1105ZM160.317 82.2914L158.785 80.3762L158.254 79.5217L148.266 78.9913L148.384 80.553V82.2619L148.266 82.586L148.472 82.6744L150.269 82.5271L150.417 83.1753V97.7311L149.415 97.79L149.002 97.5543L148.649 97.6722L148.442 97.6427L148.619 99.1454V100.854L148.442 100.972H156.162L158.52 101.09L159.168 100.059L160.081 98.8508L160.317 98.6445V82.2914ZM155.544 97.9668H153.658V84.354L153.452 82.4977H156.87L156.575 86.3576V88.4496L156.899 91.3961L156.634 91.4845L156.811 92.6926L157.223 97.849L155.544 97.9668ZM182.954 100.589L182.571 99.8526V97.3775H177.12L176.972 97.2597L176.913 96.9945L178.357 95.9043L178.946 95.315L179.182 95.2855L181.51 93.8123L182.482 93.1051L182.335 89.8934V85.8272L182.482 85.4442L182.129 85.2674V85.0022L182.246 84.6191V81.2307L181.392 80.2878L180.596 79.5511L180.361 79.4922L180.037 79.6101L177.591 79.4627L177.061 79.6101H174.527L173.201 79.4627L172.022 81.4664L171.845 81.5842L171.963 82.3209V84.9138L172.346 93.2524L173.937 92.8399L175.204 92.6336H175.705V90.9247L175.587 90.6006L175.735 90.0113V89.363L175.352 86.446V84.737L175.469 83.2048L175.911 82.9986H178.534L179.094 83.5289V87.4773L179.329 90.5416L176.294 93.8712L172.582 96.7882V100.589H182.954ZM197.472 98.9981L197.06 95.9632V81.8494L195.115 79.5511H187.454V79.8163L187.101 80.4056L186.069 81.5842V82.7334L186.482 89.7166V99.3517L186.894 99.6758L187.69 100.501L187.749 100.236L188.161 101.296H195.704L197.472 98.9981ZM189.34 98.0258L189.369 97.9079L189.104 96.8766V89.3336L188.986 86.6522V83.6763L188.869 82.7923L191.019 82.6744H194.113V89.1568L194.261 91.7792L194.437 92.1327L194.762 98.0258H189.34ZM211.406 100.589L211.023 99.8526V97.3775H205.572L205.424 97.2597L205.365 96.9945L206.809 95.9043L207.398 95.315L207.634 95.2855L209.962 93.8123L210.934 93.1051L210.787 89.8934V85.8272L210.934 85.4442L210.581 85.2674V85.0022L210.699 84.6191V81.2307L209.844 80.2878L209.048 79.5511L208.813 79.4922L208.489 79.6101L206.043 79.4627L205.513 79.6101H202.979L201.653 79.4627L200.474 81.4664L200.297 81.5842L200.415 82.3209V84.9138L200.798 93.2524L202.389 92.8399L203.656 92.6336H204.157V90.9247L204.039 90.6006L204.187 90.0113V89.363L203.804 86.446V84.737L203.922 83.2048L204.364 82.9986H206.986L207.546 83.5289V87.4773L207.781 90.5416L204.747 93.8712L201.034 96.7882V100.589H211.406ZM225.659 97.9374L225.512 96.8472L225.571 96.2284L225.512 95.9927L225.63 95.4918V94.1658L225.394 93.6944V90.9541L224.245 90.2764L223.685 89.3925L225.394 88.3023L225.011 83.2637L225.129 81.2307L224.893 81.2012L223.715 80.1994L223.273 79.6985H215.7L214.345 81.6432L214.61 82.4093V87.2121L216.82 86.5933H217.88L217.763 85.9745V83.5289L217.527 83.2637L217.822 82.9102L217.88 82.6744H221.505L221.829 83.028L222.212 87.7719L221.858 88.2139L219.295 88.4791H218.44L217.615 88.2139V91.8676L218.882 91.514H221.623L222.212 91.8676L222.477 94.431V97.9374L220.444 98.0552H218.499L218.028 97.2302V96.8766L218.116 96.6704V95.5507L217.969 95.1382L218.116 93.7533L215.022 93.3997V99.116L216.879 100.884H218.234L219.707 100.707H223.243L224.127 100.884L225.188 99.499L225.659 98.5856V97.9374Z" fill="white"/>
</g>
<defs>
<filter id="filter0_d_272_2833" x="12" y="0.789062" width="231.229" height="58.1276" filterUnits="userSpaceOnUse" color-interpolation-filters="sRGB">
<feFlood flood-opacity="0" result="BackgroundImageFix"/>
<feColorMatrix in="SourceAlpha" type="matrix" values="0 0 0 0 0 0 0 0 0 0 0 0 0 0 0 0 0 0 127 0" result="hardAlpha"/>
<feOffset dy="2.61224"/>
<feComposite in2="hardAlpha" operator="out"/>
<feColorMatrix type="matrix" values="0 0 0 0 0 0 0 0 0 0 0 0 0 0 0 0 0 0 0.33 0"/>
<feBlend mode="normal" in2="BackgroundImageFix" result="effect1_dropShadow_272_2833"/>
<feBlend mode="normal" in="SourceGraphic" in2="effect1_dropShadow_272_2833" result="shape"/>
</filter>
<filter id="filter1_d_272_2833" x="29.5977" y="78.5198" width="196.062" height="25.654" filterUnits="userSpaceOnUse" color-interpolation-filters="sRGB">
<feFlood flood-opacity="0" result="BackgroundImageFix"/>
<feColorMatrix in="SourceAlpha" type="matrix" values="0 0 0 0 0 0 0 0 0 0 0 0 0 0 0 0 0 0 127 0" result="hardAlpha"/>
<feOffset dy="2.61224"/>
<feComposite in2="hardAlpha" operator="out"/>
<feColorMatrix type="matrix" values="0 0 0 0 0 0 0 0 0 0 0 0 0 0 0 0 0 0 0.63 0"/>
<feBlend mode="normal" in2="BackgroundImageFix" result="effect1_dropShadow_272_2833"/>
<feBlend mode="normal" in="SourceGraphic" in2="effect1_dropShadow_272_2833" result="shape"/>
</filter>
</defs>
</svg>
