<svg xmlns="http://www.w3.org/2000/svg" fill="none" viewBox="0 0 487 245"><path fill="#fff" d="M77.65 36.1v11.47H56.39v86.83l-11.04-.98-2.52 1.12-2.66-.14v-29.5l-.28-1.26.56-.84-1.11-12.45-.56-.7 1.4-3.35V47.57H19.05V30.23h58.3v3.21l-.41 1.26.7 1.4Zm80.13 14.54.84.56-.56 2.38v14.26l-12.45.98 1.68 11.47.56.42 5.6 26-.43 1.68 4.76 23.35H144.9L129.95 68.4l-1.96.42h-4.47l-2.24-.42-1.54.7L121 98.32l-.84 1.96.84 3.08v1.53l-.42 1.26.84 4.76-1.26.84 1.26 1.81-1.4 5.18v8.53l.42 3.77h-14.82l.42-4.47v-46.7l-1.68-21.68.56-12.72V30.5l.28-2.1h51.74l1.26 1.68-.42 1.54v19.01Zm-14.97 1.12.28-3.91-.28-3.22h-23.35v6.57l23.36.56Zm97.75 72.57.56 7.55-.56.56h-3.07l-7.42-1.12-1.81.28-2.94-3.07.28-5.32-1.12-.7v-1.12l.7-.7-2.52-4.05.7-2.1-4.47 1.12-3.5-.28-10.34.42-1.4-1.82-1.54 4.06-2.24 9.09-.56 4.9-13.84-1.27 5.31-44.04 6.16-32.58 1.4-4.34v-5.87l.97-1.12v-4.05l1.4-2.66.84-6.43 19.44.84.55 5.31 1.12 3.64 1.4 2.8.7.55v5.74l1.68 2.8-.28 3.07.98-.14 2.93 14.4 1.26 1.68 1.82 10.76 1.82 6.72-.42 1.11 2.8 10.5.83 5.03.28 4.89 1.4 2.66v.7l-.7 1.11.56 1.54.84 8.95ZM220.3 97.9l-6.57-42.08h-1.68l-3.64 33.13h1.26v.84l-2.24 4.9-1.26 4.47 2.94-.56 11.19-.7Zm76.67-67.53 14.54-1.12-7.4 54.95-.85 1.12-4.2 17.76v4.61l-5.44 25.45h-21.68l-.28-5.31-1.82-10.63-1.53-5.17.7-.98-6.58-35.94.14-1.54-3.21-18.6.28-4.05-2.8-13.28-.7-7.7h12.03l14.82 86.14 5.31-34.68 8.67-45.58v-5.45Zm91.88 87.95v14.54l-5.45-.28-2.1.42-1.25-.84-5.46.84h-34.95v-6.3l-1.12-4.89v-91.3l-1.26-.56h47.68l2.94 1.12v14.82l-2.24-.98h-26.85l-5.73.28-.84.84v9.79l.7 5.31v9.65l1.12.98H368l9.09-.98.28 6.01-.56.56.7 9.93H352.2l1.68 9.09v11.46l-.42 4.48.56 6h34.81Zm72.26-6.57v19.43h-49.92V30.93l-1.12-1.68h16.22l1.68 33.56v28.66l-.98 22.23 1.12.98 33-2.93Z"/><path fill="#FA6400" fill-rule="evenodd" d="M477.48 157.3H11.73L1 170.78l22.43-4.44-15.22 10.8L1 203.83l22.43-15.26L1 213.99l20.82-5.08-15.22 16.52 13.62 8.9-9.8 10.37h466.55l7-8h-20.03l15.22-11.27 7.2-26.7L463.95 214l22.43-25.42-20.83 5.08 15.22-16.52-13.62-8.9 10.33-10.92Z" clip-rule="evenodd"/><g filter="url(#a)"><path fill="#fff" d="M74.84 180.66h7.04l-.4 2.6v38.41H64.31l-4.57.34v-6.08l-.22-.68.67-4.73v-29.86h5.58v18.53l.68 8.34-.23.28-.45 8h8.56l.5-.67v-34.48Zm49.29 25.01.06 1.58-.17.22v8.68l-.45.17v3.15l.22 1.64h-4.96l-10.2-25.8v25.63h-5.51l-.62-3.55.34-.34-.96-10.08.28-1.13v-24l-.28-1.68h4.34l.28-.28.67.28 1.3-.28 1.13 4.44.79.8 1.74 4.56.62.33-.28.34.96 1.92-.17.33 4.62 11.6.45.63v-2.93l-.96-9.8.28-.34v-5.35l-.45-.28.45-.4v-5.57h5.92v13.68l.45.45-.34.85.45.68v9.85Zm26.77-22.98v.85l-.05.67-1.41 6.03-4.62-.45-1.46-7.38v-.56l.84-1.3 1.18-1.13 1.36-.73h1.3l1.29.85 1.01 1.4.56 1.75Zm39.67 20.9v16.84l-.4.4-5-.46h-12.23l-2.37.12-.33-2.43-.46-5.52v-4.73l-.22-1.12.28-2.93-.34-1.02v-5.4l.57-1.92v-5.52l-.68-.79.4-.34v-9.46h18.53l1.01-.17 1.01.96-.33 1.3v15.37l-1.47-.22-1.01-.5-.51.05-.28-.45-1.02.28h-.62l-1.18-.34v-7.15l.23-.96v-2.54h-8.79v2.99l.79 8.22-.34.8v12.55l-.28.28.45.46-.34.95v.96l.34.17-.17 2.25 1.86.28h7.21v-9.8l5.69-1.46Zm44.1 17.97h-8.62l.62-.85.28-1.24-1.13-16.22h-6.76l-.67.5.73 18.2-1.02-.4h-6.02l-1.58-28.16V178.8h7.04l1.07 17.01h7.77l.51-.73v-1.4l-.62-3.72v-9.24l-.22-2.14 2.3.11 4.57-.4.34.8-.12 1.4.62 6.48.68 14.7v11.21l-.28 6.88.4.9.1.9Zm40.76-3.21.22 3.04-.22.22h-1.24l-2.99-.45-.73.12-1.18-1.24.1-2.14-.44-.29v-.45l.28-.28-1.01-1.63.28-.85-1.8.45-1.41-.1-4.17.16-.56-.73-.62 1.63-.9 3.66-.23 1.97-5.58-.5 2.14-17.75 2.48-13.12.56-1.75v-2.36l.4-.45v-1.64l.56-1.07.34-2.59 7.83.34.22 2.14.46 1.47.56 1.12.28.23v2.3l.68 1.13-.12 1.24.4-.05 1.18 5.8.5.67.74 4.34.73 2.7-.17.46 1.13 4.22.34 2.03.11 1.97.56 1.07v.28l-.28.45.23.62.34 3.6Zm-8.17-10.65-2.65-16.95h-.68l-1.46 13.35h.5v.33l-.9 1.97-.5 1.8 1.18-.22 4.5-.28Zm28.7-27.43h6.77v36.1l-.51 5.98-6.82-.9V181l-.5-.17 1.06-.56Zm49.93 13.57.56 10.82.23.22-.29.85.17.17-.33 5.69.39.62-.4.17v.62l.45.22-.44.56-.29 1.13-.22 6.42h-6.42l-.34-.67.17-.51-2.09-4.34-2.87-6.7-3.1-8.06-1.18-3.77v3.94l.34.8-.28 1.63.45 3.38-.06.44.17.4-.45 12.79-.96.28h-2.2l-.28-.28-.45.16h-1.24l-.84-.16-.96-26.65v-7.88l.68-6.25 1.4.28h2.88l.95-.34 4.23 9.35.34.22-.12.23.62 1.35.06.68 1.91 4 3.1 8.95.28.28-1-23.54.5-1.35h5.91l.68 7.04v1.63l.45 4.23.23.22v.56l-.34.17Zm40.82 18.09-.67 5.57.17 2.48h-19.6l-.9-18.53v-13.69l-.74-1.18.45-.57v-6.25h19.6l.23.68v2.65l-.17.56.68 2.93h-3.94l-9.7.5-.44.29-.06 1.01-.62.34.68 7.2 3.49-.22 2.03.23 3.77.79v2.3l-.4 1.58.4.8v1.17l-9.3.51-.22.56-.28 1.98v1.57l.28.57v4.9l.68.34h9.18l1.35-.4 4.05-.67Zm40.66-26.42v31.26l-.45.4-1.74 2.3-1.24 1.97-4.5-.22h-14.77l.34-.23v-3.26l-.34-2.88.4.06.67-.22.8.45 1.9-.12V187.2l-.27-1.24-3.44.28-.4-.17.23-.62v-3.27l-.23-2.98 19.1 1.01 1.01 1.64 2.93 3.66Zm-9.12 29.96 3.2-.22-.78-9.86-.34-2.3.5-.18-.61-5.63v-4l.56-7.38h-6.53l.4 3.55v26.02h3.6Z"/></g><defs><filter id="a" width="367.86" height="49.04" x="59.52" y="178.3" color-interpolation-filters="sRGB" filterUnits="userSpaceOnUse"><feFlood flood-opacity="0" result="BackgroundImageFix"/><feColorMatrix in="SourceAlpha" result="hardAlpha" values="0 0 0 0 0 0 0 0 0 0 0 0 0 0 0 0 0 0 127 0"/><feOffset dy="4.99"/><feComposite in2="hardAlpha" operator="out"/><feColorMatrix values="0 0 0 0 0 0 0 0 0 0 0 0 0 0 0 0 0 0 0.63 0"/><feBlend in2="BackgroundImageFix" result="effect1_dropShadow_623_4999"/><feBlend in="SourceGraphic" in2="effect1_dropShadow_623_4999" result="shape"/></filter></defs></svg>