<svg width="487" height="220" viewBox="0 0 487 220" fill="none" xmlns="http://www.w3.org/2000/svg">
<path d="M76.8587 10.1414V21.6391H55.5458V108.713L44.4688 107.732L41.9449 108.853L39.2808 108.713V79.1276L39.0004 77.8657L39.5612 77.0244L38.4395 64.5452L37.8786 63.8441L39.2808 60.4789V21.6391H18.1082V4.2523H76.5782V7.47727L76.1576 8.73922L76.8587 10.1414ZM157.211 24.7238L158.052 25.2847L157.491 27.6684V41.9704L145.012 42.9519L146.694 54.4496L147.255 54.8703L152.864 80.9504L152.443 82.633L157.211 106.049H144.311L129.308 42.5313L127.345 42.9519H122.858L120.614 42.5313L119.072 43.2323L120.334 72.5375L119.492 74.5005L120.334 77.5853V79.1276L119.913 80.3896L120.754 85.1569L119.492 85.9982L120.754 87.821L119.352 93.009V101.562L119.773 105.348H104.91L105.331 100.861V54.029L103.648 32.2955L104.209 19.5358V4.53273L104.489 2.4295H156.369L157.631 4.11208L157.211 5.65446V24.7238ZM142.207 25.8456L142.488 21.9195L142.207 18.6945H118.791V25.2847L142.207 25.8456ZM240.226 98.6176L240.787 106.189L240.226 106.75H237.142L229.71 105.628L227.887 105.909L224.943 102.824L225.223 97.4959L224.102 96.7948V95.6731L224.803 94.972L222.279 90.9058L222.98 88.8025L218.493 89.9243L214.988 89.6438L204.612 90.0645L203.209 88.2417L201.667 92.3079L199.424 101.422L198.863 106.33L184.981 105.068L190.31 60.8995L196.479 28.2292L197.881 23.8825V17.9935L198.863 16.8717V12.8055L200.265 10.1414L201.106 3.69144L220.596 4.53273L221.157 9.86094L222.279 13.5066L223.681 16.3109L224.382 16.8717V22.6206L226.065 25.4249L225.784 28.5097L226.766 28.3694L229.71 42.8117L230.972 44.4943L232.795 55.2909L234.618 62.0213L234.197 63.143L237.001 73.6592L237.843 78.707L238.123 83.6145L239.525 86.2786V86.9797L238.824 88.1014L239.385 89.6438L240.226 98.6176ZM219.895 72.1168L213.305 29.9118H211.622L207.977 63.143H209.239V63.9843L206.995 68.8919L205.733 73.3788L208.678 72.8179L219.895 72.1168ZM296.783 4.39252L311.366 3.27079L303.934 58.3757L303.093 59.4974L298.886 77.3048V81.9319L293.418 107.451H271.685L271.404 102.123L269.581 91.4666L268.039 86.2786L268.74 85.2971L262.15 49.2616L262.29 47.7193L259.065 29.0705L259.346 25.0043L256.541 11.6837L255.84 3.97187H267.899L282.762 90.3449L288.09 55.5713L296.783 9.86094V4.39252ZM388.923 92.5884V107.171L383.455 106.89L381.351 107.311L380.089 106.47L374.621 107.311H339.567V101.001L338.445 96.0938V4.53273L337.183 3.97187H384.997L387.941 5.0936V19.9565L385.698 18.975H358.777L353.028 19.2554L352.186 20.0967V29.9118L352.887 35.24V44.9149L354.009 45.8964H368.031L377.145 44.9149L377.425 50.9442L376.864 51.5051L377.566 61.4604H352.186L353.869 70.5745V82.0722L353.448 86.5591L354.009 92.5884H388.923ZM461.379 85.9982V105.488H411.322V4.95338L410.2 3.27079H426.465L428.148 36.9226V65.6669L427.166 87.9612L428.288 88.9427L461.379 85.9982Z" fill="white"/>
<path fill-rule="evenodd" clip-rule="evenodd" d="M477.782 132.056H10.7423L-0.0078125 145.562L22.4829 141.107L7.22134 151.935L-0.0078125 178.704L22.4829 163.408L-0.0078125 188.902L20.8764 183.803L5.61486 200.374L19.2699 209.297L9.44459 219.691H477.284L484.296 211.672H464.215L479.476 200.372L486.705 173.603L464.215 188.899L486.705 163.406L465.821 168.504L481.083 151.933L467.428 143.011L477.782 132.056Z" fill="#FA6400"/>
<g filter="url(#filter0_d_979_3531)">
<path d="M70.4836 155.33H77.5442L77.1488 157.929V196.451H59.9209L55.3456 196.79V190.69L55.1197 190.012L55.7975 185.267V155.33H61.3895V173.914L62.0673 182.274L61.8414 182.556L61.3895 190.577H69.9752L70.4836 189.899V155.33ZM106.769 180.41L106.825 181.991L106.656 182.217V190.916L106.204 191.085V194.248L106.43 195.887H101.459L91.2353 170.016V195.717H85.6998L85.0785 192.159L85.4174 191.82L84.4571 181.709L84.7396 180.579V156.516L84.4571 154.822H88.8065L89.0889 154.539L89.7667 154.822L91.0659 154.539L92.1956 159.002L92.9864 159.793L94.7374 164.368L95.3587 164.707L95.0763 165.046L96.0366 166.966L95.8671 167.305L100.499 178.941L100.951 179.562V176.625L99.9905 166.797L100.273 166.458V161.092L99.8211 160.809L100.273 160.414V154.822H106.204V168.548L106.656 169L106.317 169.847L106.769 170.525V180.41ZM120.474 157.364V158.211L120.418 158.889L119.006 164.933L114.374 164.481L112.905 157.081V156.516L113.753 155.217L114.939 154.088L116.294 153.353H117.594L118.893 154.201L119.91 155.613L120.474 157.364ZM147.106 178.32V195.209L146.711 195.604L141.684 195.152H129.426L127.054 195.265L126.715 192.836L126.263 187.301V182.556L126.037 181.426L126.32 178.489L125.981 177.472V172.05L126.546 170.129V164.594L125.868 163.803L126.263 163.464V153.975H144.847L145.864 153.805L146.88 154.765L146.541 156.065V171.485L145.073 171.259L144.056 170.751L143.548 170.807L143.265 170.355L142.249 170.638H141.627L140.441 170.299V163.125L140.667 162.165V159.623H131.855V162.617L132.646 170.864L132.307 171.654V184.251L132.025 184.533L132.477 184.985L132.138 185.945V186.905L132.477 187.075L132.307 189.334L134.171 189.617H141.401V179.788L147.106 178.32ZM178.182 196.338H169.54L170.161 195.491L170.444 194.248L169.314 177.981H162.536L161.858 178.489L162.592 196.734L161.575 196.338H155.531L153.95 168.096V153.466H161.011L162.084 170.525H169.879L170.387 169.79V168.378L169.766 164.65V155.387L169.54 153.24L171.856 153.353L176.431 152.958L176.77 153.749L176.657 155.161L177.278 161.657L177.956 176.399V187.64L177.674 194.531L178.069 195.435L178.182 196.338ZM205.913 193.119L206.139 196.169L205.913 196.395H204.67L201.676 195.943L200.942 196.056L199.756 194.813L199.869 192.667L199.417 192.384V191.933L199.699 191.65L198.683 190.012L198.965 189.165L197.157 189.617L195.745 189.504L191.565 189.673L191.001 188.939L190.379 190.577L189.476 194.248L189.25 196.225L183.658 195.717L185.804 177.924L188.289 164.763L188.854 163.012V160.64L189.25 160.188V158.55L189.814 157.477L190.153 154.878L198.005 155.217L198.231 157.364L198.683 158.832L199.247 159.962L199.53 160.188V162.504L200.208 163.634L200.095 164.876L200.49 164.82L201.676 170.638L202.185 171.316L202.919 175.665L203.653 178.376L203.484 178.828L204.614 183.064L204.952 185.098L205.065 187.075L205.63 188.148V188.431L205.348 188.882L205.574 189.504L205.913 193.119ZM197.722 182.443L195.068 165.441H194.39L192.921 178.828H193.429V179.167L192.526 181.144L192.017 182.951L193.204 182.726L197.722 182.443ZM213.366 154.935H220.144V191.142L219.636 197.129L212.801 196.225V155.669L212.292 155.5L213.366 154.935ZM250.283 168.548L250.848 179.393L251.074 179.619L250.791 180.466L250.961 180.636L250.622 186.341L251.017 186.962L250.622 187.131V187.753L251.074 187.979L250.622 188.543L250.339 189.673L250.113 196.112H243.674L243.335 195.435L243.505 194.926L241.415 190.577L238.534 183.855L235.427 175.778L234.241 171.993V175.947L234.58 176.738L234.297 178.376L234.749 181.765L234.693 182.217L234.862 182.613L234.41 195.435L233.45 195.717H231.247L230.965 195.435L230.513 195.604H229.27L228.423 195.435L227.463 168.717V160.809L228.141 154.539L229.553 154.822H232.433L233.394 154.483L237.63 163.86L237.969 164.085L237.856 164.311L238.477 165.667L238.534 166.345L240.454 170.355L243.561 179.336L243.843 179.619L242.827 156.008L243.335 154.652H249.266L249.944 161.713V163.351L250.396 167.588L250.622 167.813V168.378L250.283 168.548ZM278.082 186.679L277.404 192.272L277.574 194.757H257.917L257.013 176.173V162.447L256.279 161.261L256.731 160.696V154.427H276.387L276.613 155.104V157.759L276.444 158.324L277.122 161.261H273.168L263.452 161.77L263 162.052L262.944 163.069L262.323 163.408L263 170.638L266.502 170.412L268.536 170.638L272.32 171.429V173.744L271.925 175.326L272.32 176.117V177.303L263 177.811L262.774 178.376L262.492 180.353V181.935L262.774 182.5V187.414L263.452 187.753H272.659L274.015 187.357L278.082 186.679ZM305.71 160.188V191.537L305.258 191.933L303.507 194.248L302.264 196.225L297.745 196H282.946L283.285 195.774V192.497L282.946 189.617L283.342 189.673L284.019 189.447L284.81 189.899L286.731 189.786V161.883L286.448 160.64L283.003 160.922L282.607 160.753L282.833 160.132V156.855L282.607 153.862L301.756 154.878L302.773 156.516L305.71 160.188ZM296.559 190.238L299.779 190.012L298.988 180.127L298.649 177.811L299.157 177.642L298.536 171.993V167.983L299.101 160.583H292.549L292.944 164.142V190.238H296.559ZM349.105 195.265H329.222V187.979L336.339 182.387L342.157 176.004L341.705 170.129V162.56L340.632 161.544H335.605L334.757 161.939L334.531 164.876V168.152L335.266 173.744V174.987L334.983 176.117L335.209 176.738V180.014H334.249L331.82 180.41L328.77 181.2L328.036 165.215V160.244L327.81 158.832L328.149 158.606L330.408 154.765L332.95 155.048H337.808L338.824 154.765L343.513 155.048L344.134 154.822L344.586 154.935L346.111 156.347L347.749 158.155V164.65L347.523 165.385V165.893L348.201 166.232L347.918 166.966V174.761L348.201 180.918L346.337 182.274L341.874 185.098L341.423 185.154L340.293 186.284L337.525 188.374L337.638 188.882L337.921 189.108H348.37V193.853L349.105 195.265ZM376.937 192.215L373.548 196.621H359.088L358.297 194.587L358.184 195.096L356.659 193.514L355.868 192.893V174.422L355.077 161.035V158.832L357.054 156.573L357.732 155.443V154.935H372.418L376.146 159.341V186.397L376.937 192.215ZM361.347 190.351H371.741L371.119 179.054L370.78 178.376L370.498 173.349V160.922H364.567L360.444 161.148L360.67 162.843V168.548L360.895 173.688V188.148L361.404 190.125L361.347 190.351ZM403.648 195.265H383.765V187.979L390.882 182.387L396.7 176.004L396.248 170.129V162.56L395.175 161.544H390.148L389.3 161.939L389.075 164.876V168.152L389.809 173.744V174.987L389.526 176.117L389.752 176.738V180.014H388.792L386.363 180.41L383.313 181.2L382.579 165.215V160.244L382.353 158.832L382.692 158.606L384.951 154.765L387.493 155.048H392.351L393.367 154.765L398.056 155.048L398.677 154.822L399.129 154.935L400.654 156.347L402.292 158.155V164.65L402.066 165.385V165.893L402.744 166.232L402.461 166.966V174.761L402.744 180.918L400.88 182.274L396.418 185.098L395.966 185.154L394.836 186.284L392.068 188.374L392.181 188.882L392.464 189.108H402.913V193.853L403.648 195.265ZM430.577 184.759V190.012H426.623L426.397 194.926L426.679 195.887L425.21 196.056H420.918V195.209L421.257 194.757V190.633L421.031 190.238H409.338V181.539L419.788 156.573H425.945L425.719 157.194V181.313L426.849 184.477L430.577 184.759ZM414.648 184.815H420.635V175.495L420.183 175.044L420.353 173.688L420.183 172.445L420.353 171.88V169.847L414.648 184.815Z" fill="white"/>
</g>
<defs>
<filter id="filter0_d_979_3531" x="55.1191" y="152.958" width="375.457" height="49.1789" filterUnits="userSpaceOnUse" color-interpolation-filters="sRGB">
<feFlood flood-opacity="0" result="BackgroundImageFix"/>
<feColorMatrix in="SourceAlpha" type="matrix" values="0 0 0 0 0 0 0 0 0 0 0 0 0 0 0 0 0 0 127 0" result="hardAlpha"/>
<feOffset dy="5.00771"/>
<feComposite in2="hardAlpha" operator="out"/>
<feColorMatrix type="matrix" values="0 0 0 0 0 0 0 0 0 0 0 0 0 0 0 0 0 0 0.63 0"/>
<feBlend mode="normal" in2="BackgroundImageFix" result="effect1_dropShadow_979_3531"/>
<feBlend mode="normal" in="SourceGraphic" in2="effect1_dropShadow_979_3531" result="shape"/>
</filter>
</defs>
</svg>
