<svg xmlns="http://www.w3.org/2000/svg" fill="none" viewBox="0 0 487 220">
  <g clip-path="url(#a)">
    <path fill="#fff" d="M76.9 10.1v11.5H55.5v87.1l-11-1-2.6 1.2-2.6-.2V79.1L39 78l.6-.9-1.2-12.5-.5-.7 1.4-3.3V21.6H18V4.3h58.5v3.2l-.4 1.2.7 1.4Zm80.3 14.6.9.6-.6 2.4V42L145 43l1.7 11.4.6.5 5.6 26-.5 1.7 4.8 23.4h-12.9l-15-63.5-2 .5H123l-2.3-.5-1.5.7 1.2 29.3-.8 2 .8 3v1.6l-.4 1.3.9 4.8-1.3.8 1.3 1.8-1.4 5.2v8.6l.4 3.7h-14.9l.4-4.4V54l-1.7-21.7.6-12.8v-15l.3-2h51.9l1.2 1.6-.4 1.6v19Zm-15 1.1.3-3.9-.3-3.2h-23.4v6.6l23.4.5Zm98 72.8.6 7.6-.6.5h-3l-7.5-1-1.8.2-3-3 .3-5.4-1.1-.7v-1.1l.7-.7-2.5-4 .7-2.2-4.5 1.1-3.5-.3-10.4.5-1.4-1.9-1.5 4.1-2.3 9.1-.5 5-14-1.3 5.4-44.2 6.2-32.7 1.4-4.3v-6l1-1v-4l1.4-2.8.8-6.4 19.5.8.6 5.4 1 3.6 1.5 2.8.7.6v5.7l1.7 2.8-.3 3.1 1-.1 3 14.4 1.2 1.7 1.8 10.8 1.8 6.7-.4 1.1 2.8 10.6.8 5 .3 5 1.4 2.6v.7l-.7 1.1.6 1.5.8 9ZM220 72.1 213.3 30h-1.7L208 63.1h1.2v.9l-2.2 4.9-1.3 4.5 3-.6 11.2-.7Zm76.9-67.7 14.6-1.1-7.5 55-.8 1.2-4.2 17.8v4.6l-5.5 25.6h-21.7l-.3-5.4-1.8-10.6-1.6-5.2.7-1-6.6-36 .2-1.6-3.2-18.6.2-4.1-2.8-13.3-.7-7.7H268l14.9 86.3 5.3-34.7 8.7-45.7V4.4Zm92.1 88.2v14.6l-5.4-.3-2.1.4-1.3-.8-5.5.8h-35V101l-1.2-5V4.6l-1.2-.5H385l3 1v15l-2.3-1h-27l-5.7.3-.8.8v9.8l.7 5.3V45l1.1 1h14l9.1-1 .3 6-.5.6.7 10h-25.4l1.7 9v11.6l-.5 4.5.6 6h35Zm72.5-6.6v19.5h-50V5l-1.2-1.7h16.3l1.6 33.6v28.8l-1 22.3 1.2 1 33-3Z"/>
    <path fill="#FA6400" fill-rule="evenodd" d="M477.8 132h-467L0 145.7l22.5-4.5L7.2 152 0 178.7l22.5-15.3L0 189l20.9-5.1-15.3 16.6 13.7 8.9-9.9 10.4h467.9l7-8h-20l15.2-11.3 7.2-26.8-22.5 15.3 22.5-25.5-20.9 5.1 15.3-16.6-13.7-8.9 10.4-11Z" clip-rule="evenodd"/>
    <g fill="#fff" filter="url(#b)">
      <path d="M70.5 155.3h7l-.4 2.6v38.6H60l-4.6.3v-6.1l-.2-.7.7-4.7v-30h5.6V174l.7 8.4-.3.3-.4 8H70l.5-.7v-34.6Zm36.3 25.1v1.6l-.1.2v8.7l-.5.2v3.1l.2 1.7h-5L91.3 170v25.7h-5.5l-.6-3.5.3-.4-1-10 .3-1.2v-24l-.2-1.8h4.3l.3-.3.7.3 1.3-.3 1.1 4.5.8.8 1.7 4.6.7.3-.3.3 1 2-.2.3 4.6 11.6.5.7v-3l-1-9.8.3-.3V161l-.5-.3.5-.4v-5.6h5.9v13.7l.5.5-.4.8.5.7v10Zm13.7-23v1.5l-1.5 6-4.6-.4-1.5-7.4v-.6l.9-1.3 1.1-1.1 1.4-.7h1.3l1.3.8 1 1.4.6 1.8Zm26.6 21v16.8l-.4.4-5-.4H127l-.4-2.4-.4-5.5v-4.7l-.3-1.2.3-3-.3-1v-5.3l.5-2v-5.5l-.6-.8.4-.3V154h18.5l1-.2 1 1-.3 1.3v15.4l-1.4-.2-1-.5h-.6l-.2-.4-1 .2h-.7l-1.2-.3v-7.2l.3-1v-2.5h-8.8v3l.7 8.3-.3.8v12.6l-.3.2.5.5-.4 1v1h.4l-.2 2.3 1.9.3h7.2v-9.8l5.7-1.5Zm31 18h-8.6l.7-1 .2-1.2-1-16.2h-6.9l-.6.5.7 18.2-1-.4h-6l-1.7-28.2v-14.6h7.1l1 17h7.9l.5-.7v-1.4l-.6-3.8v-9.2l-.3-2.2 2.4.2 4.5-.4.4.7-.1 1.5.6 6.5.7 14.7v11.2l-.3 7 .4.8v1ZM206 193l.2 3-.2.3h-1.2l-3-.5-.8.2-1.1-1.3v-2.1l-.4-.3v-.5l.3-.3-1-1.6.3-.8-1.8.4-1.5-.1-4.1.2-.6-.8-.6 1.7-1 3.6-.2 2-5.5-.5 2.1-17.8 2.5-13.1.6-1.8v-2.4l.3-.4v-1.6l.6-1.1.4-2.6 7.8.3.2 2.2.5 1.4.5 1.2.3.2v2.3l.7 1.1-.1 1.3h.4l1.2 5.7.5.7.7 4.4.8 2.7-.2.4 1.1 4.3.4 2v2l.6 1v.3l-.3.5.3.6.3 3.6Zm-8.2-10.7-2.6-17h-.7l-1.5 13.4h.5v.4l-.9 2-.5 1.8 1.2-.3 4.5-.3Zm15.7-27.5h6.7v36.2l-.5 6-6.8-.9v-40.5l-.5-.2 1-.6Zm36.9 13.6.5 10.9.3.2-.3.9.2.1-.4 5.7.4.7-.4.1v.7l.5.2-.5.5-.3 1.2-.2 6.4h-6.4l-.4-.7.2-.5-2-4.3-3-6.7-3-8.1-1.3-3.8v4l.4.7-.3 1.7.4 3.4v.4l.2.4-.5 12.8-1 .3h-2.2l-.2-.3-.5.2h-1.2l-.9-.2-1-26.7v-7.9l.7-6.3 1.5.3h2.8l1-.3 4.2 9.4.4.2-.1.2.6 1.4v.6l2 4 3 9 .3.3-1-23.6.5-1.3h6l.6 7v1.7l.5 4.2.2.2v.6l-.3.1Zm27.8 18.2-.7 5.6.2 2.5h-19.7l-.9-18.6v-13.8l-.7-1.1.4-.6v-6.3h19.7l.2.7v2.7l-.2.5.7 3h-4l-9.6.5-.5.3v1l-.7.3.7 7.2 3.5-.2 2 .2 3.8.8v2.3l-.4 1.6.4.8v1.2l-9.3.5-.2.6-.3 2v1.5l.3.6v5l.7.3h9.2l1.3-.4 4-.7Zm27.6-26.5v31.3l-.4.4-1.8 2.3-1.2 2-4.6-.2H283l.4-.2v-3.3l-.4-2.9h.4l.7-.2.8.5 2-.1v-28l-.4-1.2-3.4.3-.4-.1.2-.7V157l-.2-3 19.2 1 1 1.6 3 3.7Zm-9.1 30 3.2-.2-.8-9.9-.4-2.3.6-.2-.7-5.6v-4l.6-7.4h-6.6l.4 3.5v26.1h3.7Zm52.5 5h-19.9V188l7.1-5.6 5.9-6.4-.5-5.9v-7.5l-1-1h-5l-1 .3-.2 3v3.3l.8 5.5v1.3l-.3 1.1.2.6v3.3h-1l-2.4.4-3 .8-.8-16v-5l-.2-1.4.3-.2 2.3-3.8 2.6.2h4.8l1-.2 4.7.2.6-.2.5.1 1.5 1.4 1.6 1.9v6.5l-.2.7v.5l.7.3-.3.8v7.8l.3 6.1-1.9 1.4-4.4 2.8h-.5l-1.1 1.2-2.8 2 .1.6.3.2h10.5v4.8l.7 1.4Zm27.8-3-3.4 4.4h-14.4l-.8-2-.1.5-1.5-1.6-.8-.6v-18.5L355 161v-2.2l2-2.2.6-1.2v-.5h14.7l3.7 4.4v27.1l.8 5.8Zm-15.6-1.8h10.4l-.6-11.3-.3-.7-.3-5v-12.5h-6l-4 .2.2 1.7v5.7l.2 5.2V188l.5 2v.3Zm42.3 4.9h-19.8V188l7-5.6 5.9-6.4-.5-5.9v-7.5l-1-1h-5l-.9.3-.2 3v3.3l.7 5.5v1.3l-.3 1.1.3.6v3.3h-1l-2.4.4-3 .8-.8-16v-5l-.2-1.4.3-.2 2.3-3.8 2.5.2h4.9l1-.2 4.7.2.6-.2.4.1 1.6 1.4 1.6 1.9v6.5l-.2.7v.5l.6.3-.2.8v7.8l.2 6.1-1.8 1.4-4.5 2.8h-.4l-1.2 1.2-2.7 2v.6l.4.2h10.4v4.8l.7 1.4ZM430 174.8v16l-2.9 4.8h-13.5L410 192l-.5-5.5-.2-4.8.2-3 3 .2h2l1.2-.5v10l1 1h5.1l1-.5.7-.5v-.6l-.6-.5v-15l-.9-.9h-6.4l-.5.3-5.6-.4-.4.1-1-15.6 1 .4.6-.7 2.2.1.7-.4h1.2l1 .3.2-.2h4.6l.4.4 2-.5h6.6l.5.4v.9l-.4.7v4.9l-1.2-.3-4-.1-3.2.1h-4.7l-1 .5v1.1l.3 2 .6.7h1l.4-.4.3.1h7.2l2.4-.6v1l2.8 2.3-.2.6v1.2l.2 1.7-.1 2.3-.6.5.2.2h.8Z"/>
    </g>
  </g>
  <defs>
    <clipPath id="a">
      <path fill="#fff" d="M0 0h487v220H0z"/>
    </clipPath>
    <filter id="b" width="374.8" height="49.2" x="55.1" y="153" color-interpolation-filters="sRGB" filterUnits="userSpaceOnUse">
      <feFlood flood-opacity="0" result="BackgroundImageFix"/>
      <feColorMatrix in="SourceAlpha" result="hardAlpha" values="0 0 0 0 0 0 0 0 0 0 0 0 0 0 0 0 0 0 127 0"/>
      <feOffset dy="5"/>
      <feComposite in2="hardAlpha" operator="out"/>
      <feColorMatrix values="0 0 0 0 0 0 0 0 0 0 0 0 0 0 0 0 0 0 0.63 0"/>
      <feBlend in2="BackgroundImageFix" result="effect1_dropShadow_3697_413"/>
      <feBlend in="SourceGraphic" in2="effect1_dropShadow_3697_413" result="shape"/>
    </filter>
  </defs>
</svg>
