<svg width="65" height="64" viewBox="0 0 65 64" fill="none" xmlns="http://www.w3.org/2000/svg">
<path d="M32.7999 56C22.3158 56 13.4018 49.2776 10.1333 39.908M32.7999 56C43.284 56 52.198 49.2776 55.4666 39.908M32.7999 56C37.4012 51.3987 40.4052 45.8051 41.8119 39.908M32.7999 56C29.8529 53.053 27.5612 49.6989 25.9246 46.1188M32.7999 8C23.3767 8 15.2219 13.4308 11.2946 21.3333C10.8525 22.223 10.464 23.1439 10.1333 24.092M32.7999 8C43.284 8 52.198 14.7224 55.4666 24.092M32.7999 8C28.1987 12.6013 25.1947 18.1949 23.788 24.092M32.7999 8C35.9615 11.1615 38.3689 14.7916 40.0223 18.6667M55.4666 24.092C56.3304 26.5682 56.7999 29.2293 56.7999 32C56.7999 34.7707 56.3304 37.4318 55.4666 39.908M55.4666 24.092H46.1333M10.1333 24.092C9.26945 26.5682 8.79993 29.2293 8.79993 32C8.79993 34.7707 9.26945 37.4318 10.1333 39.908M10.1333 24.092H23.788M10.1333 39.908H18.1333M55.4666 39.908H41.8119M23.788 24.092H35.4666M23.788 24.092C22.961 27.5587 22.686 31.1303 22.9631 34.6667M41.8119 39.908C42.6388 36.4413 42.9138 32.8697 42.6368 29.3333M41.8119 39.908H31.4666" stroke="#FA6400" stroke-width="2" stroke-linecap="round" stroke-linejoin="round"/>
<ellipse cx="40.7999" cy="24" rx="5.33333" ry="5.33333" stroke="#FA6400" stroke-width="2" stroke-linecap="round" stroke-linejoin="round"/>
<ellipse cx="24.7999" cy="40" rx="5.33333" ry="5.33333" stroke="#FA6400" stroke-width="2" stroke-linecap="round" stroke-linejoin="round"/>
</svg>
