<svg width="65" height="64" viewBox="0 0 65 64" fill="none" xmlns="http://www.w3.org/2000/svg">
<path d="M32.4 50.6667C17.6724 50.6667 5.73334 44.6971 5.73334 37.3333C5.73334 35.4371 6.52506 33.6332 7.95224 32M32.4 50.6667L27.0667 45.3333V56L32.4 50.6667ZM43.0667 49.5572C52.4848 47.4997 59.0667 42.8009 59.0667 37.3333C59.0667 35.4371 58.275 33.6332 56.8478 32" stroke="#FA6400" stroke-width="2" stroke-linecap="round" stroke-linejoin="round"/>
<path d="M19.0667 18.6667V34.6667H45.7334V18.6667M19.0667 18.6667L24.4 8H32.4M19.0667 18.6667H32.4M45.7334 18.6667L40.4 8H32.4M45.7334 18.6667H32.4M32.4 18.6667V8" stroke="#FA6400" stroke-width="2" stroke-linecap="round" stroke-linejoin="round"/>
<path d="M27.0667 26.6667H32.4" stroke="#FA6400" stroke-width="2" stroke-linecap="round" stroke-linejoin="round"/>
</svg>
