<svg width="64" height="64" viewBox="0 0 64 64" fill="none" xmlns="http://www.w3.org/2000/svg">
<path d="M8 24.0003C8 20.4448 10.1333 10.667 18.6667 10.667C27.2 10.667 32 15.1114 32 18.667C32 15.1114 36.8 10.667 45.3333 10.667C53.8667 10.667 56 20.4448 56 24.0003C56 29.2157 54.5656 33.6341 52.3982 37.3337" stroke="#FA6400" stroke-width="2" stroke-linecap="round" stroke-linejoin="round"/>
<path d="M18.6667 32H8V56H18.6667V50.6667M18.6667 32H24L40.8484 39.2208C41.9515 39.6935 42.6667 40.7781 42.6667 41.9782V45.3333M18.6667 32V50.6667M42.6667 45.3333H34.6667L28 42.6667M42.6667 45.3333H50.6667C52.4444 45.3333 56 46.4 56 50.6667L37.3333 56L18.6667 50.6667" stroke="#FA6400" stroke-width="2" stroke-linecap="round" stroke-linejoin="round"/>
</svg>
