<svg width="64" height="64" viewBox="0 0 64 64" fill="none" xmlns="http://www.w3.org/2000/svg">
<path d="M45.3333 24.0003L33.2494 33.6675C32.519 34.2518 31.481 34.2518 30.7506 33.6675L18.6667 24.0003M29.3333 50.667L10 50.667C8.89543 50.667 8 49.7716 8 48.667L8 15.3337C8 14.2291 8.89543 13.3337 10 13.3337L54 13.3337C55.1046 13.3337 56 14.2291 56 15.3337L56 32.0003" stroke="white" stroke-width="2" stroke-linecap="round" stroke-linejoin="round"/>
<path d="M58.6666 45.3333C58.6666 48.5333 51.5555 55.5556 47.9999 58.6667C44.4444 55.5556 37.3333 48.5333 37.3333 45.3333C37.3333 43.5556 38.3999 40 42.6666 40C46.9333 40 47.9999 43.5556 47.9999 45.3333C47.9999 43.5556 49.0666 40 53.3333 40C57.5999 40 58.6666 43.5556 58.6666 45.3333Z" stroke="white" stroke-width="2" stroke-linecap="round" stroke-linejoin="round"/>
</svg>
