<svg width="64" height="64" viewBox="0 0 64 64" fill="none" xmlns="http://www.w3.org/2000/svg">
<path d="M40 5.33301H34C32.8954 5.33301 32 6.22844 32 7.33301V27.333C32 28.4376 32.8954 29.333 34 29.333H56.6667C57.7712 29.333 58.6667 28.4376 58.6667 27.333V7.33301C58.6667 6.22844 57.7712 5.33301 56.6667 5.33301H50.6667M40 5.33301H50.6667M40 5.33301V13.333H50.6667V5.33301M40 21.333H45.3333" stroke="#FA6400" stroke-width="2" stroke-linecap="round" stroke-linejoin="round"/>
<path d="M15.9999 58.6663H7.33325C6.22868 58.6663 5.33325 57.7709 5.33325 56.6663V40.9609C5.33325 40.3534 5.60943 39.7787 6.08386 39.3992L17.4172 30.3325C18.1476 29.7482 19.1855 29.7482 19.916 30.3325L31.2493 39.3992C31.7237 39.7787 31.9999 40.3534 31.9999 40.9609V56.6663C31.9999 57.7709 31.1045 58.6663 29.9999 58.6663H21.3333M15.9999 58.6663V52.6663C15.9999 51.5618 16.8953 50.6663 17.9999 50.6663H19.3333C20.4378 50.6663 21.3333 51.5618 21.3333 52.6663V58.6663M15.9999 58.6663H21.3333" stroke="#FA6400" stroke-width="2" stroke-linecap="round" stroke-linejoin="round"/>
<path d="M42.6667 56C45.3334 56 50.6667 51.7333 50.6667 45.3333M50.6667 45.3333H45.3334L50.6667 40L56.0001 45.3333H50.6667Z" stroke="#FA6400" stroke-width="2" stroke-linecap="round" stroke-linejoin="round"/>
<path d="M18.6667 8C16.0001 8 10.6667 12.2667 10.6667 18.6667M10.6667 18.6667H16.0001L10.6667 24L5.33342 18.6667H10.6667Z" stroke="#FA6400" stroke-width="2" stroke-linecap="round" stroke-linejoin="round"/>
</svg>
